<svg width="1412" height="356" viewBox="0 0 1412 356" fill="none" xmlns="http://www.w3.org/2000/svg">
<rect x="178" y="2" width="176" height="352" rx="6" fill="white" stroke="#CCCCCC" stroke-width="4" stroke-miterlimit="0" stroke-linecap="round"/>
<rect x="354" y="2" width="176" height="352" rx="6" fill="white" stroke="#CCCCCC" stroke-width="4" stroke-miterlimit="0" stroke-linecap="round"/>
<rect x="530" y="2" width="176" height="352" rx="6" fill="white" stroke="#CCCCCC" stroke-width="4" stroke-miterlimit="0" stroke-linecap="round"/>
<rect x="882" y="2" width="176" height="352" rx="6" fill="white" stroke="#CCCCCC" stroke-width="4" stroke-miterlimit="0" stroke-linecap="round"/>
<rect x="1234" y="2" width="176" height="352" rx="6" fill="white" stroke="#CCCCCC" stroke-width="4" stroke-miterlimit="0" stroke-linecap="round"/>
<rect x="1058" y="2" width="176" height="352" rx="6" fill="white" stroke="#CCCCCC" stroke-width="4" stroke-miterlimit="0" stroke-linecap="round"/>
<rect x="706" y="2" width="176" height="352" rx="6" fill="white" stroke="#CCCCCC" stroke-width="4" stroke-miterlimit="0" stroke-linecap="round"/>
<rect x="2" y="2" width="176" height="352" rx="6" fill="#D7191C" stroke="#888888" stroke-width="4" stroke-miterlimit="0" stroke-linecap="round"/>
<path d="M27.1523 79.9375V97H23.6484V79.9375H27.1523ZM32.4023 79.9375V82.6914H18.4805V79.9375H32.4023ZM36.779 95.5703L40.1423 84.3203H43.7633L38.6657 98.9102C38.5563 99.2305 38.4079 99.5742 38.2204 99.9414C38.0407 100.309 37.7946 100.656 37.4821 100.984C37.1774 101.32 36.7907 101.594 36.3219 101.805C35.861 102.016 35.2946 102.121 34.6227 102.121C34.3024 102.121 34.0407 102.102 33.8376 102.062C33.6344 102.023 33.3923 101.969 33.111 101.898V99.4258C33.1969 99.4258 33.2868 99.4258 33.3805 99.4258C33.4743 99.4336 33.5641 99.4375 33.6501 99.4375C34.0954 99.4375 34.4587 99.3867 34.7399 99.2852C35.0212 99.1836 35.2477 99.0273 35.4196 98.8164C35.5915 98.6133 35.7282 98.3477 35.8298 98.0195L36.779 95.5703ZM35.3727 84.3203L38.1266 93.5078L38.6071 97.082L36.3102 97.3281L31.7516 84.3203H35.3727ZM48.222 86.7578V101.875H44.847V84.3203H47.9759L48.222 86.7578ZM56.2493 90.5195V90.7656C56.2493 91.6875 56.14 92.543 55.9212 93.332C55.7103 94.1211 55.3978 94.8086 54.9837 95.3945C54.5697 95.9727 54.054 96.4258 53.4368 96.7539C52.8275 97.0742 52.1243 97.2344 51.3275 97.2344C50.554 97.2344 49.8822 97.0781 49.3118 96.7656C48.7415 96.4531 48.2611 96.0156 47.8704 95.4531C47.4876 94.8828 47.179 94.2227 46.9447 93.4727C46.7103 92.7227 46.5306 91.918 46.4056 91.0586V90.4141C46.5306 89.4922 46.7103 88.6484 46.9447 87.8828C47.179 87.1094 47.4876 86.4414 47.8704 85.8789C48.2611 85.3086 48.7376 84.8672 49.3001 84.5547C49.8704 84.2422 50.5384 84.0859 51.304 84.0859C52.1087 84.0859 52.8158 84.2383 53.4251 84.543C54.0423 84.8477 54.5579 85.2852 54.972 85.8555C55.3939 86.4258 55.7103 87.1055 55.9212 87.8945C56.14 88.6836 56.2493 89.5586 56.2493 90.5195ZM52.8626 90.7656V90.5195C52.8626 89.9805 52.8158 89.4844 52.722 89.0312C52.6361 88.5703 52.4954 88.168 52.3001 87.8242C52.1126 87.4805 51.8626 87.2148 51.5501 87.0273C51.2454 86.832 50.8743 86.7344 50.4368 86.7344C49.9759 86.7344 49.5814 86.8086 49.2533 86.957C48.9329 87.1055 48.6712 87.3203 48.4681 87.6016C48.265 87.8828 48.1126 88.2188 48.0111 88.6094C47.9095 89 47.847 89.4414 47.8236 89.9336V91.5625C47.8626 92.1406 47.972 92.6602 48.1517 93.1211C48.3314 93.5742 48.6087 93.9336 48.9837 94.1992C49.3587 94.4648 49.8509 94.5977 50.4603 94.5977C50.9056 94.5977 51.2806 94.5 51.5853 94.3047C51.89 94.1016 52.1361 93.8242 52.3236 93.4727C52.5189 93.1211 52.6556 92.7148 52.7337 92.2539C52.8197 91.793 52.8626 91.2969 52.8626 90.7656ZM63.9189 97.2344C62.9346 97.2344 62.0518 97.0781 61.2705 96.7656C60.4893 96.4453 59.8252 96.0039 59.2783 95.4414C58.7393 94.8789 58.3252 94.2266 58.0361 93.4844C57.7471 92.7344 57.6025 91.9375 57.6025 91.0938V90.625C57.6025 89.6641 57.7393 88.7852 58.0127 87.9883C58.2861 87.1914 58.6768 86.5 59.1846 85.9141C59.7002 85.3281 60.3252 84.8789 61.0596 84.5664C61.7939 84.2461 62.6221 84.0859 63.5439 84.0859C64.4424 84.0859 65.2393 84.2344 65.9346 84.5312C66.6299 84.8281 67.2119 85.25 67.6807 85.7969C68.1572 86.3438 68.5166 87 68.7588 87.7656C69.001 88.5234 69.1221 89.3672 69.1221 90.2969V91.7031H59.0439V89.4531H65.8057V89.1953C65.8057 88.7266 65.7197 88.3086 65.5478 87.9414C65.3838 87.5664 65.1338 87.2695 64.7978 87.0508C64.4619 86.832 64.0322 86.7227 63.5088 86.7227C63.0635 86.7227 62.6807 86.8203 62.3603 87.0156C62.04 87.2109 61.7783 87.4844 61.5752 87.8359C61.3799 88.1875 61.2314 88.6016 61.1299 89.0781C61.0361 89.5469 60.9893 90.0625 60.9893 90.625V91.0938C60.9893 91.6016 61.0596 92.0703 61.2002 92.5C61.3486 92.9297 61.5557 93.3008 61.8213 93.6133C62.0947 93.9258 62.4228 94.168 62.8057 94.3398C63.1963 94.5117 63.6377 94.5977 64.1299 94.5977C64.7393 94.5977 65.3057 94.4805 65.8291 94.2461C66.3603 94.0039 66.8174 93.6406 67.2002 93.1562L68.8408 94.9375C68.5752 95.3203 68.2119 95.6875 67.751 96.0391C67.2978 96.3906 66.751 96.6797 66.1103 96.9062C65.4697 97.125 64.7393 97.2344 63.9189 97.2344ZM70.9088 95.3711C70.9088 94.8711 71.0807 94.4531 71.4245 94.1172C71.776 93.7812 72.2409 93.6133 72.819 93.6133C73.3971 93.6133 73.8581 93.7812 74.2018 94.1172C74.5534 94.4531 74.7292 94.8711 74.7292 95.3711C74.7292 95.8711 74.5534 96.2891 74.2018 96.625C73.8581 96.9609 73.3971 97.1289 72.819 97.1289C72.2409 97.1289 71.776 96.9609 71.4245 96.625C71.0807 96.2891 70.9088 95.8711 70.9088 95.3711ZM70.9088 85.7031C70.9088 85.2031 71.0807 84.7852 71.4245 84.4492C71.776 84.1133 72.2409 83.9453 72.819 83.9453C73.3971 83.9453 73.8581 84.1133 74.2018 84.4492C74.5534 84.7852 74.7292 85.2031 74.7292 85.7031C74.7292 86.2031 74.5534 86.6211 74.2018 86.957C73.8581 87.293 73.3971 87.4609 72.819 87.4609C72.2409 87.4609 71.776 87.293 71.4245 86.957C71.0807 86.6211 70.9088 86.2031 70.9088 85.7031ZM89.1074 95.4766C88.4277 95.4766 87.8574 95.3438 87.3965 95.0781C86.9433 94.8047 86.5801 94.4492 86.3066 94.0117C86.0254 93.582 85.8223 93.0977 85.6973 92.5586C85.5801 92.0117 85.5215 91.4609 85.5215 90.9062V90.4141C85.5215 89.8672 85.5801 89.3242 85.6973 88.7852C85.8223 88.2461 86.0254 87.7578 86.3066 87.3203C86.5879 86.8906 86.9551 86.543 87.4082 86.2773C87.8691 86.0039 88.4355 85.8672 89.1074 85.8672C89.5449 85.8672 89.9512 85.9414 90.3262 86.0898C90.709 86.2383 91.0371 86.4414 91.3105 86.6992C91.584 86.957 91.7988 87.2578 91.9551 87.6016C92.1191 87.9375 92.2051 88.2969 92.2129 88.6797H94.2637C94.2637 88.0391 94.1348 87.4375 93.8769 86.875C93.6191 86.3125 93.2637 85.8242 92.8105 85.4102C92.3496 85.0039 91.8027 84.6836 91.1699 84.4492C90.5449 84.207 89.8574 84.0859 89.1074 84.0859C88.1465 84.0859 87.3066 84.2578 86.5879 84.6016C85.8691 84.9453 85.2715 85.4062 84.7949 85.9844C84.3105 86.5703 83.9473 87.2461 83.7051 88.0117C83.4629 88.7773 83.3418 89.5781 83.3418 90.4141V90.9062C83.3418 91.75 83.4629 92.5547 83.7051 93.3203C83.9473 94.0781 84.3105 94.7461 84.7949 95.3242C85.2715 95.9102 85.8691 96.375 86.5879 96.7188C87.3066 97.0625 88.1465 97.2344 89.1074 97.2344C89.7793 97.2344 90.4238 97.1211 91.041 96.8945C91.6582 96.6602 92.2051 96.3477 92.6816 95.957C93.1582 95.5742 93.5371 95.1289 93.8183 94.6211C94.1074 94.1055 94.2558 93.5664 94.2637 93.0039H92.2129C92.2051 93.3555 92.1113 93.6836 91.9316 93.9883C91.7598 94.2852 91.5293 94.543 91.2402 94.7617C90.9512 94.9883 90.6191 95.1641 90.2441 95.2891C89.8769 95.4141 89.498 95.4766 89.1074 95.4766ZM100.023 86.207V79H97.8551V97H100.023V87.7891C100.179 87.5391 100.355 87.3125 100.55 87.1094C100.754 86.8984 100.972 86.7148 101.207 86.5586C101.504 86.3555 101.828 86.1992 102.179 86.0898C102.531 85.9805 102.902 85.9258 103.293 85.9258C103.769 85.918 104.191 85.9844 104.558 86.125C104.925 86.2578 105.23 86.4609 105.472 86.7344C105.699 86.9844 105.871 87.3008 105.988 87.6836C106.105 88.0586 106.164 88.4961 106.164 88.9961V97H108.332V89.0195C108.332 88.168 108.226 87.4336 108.015 86.8164C107.812 86.1914 107.519 85.6758 107.136 85.2695C106.754 84.8633 106.289 84.5664 105.742 84.3789C105.203 84.1836 104.601 84.0859 103.937 84.0859C103.429 84.0938 102.949 84.168 102.496 84.3086C102.05 84.4492 101.64 84.6562 101.265 84.9297C101.031 85.0938 100.808 85.2852 100.597 85.5039C100.386 85.7148 100.195 85.9492 100.023 86.207ZM120.337 97H122.599V96.8125C122.458 96.4609 122.349 96.0508 122.271 95.582C122.193 95.1055 122.154 94.6562 122.154 94.2344V88.3398C122.154 87.6289 122.025 87.0078 121.767 86.4766C121.509 85.9453 121.158 85.5 120.712 85.1406C120.259 84.7891 119.724 84.5273 119.107 84.3555C118.49 84.1758 117.822 84.0859 117.103 84.0859C116.314 84.0859 115.607 84.1953 114.982 84.4141C114.365 84.6328 113.841 84.918 113.411 85.2695C112.974 85.6289 112.638 86.0312 112.404 86.4766C112.177 86.9219 112.06 87.375 112.052 87.8359H114.232C114.232 87.5703 114.294 87.3164 114.419 87.0742C114.552 86.8242 114.736 86.6094 114.97 86.4297C115.204 86.25 115.49 86.1055 115.826 85.9961C116.169 85.8867 116.556 85.832 116.986 85.832C117.447 85.832 117.861 85.8906 118.228 86.0078C118.603 86.125 118.919 86.2891 119.177 86.5C119.435 86.7188 119.634 86.9805 119.775 87.2852C119.915 87.5898 119.986 87.9336 119.986 88.3164V89.3125H117.618C116.736 89.3125 115.935 89.3984 115.216 89.5703C114.505 89.7422 113.896 90 113.388 90.3438C112.88 90.6953 112.486 91.1328 112.204 91.6562C111.931 92.1797 111.794 92.7891 111.794 93.4844C111.794 94.0156 111.896 94.5117 112.099 94.9727C112.31 95.4258 112.607 95.8164 112.99 96.1445C113.365 96.4805 113.822 96.7461 114.361 96.9414C114.908 97.1367 115.517 97.2344 116.189 97.2344C116.603 97.2344 116.993 97.1914 117.361 97.1055C117.728 97.0195 118.076 96.9023 118.404 96.7539C118.724 96.6055 119.017 96.4336 119.283 96.2383C119.556 96.043 119.802 95.8359 120.021 95.6172C120.044 95.8828 120.079 96.1406 120.126 96.3906C120.181 96.6328 120.251 96.8359 120.337 97ZM116.505 95.3477C116.083 95.3477 115.712 95.293 115.392 95.1836C115.072 95.0742 114.806 94.9219 114.595 94.7266C114.384 94.5391 114.224 94.3125 114.115 94.0469C114.013 93.7812 113.962 93.4922 113.962 93.1797C113.962 92.8516 114.021 92.5586 114.138 92.3008C114.263 92.043 114.443 91.8203 114.677 91.6328C115.005 91.3672 115.447 91.1719 116.001 91.0469C116.564 90.9141 117.22 90.8477 117.97 90.8477H119.986V93.4141C119.861 93.6641 119.689 93.9062 119.47 94.1406C119.251 94.3672 118.993 94.5703 118.697 94.75C118.392 94.9297 118.056 95.0742 117.689 95.1836C117.322 95.293 116.927 95.3477 116.505 95.3477ZM134.464 84.0859C133.542 84.0859 132.718 84.2891 131.991 84.6953C131.272 85.0938 130.655 85.6406 130.14 86.3359L130.128 86.0195L130.034 84.3203H127.972V97H130.151V88.8672C130.292 88.4766 130.468 88.125 130.679 87.8125C130.897 87.4922 131.151 87.2227 131.44 87.0039C131.761 86.7539 132.136 86.5664 132.565 86.4414C132.995 86.3086 133.476 86.2422 134.007 86.2422C134.421 86.2422 134.815 86.2656 135.19 86.3125C135.573 86.3516 135.976 86.418 136.397 86.5117L136.69 84.3906C136.472 84.2969 136.144 84.2227 135.706 84.168C135.276 84.1133 134.862 84.0859 134.464 84.0859ZM25.6758 129.438L29.6953 115.938H33.6094L27.668 133H25.0898L25.6758 129.438ZM21.9727 115.938L25.9805 129.438L26.5898 133H23.9883L18.082 115.938H21.9727ZM41.0329 130.141V124.492C41.0329 124.086 40.9665 123.738 40.8337 123.449C40.7008 123.152 40.4938 122.922 40.2126 122.758C39.9391 122.594 39.5837 122.512 39.1462 122.512C38.7712 122.512 38.4469 122.578 38.1735 122.711C37.9001 122.836 37.6891 123.02 37.5407 123.262C37.3923 123.496 37.318 123.773 37.318 124.094H33.943C33.943 123.555 34.068 123.043 34.318 122.559C34.568 122.074 34.9313 121.648 35.4079 121.281C35.8844 120.906 36.4508 120.613 37.1071 120.402C37.7712 120.191 38.5133 120.086 39.3337 120.086C40.318 120.086 41.193 120.25 41.9587 120.578C42.7243 120.906 43.3258 121.398 43.7633 122.055C44.2087 122.711 44.4313 123.531 44.4313 124.516V129.941C44.4313 130.637 44.4743 131.207 44.5602 131.652C44.6462 132.09 44.7712 132.473 44.9352 132.801V133H41.5251C41.361 132.656 41.236 132.227 41.1501 131.711C41.0719 131.188 41.0329 130.664 41.0329 130.141ZM41.4782 125.277L41.5016 127.188H39.6149C39.1696 127.188 38.7829 127.238 38.4548 127.34C38.1266 127.441 37.8571 127.586 37.6462 127.773C37.4352 127.953 37.279 128.164 37.1774 128.406C37.0837 128.648 37.0368 128.914 37.0368 129.203C37.0368 129.492 37.1032 129.754 37.236 129.988C37.3688 130.215 37.5602 130.395 37.8102 130.527C38.0602 130.652 38.3532 130.715 38.6891 130.715C39.1969 130.715 39.6383 130.613 40.0133 130.41C40.3883 130.207 40.6774 129.957 40.8805 129.66C41.0915 129.363 41.2008 129.082 41.2087 128.816L42.0993 130.246C41.9743 130.566 41.8024 130.898 41.5837 131.242C41.3727 131.586 41.1032 131.91 40.7751 132.215C40.4469 132.512 40.0524 132.758 39.5915 132.953C39.1305 133.141 38.5837 133.234 37.9508 133.234C37.1462 133.234 36.4157 133.074 35.7594 132.754C35.111 132.426 34.5954 131.977 34.2126 131.406C33.8376 130.828 33.6501 130.172 33.6501 129.438C33.6501 128.773 33.7751 128.184 34.0251 127.668C34.2751 127.152 34.6423 126.719 35.1266 126.367C35.6188 126.008 36.2321 125.738 36.9665 125.559C37.7008 125.371 38.5524 125.277 39.5212 125.277H41.4782ZM50.3314 115V133H46.9447V115H50.3314ZM60.3564 129.965V120.32H63.7314V133H60.5557L60.3564 129.965ZM60.7314 127.363L61.7275 127.34C61.7275 128.184 61.6299 128.969 61.4346 129.695C61.2393 130.414 60.9463 131.039 60.5557 131.57C60.165 132.094 59.6728 132.504 59.0791 132.801C58.4853 133.09 57.7861 133.234 56.9814 133.234C56.3643 133.234 55.7939 133.148 55.2705 132.977C54.7549 132.797 54.3096 132.52 53.9346 132.145C53.5674 131.762 53.2783 131.273 53.0674 130.68C52.8643 130.078 52.7627 129.355 52.7627 128.512V120.32H56.1377V128.535C56.1377 128.91 56.1807 129.227 56.2666 129.484C56.3603 129.742 56.4893 129.953 56.6533 130.117C56.8174 130.281 57.0088 130.398 57.2275 130.469C57.4541 130.539 57.7041 130.574 57.9775 130.574C58.6728 130.574 59.2197 130.434 59.6182 130.152C60.0244 129.871 60.3096 129.488 60.4736 129.004C60.6455 128.512 60.7314 127.965 60.7314 127.363ZM71.8815 133.234C70.8971 133.234 70.0143 133.078 69.2331 132.766C68.4518 132.445 67.7878 132.004 67.2409 131.441C66.7018 130.879 66.2878 130.227 65.9987 129.484C65.7096 128.734 65.5651 127.938 65.5651 127.094V126.625C65.5651 125.664 65.7018 124.785 65.9753 123.988C66.2487 123.191 66.6393 122.5 67.1471 121.914C67.6628 121.328 68.2878 120.879 69.0221 120.566C69.7565 120.246 70.5846 120.086 71.5065 120.086C72.4049 120.086 73.2018 120.234 73.8971 120.531C74.5924 120.828 75.1745 121.25 75.6432 121.797C76.1198 122.344 76.4792 123 76.7213 123.766C76.9635 124.523 77.0846 125.367 77.0846 126.297V127.703H67.0065V125.453H73.7682V125.195C73.7682 124.727 73.6823 124.309 73.5104 123.941C73.3463 123.566 73.0963 123.27 72.7604 123.051C72.4245 122.832 71.9948 122.723 71.4713 122.723C71.026 122.723 70.6432 122.82 70.3229 123.016C70.0026 123.211 69.7409 123.484 69.5378 123.836C69.3424 124.188 69.194 124.602 69.0924 125.078C68.9987 125.547 68.9518 126.062 68.9518 126.625V127.094C68.9518 127.602 69.0221 128.07 69.1628 128.5C69.3112 128.93 69.5182 129.301 69.7838 129.613C70.0573 129.926 70.3854 130.168 70.7682 130.34C71.1588 130.512 71.6003 130.598 72.0924 130.598C72.7018 130.598 73.2682 130.48 73.7917 130.246C74.3229 130.004 74.7799 129.641 75.1628 129.156L76.8034 130.938C76.5378 131.32 76.1745 131.688 75.7135 132.039C75.2604 132.391 74.7135 132.68 74.0729 132.906C73.4323 133.125 72.7018 133.234 71.8815 133.234ZM78.8714 131.371C78.8714 130.871 79.0433 130.453 79.387 130.117C79.7386 129.781 80.2034 129.613 80.7816 129.613C81.3597 129.613 81.8206 129.781 82.1644 130.117C82.5159 130.453 82.6917 130.871 82.6917 131.371C82.6917 131.871 82.5159 132.289 82.1644 132.625C81.8206 132.961 81.3597 133.129 80.7816 133.129C80.2034 133.129 79.7386 132.961 79.387 132.625C79.0433 132.289 78.8714 131.871 78.8714 131.371ZM78.8714 121.703C78.8714 121.203 79.0433 120.785 79.387 120.449C79.7386 120.113 80.2034 119.945 80.7816 119.945C81.3597 119.945 81.8206 120.113 82.1644 120.449C82.5159 120.785 82.6917 121.203 82.6917 121.703C82.6917 122.203 82.5159 122.621 82.1644 122.957C81.8206 123.293 81.3597 123.461 80.7816 123.461C80.2034 123.461 79.7386 123.293 79.387 122.957C79.0433 122.621 78.8714 122.203 78.8714 121.703ZM34.3001 156.32V169H30.9134V156.32H34.3001ZM30.7025 153.016C30.7025 152.523 30.8743 152.117 31.2181 151.797C31.5618 151.477 32.0228 151.316 32.6009 151.316C33.1712 151.316 33.6283 151.477 33.972 151.797C34.3236 152.117 34.4993 152.523 34.4993 153.016C34.4993 153.508 34.3236 153.914 33.972 154.234C33.6283 154.555 33.1712 154.715 32.6009 154.715C32.0228 154.715 31.5618 154.555 31.2181 154.234C30.8743 153.914 30.7025 153.508 30.7025 153.016ZM40.1299 159.027V169H36.7549V156.32H39.9189L40.1299 159.027ZM39.6377 162.215H38.7236C38.7236 161.277 38.8447 160.434 39.0869 159.684C39.3291 158.926 39.6689 158.281 40.1064 157.75C40.5439 157.211 41.0635 156.801 41.665 156.52C42.2744 156.23 42.9541 156.086 43.7041 156.086C44.2978 156.086 44.8408 156.172 45.333 156.344C45.8252 156.516 46.2471 156.789 46.5986 157.164C46.958 157.539 47.2314 158.035 47.4189 158.652C47.6143 159.27 47.7119 160.023 47.7119 160.914V169H44.3135V160.902C44.3135 160.34 44.2353 159.902 44.0791 159.59C43.9228 159.277 43.6924 159.059 43.3877 158.934C43.0908 158.801 42.7236 158.734 42.2861 158.734C41.833 158.734 41.4385 158.824 41.1025 159.004C40.7744 159.184 40.501 159.434 40.2822 159.754C40.0713 160.066 39.9111 160.434 39.8018 160.855C39.6924 161.277 39.6377 161.73 39.6377 162.215ZM59.1019 158.945V169H55.7152V156.32H58.8909L59.1019 158.945ZM58.6331 162.215H57.6956C57.6956 161.332 57.8011 160.52 58.012 159.777C58.2308 159.027 58.5472 158.379 58.9613 157.832C59.3831 157.277 59.9027 156.848 60.5198 156.543C61.137 156.238 61.8519 156.086 62.6644 156.086C63.2269 156.086 63.7425 156.172 64.2113 156.344C64.68 156.508 65.0823 156.77 65.4183 157.129C65.762 157.48 66.0277 157.941 66.2152 158.512C66.4027 159.074 66.4964 159.75 66.4964 160.539V169H63.1214V160.914C63.1214 160.336 63.0433 159.891 62.887 159.578C62.7308 159.266 62.5081 159.047 62.2191 158.922C61.9378 158.797 61.598 158.734 61.1995 158.734C60.762 158.734 60.3792 158.824 60.0511 159.004C59.7308 159.184 59.4652 159.434 59.2542 159.754C59.0433 160.066 58.887 160.434 58.7855 160.855C58.6839 161.277 58.6331 161.73 58.6331 162.215ZM66.18 161.828L64.973 161.98C64.973 161.152 65.0745 160.383 65.2777 159.672C65.4886 158.961 65.7972 158.336 66.2034 157.797C66.6175 157.258 67.1292 156.84 67.7386 156.543C68.348 156.238 69.0511 156.086 69.848 156.086C70.4573 156.086 71.012 156.176 71.512 156.355C72.012 156.527 72.4378 156.805 72.7894 157.188C73.1488 157.562 73.4222 158.055 73.6097 158.664C73.805 159.273 73.9027 160.02 73.9027 160.902V169H70.5159V160.902C70.5159 160.316 70.4378 159.871 70.2816 159.566C70.1331 159.254 69.9144 159.039 69.6253 158.922C69.3441 158.797 69.0081 158.734 68.6175 158.734C68.2113 158.734 67.8558 158.816 67.5511 158.98C67.2464 159.137 66.9925 159.355 66.7894 159.637C66.5863 159.918 66.4339 160.246 66.3323 160.621C66.2308 160.988 66.18 161.391 66.18 161.828ZM82.0879 169.234C81.1035 169.234 80.2207 169.078 79.4394 168.766C78.6582 168.445 77.9941 168.004 77.4473 167.441C76.9082 166.879 76.4941 166.227 76.2051 165.484C75.916 164.734 75.7715 163.938 75.7715 163.094V162.625C75.7715 161.664 75.9082 160.785 76.1816 159.988C76.4551 159.191 76.8457 158.5 77.3535 157.914C77.8691 157.328 78.4941 156.879 79.2285 156.566C79.9629 156.246 80.791 156.086 81.7129 156.086C82.6113 156.086 83.4082 156.234 84.1035 156.531C84.7988 156.828 85.3808 157.25 85.8496 157.797C86.3262 158.344 86.6855 159 86.9277 159.766C87.1699 160.523 87.291 161.367 87.291 162.297V163.703H77.2129V161.453H83.9746V161.195C83.9746 160.727 83.8887 160.309 83.7168 159.941C83.5527 159.566 83.3027 159.27 82.9668 159.051C82.6308 158.832 82.2012 158.723 81.6777 158.723C81.2324 158.723 80.8496 158.82 80.5293 159.016C80.209 159.211 79.9473 159.484 79.7441 159.836C79.5488 160.188 79.4004 160.602 79.2988 161.078C79.2051 161.547 79.1582 162.062 79.1582 162.625V163.094C79.1582 163.602 79.2285 164.07 79.3691 164.5C79.5176 164.93 79.7246 165.301 79.9902 165.613C80.2637 165.926 80.5918 166.168 80.9746 166.34C81.3652 166.512 81.8066 166.598 82.2988 166.598C82.9082 166.598 83.4746 166.48 83.998 166.246C84.5293 166.004 84.9863 165.641 85.3691 165.156L87.0098 166.938C86.7441 167.32 86.3808 167.688 85.9199 168.039C85.4668 168.391 84.9199 168.68 84.2793 168.906C83.6387 169.125 82.9082 169.234 82.0879 169.234ZM92.3239 158.945V169H88.9372V156.32H92.1129L92.3239 158.945ZM91.8551 162.215H90.9176C90.9176 161.332 91.0231 160.52 91.234 159.777C91.4528 159.027 91.7692 158.379 92.1833 157.832C92.6051 157.277 93.1247 156.848 93.7418 156.543C94.359 156.238 95.0739 156.086 95.8864 156.086C96.4489 156.086 96.9645 156.172 97.4333 156.344C97.902 156.508 98.3043 156.77 98.6403 157.129C98.984 157.48 99.2497 157.941 99.4372 158.512C99.6247 159.074 99.7184 159.75 99.7184 160.539V169H96.3434V160.914C96.3434 160.336 96.2653 159.891 96.109 159.578C95.9528 159.266 95.7301 159.047 95.4411 158.922C95.1598 158.797 94.82 158.734 94.4215 158.734C93.984 158.734 93.6012 158.824 93.2731 159.004C92.9528 159.184 92.6872 159.434 92.4762 159.754C92.2653 160.066 92.109 160.434 92.0075 160.855C91.9059 161.277 91.8551 161.73 91.8551 162.215ZM99.402 161.828L98.195 161.98C98.195 161.152 98.2965 160.383 98.4997 159.672C98.7106 158.961 99.0192 158.336 99.4254 157.797C99.8395 157.258 100.351 156.84 100.961 156.543C101.57 156.238 102.273 156.086 103.07 156.086C103.679 156.086 104.234 156.176 104.734 156.355C105.234 156.527 105.66 156.805 106.011 157.188C106.371 157.562 106.644 158.055 106.832 158.664C107.027 159.273 107.125 160.02 107.125 160.902V169H103.738V160.902C103.738 160.316 103.66 159.871 103.504 159.566C103.355 159.254 103.136 159.039 102.847 158.922C102.566 158.797 102.23 158.734 101.84 158.734C101.433 158.734 101.078 158.816 100.773 158.98C100.468 159.137 100.215 159.355 100.011 159.637C99.8083 159.918 99.6559 160.246 99.5543 160.621C99.4528 160.988 99.402 161.391 99.402 161.828ZM108.935 162.789V162.543C108.935 161.613 109.068 160.758 109.333 159.977C109.599 159.188 109.986 158.504 110.493 157.926C111.001 157.348 111.626 156.898 112.368 156.578C113.111 156.25 113.962 156.086 114.923 156.086C115.884 156.086 116.74 156.25 117.49 156.578C118.24 156.898 118.868 157.348 119.376 157.926C119.892 158.504 120.283 159.188 120.548 159.977C120.814 160.758 120.947 161.613 120.947 162.543V162.789C120.947 163.711 120.814 164.566 120.548 165.355C120.283 166.137 119.892 166.82 119.376 167.406C118.868 167.984 118.243 168.434 117.501 168.754C116.759 169.074 115.908 169.234 114.947 169.234C113.986 169.234 113.13 169.074 112.38 168.754C111.638 168.434 111.009 167.984 110.493 167.406C109.986 166.82 109.599 166.137 109.333 165.355C109.068 164.566 108.935 163.711 108.935 162.789ZM112.31 162.543V162.789C112.31 163.32 112.357 163.816 112.451 164.277C112.544 164.738 112.693 165.145 112.896 165.496C113.107 165.84 113.38 166.109 113.716 166.305C114.052 166.5 114.462 166.598 114.947 166.598C115.415 166.598 115.818 166.5 116.154 166.305C116.49 166.109 116.759 165.84 116.962 165.496C117.165 165.145 117.314 164.738 117.408 164.277C117.509 163.816 117.56 163.32 117.56 162.789V162.543C117.56 162.027 117.509 161.543 117.408 161.09C117.314 160.629 117.161 160.223 116.951 159.871C116.747 159.512 116.478 159.23 116.142 159.027C115.806 158.824 115.4 158.723 114.923 158.723C114.447 158.723 114.04 158.824 113.704 159.027C113.376 159.23 113.107 159.512 112.896 159.871C112.693 160.223 112.544 160.629 112.451 161.09C112.357 161.543 112.31 162.027 112.31 162.543ZM126.132 159.086V169H122.757V156.32H125.933L126.132 159.086ZM129.952 156.238L129.894 159.367C129.729 159.344 129.53 159.324 129.296 159.309C129.069 159.285 128.862 159.273 128.675 159.273C128.198 159.273 127.784 159.336 127.433 159.461C127.089 159.578 126.8 159.754 126.565 159.988C126.339 160.223 126.167 160.508 126.05 160.844C125.94 161.18 125.878 161.562 125.862 161.992L125.183 161.781C125.183 160.961 125.265 160.207 125.429 159.52C125.593 158.824 125.831 158.219 126.144 157.703C126.464 157.188 126.854 156.789 127.315 156.508C127.776 156.227 128.304 156.086 128.897 156.086C129.085 156.086 129.276 156.102 129.472 156.133C129.667 156.156 129.827 156.191 129.952 156.238ZM135.255 167.57L138.618 156.32H142.239L137.141 170.91C137.032 171.23 136.883 171.574 136.696 171.941C136.516 172.309 136.27 172.656 135.958 172.984C135.653 173.32 135.266 173.594 134.798 173.805C134.337 174.016 133.77 174.121 133.098 174.121C132.778 174.121 132.516 174.102 132.313 174.062C132.11 174.023 131.868 173.969 131.587 173.898V171.426C131.673 171.426 131.762 171.426 131.856 171.426C131.95 171.434 132.04 171.438 132.126 171.438C132.571 171.438 132.934 171.387 133.215 171.285C133.497 171.184 133.723 171.027 133.895 170.816C134.067 170.613 134.204 170.348 134.305 170.02L135.255 167.57ZM133.848 156.32L136.602 165.508L137.083 169.082L134.786 169.328L130.227 156.32H133.848ZM143.451 167.371C143.451 166.871 143.623 166.453 143.967 166.117C144.319 165.781 144.784 165.613 145.362 165.613C145.94 165.613 146.401 165.781 146.744 166.117C147.096 166.453 147.272 166.871 147.272 167.371C147.272 167.871 147.096 168.289 146.744 168.625C146.401 168.961 145.94 169.129 145.362 169.129C144.784 169.129 144.319 168.961 143.967 168.625C143.623 168.289 143.451 167.871 143.451 167.371ZM143.451 157.703C143.451 157.203 143.623 156.785 143.967 156.449C144.319 156.113 144.784 155.945 145.362 155.945C145.94 155.945 146.401 156.113 146.744 156.449C147.096 156.785 147.272 157.203 147.272 157.703C147.272 158.203 147.096 158.621 146.744 158.957C146.401 159.293 145.94 159.461 145.362 159.461C144.784 159.461 144.319 159.293 143.967 158.957C143.623 158.621 143.451 158.203 143.451 157.703ZM30.75 198.473V194.477C30.75 193.391 30.625 192.43 30.375 191.594C30.125 190.75 29.7656 190.039 29.2969 189.461C28.8203 188.883 28.2383 188.445 27.5508 188.148C26.8711 187.844 26.0938 187.691 25.2188 187.691C24.3516 187.691 23.5742 187.844 22.8867 188.148C22.207 188.445 21.6328 188.883 21.1641 189.461C20.6875 190.039 20.3242 190.75 20.0742 191.594C19.8242 192.43 19.6992 193.391 19.6992 194.477V198.473C19.6992 199.559 19.8242 200.523 20.0742 201.367C20.3242 202.203 20.6875 202.906 21.1641 203.477C21.6406 204.062 22.2227 204.504 22.9102 204.801C23.5977 205.09 24.375 205.234 25.2422 205.234C26.1172 205.234 26.8945 205.086 27.5742 204.789C28.2539 204.492 28.8281 204.055 29.2969 203.477C29.7656 202.906 30.125 202.203 30.375 201.367C30.625 200.523 30.75 199.559 30.75 198.473ZM21.8789 198.039C21.8789 197.836 21.8789 197.637 21.8789 197.441C21.8789 197.246 21.8789 197.051 21.8789 196.855V193.996C21.8789 193.199 21.957 192.5 22.1133 191.898C22.2773 191.289 22.5234 190.793 22.8516 190.41C23.125 190.105 23.457 189.875 23.8477 189.719C24.2461 189.555 24.7031 189.473 25.2188 189.473C25.7266 189.473 26.1719 189.547 26.5547 189.695C26.9453 189.844 27.2734 190.066 27.5391 190.363C27.8125 190.652 28.0273 191.016 28.1836 191.453C28.3477 191.883 28.4609 192.379 28.5234 192.941L21.8789 198.039ZM28.5703 198.93C28.5703 199.766 28.4844 200.492 28.3125 201.109C28.1484 201.727 27.8867 202.227 27.5273 202.609C27.2617 202.891 26.9375 203.105 26.5547 203.254C26.1719 203.402 25.7344 203.477 25.2422 203.477C24.7734 203.477 24.3516 203.41 23.9766 203.277C23.6016 203.137 23.2812 202.934 23.0156 202.668C22.7266 202.387 22.4922 202.031 22.3125 201.602C22.1328 201.164 22.0078 200.66 21.9375 200.09L28.5703 195.016C28.5703 195.234 28.5703 195.512 28.5703 195.848C28.5703 196.176 28.5703 196.398 28.5703 196.516V198.93ZM41.2204 205V187.938H41.0446L34.5876 190.422V192.402L39.0524 190.703V205H41.2204ZM59.0501 198.473V194.477C59.0501 193.391 58.9251 192.43 58.6751 191.594C58.4251 190.75 58.0658 190.039 57.597 189.461C57.1204 188.883 56.5384 188.445 55.8509 188.148C55.1712 187.844 54.3939 187.691 53.5189 187.691C52.6517 187.691 51.8743 187.844 51.1868 188.148C50.5072 188.445 49.9329 188.883 49.4642 189.461C48.9876 190.039 48.6243 190.75 48.3743 191.594C48.1243 192.43 47.9993 193.391 47.9993 194.477V198.473C47.9993 199.559 48.1243 200.523 48.3743 201.367C48.6243 202.203 48.9876 202.906 49.4642 203.477C49.9408 204.062 50.5228 204.504 51.2103 204.801C51.8978 205.09 52.6751 205.234 53.5423 205.234C54.4173 205.234 55.1947 205.086 55.8743 204.789C56.554 204.492 57.1283 204.055 57.597 203.477C58.0658 202.906 58.4251 202.203 58.6751 201.367C58.9251 200.523 59.0501 199.559 59.0501 198.473ZM50.179 198.039C50.179 197.836 50.179 197.637 50.179 197.441C50.179 197.246 50.179 197.051 50.179 196.855V193.996C50.179 193.199 50.2572 192.5 50.4134 191.898C50.5775 191.289 50.8236 190.793 51.1517 190.41C51.4251 190.105 51.7572 189.875 52.1478 189.719C52.5462 189.555 53.0033 189.473 53.5189 189.473C54.0267 189.473 54.472 189.547 54.8548 189.695C55.2454 189.844 55.5736 190.066 55.8392 190.363C56.1126 190.652 56.3275 191.016 56.4837 191.453C56.6478 191.883 56.7611 192.379 56.8236 192.941L50.179 198.039ZM56.8704 198.93C56.8704 199.766 56.7845 200.492 56.6126 201.109C56.4486 201.727 56.1868 202.227 55.8275 202.609C55.5618 202.891 55.2376 203.105 54.8548 203.254C54.472 203.402 54.0345 203.477 53.5423 203.477C53.0736 203.477 52.6517 203.41 52.2767 203.277C51.9017 203.137 51.5814 202.934 51.3158 202.668C51.0267 202.387 50.7923 202.031 50.6126 201.602C50.4329 201.164 50.3079 200.66 50.2376 200.09L56.8704 195.016C56.8704 195.234 56.8704 195.512 56.8704 195.848C56.8704 196.176 56.8704 196.398 56.8704 196.516V198.93ZM73.2002 198.473V194.477C73.2002 193.391 73.0752 192.43 72.8252 191.594C72.5752 190.75 72.2158 190.039 71.7471 189.461C71.2705 188.883 70.6885 188.445 70.001 188.148C69.3213 187.844 68.5439 187.691 67.6689 187.691C66.8018 187.691 66.0244 187.844 65.3369 188.148C64.6572 188.445 64.083 188.883 63.6143 189.461C63.1377 190.039 62.7744 190.75 62.5244 191.594C62.2744 192.43 62.1494 193.391 62.1494 194.477V198.473C62.1494 199.559 62.2744 200.523 62.5244 201.367C62.7744 202.203 63.1377 202.906 63.6143 203.477C64.0908 204.062 64.6728 204.504 65.3603 204.801C66.0478 205.09 66.8252 205.234 67.6924 205.234C68.5674 205.234 69.3447 205.086 70.0244 204.789C70.7041 204.492 71.2783 204.055 71.7471 203.477C72.2158 202.906 72.5752 202.203 72.8252 201.367C73.0752 200.523 73.2002 199.559 73.2002 198.473ZM64.3291 198.039C64.3291 197.836 64.3291 197.637 64.3291 197.441C64.3291 197.246 64.3291 197.051 64.3291 196.855V193.996C64.3291 193.199 64.4072 192.5 64.5635 191.898C64.7275 191.289 64.9736 190.793 65.3018 190.41C65.5752 190.105 65.9072 189.875 66.2978 189.719C66.6963 189.555 67.1533 189.473 67.6689 189.473C68.1768 189.473 68.6221 189.547 69.0049 189.695C69.3955 189.844 69.7236 190.066 69.9893 190.363C70.2627 190.652 70.4775 191.016 70.6338 191.453C70.7978 191.883 70.9111 192.379 70.9736 192.941L64.3291 198.039ZM71.0205 198.93C71.0205 199.766 70.9346 200.492 70.7627 201.109C70.5986 201.727 70.3369 202.227 69.9775 202.609C69.7119 202.891 69.3877 203.105 69.0049 203.254C68.6221 203.402 68.1846 203.477 67.6924 203.477C67.2236 203.477 66.8018 203.41 66.4268 203.277C66.0518 203.137 65.7314 202.934 65.4658 202.668C65.1768 202.387 64.9424 202.031 64.7627 201.602C64.583 201.164 64.458 200.66 64.3877 200.09L71.0205 195.016C71.0205 195.234 71.0205 195.512 71.0205 195.848C71.0205 196.176 71.0205 196.398 71.0205 196.516V198.93ZM87.3503 198.473V194.477C87.3503 193.391 87.2253 192.43 86.9753 191.594C86.7253 190.75 86.3659 190.039 85.8971 189.461C85.4206 188.883 84.8385 188.445 84.151 188.148C83.4713 187.844 82.694 187.691 81.819 187.691C80.9518 187.691 80.1745 187.844 79.487 188.148C78.8073 188.445 78.2331 188.883 77.7643 189.461C77.2878 190.039 76.9245 190.75 76.6745 191.594C76.4245 192.43 76.2995 193.391 76.2995 194.477V198.473C76.2995 199.559 76.4245 200.523 76.6745 201.367C76.9245 202.203 77.2878 202.906 77.7643 203.477C78.2409 204.062 78.8229 204.504 79.5104 204.801C80.1979 205.09 80.9753 205.234 81.8424 205.234C82.7174 205.234 83.4948 205.086 84.1745 204.789C84.8542 204.492 85.4284 204.055 85.8971 203.477C86.3659 202.906 86.7253 202.203 86.9753 201.367C87.2253 200.523 87.3503 199.559 87.3503 198.473ZM78.4792 198.039C78.4792 197.836 78.4792 197.637 78.4792 197.441C78.4792 197.246 78.4792 197.051 78.4792 196.855V193.996C78.4792 193.199 78.5573 192.5 78.7135 191.898C78.8776 191.289 79.1237 190.793 79.4518 190.41C79.7253 190.105 80.0573 189.875 80.4479 189.719C80.8463 189.555 81.3034 189.473 81.819 189.473C82.3268 189.473 82.7721 189.547 83.1549 189.695C83.5456 189.844 83.8737 190.066 84.1393 190.363C84.4128 190.652 84.6276 191.016 84.7838 191.453C84.9479 191.883 85.0612 192.379 85.1237 192.941L78.4792 198.039ZM85.1706 198.93C85.1706 199.766 85.0846 200.492 84.9128 201.109C84.7487 201.727 84.487 202.227 84.1276 202.609C83.862 202.891 83.5378 203.105 83.1549 203.254C82.7721 203.402 82.3346 203.477 81.8424 203.477C81.3737 203.477 80.9518 203.41 80.5768 203.277C80.2018 203.137 79.8815 202.934 79.6159 202.668C79.3268 202.387 79.0924 202.031 78.9128 201.602C78.7331 201.164 78.6081 200.66 78.5378 200.09L85.1706 195.016C85.1706 195.234 85.1706 195.512 85.1706 195.848C85.1706 196.176 85.1706 196.398 85.1706 196.516V198.93ZM101.5 198.473V194.477C101.5 193.391 101.375 192.43 101.125 191.594C100.875 190.75 100.516 190.039 100.047 189.461C99.5706 188.883 98.9886 188.445 98.3011 188.148C97.6214 187.844 96.8441 187.691 95.9691 187.691C95.1019 187.691 94.3245 187.844 93.637 188.148C92.9573 188.445 92.3831 188.883 91.9144 189.461C91.4378 190.039 91.0745 190.75 90.8245 191.594C90.5745 192.43 90.4495 193.391 90.4495 194.477V198.473C90.4495 199.559 90.5745 200.523 90.8245 201.367C91.0745 202.203 91.4378 202.906 91.9144 203.477C92.3909 204.062 92.973 204.504 93.6605 204.801C94.348 205.09 95.1253 205.234 95.9925 205.234C96.8675 205.234 97.6448 205.086 98.3245 204.789C99.0042 204.492 99.5784 204.055 100.047 203.477C100.516 202.906 100.875 202.203 101.125 201.367C101.375 200.523 101.5 199.559 101.5 198.473ZM92.6292 198.039C92.6292 197.836 92.6292 197.637 92.6292 197.441C92.6292 197.246 92.6292 197.051 92.6292 196.855V193.996C92.6292 193.199 92.7073 192.5 92.8636 191.898C93.0277 191.289 93.2738 190.793 93.6019 190.41C93.8753 190.105 94.2073 189.875 94.598 189.719C94.9964 189.555 95.4534 189.473 95.9691 189.473C96.4769 189.473 96.9222 189.547 97.305 189.695C97.6956 189.844 98.0238 190.066 98.2894 190.363C98.5628 190.652 98.7777 191.016 98.9339 191.453C99.098 191.883 99.2113 192.379 99.2738 192.941L92.6292 198.039ZM99.3206 198.93C99.3206 199.766 99.2347 200.492 99.0628 201.109C98.8988 201.727 98.637 202.227 98.2777 202.609C98.012 202.891 97.6878 203.105 97.305 203.254C96.9222 203.402 96.4847 203.477 95.9925 203.477C95.5238 203.477 95.1019 203.41 94.7269 203.277C94.3519 203.137 94.0316 202.934 93.7659 202.668C93.4769 202.387 93.2425 202.031 93.0628 201.602C92.8831 201.164 92.7581 200.66 92.6878 200.09L99.3206 195.016C99.3206 195.234 99.3206 195.512 99.3206 195.848C99.3206 196.176 99.3206 196.398 99.3206 196.516V198.93ZM115.65 198.473V194.477C115.65 193.391 115.525 192.43 115.275 191.594C115.025 190.75 114.666 190.039 114.197 189.461C113.721 188.883 113.139 188.445 112.451 188.148C111.771 187.844 110.994 187.691 110.119 187.691C109.252 187.691 108.475 187.844 107.787 188.148C107.107 188.445 106.533 188.883 106.064 189.461C105.588 190.039 105.225 190.75 104.975 191.594C104.725 192.43 104.6 193.391 104.6 194.477V198.473C104.6 199.559 104.725 200.523 104.975 201.367C105.225 202.203 105.588 202.906 106.064 203.477C106.541 204.062 107.123 204.504 107.811 204.801C108.498 205.09 109.275 205.234 110.143 205.234C111.018 205.234 111.795 205.086 112.475 204.789C113.154 204.492 113.729 204.055 114.197 203.477C114.666 202.906 115.025 202.203 115.275 201.367C115.525 200.523 115.65 199.559 115.65 198.473ZM106.779 198.039C106.779 197.836 106.779 197.637 106.779 197.441C106.779 197.246 106.779 197.051 106.779 196.855V193.996C106.779 193.199 106.857 192.5 107.014 191.898C107.178 191.289 107.424 190.793 107.752 190.41C108.025 190.105 108.357 189.875 108.748 189.719C109.146 189.555 109.604 189.473 110.119 189.473C110.627 189.473 111.072 189.547 111.455 189.695C111.846 189.844 112.174 190.066 112.439 190.363C112.713 190.652 112.928 191.016 113.084 191.453C113.248 191.883 113.361 192.379 113.424 192.941L106.779 198.039ZM113.471 198.93C113.471 199.766 113.385 200.492 113.213 201.109C113.049 201.727 112.787 202.227 112.428 202.609C112.162 202.891 111.838 203.105 111.455 203.254C111.072 203.402 110.635 203.477 110.143 203.477C109.674 203.477 109.252 203.41 108.877 203.277C108.502 203.137 108.182 202.934 107.916 202.668C107.627 202.387 107.393 202.031 107.213 201.602C107.033 201.164 106.908 200.66 106.838 200.09L113.471 195.016C113.471 195.234 113.471 195.512 113.471 195.848C113.471 196.176 113.471 196.398 113.471 196.516V198.93ZM126.121 205V187.938H125.945L119.488 190.422V192.402L123.953 190.703V205H126.121ZM36.9486 228.32V230.711H29.5658V228.32H36.9486ZM31.3939 225.191H34.7689V237.18C34.7689 237.547 34.8158 237.828 34.9095 238.023C35.0111 238.219 35.1595 238.355 35.3548 238.434C35.5501 238.504 35.7962 238.539 36.0931 238.539C36.304 238.539 36.4915 238.531 36.6556 238.516C36.8275 238.492 36.972 238.469 37.0892 238.445L37.1009 240.93C36.8118 241.023 36.4993 241.098 36.1634 241.152C35.8275 241.207 35.4564 241.234 35.0501 241.234C34.3079 241.234 33.6595 241.113 33.1048 240.871C32.5579 240.621 32.1361 240.223 31.8392 239.676C31.5423 239.129 31.3939 238.41 31.3939 237.52V225.191ZM37.7627 234.789V234.543C37.7627 233.613 37.8955 232.758 38.1611 231.977C38.4268 231.188 38.8135 230.504 39.3213 229.926C39.8291 229.348 40.4541 228.898 41.1963 228.578C41.9385 228.25 42.79 228.086 43.751 228.086C44.7119 228.086 45.5674 228.25 46.3174 228.578C47.0674 228.898 47.6963 229.348 48.2041 229.926C48.7197 230.504 49.1103 231.188 49.376 231.977C49.6416 232.758 49.7744 233.613 49.7744 234.543V234.789C49.7744 235.711 49.6416 236.566 49.376 237.355C49.1103 238.137 48.7197 238.82 48.2041 239.406C47.6963 239.984 47.0713 240.434 46.3291 240.754C45.5869 241.074 44.7353 241.234 43.7744 241.234C42.8135 241.234 41.958 241.074 41.208 240.754C40.4658 240.434 39.8369 239.984 39.3213 239.406C38.8135 238.82 38.4268 238.137 38.1611 237.355C37.8955 236.566 37.7627 235.711 37.7627 234.789ZM41.1377 234.543V234.789C41.1377 235.32 41.1846 235.816 41.2783 236.277C41.3721 236.738 41.5205 237.145 41.7236 237.496C41.9346 237.84 42.208 238.109 42.5439 238.305C42.8799 238.5 43.29 238.598 43.7744 238.598C44.2432 238.598 44.6455 238.5 44.9814 238.305C45.3174 238.109 45.5869 237.84 45.79 237.496C45.9932 237.145 46.1416 236.738 46.2353 236.277C46.3369 235.816 46.3877 235.32 46.3877 234.789V234.543C46.3877 234.027 46.3369 233.543 46.2353 233.09C46.1416 232.629 45.9893 232.223 45.7783 231.871C45.5752 231.512 45.3057 231.23 44.9697 231.027C44.6338 230.824 44.2275 230.723 43.751 230.723C43.2744 230.723 42.8682 230.824 42.5322 231.027C42.2041 231.23 41.9346 231.512 41.7236 231.871C41.5205 232.223 41.3721 232.629 41.2783 233.09C41.1846 233.543 41.1377 234.027 41.1377 234.543ZM60.5902 223V241H57.2152V223H60.5902ZM60.1097 234.215H59.1839C59.1917 233.332 59.3089 232.52 59.5355 231.777C59.762 231.027 60.0863 230.379 60.5081 229.832C60.93 229.277 61.4339 228.848 62.0198 228.543C62.6136 228.238 63.2698 228.086 63.9886 228.086C64.6136 228.086 65.18 228.176 65.6878 228.355C66.2034 228.527 66.6448 228.809 67.012 229.199C67.387 229.582 67.6761 230.086 67.8792 230.711C68.0823 231.336 68.1839 232.094 68.1839 232.984V241H64.7855V232.961C64.7855 232.398 64.7034 231.957 64.5394 231.637C64.3831 231.309 64.1527 231.078 63.848 230.945C63.5511 230.805 63.1839 230.734 62.7464 230.734C62.262 230.734 61.848 230.824 61.5042 231.004C61.1683 231.184 60.8988 231.434 60.6956 231.754C60.4925 232.066 60.3441 232.434 60.2503 232.855C60.1566 233.277 60.1097 233.73 60.1097 234.215ZM77.9863 237.965V228.32H81.3613V241H78.1855L77.9863 237.965ZM78.3613 235.363L79.3574 235.34C79.3574 236.184 79.2598 236.969 79.0644 237.695C78.8691 238.414 78.5762 239.039 78.1855 239.57C77.7949 240.094 77.3027 240.504 76.709 240.801C76.1152 241.09 75.416 241.234 74.6113 241.234C73.9941 241.234 73.4238 241.148 72.9004 240.977C72.3848 240.797 71.9394 240.52 71.5644 240.145C71.1973 239.762 70.9082 239.273 70.6973 238.68C70.4941 238.078 70.3926 237.355 70.3926 236.512V228.32H73.7676V236.535C73.7676 236.91 73.8105 237.227 73.8965 237.484C73.9902 237.742 74.1191 237.953 74.2832 238.117C74.4473 238.281 74.6387 238.398 74.8574 238.469C75.084 238.539 75.334 238.574 75.6074 238.574C76.3027 238.574 76.8496 238.434 77.248 238.152C77.6543 237.871 77.9394 237.488 78.1035 237.004C78.2754 236.512 78.3613 235.965 78.3613 235.363ZM87.0504 230.945V241H83.6637V228.32H86.8395L87.0504 230.945ZM86.5817 234.215H85.6442C85.6442 233.332 85.7497 232.52 85.9606 231.777C86.1793 231.027 86.4958 230.379 86.9098 229.832C87.3317 229.277 87.8512 228.848 88.4684 228.543C89.0856 228.238 89.8004 228.086 90.6129 228.086C91.1754 228.086 91.6911 228.172 92.1598 228.344C92.6286 228.508 93.0309 228.77 93.3668 229.129C93.7106 229.48 93.9762 229.941 94.1637 230.512C94.3512 231.074 94.445 231.75 94.445 232.539V241H91.07V232.914C91.07 232.336 90.9918 231.891 90.8356 231.578C90.6793 231.266 90.4567 231.047 90.1676 230.922C89.8864 230.797 89.5465 230.734 89.1481 230.734C88.7106 230.734 88.3278 230.824 87.9997 231.004C87.6793 231.184 87.4137 231.434 87.2028 231.754C86.9918 232.066 86.8356 232.434 86.734 232.855C86.6325 233.277 86.5817 233.73 86.5817 234.215ZM94.1286 233.828L92.9215 233.98C92.9215 233.152 93.0231 232.383 93.2262 231.672C93.4372 230.961 93.7458 230.336 94.152 229.797C94.5661 229.258 95.0778 228.84 95.6872 228.543C96.2965 228.238 96.9997 228.086 97.7965 228.086C98.4059 228.086 98.9606 228.176 99.4606 228.355C99.9606 228.527 100.386 228.805 100.738 229.188C101.097 229.562 101.371 230.055 101.558 230.664C101.754 231.273 101.851 232.02 101.851 232.902V241H98.4645V232.902C98.4645 232.316 98.3864 231.871 98.2301 231.566C98.0817 231.254 97.8629 231.039 97.5739 230.922C97.2926 230.797 96.9567 230.734 96.5661 230.734C96.1598 230.734 95.8043 230.816 95.4997 230.98C95.195 231.137 94.9411 231.355 94.7379 231.637C94.5348 231.918 94.3825 232.246 94.2809 232.621C94.1793 232.988 94.1286 233.391 94.1286 233.828ZM111.044 238.141V232.492C111.044 232.086 110.978 231.738 110.845 231.449C110.712 231.152 110.505 230.922 110.224 230.758C109.951 230.594 109.595 230.512 109.158 230.512C108.783 230.512 108.458 230.578 108.185 230.711C107.911 230.836 107.701 231.02 107.552 231.262C107.404 231.496 107.329 231.773 107.329 232.094H103.954C103.954 231.555 104.079 231.043 104.329 230.559C104.579 230.074 104.943 229.648 105.419 229.281C105.896 228.906 106.462 228.613 107.118 228.402C107.783 228.191 108.525 228.086 109.345 228.086C110.329 228.086 111.204 228.25 111.97 228.578C112.736 228.906 113.337 229.398 113.775 230.055C114.22 230.711 114.443 231.531 114.443 232.516V237.941C114.443 238.637 114.486 239.207 114.572 239.652C114.658 240.09 114.783 240.473 114.947 240.801V241H111.536C111.372 240.656 111.247 240.227 111.161 239.711C111.083 239.188 111.044 238.664 111.044 238.141ZM111.49 233.277L111.513 235.188H109.626C109.181 235.188 108.794 235.238 108.466 235.34C108.138 235.441 107.868 235.586 107.658 235.773C107.447 235.953 107.29 236.164 107.189 236.406C107.095 236.648 107.048 236.914 107.048 237.203C107.048 237.492 107.115 237.754 107.247 237.988C107.38 238.215 107.572 238.395 107.822 238.527C108.072 238.652 108.365 238.715 108.701 238.715C109.208 238.715 109.65 238.613 110.025 238.41C110.4 238.207 110.689 237.957 110.892 237.66C111.103 237.363 111.212 237.082 111.22 236.816L112.111 238.246C111.986 238.566 111.814 238.898 111.595 239.242C111.384 239.586 111.115 239.91 110.786 240.215C110.458 240.512 110.064 240.758 109.603 240.953C109.142 241.141 108.595 241.234 107.962 241.234C107.158 241.234 106.427 241.074 105.771 240.754C105.122 240.426 104.607 239.977 104.224 239.406C103.849 238.828 103.661 238.172 103.661 237.438C103.661 236.773 103.786 236.184 104.036 235.668C104.286 235.152 104.654 234.719 105.138 234.367C105.63 234.008 106.243 233.738 106.978 233.559C107.712 233.371 108.564 233.277 109.533 233.277H111.49ZM120.085 231.027V241H116.71V228.32H119.874L120.085 231.027ZM119.593 234.215H118.679C118.679 233.277 118.8 232.434 119.042 231.684C119.284 230.926 119.624 230.281 120.062 229.75C120.499 229.211 121.019 228.801 121.62 228.52C122.229 228.23 122.909 228.086 123.659 228.086C124.253 228.086 124.796 228.172 125.288 228.344C125.78 228.516 126.202 228.789 126.554 229.164C126.913 229.539 127.187 230.035 127.374 230.652C127.569 231.27 127.667 232.023 127.667 232.914V241H124.269V232.902C124.269 232.34 124.19 231.902 124.034 231.59C123.878 231.277 123.647 231.059 123.343 230.934C123.046 230.801 122.679 230.734 122.241 230.734C121.788 230.734 121.394 230.824 121.058 231.004C120.729 231.184 120.456 231.434 120.237 231.754C120.026 232.066 119.866 232.434 119.757 232.855C119.647 233.277 119.593 233.73 119.593 234.215ZM136.825 237.496C136.825 237.254 136.755 237.035 136.614 236.84C136.473 236.645 136.212 236.465 135.829 236.301C135.454 236.129 134.911 235.973 134.2 235.832C133.559 235.691 132.962 235.516 132.407 235.305C131.86 235.086 131.383 234.824 130.977 234.52C130.579 234.215 130.266 233.855 130.04 233.441C129.813 233.02 129.7 232.539 129.7 232C129.7 231.469 129.813 230.969 130.04 230.5C130.274 230.031 130.606 229.617 131.036 229.258C131.473 228.891 132.005 228.605 132.63 228.402C133.262 228.191 133.973 228.086 134.762 228.086C135.864 228.086 136.809 228.262 137.598 228.613C138.395 228.965 139.005 229.449 139.426 230.066C139.856 230.676 140.071 231.371 140.071 232.152H136.696C136.696 231.824 136.626 231.531 136.485 231.273C136.352 231.008 136.141 230.801 135.852 230.652C135.571 230.496 135.204 230.418 134.751 230.418C134.376 230.418 134.051 230.484 133.778 230.617C133.505 230.742 133.294 230.914 133.145 231.133C133.005 231.344 132.934 231.578 132.934 231.836C132.934 232.031 132.973 232.207 133.051 232.363C133.137 232.512 133.274 232.648 133.462 232.773C133.649 232.898 133.891 233.016 134.188 233.125C134.493 233.227 134.868 233.32 135.313 233.406C136.227 233.594 137.044 233.84 137.762 234.145C138.481 234.441 139.051 234.848 139.473 235.363C139.895 235.871 140.106 236.539 140.106 237.367C140.106 237.93 139.981 238.445 139.731 238.914C139.481 239.383 139.122 239.793 138.653 240.145C138.184 240.488 137.622 240.758 136.965 240.953C136.317 241.141 135.587 241.234 134.774 241.234C133.594 241.234 132.594 241.023 131.774 240.602C130.962 240.18 130.344 239.645 129.923 238.996C129.508 238.34 129.301 237.668 129.301 236.98H132.501C132.516 237.441 132.633 237.812 132.852 238.094C133.079 238.375 133.364 238.578 133.708 238.703C134.059 238.828 134.438 238.891 134.844 238.891C135.282 238.891 135.645 238.832 135.934 238.715C136.223 238.59 136.442 238.426 136.59 238.223C136.747 238.012 136.825 237.77 136.825 237.496ZM142.162 239.371C142.162 238.871 142.334 238.453 142.678 238.117C143.03 237.781 143.494 237.613 144.073 237.613C144.651 237.613 145.112 237.781 145.455 238.117C145.807 238.453 145.983 238.871 145.983 239.371C145.983 239.871 145.807 240.289 145.455 240.625C145.112 240.961 144.651 241.129 144.073 241.129C143.494 241.129 143.03 240.961 142.678 240.625C142.334 240.289 142.162 239.871 142.162 239.371ZM142.162 229.703C142.162 229.203 142.334 228.785 142.678 228.449C143.03 228.113 143.494 227.945 144.073 227.945C144.651 227.945 145.112 228.113 145.455 228.449C145.807 228.785 145.983 229.203 145.983 229.703C145.983 230.203 145.807 230.621 145.455 230.957C145.112 231.293 144.651 231.461 144.073 231.461C143.494 231.461 143.03 231.293 142.678 230.957C142.334 230.621 142.162 230.203 142.162 229.703ZM26.625 260.465V258.742H24.5039V260.5C24.5039 261.172 24.4102 261.797 24.2227 262.375C24.043 262.953 23.7695 263.52 23.4023 264.074L24.5859 264.918C24.9141 264.637 25.2031 264.316 25.4531 263.957C25.7031 263.598 25.918 263.219 26.0977 262.82C26.2695 262.43 26.3984 262.031 26.4844 261.625C26.5781 261.219 26.625 260.832 26.625 260.465ZM42.3337 272.582L43.6813 277H45.8376L40.4235 259.938H38.6071L33.0993 277H35.2673L36.6383 272.582H42.3337ZM37.2243 270.695L39.5094 263.289L41.7594 270.695H37.2243ZM54.9251 260.465V258.742H52.804V260.5C52.804 261.172 52.7103 261.797 52.5228 262.375C52.3431 262.953 52.0697 263.52 51.7025 264.074L52.8861 264.918C53.2142 264.637 53.5033 264.316 53.7533 263.957C54.0033 263.598 54.2181 263.219 54.3978 262.82C54.5697 262.43 54.6986 262.031 54.7845 261.625C54.8783 261.219 54.9251 260.832 54.9251 260.465Z" fill="black"/>
</svg>
