<svg width="1305" height="334" viewBox="0 0 1305 334" fill="none" xmlns="http://www.w3.org/2000/svg">
<path d="M30.343 29.6875V18.8125C30.343 15.875 29.9993 13.2917 29.3118 11.0625C28.6243 8.8125 27.6451 6.92708 26.3743 5.40625C25.0826 3.90625 23.5201 2.77083 21.6868 2C19.8534 1.22917 17.7909 0.84375 15.4993 0.84375C13.2284 0.84375 11.1764 1.22917 9.34302 2C7.53052 2.77083 5.98885 3.90625 4.71802 5.40625C3.42635 6.92708 2.43677 8.8125 1.74927 11.0625C1.06177 13.2917 0.718018 15.875 0.718018 18.8125V29.6875C0.718018 32.625 1.06177 35.2188 1.74927 37.4688C2.4576 39.6979 3.4576 41.5625 4.74927 43.0625C6.0201 44.5833 7.57218 45.7292 9.40552 46.5C11.2389 47.2708 13.2909 47.6562 15.5618 47.6562C17.8534 47.6562 19.9159 47.2708 21.7493 46.5C23.5826 45.7292 25.1347 44.5833 26.4055 43.0625C27.6764 41.5625 28.6451 39.6979 29.3118 37.4688C29.9993 35.2188 30.343 32.625 30.343 29.6875ZM9.46802 25.9375C9.46802 25.2917 9.46802 24.8021 9.46802 24.4688C9.46802 24.1354 9.46802 23.4688 9.46802 22.4688V17.4375C9.46802 15.75 9.59302 14.2917 9.84302 13.0625C10.1139 11.8333 10.5201 10.8333 11.0618 10.0625C11.5618 9.33333 12.1764 8.79167 12.9055 8.4375C13.6555 8.0625 14.5201 7.875 15.4993 7.875C16.3743 7.875 17.1555 8.02083 17.843 8.3125C18.5514 8.58333 19.1451 9.01042 19.6243 9.59375C20.2493 10.3229 20.718 11.3021 21.0305 12.5312C21.3639 13.7396 21.5514 15.1979 21.593 16.9062L9.46802 25.9375ZM21.593 31C21.593 32.6875 21.4576 34.1562 21.1868 35.4062C20.9368 36.6354 20.5514 37.6458 20.0305 38.4375C19.5305 39.1875 18.9055 39.75 18.1555 40.125C17.4055 40.4792 16.5409 40.6562 15.5618 40.6562C14.4993 40.6562 13.5826 40.4479 12.8118 40.0312C12.0409 39.6146 11.4055 38.9792 10.9055 38.125C10.468 37.4167 10.1243 36.5312 9.87427 35.4688C9.6451 34.4062 9.50968 33.1875 9.46802 31.8125L21.593 22.8125C21.593 23.4167 21.593 23.8854 21.593 24.2188C21.593 24.5312 21.593 25.0312 21.593 25.7188V31ZM68.0765 29.6875V18.8125C68.0765 15.875 67.7328 13.2917 67.0453 11.0625C66.3578 8.8125 65.3786 6.92708 64.1078 5.40625C62.8161 3.90625 61.2536 2.77083 59.4203 2C57.5869 1.22917 55.5244 0.84375 53.2328 0.84375C50.9619 0.84375 48.9099 1.22917 47.0765 2C45.264 2.77083 43.7224 3.90625 42.4515 5.40625C41.1599 6.92708 40.1703 8.8125 39.4828 11.0625C38.7953 13.2917 38.4515 15.875 38.4515 18.8125V29.6875C38.4515 32.625 38.7953 35.2188 39.4828 37.4688C40.1911 39.6979 41.1911 41.5625 42.4828 43.0625C43.7536 44.5833 45.3057 45.7292 47.139 46.5C48.9724 47.2708 51.0244 47.6562 53.2953 47.6562C55.5869 47.6562 57.6494 47.2708 59.4828 46.5C61.3161 45.7292 62.8682 44.5833 64.139 43.0625C65.4099 41.5625 66.3786 39.6979 67.0453 37.4688C67.7328 35.2188 68.0765 32.625 68.0765 29.6875ZM47.2015 25.9375C47.2015 25.2917 47.2015 24.8021 47.2015 24.4688C47.2015 24.1354 47.2015 23.4688 47.2015 22.4688V17.4375C47.2015 15.75 47.3265 14.2917 47.5765 13.0625C47.8474 11.8333 48.2536 10.8333 48.7953 10.0625C49.2953 9.33333 49.9099 8.79167 50.639 8.4375C51.389 8.0625 52.2536 7.875 53.2328 7.875C54.1078 7.875 54.889 8.02083 55.5765 8.3125C56.2849 8.58333 56.8786 9.01042 57.3578 9.59375C57.9828 10.3229 58.4515 11.3021 58.764 12.5312C59.0974 13.7396 59.2849 15.1979 59.3265 16.9062L47.2015 25.9375ZM59.3265 31C59.3265 32.6875 59.1911 34.1562 58.9203 35.4062C58.6703 36.6354 58.2849 37.6458 57.764 38.4375C57.264 39.1875 56.639 39.75 55.889 40.125C55.139 40.4792 54.2744 40.6562 53.2953 40.6562C52.2328 40.6562 51.3161 40.4479 50.5453 40.0312C49.7744 39.6146 49.139 38.9792 48.639 38.125C48.2015 37.4167 47.8578 36.5312 47.6078 35.4688C47.3786 34.4062 47.2432 33.1875 47.2015 31.8125L59.3265 22.8125C59.3265 23.4167 59.3265 23.8854 59.3265 24.2188C59.3265 24.5312 59.3265 25.0312 59.3265 25.7188V31ZM105.81 29.6875V18.8125C105.81 15.875 105.466 13.2917 104.779 11.0625C104.091 8.8125 103.112 6.92708 101.841 5.40625C100.55 3.90625 98.9871 2.77083 97.1538 2C95.3204 1.22917 93.2579 0.84375 90.9663 0.84375C88.6954 0.84375 86.6434 1.22917 84.81 2C82.9975 2.77083 81.4559 3.90625 80.185 5.40625C78.8934 6.92708 77.9038 8.8125 77.2163 11.0625C76.5288 13.2917 76.185 15.875 76.185 18.8125V29.6875C76.185 32.625 76.5288 35.2188 77.2163 37.4688C77.9246 39.6979 78.9246 41.5625 80.2163 43.0625C81.4871 44.5833 83.0392 45.7292 84.8725 46.5C86.7059 47.2708 88.7579 47.6562 91.0288 47.6562C93.3204 47.6562 95.3829 47.2708 97.2163 46.5C99.0496 45.7292 100.602 44.5833 101.873 43.0625C103.143 41.5625 104.112 39.6979 104.779 37.4688C105.466 35.2188 105.81 32.625 105.81 29.6875ZM84.935 25.9375C84.935 25.2917 84.935 24.8021 84.935 24.4688C84.935 24.1354 84.935 23.4688 84.935 22.4688V17.4375C84.935 15.75 85.06 14.2917 85.31 13.0625C85.5809 11.8333 85.9871 10.8333 86.5288 10.0625C87.0288 9.33333 87.6434 8.79167 88.3725 8.4375C89.1225 8.0625 89.9871 7.875 90.9663 7.875C91.8413 7.875 92.6225 8.02083 93.31 8.3125C94.0184 8.58333 94.6121 9.01042 95.0913 9.59375C95.7163 10.3229 96.185 11.3021 96.4975 12.5312C96.8309 13.7396 97.0184 15.1979 97.06 16.9062L84.935 25.9375ZM97.06 31C97.06 32.6875 96.9246 34.1562 96.6538 35.4062C96.4038 36.6354 96.0184 37.6458 95.4975 38.4375C94.9975 39.1875 94.3725 39.75 93.6225 40.125C92.8725 40.4792 92.0079 40.6562 91.0288 40.6562C89.9663 40.6562 89.0496 40.4479 88.2788 40.0312C87.5079 39.6146 86.8725 38.9792 86.3725 38.125C85.935 37.4167 85.5913 36.5312 85.3413 35.4688C85.1121 34.4062 84.9767 33.1875 84.935 31.8125L97.06 22.8125C97.06 23.4167 97.06 23.8854 97.06 24.2188C97.06 24.5312 97.06 25.0312 97.06 25.7188V31ZM143.544 29.6875V18.8125C143.544 15.875 143.2 13.2917 142.512 11.0625C141.825 8.8125 140.846 6.92708 139.575 5.40625C138.283 3.90625 136.721 2.77083 134.887 2C133.054 1.22917 130.991 0.84375 128.7 0.84375C126.429 0.84375 124.377 1.22917 122.544 2C120.731 2.77083 119.189 3.90625 117.919 5.40625C116.627 6.92708 115.637 8.8125 114.95 11.0625C114.262 13.2917 113.919 15.875 113.919 18.8125V29.6875C113.919 32.625 114.262 35.2188 114.95 37.4688C115.658 39.6979 116.658 41.5625 117.95 43.0625C119.221 44.5833 120.773 45.7292 122.606 46.5C124.439 47.2708 126.491 47.6562 128.762 47.6562C131.054 47.6562 133.116 47.2708 134.95 46.5C136.783 45.7292 138.335 44.5833 139.606 43.0625C140.877 41.5625 141.846 39.6979 142.512 37.4688C143.2 35.2188 143.544 32.625 143.544 29.6875ZM122.669 25.9375C122.669 25.2917 122.669 24.8021 122.669 24.4688C122.669 24.1354 122.669 23.4688 122.669 22.4688V17.4375C122.669 15.75 122.794 14.2917 123.044 13.0625C123.314 11.8333 123.721 10.8333 124.262 10.0625C124.762 9.33333 125.377 8.79167 126.106 8.4375C126.856 8.0625 127.721 7.875 128.7 7.875C129.575 7.875 130.356 8.02083 131.044 8.3125C131.752 8.58333 132.346 9.01042 132.825 9.59375C133.45 10.3229 133.919 11.3021 134.231 12.5312C134.564 13.7396 134.752 15.1979 134.794 16.9062L122.669 25.9375ZM134.794 31C134.794 32.6875 134.658 34.1562 134.387 35.4062C134.137 36.6354 133.752 37.6458 133.231 38.4375C132.731 39.1875 132.106 39.75 131.356 40.125C130.606 40.4792 129.741 40.6562 128.762 40.6562C127.7 40.6562 126.783 40.4479 126.012 40.0312C125.241 39.6146 124.606 38.9792 124.106 38.125C123.669 37.4167 123.325 36.5312 123.075 35.4688C122.846 34.4062 122.71 33.1875 122.669 31.8125L134.794 22.8125C134.794 23.4167 134.794 23.8854 134.794 24.2188C134.794 24.5312 134.794 25.0312 134.794 25.7188V31ZM181.277 29.6875V18.8125C181.277 15.875 180.933 13.2917 180.246 11.0625C179.558 8.8125 178.579 6.92708 177.308 5.40625C176.017 3.90625 174.454 2.77083 172.621 2C170.787 1.22917 168.725 0.84375 166.433 0.84375C164.162 0.84375 162.11 1.22917 160.277 2C158.465 2.77083 156.923 3.90625 155.652 5.40625C154.36 6.92708 153.371 8.8125 152.683 11.0625C151.996 13.2917 151.652 15.875 151.652 18.8125V29.6875C151.652 32.625 151.996 35.2188 152.683 37.4688C153.392 39.6979 154.392 41.5625 155.683 43.0625C156.954 44.5833 158.506 45.7292 160.34 46.5C162.173 47.2708 164.225 47.6562 166.496 47.6562C168.787 47.6562 170.85 47.2708 172.683 46.5C174.517 45.7292 176.069 44.5833 177.34 43.0625C178.61 41.5625 179.579 39.6979 180.246 37.4688C180.933 35.2188 181.277 32.625 181.277 29.6875ZM160.402 25.9375C160.402 25.2917 160.402 24.8021 160.402 24.4688C160.402 24.1354 160.402 23.4688 160.402 22.4688V17.4375C160.402 15.75 160.527 14.2917 160.777 13.0625C161.048 11.8333 161.454 10.8333 161.996 10.0625C162.496 9.33333 163.11 8.79167 163.84 8.4375C164.59 8.0625 165.454 7.875 166.433 7.875C167.308 7.875 168.09 8.02083 168.777 8.3125C169.485 8.58333 170.079 9.01042 170.558 9.59375C171.183 10.3229 171.652 11.3021 171.965 12.5312C172.298 13.7396 172.485 15.1979 172.527 16.9062L160.402 25.9375ZM172.527 31C172.527 32.6875 172.392 34.1562 172.121 35.4062C171.871 36.6354 171.485 37.6458 170.965 38.4375C170.465 39.1875 169.84 39.75 169.09 40.125C168.34 40.4792 167.475 40.6562 166.496 40.6562C165.433 40.6562 164.517 40.4479 163.746 40.0312C162.975 39.6146 162.34 38.9792 161.84 38.125C161.402 37.4167 161.058 36.5312 160.808 35.4688C160.579 34.4062 160.444 33.1875 160.402 31.8125L172.527 22.8125C172.527 23.4167 172.527 23.8854 172.527 24.2188C172.527 24.5312 172.527 25.0312 172.527 25.7188V31ZM219.011 29.6875V18.8125C219.011 15.875 218.667 13.2917 217.979 11.0625C217.292 8.8125 216.313 6.92708 215.042 5.40625C213.75 3.90625 212.188 2.77083 210.354 2C208.521 1.22917 206.458 0.84375 204.167 0.84375C201.896 0.84375 199.844 1.22917 198.011 2C196.198 2.77083 194.656 3.90625 193.386 5.40625C192.094 6.92708 191.104 8.8125 190.417 11.0625C189.729 13.2917 189.386 15.875 189.386 18.8125V29.6875C189.386 32.625 189.729 35.2188 190.417 37.4688C191.125 39.6979 192.125 41.5625 193.417 43.0625C194.688 44.5833 196.24 45.7292 198.073 46.5C199.906 47.2708 201.958 47.6562 204.229 47.6562C206.521 47.6562 208.583 47.2708 210.417 46.5C212.25 45.7292 213.802 44.5833 215.073 43.0625C216.344 41.5625 217.313 39.6979 217.979 37.4688C218.667 35.2188 219.011 32.625 219.011 29.6875ZM198.136 25.9375C198.136 25.2917 198.136 24.8021 198.136 24.4688C198.136 24.1354 198.136 23.4688 198.136 22.4688V17.4375C198.136 15.75 198.261 14.2917 198.511 13.0625C198.781 11.8333 199.188 10.8333 199.729 10.0625C200.229 9.33333 200.844 8.79167 201.573 8.4375C202.323 8.0625 203.188 7.875 204.167 7.875C205.042 7.875 205.823 8.02083 206.511 8.3125C207.219 8.58333 207.813 9.01042 208.292 9.59375C208.917 10.3229 209.386 11.3021 209.698 12.5312C210.031 13.7396 210.219 15.1979 210.261 16.9062L198.136 25.9375ZM210.261 31C210.261 32.6875 210.125 34.1562 209.854 35.4062C209.604 36.6354 209.219 37.6458 208.698 38.4375C208.198 39.1875 207.573 39.75 206.823 40.125C206.073 40.4792 205.208 40.6562 204.229 40.6562C203.167 40.6562 202.25 40.4479 201.479 40.0312C200.708 39.6146 200.073 38.9792 199.573 38.125C199.136 37.4167 198.792 36.5312 198.542 35.4688C198.313 34.4062 198.177 33.1875 198.136 31.8125L210.261 22.8125C210.261 23.4167 210.261 23.8854 210.261 24.2188C210.261 24.5312 210.261 25.0312 210.261 25.7188V31ZM256.744 29.6875V18.8125C256.744 15.875 256.4 13.2917 255.713 11.0625C255.025 8.8125 254.046 6.92708 252.775 5.40625C251.484 3.90625 249.921 2.77083 248.088 2C246.254 1.22917 244.192 0.84375 241.9 0.84375C239.629 0.84375 237.577 1.22917 235.744 2C233.932 2.77083 232.39 3.90625 231.119 5.40625C229.827 6.92708 228.838 8.8125 228.15 11.0625C227.463 13.2917 227.119 15.875 227.119 18.8125V29.6875C227.119 32.625 227.463 35.2188 228.15 37.4688C228.859 39.6979 229.859 41.5625 231.15 43.0625C232.421 44.5833 233.973 45.7292 235.807 46.5C237.64 47.2708 239.692 47.6562 241.963 47.6562C244.254 47.6562 246.317 47.2708 248.15 46.5C249.984 45.7292 251.536 44.5833 252.807 43.0625C254.077 41.5625 255.046 39.6979 255.713 37.4688C256.4 35.2188 256.744 32.625 256.744 29.6875ZM235.869 25.9375C235.869 25.2917 235.869 24.8021 235.869 24.4688C235.869 24.1354 235.869 23.4688 235.869 22.4688V17.4375C235.869 15.75 235.994 14.2917 236.244 13.0625C236.515 11.8333 236.921 10.8333 237.463 10.0625C237.963 9.33333 238.577 8.79167 239.307 8.4375C240.057 8.0625 240.921 7.875 241.9 7.875C242.775 7.875 243.557 8.02083 244.244 8.3125C244.952 8.58333 245.546 9.01042 246.025 9.59375C246.65 10.3229 247.119 11.3021 247.432 12.5312C247.765 13.7396 247.952 15.1979 247.994 16.9062L235.869 25.9375ZM247.994 31C247.994 32.6875 247.859 34.1562 247.588 35.4062C247.338 36.6354 246.952 37.6458 246.432 38.4375C245.932 39.1875 245.307 39.75 244.557 40.125C243.807 40.4792 242.942 40.6562 241.963 40.6562C240.9 40.6562 239.984 40.4479 239.213 40.0312C238.442 39.6146 237.807 38.9792 237.307 38.125C236.869 37.4167 236.525 36.5312 236.275 35.4688C236.046 34.4062 235.911 33.1875 235.869 31.8125L247.994 22.8125C247.994 23.4167 247.994 23.8854 247.994 24.2188C247.994 24.5312 247.994 25.0312 247.994 25.7188V31ZM294.478 29.6875V18.8125C294.478 15.875 294.134 13.2917 293.446 11.0625C292.759 8.8125 291.78 6.92708 290.509 5.40625C289.217 3.90625 287.655 2.77083 285.821 2C283.988 1.22917 281.925 0.84375 279.634 0.84375C277.363 0.84375 275.311 1.22917 273.478 2C271.665 2.77083 270.123 3.90625 268.853 5.40625C267.561 6.92708 266.571 8.8125 265.884 11.0625C265.196 13.2917 264.853 15.875 264.853 18.8125V29.6875C264.853 32.625 265.196 35.2188 265.884 37.4688C266.592 39.6979 267.592 41.5625 268.884 43.0625C270.155 44.5833 271.707 45.7292 273.54 46.5C275.373 47.2708 277.425 47.6562 279.696 47.6562C281.988 47.6562 284.05 47.2708 285.884 46.5C287.717 45.7292 289.269 44.5833 290.54 43.0625C291.811 41.5625 292.78 39.6979 293.446 37.4688C294.134 35.2188 294.478 32.625 294.478 29.6875ZM273.603 25.9375C273.603 25.2917 273.603 24.8021 273.603 24.4688C273.603 24.1354 273.603 23.4688 273.603 22.4688V17.4375C273.603 15.75 273.728 14.2917 273.978 13.0625C274.248 11.8333 274.655 10.8333 275.196 10.0625C275.696 9.33333 276.311 8.79167 277.04 8.4375C277.79 8.0625 278.655 7.875 279.634 7.875C280.509 7.875 281.29 8.02083 281.978 8.3125C282.686 8.58333 283.28 9.01042 283.759 9.59375C284.384 10.3229 284.853 11.3021 285.165 12.5312C285.498 13.7396 285.686 15.1979 285.728 16.9062L273.603 25.9375ZM285.728 31C285.728 32.6875 285.592 34.1562 285.321 35.4062C285.071 36.6354 284.686 37.6458 284.165 38.4375C283.665 39.1875 283.04 39.75 282.29 40.125C281.54 40.4792 280.675 40.6562 279.696 40.6562C278.634 40.6562 277.717 40.4479 276.946 40.0312C276.175 39.6146 275.54 38.9792 275.04 38.125C274.603 37.4167 274.259 36.5312 274.009 35.4688C273.78 34.4062 273.644 33.1875 273.603 31.8125L285.728 22.8125C285.728 23.4167 285.728 23.8854 285.728 24.2188C285.728 24.5312 285.728 25.0312 285.728 25.7188V31ZM369.945 29.6875V18.8125C369.945 15.875 369.601 13.2917 368.913 11.0625C368.226 8.8125 367.247 6.92708 365.976 5.40625C364.684 3.90625 363.122 2.77083 361.288 2C359.455 1.22917 357.392 0.84375 355.101 0.84375C352.83 0.84375 350.778 1.22917 348.945 2C347.132 2.77083 345.59 3.90625 344.32 5.40625C343.028 6.92708 342.038 8.8125 341.351 11.0625C340.663 13.2917 340.32 15.875 340.32 18.8125V29.6875C340.32 32.625 340.663 35.2188 341.351 37.4688C342.059 39.6979 343.059 41.5625 344.351 43.0625C345.622 44.5833 347.174 45.7292 349.007 46.5C350.84 47.2708 352.892 47.6562 355.163 47.6562C357.455 47.6562 359.517 47.2708 361.351 46.5C363.184 45.7292 364.736 44.5833 366.007 43.0625C367.278 41.5625 368.247 39.6979 368.913 37.4688C369.601 35.2188 369.945 32.625 369.945 29.6875ZM349.07 25.9375C349.07 25.2917 349.07 24.8021 349.07 24.4688C349.07 24.1354 349.07 23.4688 349.07 22.4688V17.4375C349.07 15.75 349.195 14.2917 349.445 13.0625C349.715 11.8333 350.122 10.8333 350.663 10.0625C351.163 9.33333 351.778 8.79167 352.507 8.4375C353.257 8.0625 354.122 7.875 355.101 7.875C355.976 7.875 356.757 8.02083 357.445 8.3125C358.153 8.58333 358.747 9.01042 359.226 9.59375C359.851 10.3229 360.32 11.3021 360.632 12.5312C360.965 13.7396 361.153 15.1979 361.195 16.9062L349.07 25.9375ZM361.195 31C361.195 32.6875 361.059 34.1562 360.788 35.4062C360.538 36.6354 360.153 37.6458 359.632 38.4375C359.132 39.1875 358.507 39.75 357.757 40.125C357.007 40.4792 356.142 40.6562 355.163 40.6562C354.101 40.6562 353.184 40.4479 352.413 40.0312C351.642 39.6146 351.007 38.9792 350.507 38.125C350.07 37.4167 349.726 36.5312 349.476 35.4688C349.247 34.4062 349.111 33.1875 349.07 31.8125L361.195 22.8125C361.195 23.4167 361.195 23.8854 361.195 24.2188C361.195 24.5312 361.195 25.0312 361.195 25.7188V31ZM407.678 29.6875V18.8125C407.678 15.875 407.334 13.2917 406.647 11.0625C405.959 8.8125 404.98 6.92708 403.709 5.40625C402.418 3.90625 400.855 2.77083 399.022 2C397.188 1.22917 395.126 0.84375 392.834 0.84375C390.563 0.84375 388.511 1.22917 386.678 2C384.866 2.77083 383.324 3.90625 382.053 5.40625C380.761 6.92708 379.772 8.8125 379.084 11.0625C378.397 13.2917 378.053 15.875 378.053 18.8125V29.6875C378.053 32.625 378.397 35.2188 379.084 37.4688C379.793 39.6979 380.793 41.5625 382.084 43.0625C383.355 44.5833 384.907 45.7292 386.741 46.5C388.574 47.2708 390.626 47.6562 392.897 47.6562C395.188 47.6562 397.251 47.2708 399.084 46.5C400.918 45.7292 402.47 44.5833 403.741 43.0625C405.011 41.5625 405.98 39.6979 406.647 37.4688C407.334 35.2188 407.678 32.625 407.678 29.6875ZM386.803 25.9375C386.803 25.2917 386.803 24.8021 386.803 24.4688C386.803 24.1354 386.803 23.4688 386.803 22.4688V17.4375C386.803 15.75 386.928 14.2917 387.178 13.0625C387.449 11.8333 387.855 10.8333 388.397 10.0625C388.897 9.33333 389.511 8.79167 390.241 8.4375C390.991 8.0625 391.855 7.875 392.834 7.875C393.709 7.875 394.491 8.02083 395.178 8.3125C395.886 8.58333 396.48 9.01042 396.959 9.59375C397.584 10.3229 398.053 11.3021 398.366 12.5312C398.699 13.7396 398.886 15.1979 398.928 16.9062L386.803 25.9375ZM398.928 31C398.928 32.6875 398.793 34.1562 398.522 35.4062C398.272 36.6354 397.886 37.6458 397.366 38.4375C396.866 39.1875 396.241 39.75 395.491 40.125C394.741 40.4792 393.876 40.6562 392.897 40.6562C391.834 40.6562 390.918 40.4479 390.147 40.0312C389.376 39.6146 388.741 38.9792 388.241 38.125C387.803 37.4167 387.459 36.5312 387.209 35.4688C386.98 34.4062 386.845 33.1875 386.803 31.8125L398.928 22.8125C398.928 23.4167 398.928 23.8854 398.928 24.2188C398.928 24.5312 398.928 25.0312 398.928 25.7188V31ZM445.412 29.6875V18.8125C445.412 15.875 445.068 13.2917 444.38 11.0625C443.693 8.8125 442.714 6.92708 441.443 5.40625C440.151 3.90625 438.589 2.77083 436.755 2C434.922 1.22917 432.859 0.84375 430.568 0.84375C428.297 0.84375 426.245 1.22917 424.412 2C422.599 2.77083 421.057 3.90625 419.787 5.40625C418.495 6.92708 417.505 8.8125 416.818 11.0625C416.13 13.2917 415.787 15.875 415.787 18.8125V29.6875C415.787 32.625 416.13 35.2188 416.818 37.4688C417.526 39.6979 418.526 41.5625 419.818 43.0625C421.089 44.5833 422.641 45.7292 424.474 46.5C426.307 47.2708 428.359 47.6562 430.63 47.6562C432.922 47.6562 434.984 47.2708 436.818 46.5C438.651 45.7292 440.203 44.5833 441.474 43.0625C442.745 41.5625 443.714 39.6979 444.38 37.4688C445.068 35.2188 445.412 32.625 445.412 29.6875ZM424.537 25.9375C424.537 25.2917 424.537 24.8021 424.537 24.4688C424.537 24.1354 424.537 23.4688 424.537 22.4688V17.4375C424.537 15.75 424.662 14.2917 424.912 13.0625C425.182 11.8333 425.589 10.8333 426.13 10.0625C426.63 9.33333 427.245 8.79167 427.974 8.4375C428.724 8.0625 429.589 7.875 430.568 7.875C431.443 7.875 432.224 8.02083 432.912 8.3125C433.62 8.58333 434.214 9.01042 434.693 9.59375C435.318 10.3229 435.787 11.3021 436.099 12.5312C436.432 13.7396 436.62 15.1979 436.662 16.9062L424.537 25.9375ZM436.662 31C436.662 32.6875 436.526 34.1562 436.255 35.4062C436.005 36.6354 435.62 37.6458 435.099 38.4375C434.599 39.1875 433.974 39.75 433.224 40.125C432.474 40.4792 431.609 40.6562 430.63 40.6562C429.568 40.6562 428.651 40.4479 427.88 40.0312C427.109 39.6146 426.474 38.9792 425.974 38.125C425.537 37.4167 425.193 36.5312 424.943 35.4688C424.714 34.4062 424.578 33.1875 424.537 31.8125L436.662 22.8125C436.662 23.4167 436.662 23.8854 436.662 24.2188C436.662 24.5312 436.662 25.0312 436.662 25.7188V31ZM483.145 29.6875V18.8125C483.145 15.875 482.801 13.2917 482.114 11.0625C481.426 8.8125 480.447 6.92708 479.176 5.40625C477.885 3.90625 476.322 2.77083 474.489 2C472.655 1.22917 470.593 0.84375 468.301 0.84375C466.03 0.84375 463.978 1.22917 462.145 2C460.333 2.77083 458.791 3.90625 457.52 5.40625C456.228 6.92708 455.239 8.8125 454.551 11.0625C453.864 13.2917 453.52 15.875 453.52 18.8125V29.6875C453.52 32.625 453.864 35.2188 454.551 37.4688C455.26 39.6979 456.26 41.5625 457.551 43.0625C458.822 44.5833 460.374 45.7292 462.208 46.5C464.041 47.2708 466.093 47.6562 468.364 47.6562C470.655 47.6562 472.718 47.2708 474.551 46.5C476.385 45.7292 477.937 44.5833 479.208 43.0625C480.478 41.5625 481.447 39.6979 482.114 37.4688C482.801 35.2188 483.145 32.625 483.145 29.6875ZM462.27 25.9375C462.27 25.2917 462.27 24.8021 462.27 24.4688C462.27 24.1354 462.27 23.4688 462.27 22.4688V17.4375C462.27 15.75 462.395 14.2917 462.645 13.0625C462.916 11.8333 463.322 10.8333 463.864 10.0625C464.364 9.33333 464.978 8.79167 465.708 8.4375C466.458 8.0625 467.322 7.875 468.301 7.875C469.176 7.875 469.958 8.02083 470.645 8.3125C471.353 8.58333 471.947 9.01042 472.426 9.59375C473.051 10.3229 473.52 11.3021 473.833 12.5312C474.166 13.7396 474.353 15.1979 474.395 16.9062L462.27 25.9375ZM474.395 31C474.395 32.6875 474.26 34.1562 473.989 35.4062C473.739 36.6354 473.353 37.6458 472.833 38.4375C472.333 39.1875 471.708 39.75 470.958 40.125C470.208 40.4792 469.343 40.6562 468.364 40.6562C467.301 40.6562 466.385 40.4479 465.614 40.0312C464.843 39.6146 464.208 38.9792 463.708 38.125C463.27 37.4167 462.926 36.5312 462.676 35.4688C462.447 34.4062 462.312 33.1875 462.27 31.8125L474.395 22.8125C474.395 23.4167 474.395 23.8854 474.395 24.2188C474.395 24.5312 474.395 25.0312 474.395 25.7188V31ZM520.879 29.6875V18.8125C520.879 15.875 520.535 13.2917 519.847 11.0625C519.16 8.8125 518.181 6.92708 516.91 5.40625C515.618 3.90625 514.056 2.77083 512.222 2C510.389 1.22917 508.326 0.84375 506.035 0.84375C503.764 0.84375 501.712 1.22917 499.879 2C498.066 2.77083 496.524 3.90625 495.254 5.40625C493.962 6.92708 492.972 8.8125 492.285 11.0625C491.597 13.2917 491.254 15.875 491.254 18.8125V29.6875C491.254 32.625 491.597 35.2188 492.285 37.4688C492.993 39.6979 493.993 41.5625 495.285 43.0625C496.556 44.5833 498.108 45.7292 499.941 46.5C501.774 47.2708 503.826 47.6562 506.097 47.6562C508.389 47.6562 510.451 47.2708 512.285 46.5C514.118 45.7292 515.67 44.5833 516.941 43.0625C518.212 41.5625 519.181 39.6979 519.847 37.4688C520.535 35.2188 520.879 32.625 520.879 29.6875ZM500.004 25.9375C500.004 25.2917 500.004 24.8021 500.004 24.4688C500.004 24.1354 500.004 23.4688 500.004 22.4688V17.4375C500.004 15.75 500.129 14.2917 500.379 13.0625C500.649 11.8333 501.056 10.8333 501.597 10.0625C502.097 9.33333 502.712 8.79167 503.441 8.4375C504.191 8.0625 505.056 7.875 506.035 7.875C506.91 7.875 507.691 8.02083 508.379 8.3125C509.087 8.58333 509.681 9.01042 510.16 9.59375C510.785 10.3229 511.254 11.3021 511.566 12.5312C511.899 13.7396 512.087 15.1979 512.129 16.9062L500.004 25.9375ZM512.129 31C512.129 32.6875 511.993 34.1562 511.722 35.4062C511.472 36.6354 511.087 37.6458 510.566 38.4375C510.066 39.1875 509.441 39.75 508.691 40.125C507.941 40.4792 507.076 40.6562 506.097 40.6562C505.035 40.6562 504.118 40.4479 503.347 40.0312C502.576 39.6146 501.941 38.9792 501.441 38.125C501.004 37.4167 500.66 36.5312 500.41 35.4688C500.181 34.4062 500.045 33.1875 500.004 31.8125L512.129 22.8125C512.129 23.4167 512.129 23.8854 512.129 24.2188C512.129 24.5312 512.129 25.0312 512.129 25.7188V31ZM558.612 29.6875V18.8125C558.612 15.875 558.268 13.2917 557.581 11.0625C556.893 8.8125 555.914 6.92708 554.643 5.40625C553.352 3.90625 551.789 2.77083 549.956 2C548.122 1.22917 546.06 0.84375 543.768 0.84375C541.497 0.84375 539.445 1.22917 537.612 2C535.799 2.77083 534.258 3.90625 532.987 5.40625C531.695 6.92708 530.706 8.8125 530.018 11.0625C529.331 13.2917 528.987 15.875 528.987 18.8125V29.6875C528.987 32.625 529.331 35.2188 530.018 37.4688C530.727 39.6979 531.727 41.5625 533.018 43.0625C534.289 44.5833 535.841 45.7292 537.674 46.5C539.508 47.2708 541.56 47.6562 543.831 47.6562C546.122 47.6562 548.185 47.2708 550.018 46.5C551.852 45.7292 553.404 44.5833 554.674 43.0625C555.945 41.5625 556.914 39.6979 557.581 37.4688C558.268 35.2188 558.612 32.625 558.612 29.6875ZM537.737 25.9375C537.737 25.2917 537.737 24.8021 537.737 24.4688C537.737 24.1354 537.737 23.4688 537.737 22.4688V17.4375C537.737 15.75 537.862 14.2917 538.112 13.0625C538.383 11.8333 538.789 10.8333 539.331 10.0625C539.831 9.33333 540.445 8.79167 541.174 8.4375C541.924 8.0625 542.789 7.875 543.768 7.875C544.643 7.875 545.424 8.02083 546.112 8.3125C546.82 8.58333 547.414 9.01042 547.893 9.59375C548.518 10.3229 548.987 11.3021 549.299 12.5312C549.633 13.7396 549.82 15.1979 549.862 16.9062L537.737 25.9375ZM549.862 31C549.862 32.6875 549.727 34.1562 549.456 35.4062C549.206 36.6354 548.82 37.6458 548.299 38.4375C547.799 39.1875 547.174 39.75 546.424 40.125C545.674 40.4792 544.81 40.6562 543.831 40.6562C542.768 40.6562 541.852 40.4479 541.081 40.0312C540.31 39.6146 539.674 38.9792 539.174 38.125C538.737 37.4167 538.393 36.5312 538.143 35.4688C537.914 34.4062 537.779 33.1875 537.737 31.8125L549.862 22.8125C549.862 23.4167 549.862 23.8854 549.862 24.2188C549.862 24.5312 549.862 25.0312 549.862 25.7188V31ZM596.346 29.6875V18.8125C596.346 15.875 596.002 13.2917 595.314 11.0625C594.627 8.8125 593.648 6.92708 592.377 5.40625C591.085 3.90625 589.523 2.77083 587.689 2C585.856 1.22917 583.793 0.84375 581.502 0.84375C579.231 0.84375 577.179 1.22917 575.346 2C573.533 2.77083 571.991 3.90625 570.721 5.40625C569.429 6.92708 568.439 8.8125 567.752 11.0625C567.064 13.2917 566.721 15.875 566.721 18.8125V29.6875C566.721 32.625 567.064 35.2188 567.752 37.4688C568.46 39.6979 569.46 41.5625 570.752 43.0625C572.023 44.5833 573.575 45.7292 575.408 46.5C577.241 47.2708 579.293 47.6562 581.564 47.6562C583.856 47.6562 585.918 47.2708 587.752 46.5C589.585 45.7292 591.137 44.5833 592.408 43.0625C593.679 41.5625 594.648 39.6979 595.314 37.4688C596.002 35.2188 596.346 32.625 596.346 29.6875ZM575.471 25.9375C575.471 25.2917 575.471 24.8021 575.471 24.4688C575.471 24.1354 575.471 23.4688 575.471 22.4688V17.4375C575.471 15.75 575.596 14.2917 575.846 13.0625C576.116 11.8333 576.523 10.8333 577.064 10.0625C577.564 9.33333 578.179 8.79167 578.908 8.4375C579.658 8.0625 580.523 7.875 581.502 7.875C582.377 7.875 583.158 8.02083 583.846 8.3125C584.554 8.58333 585.148 9.01042 585.627 9.59375C586.252 10.3229 586.721 11.3021 587.033 12.5312C587.366 13.7396 587.554 15.1979 587.596 16.9062L575.471 25.9375ZM587.596 31C587.596 32.6875 587.46 34.1562 587.189 35.4062C586.939 36.6354 586.554 37.6458 586.033 38.4375C585.533 39.1875 584.908 39.75 584.158 40.125C583.408 40.4792 582.543 40.6562 581.564 40.6562C580.502 40.6562 579.585 40.4479 578.814 40.0312C578.043 39.6146 577.408 38.9792 576.908 38.125C576.471 37.4167 576.127 36.5312 575.877 35.4688C575.648 34.4062 575.512 33.1875 575.471 31.8125L587.596 22.8125C587.596 23.4167 587.596 23.8854 587.596 24.2188C587.596 24.5312 587.596 25.0312 587.596 25.7188V31ZM634.079 29.6875V18.8125C634.079 15.875 633.735 13.2917 633.048 11.0625C632.36 8.8125 631.381 6.92708 630.11 5.40625C628.819 3.90625 627.256 2.77083 625.423 2C623.589 1.22917 621.527 0.84375 619.235 0.84375C616.964 0.84375 614.912 1.22917 613.079 2C611.267 2.77083 609.725 3.90625 608.454 5.40625C607.162 6.92708 606.173 8.8125 605.485 11.0625C604.798 13.2917 604.454 15.875 604.454 18.8125V29.6875C604.454 32.625 604.798 35.2188 605.485 37.4688C606.194 39.6979 607.194 41.5625 608.485 43.0625C609.756 44.5833 611.308 45.7292 613.142 46.5C614.975 47.2708 617.027 47.6562 619.298 47.6562C621.589 47.6562 623.652 47.2708 625.485 46.5C627.319 45.7292 628.871 44.5833 630.142 43.0625C631.412 41.5625 632.381 39.6979 633.048 37.4688C633.735 35.2188 634.079 32.625 634.079 29.6875ZM613.204 25.9375C613.204 25.2917 613.204 24.8021 613.204 24.4688C613.204 24.1354 613.204 23.4688 613.204 22.4688V17.4375C613.204 15.75 613.329 14.2917 613.579 13.0625C613.85 11.8333 614.256 10.8333 614.798 10.0625C615.298 9.33333 615.912 8.79167 616.642 8.4375C617.392 8.0625 618.256 7.875 619.235 7.875C620.11 7.875 620.892 8.02083 621.579 8.3125C622.287 8.58333 622.881 9.01042 623.36 9.59375C623.985 10.3229 624.454 11.3021 624.767 12.5312C625.1 13.7396 625.287 15.1979 625.329 16.9062L613.204 25.9375ZM625.329 31C625.329 32.6875 625.194 34.1562 624.923 35.4062C624.673 36.6354 624.287 37.6458 623.767 38.4375C623.267 39.1875 622.642 39.75 621.892 40.125C621.142 40.4792 620.277 40.6562 619.298 40.6562C618.235 40.6562 617.319 40.4479 616.548 40.0312C615.777 39.6146 615.142 38.9792 614.642 38.125C614.204 37.4167 613.86 36.5312 613.61 35.4688C613.381 34.4062 613.246 33.1875 613.204 31.8125L625.329 22.8125C625.329 23.4167 625.329 23.8854 625.329 24.2188C625.329 24.5312 625.329 25.0312 625.329 25.7188V31ZM709.546 29.6875V18.8125C709.546 15.875 709.202 13.2917 708.515 11.0625C707.827 8.8125 706.848 6.92708 705.577 5.40625C704.286 3.90625 702.723 2.77083 700.89 2C699.056 1.22917 696.994 0.84375 694.702 0.84375C692.431 0.84375 690.379 1.22917 688.546 2C686.734 2.77083 685.192 3.90625 683.921 5.40625C682.629 6.92708 681.64 8.8125 680.952 11.0625C680.265 13.2917 679.921 15.875 679.921 18.8125V29.6875C679.921 32.625 680.265 35.2188 680.952 37.4688C681.661 39.6979 682.661 41.5625 683.952 43.0625C685.223 44.5833 686.775 45.7292 688.609 46.5C690.442 47.2708 692.494 47.6562 694.765 47.6562C697.056 47.6562 699.119 47.2708 700.952 46.5C702.786 45.7292 704.338 44.5833 705.609 43.0625C706.879 41.5625 707.848 39.6979 708.515 37.4688C709.202 35.2188 709.546 32.625 709.546 29.6875ZM688.671 25.9375C688.671 25.2917 688.671 24.8021 688.671 24.4688C688.671 24.1354 688.671 23.4688 688.671 22.4688V17.4375C688.671 15.75 688.796 14.2917 689.046 13.0625C689.317 11.8333 689.723 10.8333 690.265 10.0625C690.765 9.33333 691.379 8.79167 692.109 8.4375C692.859 8.0625 693.723 7.875 694.702 7.875C695.577 7.875 696.359 8.02083 697.046 8.3125C697.754 8.58333 698.348 9.01042 698.827 9.59375C699.452 10.3229 699.921 11.3021 700.234 12.5312C700.567 13.7396 700.754 15.1979 700.796 16.9062L688.671 25.9375ZM700.796 31C700.796 32.6875 700.661 34.1562 700.39 35.4062C700.14 36.6354 699.754 37.6458 699.234 38.4375C698.734 39.1875 698.109 39.75 697.359 40.125C696.609 40.4792 695.744 40.6562 694.765 40.6562C693.702 40.6562 692.786 40.4479 692.015 40.0312C691.244 39.6146 690.609 38.9792 690.109 38.125C689.671 37.4167 689.327 36.5312 689.077 35.4688C688.848 34.4062 688.713 33.1875 688.671 31.8125L700.796 22.8125C700.796 23.4167 700.796 23.8854 700.796 24.2188C700.796 24.5312 700.796 25.0312 700.796 25.7188V31ZM738.936 47V1.5H738.467L718.655 8.65625V16.2188L730.155 12.0938V47H738.936ZM776.669 47V1.5H776.201L756.388 8.65625V16.2188L767.888 12.0938V47H776.669ZM814.403 47V1.5H813.934L794.122 8.65625V16.2188L805.622 12.0938V47H814.403ZM860.48 29.6875V18.8125C860.48 15.875 860.136 13.2917 859.449 11.0625C858.761 8.8125 857.782 6.92708 856.511 5.40625C855.22 3.90625 853.657 2.77083 851.824 2C849.99 1.22917 847.928 0.84375 845.636 0.84375C843.365 0.84375 841.313 1.22917 839.48 2C837.668 2.77083 836.126 3.90625 834.855 5.40625C833.563 6.92708 832.574 8.8125 831.886 11.0625C831.199 13.2917 830.855 15.875 830.855 18.8125V29.6875C830.855 32.625 831.199 35.2188 831.886 37.4688C832.595 39.6979 833.595 41.5625 834.886 43.0625C836.157 44.5833 837.709 45.7292 839.543 46.5C841.376 47.2708 843.428 47.6562 845.699 47.6562C847.99 47.6562 850.053 47.2708 851.886 46.5C853.72 45.7292 855.272 44.5833 856.543 43.0625C857.813 41.5625 858.782 39.6979 859.449 37.4688C860.136 35.2188 860.48 32.625 860.48 29.6875ZM839.605 25.9375C839.605 25.2917 839.605 24.8021 839.605 24.4688C839.605 24.1354 839.605 23.4688 839.605 22.4688V17.4375C839.605 15.75 839.73 14.2917 839.98 13.0625C840.251 11.8333 840.657 10.8333 841.199 10.0625C841.699 9.33333 842.313 8.79167 843.043 8.4375C843.793 8.0625 844.657 7.875 845.636 7.875C846.511 7.875 847.293 8.02083 847.98 8.3125C848.688 8.58333 849.282 9.01042 849.761 9.59375C850.386 10.3229 850.855 11.3021 851.168 12.5312C851.501 13.7396 851.688 15.1979 851.73 16.9062L839.605 25.9375ZM851.73 31C851.73 32.6875 851.595 34.1562 851.324 35.4062C851.074 36.6354 850.688 37.6458 850.168 38.4375C849.668 39.1875 849.043 39.75 848.293 40.125C847.543 40.4792 846.678 40.6562 845.699 40.6562C844.636 40.6562 843.72 40.4479 842.949 40.0312C842.178 39.6146 841.543 38.9792 841.043 38.125C840.605 37.4167 840.261 36.5312 840.011 35.4688C839.782 34.4062 839.647 33.1875 839.605 31.8125L851.73 22.8125C851.73 23.4167 851.73 23.8854 851.73 24.2188C851.73 24.5312 851.73 25.0312 851.73 25.7188V31ZM889.87 47V1.5H889.401L869.589 8.65625V16.2188L881.089 12.0938V47H889.87ZM935.947 29.6875V18.8125C935.947 15.875 935.603 13.2917 934.916 11.0625C934.228 8.8125 933.249 6.92708 931.978 5.40625C930.687 3.90625 929.124 2.77083 927.291 2C925.457 1.22917 923.395 0.84375 921.103 0.84375C918.832 0.84375 916.78 1.22917 914.947 2C913.135 2.77083 911.593 3.90625 910.322 5.40625C909.03 6.92708 908.041 8.8125 907.353 11.0625C906.666 13.2917 906.322 15.875 906.322 18.8125V29.6875C906.322 32.625 906.666 35.2188 907.353 37.4688C908.062 39.6979 909.062 41.5625 910.353 43.0625C911.624 44.5833 913.176 45.7292 915.01 46.5C916.843 47.2708 918.895 47.6562 921.166 47.6562C923.457 47.6562 925.52 47.2708 927.353 46.5C929.187 45.7292 930.739 44.5833 932.01 43.0625C933.28 41.5625 934.249 39.6979 934.916 37.4688C935.603 35.2188 935.947 32.625 935.947 29.6875ZM915.072 25.9375C915.072 25.2917 915.072 24.8021 915.072 24.4688C915.072 24.1354 915.072 23.4688 915.072 22.4688V17.4375C915.072 15.75 915.197 14.2917 915.447 13.0625C915.718 11.8333 916.124 10.8333 916.666 10.0625C917.166 9.33333 917.78 8.79167 918.51 8.4375C919.26 8.0625 920.124 7.875 921.103 7.875C921.978 7.875 922.76 8.02083 923.447 8.3125C924.155 8.58333 924.749 9.01042 925.228 9.59375C925.853 10.3229 926.322 11.3021 926.635 12.5312C926.968 13.7396 927.155 15.1979 927.197 16.9062L915.072 25.9375ZM927.197 31C927.197 32.6875 927.062 34.1562 926.791 35.4062C926.541 36.6354 926.155 37.6458 925.635 38.4375C925.135 39.1875 924.51 39.75 923.76 40.125C923.01 40.4792 922.145 40.6562 921.166 40.6562C920.103 40.6562 919.187 40.4479 918.416 40.0312C917.645 39.6146 917.01 38.9792 916.51 38.125C916.072 37.4167 915.728 36.5312 915.478 35.4688C915.249 34.4062 915.114 33.1875 915.072 31.8125L927.197 22.8125C927.197 23.4167 927.197 23.8854 927.197 24.2188C927.197 24.5312 927.197 25.0312 927.197 25.7188V31ZM965.337 47V1.5H964.868L945.056 8.65625V16.2188L956.556 12.0938V47H965.337ZM1049.15 29.6875V18.8125C1049.15 15.875 1048.8 13.2917 1048.12 11.0625C1047.43 8.8125 1046.45 6.92708 1045.18 5.40625C1043.89 3.90625 1042.32 2.77083 1040.49 2C1038.66 1.22917 1036.6 0.84375 1034.3 0.84375C1032.03 0.84375 1029.98 1.22917 1028.15 2C1026.34 2.77083 1024.79 3.90625 1023.52 5.40625C1022.23 6.92708 1021.24 8.8125 1020.55 11.0625C1019.87 13.2917 1019.52 15.875 1019.52 18.8125V29.6875C1019.52 32.625 1019.87 35.2188 1020.55 37.4688C1021.26 39.6979 1022.26 41.5625 1023.55 43.0625C1024.82 44.5833 1026.38 45.7292 1028.21 46.5C1030.04 47.2708 1032.1 47.6562 1034.37 47.6562C1036.66 47.6562 1038.72 47.2708 1040.55 46.5C1042.39 45.7292 1043.94 44.5833 1045.21 43.0625C1046.48 41.5625 1047.45 39.6979 1048.12 37.4688C1048.8 35.2188 1049.15 32.625 1049.15 29.6875ZM1028.27 25.9375C1028.27 25.2917 1028.27 24.8021 1028.27 24.4688C1028.27 24.1354 1028.27 23.4688 1028.27 22.4688V17.4375C1028.27 15.75 1028.4 14.2917 1028.65 13.0625C1028.92 11.8333 1029.32 10.8333 1029.87 10.0625C1030.37 9.33333 1030.98 8.79167 1031.71 8.4375C1032.46 8.0625 1033.32 7.875 1034.3 7.875C1035.18 7.875 1035.96 8.02083 1036.65 8.3125C1037.36 8.58333 1037.95 9.01042 1038.43 9.59375C1039.05 10.3229 1039.52 11.3021 1039.84 12.5312C1040.17 13.7396 1040.36 15.1979 1040.4 16.9062L1028.27 25.9375ZM1040.4 31C1040.4 32.6875 1040.26 34.1562 1039.99 35.4062C1039.74 36.6354 1039.36 37.6458 1038.84 38.4375C1038.34 39.1875 1037.71 39.75 1036.96 40.125C1036.21 40.4792 1035.35 40.6562 1034.37 40.6562C1033.3 40.6562 1032.39 40.4479 1031.62 40.0312C1030.85 39.6146 1030.21 38.9792 1029.71 38.125C1029.27 37.4167 1028.93 36.5312 1028.68 35.4688C1028.45 34.4062 1028.31 33.1875 1028.27 31.8125L1040.4 22.8125C1040.4 23.4167 1040.4 23.8854 1040.4 24.2188C1040.4 24.5312 1040.4 25.0312 1040.4 25.7188V31ZM1078.54 47V1.5H1078.07L1058.26 8.65625V16.2188L1069.76 12.0938V47H1078.54ZM1124.61 29.6875V18.8125C1124.61 15.875 1124.27 13.2917 1123.58 11.0625C1122.9 8.8125 1121.92 6.92708 1120.65 5.40625C1119.35 3.90625 1117.79 2.77083 1115.96 2C1114.12 1.22917 1112.06 0.84375 1109.77 0.84375C1107.5 0.84375 1105.45 1.22917 1103.61 2C1101.8 2.77083 1100.26 3.90625 1098.99 5.40625C1097.7 6.92708 1096.71 8.8125 1096.02 11.0625C1095.33 13.2917 1094.99 15.875 1094.99 18.8125V29.6875C1094.99 32.625 1095.33 35.2188 1096.02 37.4688C1096.73 39.6979 1097.73 41.5625 1099.02 43.0625C1100.29 44.5833 1101.84 45.7292 1103.68 46.5C1105.51 47.2708 1107.56 47.6562 1109.83 47.6562C1112.12 47.6562 1114.19 47.2708 1116.02 46.5C1117.85 45.7292 1119.41 44.5833 1120.68 43.0625C1121.95 41.5625 1122.92 39.6979 1123.58 37.4688C1124.27 35.2188 1124.61 32.625 1124.61 29.6875ZM1103.74 25.9375C1103.74 25.2917 1103.74 24.8021 1103.74 24.4688C1103.74 24.1354 1103.74 23.4688 1103.74 22.4688V17.4375C1103.74 15.75 1103.86 14.2917 1104.11 13.0625C1104.39 11.8333 1104.79 10.8333 1105.33 10.0625C1105.83 9.33333 1106.45 8.79167 1107.18 8.4375C1107.93 8.0625 1108.79 7.875 1109.77 7.875C1110.65 7.875 1111.43 8.02083 1112.11 8.3125C1112.82 8.58333 1113.42 9.01042 1113.9 9.59375C1114.52 10.3229 1114.99 11.3021 1115.3 12.5312C1115.64 13.7396 1115.82 15.1979 1115.86 16.9062L1103.74 25.9375ZM1115.86 31C1115.86 32.6875 1115.73 34.1562 1115.46 35.4062C1115.21 36.6354 1114.82 37.6458 1114.3 38.4375C1113.8 39.1875 1113.18 39.75 1112.43 40.125C1111.68 40.4792 1110.81 40.6562 1109.83 40.6562C1108.77 40.6562 1107.85 40.4479 1107.08 40.0312C1106.31 39.6146 1105.68 38.9792 1105.18 38.125C1104.74 37.4167 1104.4 36.5312 1104.15 35.4688C1103.92 34.4062 1103.78 33.1875 1103.74 31.8125L1115.86 22.8125C1115.86 23.4167 1115.86 23.8854 1115.86 24.2188C1115.86 24.5312 1115.86 25.0312 1115.86 25.7188V31ZM1162.35 29.6875V18.8125C1162.35 15.875 1162 13.2917 1161.32 11.0625C1160.63 8.8125 1159.65 6.92708 1158.38 5.40625C1157.09 3.90625 1155.53 2.77083 1153.69 2C1151.86 1.22917 1149.8 0.84375 1147.5 0.84375C1145.23 0.84375 1143.18 1.22917 1141.35 2C1139.54 2.77083 1137.99 3.90625 1136.72 5.40625C1135.43 6.92708 1134.44 8.8125 1133.75 11.0625C1133.07 13.2917 1132.72 15.875 1132.72 18.8125V29.6875C1132.72 32.625 1133.07 35.2188 1133.75 37.4688C1134.46 39.6979 1135.46 41.5625 1136.75 43.0625C1138.03 44.5833 1139.58 45.7292 1141.41 46.5C1143.24 47.2708 1145.3 47.6562 1147.57 47.6562C1149.86 47.6562 1151.92 47.2708 1153.75 46.5C1155.59 45.7292 1157.14 44.5833 1158.41 43.0625C1159.68 41.5625 1160.65 39.6979 1161.32 37.4688C1162 35.2188 1162.35 32.625 1162.35 29.6875ZM1141.47 25.9375C1141.47 25.2917 1141.47 24.8021 1141.47 24.4688C1141.47 24.1354 1141.47 23.4688 1141.47 22.4688V17.4375C1141.47 15.75 1141.6 14.2917 1141.85 13.0625C1142.12 11.8333 1142.53 10.8333 1143.07 10.0625C1143.57 9.33333 1144.18 8.79167 1144.91 8.4375C1145.66 8.0625 1146.53 7.875 1147.5 7.875C1148.38 7.875 1149.16 8.02083 1149.85 8.3125C1150.56 8.58333 1151.15 9.01042 1151.63 9.59375C1152.25 10.3229 1152.72 11.3021 1153.04 12.5312C1153.37 13.7396 1153.56 15.1979 1153.6 16.9062L1141.47 25.9375ZM1153.6 31C1153.6 32.6875 1153.46 34.1562 1153.19 35.4062C1152.94 36.6354 1152.56 37.6458 1152.04 38.4375C1151.54 39.1875 1150.91 39.75 1150.16 40.125C1149.41 40.4792 1148.55 40.6562 1147.57 40.6562C1146.5 40.6562 1145.59 40.4479 1144.82 40.0312C1144.05 39.6146 1143.41 38.9792 1142.91 38.125C1142.47 37.4167 1142.13 36.5312 1141.88 35.4688C1141.65 34.4062 1141.51 33.1875 1141.47 31.8125L1153.6 22.8125C1153.6 23.4167 1153.6 23.8854 1153.6 24.2188C1153.6 24.5312 1153.6 25.0312 1153.6 25.7188V31ZM1200.08 29.6875V18.8125C1200.08 15.875 1199.74 13.2917 1199.05 11.0625C1198.36 8.8125 1197.38 6.92708 1196.11 5.40625C1194.82 3.90625 1193.26 2.77083 1191.43 2C1189.59 1.22917 1187.53 0.84375 1185.24 0.84375C1182.97 0.84375 1180.91 1.22917 1179.08 2C1177.27 2.77083 1175.73 3.90625 1174.46 5.40625C1173.16 6.92708 1172.18 8.8125 1171.49 11.0625C1170.8 13.2917 1170.46 15.875 1170.46 18.8125V29.6875C1170.46 32.625 1170.8 35.2188 1171.49 37.4688C1172.2 39.6979 1173.2 41.5625 1174.49 43.0625C1175.76 44.5833 1177.31 45.7292 1179.14 46.5C1180.98 47.2708 1183.03 47.6562 1185.3 47.6562C1187.59 47.6562 1189.65 47.2708 1191.49 46.5C1193.32 45.7292 1194.87 44.5833 1196.14 43.0625C1197.41 41.5625 1198.38 39.6979 1199.05 37.4688C1199.74 35.2188 1200.08 32.625 1200.08 29.6875ZM1179.21 25.9375C1179.21 25.2917 1179.21 24.8021 1179.21 24.4688C1179.21 24.1354 1179.21 23.4688 1179.21 22.4688V17.4375C1179.21 15.75 1179.33 14.2917 1179.58 13.0625C1179.85 11.8333 1180.26 10.8333 1180.8 10.0625C1181.3 9.33333 1181.91 8.79167 1182.64 8.4375C1183.39 8.0625 1184.26 7.875 1185.24 7.875C1186.11 7.875 1186.89 8.02083 1187.58 8.3125C1188.29 8.58333 1188.88 9.01042 1189.36 9.59375C1189.99 10.3229 1190.46 11.3021 1190.77 12.5312C1191.1 13.7396 1191.29 15.1979 1191.33 16.9062L1179.21 25.9375ZM1191.33 31C1191.33 32.6875 1191.2 34.1562 1190.93 35.4062C1190.68 36.6354 1190.29 37.6458 1189.77 38.4375C1189.27 39.1875 1188.64 39.75 1187.89 40.125C1187.14 40.4792 1186.28 40.6562 1185.3 40.6562C1184.24 40.6562 1183.32 40.4479 1182.55 40.0312C1181.78 39.6146 1181.14 38.9792 1180.64 38.125C1180.21 37.4167 1179.86 36.5312 1179.61 35.4688C1179.38 34.4062 1179.25 33.1875 1179.21 31.8125L1191.33 22.8125C1191.33 23.4167 1191.33 23.8854 1191.33 24.2188C1191.33 24.5312 1191.33 25.0312 1191.33 25.7188V31ZM1237.82 29.6875V18.8125C1237.82 15.875 1237.47 13.2917 1236.78 11.0625C1236.1 8.8125 1235.12 6.92708 1233.85 5.40625C1232.55 3.90625 1230.99 2.77083 1229.16 2C1227.33 1.22917 1225.26 0.84375 1222.97 0.84375C1220.7 0.84375 1218.65 1.22917 1216.82 2C1215 2.77083 1213.46 3.90625 1212.19 5.40625C1210.9 6.92708 1209.91 8.8125 1209.22 11.0625C1208.53 13.2917 1208.19 15.875 1208.19 18.8125V29.6875C1208.19 32.625 1208.53 35.2188 1209.22 37.4688C1209.93 39.6979 1210.93 41.5625 1212.22 43.0625C1213.49 44.5833 1215.04 45.7292 1216.88 46.5C1218.71 47.2708 1220.76 47.6562 1223.03 47.6562C1225.33 47.6562 1227.39 47.2708 1229.22 46.5C1231.05 45.7292 1232.61 44.5833 1233.88 43.0625C1235.15 41.5625 1236.12 39.6979 1236.78 37.4688C1237.47 35.2188 1237.82 32.625 1237.82 29.6875ZM1216.94 25.9375C1216.94 25.2917 1216.94 24.8021 1216.94 24.4688C1216.94 24.1354 1216.94 23.4688 1216.94 22.4688V17.4375C1216.94 15.75 1217.07 14.2917 1217.32 13.0625C1217.59 11.8333 1217.99 10.8333 1218.53 10.0625C1219.03 9.33333 1219.65 8.79167 1220.38 8.4375C1221.13 8.0625 1221.99 7.875 1222.97 7.875C1223.85 7.875 1224.63 8.02083 1225.32 8.3125C1226.02 8.58333 1226.62 9.01042 1227.1 9.59375C1227.72 10.3229 1228.19 11.3021 1228.5 12.5312C1228.84 13.7396 1229.02 15.1979 1229.07 16.9062L1216.94 25.9375ZM1229.07 31C1229.07 32.6875 1228.93 34.1562 1228.66 35.4062C1228.41 36.6354 1228.02 37.6458 1227.5 38.4375C1227 39.1875 1226.38 39.75 1225.63 40.125C1224.88 40.4792 1224.01 40.6562 1223.03 40.6562C1221.97 40.6562 1221.05 40.4479 1220.28 40.0312C1219.51 39.6146 1218.88 38.9792 1218.38 38.125C1217.94 37.4167 1217.6 36.5312 1217.35 35.4688C1217.12 34.4062 1216.98 33.1875 1216.94 31.8125L1229.07 22.8125C1229.07 23.4167 1229.07 23.8854 1229.07 24.2188C1229.07 24.5312 1229.07 25.0312 1229.07 25.7188V31ZM1275.55 29.6875V18.8125C1275.55 15.875 1275.2 13.2917 1274.52 11.0625C1273.83 8.8125 1272.85 6.92708 1271.58 5.40625C1270.29 3.90625 1268.73 2.77083 1266.89 2C1265.06 1.22917 1263 0.84375 1260.7 0.84375C1258.43 0.84375 1256.38 1.22917 1254.55 2C1252.74 2.77083 1251.19 3.90625 1249.92 5.40625C1248.63 6.92708 1247.64 8.8125 1246.95 11.0625C1246.27 13.2917 1245.92 15.875 1245.92 18.8125V29.6875C1245.92 32.625 1246.27 35.2188 1246.95 37.4688C1247.66 39.6979 1248.66 41.5625 1249.95 43.0625C1251.23 44.5833 1252.78 45.7292 1254.61 46.5C1256.44 47.2708 1258.5 47.6562 1260.77 47.6562C1263.06 47.6562 1265.12 47.2708 1266.95 46.5C1268.79 45.7292 1270.34 44.5833 1271.61 43.0625C1272.88 41.5625 1273.85 39.6979 1274.52 37.4688C1275.2 35.2188 1275.55 32.625 1275.55 29.6875ZM1254.67 25.9375C1254.67 25.2917 1254.67 24.8021 1254.67 24.4688C1254.67 24.1354 1254.67 23.4688 1254.67 22.4688V17.4375C1254.67 15.75 1254.8 14.2917 1255.05 13.0625C1255.32 11.8333 1255.73 10.8333 1256.27 10.0625C1256.77 9.33333 1257.38 8.79167 1258.11 8.4375C1258.86 8.0625 1259.73 7.875 1260.7 7.875C1261.58 7.875 1262.36 8.02083 1263.05 8.3125C1263.76 8.58333 1264.35 9.01042 1264.83 9.59375C1265.45 10.3229 1265.92 11.3021 1266.24 12.5312C1266.57 13.7396 1266.76 15.1979 1266.8 16.9062L1254.67 25.9375ZM1266.8 31C1266.8 32.6875 1266.66 34.1562 1266.39 35.4062C1266.14 36.6354 1265.76 37.6458 1265.24 38.4375C1264.74 39.1875 1264.11 39.75 1263.36 40.125C1262.61 40.4792 1261.75 40.6562 1260.77 40.6562C1259.7 40.6562 1258.79 40.4479 1258.02 40.0312C1257.25 39.6146 1256.61 38.9792 1256.11 38.125C1255.67 37.4167 1255.33 36.5312 1255.08 35.4688C1254.85 34.4062 1254.72 33.1875 1254.67 31.8125L1266.8 22.8125C1266.8 23.4167 1266.8 23.8854 1266.8 24.2188C1266.8 24.5312 1266.8 25.0312 1266.8 25.7188V31ZM1304.94 47V1.5H1304.47L1284.66 8.65625V16.2188L1296.16 12.0938V47H1304.94Z" fill="#313695"/>
<path d="M540.245 315.688V304.812C540.245 301.875 539.902 299.292 539.214 297.062C538.527 294.812 537.547 292.927 536.277 291.406C534.985 289.906 533.422 288.771 531.589 288C529.756 287.229 527.693 286.844 525.402 286.844C523.131 286.844 521.079 287.229 519.245 288C517.433 288.771 515.891 289.906 514.62 291.406C513.329 292.927 512.339 294.812 511.652 297.062C510.964 299.292 510.62 301.875 510.62 304.812V315.688C510.62 318.625 510.964 321.219 511.652 323.469C512.36 325.698 513.36 327.562 514.652 329.062C515.922 330.583 517.474 331.729 519.308 332.5C521.141 333.271 523.193 333.656 525.464 333.656C527.756 333.656 529.818 333.271 531.652 332.5C533.485 331.729 535.037 330.583 536.308 329.062C537.579 327.562 538.547 325.698 539.214 323.469C539.902 321.219 540.245 318.625 540.245 315.688ZM519.37 311.938C519.37 311.292 519.37 310.802 519.37 310.469C519.37 310.135 519.37 309.469 519.37 308.469V303.438C519.37 301.75 519.495 300.292 519.745 299.062C520.016 297.833 520.422 296.833 520.964 296.062C521.464 295.333 522.079 294.792 522.808 294.438C523.558 294.062 524.422 293.875 525.402 293.875C526.277 293.875 527.058 294.021 527.745 294.312C528.454 294.583 529.047 295.01 529.527 295.594C530.152 296.323 530.62 297.302 530.933 298.531C531.266 299.74 531.454 301.198 531.495 302.906L519.37 311.938ZM531.495 317C531.495 318.688 531.36 320.156 531.089 321.406C530.839 322.635 530.454 323.646 529.933 324.438C529.433 325.188 528.808 325.75 528.058 326.125C527.308 326.479 526.443 326.656 525.464 326.656C524.402 326.656 523.485 326.448 522.714 326.031C521.943 325.615 521.308 324.979 520.808 324.125C520.37 323.417 520.027 322.531 519.777 321.469C519.547 320.406 519.412 319.188 519.37 317.812L531.495 308.812C531.495 309.417 531.495 309.885 531.495 310.219C531.495 310.531 531.495 311.031 531.495 311.719V317ZM569.635 333V287.5H569.166L549.354 294.656V302.219L560.854 298.094V333H569.635ZM615.712 315.688V304.812C615.712 301.875 615.369 299.292 614.681 297.062C613.994 294.812 613.014 292.927 611.744 291.406C610.452 289.906 608.889 288.771 607.056 288C605.223 287.229 603.16 286.844 600.869 286.844C598.598 286.844 596.546 287.229 594.712 288C592.9 288.771 591.358 289.906 590.087 291.406C588.796 292.927 587.806 294.812 587.119 297.062C586.431 299.292 586.087 301.875 586.087 304.812V315.688C586.087 318.625 586.431 321.219 587.119 323.469C587.827 325.698 588.827 327.562 590.119 329.062C591.389 330.583 592.941 331.729 594.775 332.5C596.608 333.271 598.66 333.656 600.931 333.656C603.223 333.656 605.285 333.271 607.119 332.5C608.952 331.729 610.504 330.583 611.775 329.062C613.046 327.562 614.014 325.698 614.681 323.469C615.369 321.219 615.712 318.625 615.712 315.688ZM594.837 311.938C594.837 311.292 594.837 310.802 594.837 310.469C594.837 310.135 594.837 309.469 594.837 308.469V303.438C594.837 301.75 594.962 300.292 595.212 299.062C595.483 297.833 595.889 296.833 596.431 296.062C596.931 295.333 597.546 294.792 598.275 294.438C599.025 294.062 599.889 293.875 600.869 293.875C601.744 293.875 602.525 294.021 603.212 294.312C603.921 294.583 604.514 295.01 604.994 295.594C605.619 296.323 606.087 297.302 606.4 298.531C606.733 299.74 606.921 301.198 606.962 302.906L594.837 311.938ZM606.962 317C606.962 318.688 606.827 320.156 606.556 321.406C606.306 322.635 605.921 323.646 605.4 324.438C604.9 325.188 604.275 325.75 603.525 326.125C602.775 326.479 601.91 326.656 600.931 326.656C599.869 326.656 598.952 326.448 598.181 326.031C597.41 325.615 596.775 324.979 596.275 324.125C595.837 323.417 595.494 322.531 595.244 321.469C595.014 320.406 594.879 319.188 594.837 317.812L606.962 308.812C606.962 309.417 606.962 309.885 606.962 310.219C606.962 310.531 606.962 311.031 606.962 311.719V317ZM653.446 315.688V304.812C653.446 301.875 653.102 299.292 652.415 297.062C651.727 294.812 650.748 292.927 649.477 291.406C648.185 289.906 646.623 288.771 644.79 288C642.956 287.229 640.894 286.844 638.602 286.844C636.331 286.844 634.279 287.229 632.446 288C630.633 288.771 629.092 289.906 627.821 291.406C626.529 292.927 625.54 294.812 624.852 297.062C624.165 299.292 623.821 301.875 623.821 304.812V315.688C623.821 318.625 624.165 321.219 624.852 323.469C625.56 325.698 626.56 327.562 627.852 329.062C629.123 330.583 630.675 331.729 632.508 332.5C634.342 333.271 636.394 333.656 638.665 333.656C640.956 333.656 643.019 333.271 644.852 332.5C646.685 331.729 648.237 330.583 649.508 329.062C650.779 327.562 651.748 325.698 652.415 323.469C653.102 321.219 653.446 318.625 653.446 315.688ZM632.571 311.938C632.571 311.292 632.571 310.802 632.571 310.469C632.571 310.135 632.571 309.469 632.571 308.469V303.438C632.571 301.75 632.696 300.292 632.946 299.062C633.217 297.833 633.623 296.833 634.165 296.062C634.665 295.333 635.279 294.792 636.008 294.438C636.758 294.062 637.623 293.875 638.602 293.875C639.477 293.875 640.258 294.021 640.946 294.312C641.654 294.583 642.248 295.01 642.727 295.594C643.352 296.323 643.821 297.302 644.133 298.531C644.467 299.74 644.654 301.198 644.696 302.906L632.571 311.938ZM644.696 317C644.696 318.688 644.56 320.156 644.29 321.406C644.04 322.635 643.654 323.646 643.133 324.438C642.633 325.188 642.008 325.75 641.258 326.125C640.508 326.479 639.644 326.656 638.665 326.656C637.602 326.656 636.685 326.448 635.915 326.031C635.144 325.615 634.508 324.979 634.008 324.125C633.571 323.417 633.227 322.531 632.977 321.469C632.748 320.406 632.612 319.188 632.571 317.812L644.696 308.812C644.696 309.417 644.696 309.885 644.696 310.219C644.696 310.531 644.696 311.031 644.696 311.719V317ZM691.179 315.688V304.812C691.179 301.875 690.836 299.292 690.148 297.062C689.461 294.812 688.481 292.927 687.211 291.406C685.919 289.906 684.356 288.771 682.523 288C680.69 287.229 678.627 286.844 676.336 286.844C674.065 286.844 672.013 287.229 670.179 288C668.367 288.771 666.825 289.906 665.554 291.406C664.263 292.927 663.273 294.812 662.586 297.062C661.898 299.292 661.554 301.875 661.554 304.812V315.688C661.554 318.625 661.898 321.219 662.586 323.469C663.294 325.698 664.294 327.562 665.586 329.062C666.856 330.583 668.408 331.729 670.242 332.5C672.075 333.271 674.127 333.656 676.398 333.656C678.69 333.656 680.752 333.271 682.586 332.5C684.419 331.729 685.971 330.583 687.242 329.062C688.513 327.562 689.481 325.698 690.148 323.469C690.836 321.219 691.179 318.625 691.179 315.688ZM670.304 311.938C670.304 311.292 670.304 310.802 670.304 310.469C670.304 310.135 670.304 309.469 670.304 308.469V303.438C670.304 301.75 670.429 300.292 670.679 299.062C670.95 297.833 671.356 296.833 671.898 296.062C672.398 295.333 673.013 294.792 673.742 294.438C674.492 294.062 675.356 293.875 676.336 293.875C677.211 293.875 677.992 294.021 678.679 294.312C679.388 294.583 679.981 295.01 680.461 295.594C681.086 296.323 681.554 297.302 681.867 298.531C682.2 299.74 682.388 301.198 682.429 302.906L670.304 311.938ZM682.429 317C682.429 318.688 682.294 320.156 682.023 321.406C681.773 322.635 681.388 323.646 680.867 324.438C680.367 325.188 679.742 325.75 678.992 326.125C678.242 326.479 677.377 326.656 676.398 326.656C675.336 326.656 674.419 326.448 673.648 326.031C672.877 325.615 672.242 324.979 671.742 324.125C671.304 323.417 670.961 322.531 670.711 321.469C670.481 320.406 670.346 319.188 670.304 317.812L682.429 308.812C682.429 309.417 682.429 309.885 682.429 310.219C682.429 310.531 682.429 311.031 682.429 311.719V317ZM728.913 315.688V304.812C728.913 301.875 728.569 299.292 727.882 297.062C727.194 294.812 726.215 292.927 724.944 291.406C723.652 289.906 722.09 288.771 720.257 288C718.423 287.229 716.361 286.844 714.069 286.844C711.798 286.844 709.746 287.229 707.913 288C706.1 288.771 704.559 289.906 703.288 291.406C701.996 292.927 701.007 294.812 700.319 297.062C699.632 299.292 699.288 301.875 699.288 304.812V315.688C699.288 318.625 699.632 321.219 700.319 323.469C701.027 325.698 702.027 327.562 703.319 329.062C704.59 330.583 706.142 331.729 707.975 332.5C709.809 333.271 711.861 333.656 714.132 333.656C716.423 333.656 718.486 333.271 720.319 332.5C722.152 331.729 723.704 330.583 724.975 329.062C726.246 327.562 727.215 325.698 727.882 323.469C728.569 321.219 728.913 318.625 728.913 315.688ZM708.038 311.938C708.038 311.292 708.038 310.802 708.038 310.469C708.038 310.135 708.038 309.469 708.038 308.469V303.438C708.038 301.75 708.163 300.292 708.413 299.062C708.684 297.833 709.09 296.833 709.632 296.062C710.132 295.333 710.746 294.792 711.475 294.438C712.225 294.062 713.09 293.875 714.069 293.875C714.944 293.875 715.725 294.021 716.413 294.312C717.121 294.583 717.715 295.01 718.194 295.594C718.819 296.323 719.288 297.302 719.6 298.531C719.934 299.74 720.121 301.198 720.163 302.906L708.038 311.938ZM720.163 317C720.163 318.688 720.027 320.156 719.757 321.406C719.507 322.635 719.121 323.646 718.6 324.438C718.1 325.188 717.475 325.75 716.725 326.125C715.975 326.479 715.111 326.656 714.132 326.656C713.069 326.656 712.152 326.448 711.382 326.031C710.611 325.615 709.975 324.979 709.475 324.125C709.038 323.417 708.694 322.531 708.444 321.469C708.215 320.406 708.079 319.188 708.038 317.812L720.163 308.812C720.163 309.417 720.163 309.885 720.163 310.219C720.163 310.531 720.163 311.031 720.163 311.719V317ZM766.646 315.688V304.812C766.646 301.875 766.303 299.292 765.615 297.062C764.928 294.812 763.948 292.927 762.678 291.406C761.386 289.906 759.823 288.771 757.99 288C756.157 287.229 754.094 286.844 751.803 286.844C749.532 286.844 747.48 287.229 745.646 288C743.834 288.771 742.292 289.906 741.021 291.406C739.73 292.927 738.74 294.812 738.053 297.062C737.365 299.292 737.021 301.875 737.021 304.812V315.688C737.021 318.625 737.365 321.219 738.053 323.469C738.761 325.698 739.761 327.562 741.053 329.062C742.323 330.583 743.875 331.729 745.709 332.5C747.542 333.271 749.594 333.656 751.865 333.656C754.157 333.656 756.219 333.271 758.053 332.5C759.886 331.729 761.438 330.583 762.709 329.062C763.98 327.562 764.948 325.698 765.615 323.469C766.303 321.219 766.646 318.625 766.646 315.688ZM745.771 311.938C745.771 311.292 745.771 310.802 745.771 310.469C745.771 310.135 745.771 309.469 745.771 308.469V303.438C745.771 301.75 745.896 300.292 746.146 299.062C746.417 297.833 746.823 296.833 747.365 296.062C747.865 295.333 748.48 294.792 749.209 294.438C749.959 294.062 750.823 293.875 751.803 293.875C752.678 293.875 753.459 294.021 754.146 294.312C754.855 294.583 755.448 295.01 755.928 295.594C756.553 296.323 757.021 297.302 757.334 298.531C757.667 299.74 757.855 301.198 757.896 302.906L745.771 311.938ZM757.896 317C757.896 318.688 757.761 320.156 757.49 321.406C757.24 322.635 756.855 323.646 756.334 324.438C755.834 325.188 755.209 325.75 754.459 326.125C753.709 326.479 752.844 326.656 751.865 326.656C750.803 326.656 749.886 326.448 749.115 326.031C748.344 325.615 747.709 324.979 747.209 324.125C746.771 323.417 746.428 322.531 746.178 321.469C745.948 320.406 745.813 319.188 745.771 317.812L757.896 308.812C757.896 309.417 757.896 309.885 757.896 310.219C757.896 310.531 757.896 311.031 757.896 311.719V317ZM796.036 333V287.5H795.567L775.755 294.656V302.219L787.255 298.094V333H796.036Z" fill="#313695"/>
<path d="M12 51L506 308" stroke="#FC8D59" stroke-width="5" stroke-linecap="round"/>
<path d="M802 308L1302 51" stroke="#FC8D59" stroke-width="5" stroke-linecap="round"/>
</svg>
