<?xml version="1.0" encoding="utf-8"?>
<!-- Generator: Adobe Illustrator 16.0.0, SVG Export Plug-In . SVG Version: 6.00 Build 0)  -->
<!DOCTYPE svg PUBLIC "-//W3C//DTD SVG 1.1//EN" "http://www.w3.org/Graphics/SVG/1.1/DTD/svg11.dtd">
<svg version="1.1" id="Logo" xmlns="http://www.w3.org/2000/svg" xmlns:xlink="http://www.w3.org/1999/xlink" x="0px" y="0px"
	 width="160px" height="28px" viewBox="0 0 160 28" enable-background="new 0 0 160 28" xml:space="preserve">
<g id="Text">
	<path id="n" d="M149.451,12.995c0.9-0.96,2.234-1.469,3.54-1.469c3.977,0,4.962,2.699,4.962,6.148v7.977
		c0,0.211-0.145,0.359-0.348,0.359h-2.495c-0.203,0-0.378-0.148-0.378-0.359v-7.646c0-2.07-0.261-3.479-2.495-3.479
		c-2.814,0-2.814,2.697-2.814,5.008v6.117c0,0.211-0.175,0.359-0.377,0.359h-2.496c-0.204,0-0.377-0.148-0.377-0.359V12.275
		c0-0.15,0.173-0.33,0.377-0.33h2.496c0.202,0,0.377,0.18,0.377,0.33L149.451,12.995z"/>
	<path id="o" d="M144.402,18.543c0,4.229-3.192,7.467-7.284,7.467c-4.062,0-7.284-3.238-7.284-7.467
		c0-4.199,3.223-7.468,7.284-7.468C141.209,11.075,144.402,14.344,144.402,18.543 M133.084,18.543c0,2.338,1.799,4.318,4.033,4.318
		c2.293,0,4.092-1.98,4.092-4.318c0-2.34-1.799-4.289-4.092-4.289C134.883,14.254,133.084,16.204,133.084,18.543"/>
	<path id="t" d="M121.88,15.004h-2.321c-0.203,0-0.377-0.09-0.377-0.301v-2.428c0-0.15,0.174-0.33,0.377-0.33h0.521
		c1.8,0,1.8-1.351,1.8-2.07V8.346c0-0.21,0.175-0.33,0.379-0.33h2.493c0.204,0,0.35,0.12,0.35,0.33v3.6h3.047
		c0.202,0,0.377,0.18,0.377,0.33v2.428c0,0.211-0.175,0.301-0.377,0.301h-3.047v4.498c0,1.139-0.087,3.029,1.219,3.33
		c0.725,0.09,1.161-0.09,1.596-0.271c0,0,0.146-0.059,0.232-0.059c0.202,0,0.377,0.15,0.377,0.33v2.549
		c0,0.09-0.116,0.27-0.261,0.299h0.029c-0.609,0.271-1.423,0.33-2.061,0.33c-3.483,0-4.354-2.518-4.354-5.607V15.004z"/>
	<path id="e" d="M108.447,19.682c0.146,1.98,1.509,3.359,3.512,3.359c1.742,0,2.524-0.959,3.425-2.459
		c0.116-0.15,0.261-0.209,0.464-0.09l2.118,1.229c0.145,0.121,0.262,0.271,0.174,0.451v-0.031c-1.276,2.461-3.54,3.869-6.21,3.869
		c-4.149,0-6.704-3.238-6.704-7.377c0-4.289,2.264-7.557,6.646-7.557c4.382,0,6.471,3.688,6.471,7.856v0.422
		c0,0.209-0.174,0.328-0.377,0.328H108.447z M115.036,16.864c-0.407-1.529-1.511-2.849-3.164-2.849c-1.538,0-2.785,1.38-3.192,2.849
		H115.036z"/>
	<path id="l" d="M103.144,25.651c0,0.211-0.174,0.359-0.348,0.359H100.3c-0.203,0-0.378-0.148-0.378-0.359V2.768
		c0-0.15,0.175-0.33,0.378-0.33h2.496c0.174,0,0.348,0.18,0.348,0.33V25.651z"/>
	<path id="b" d="M84.121,2.317c0-0.149,0.174-0.329,0.377-0.329h2.525c0.203,0,0.376,0.18,0.376,0.329v10.678
		c1.075-1.2,2.467-1.92,4.15-1.92c3.976,0,6.442,3.48,6.442,7.378c0,4.02-2.322,7.559-6.559,7.559c-1.538,0-3.019-0.781-4.063-1.891
		v1.08c0,0.209-0.173,0.359-0.376,0.359h-2.496c-0.203,0-0.377-0.15-0.377-0.359V2.317z M94.8,18.514c0-2.4-1.394-4.439-3.86-4.439
		c-2.321,0-3.714,2.16-3.714,4.439c0,2.34,1.334,4.527,3.714,4.527C93.435,23.042,94.8,20.973,94.8,18.514"/>
	<path id="A" d="M67.319,20.493l-2.322,5.279c-0.058,0.09-0.261,0.24-0.348,0.24h-2.845c-0.289,0-0.434-0.24-0.348-0.51
		L71.584,2.678c0.174-0.271,0.551-0.271,0.696,0c3.28,7.408,6.849,15.417,10.128,22.825c0.087,0.27-0.059,0.51-0.348,0.51h-2.846
		c-0.116,0-0.29-0.15-0.348-0.24c-0.726-1.711-1.567-3.539-2.321-5.279H67.319z M71.932,9.726l-3.278,7.587h6.558L71.932,9.726z"/>
</g>
<path id="Icon" d="M5.295,25.651c0,0.209-0.176,0.359-0.352,0.359H2.428c-0.205,0-0.381-0.15-0.381-0.359V2.695
	c0-0.15,0.176-0.33,0.381-0.33h2.516c0.176,0,0.352,0.18,0.352,0.33V25.651z M11.878,25.651c0,0.209-0.176,0.359-0.352,0.359H9.011
	c-0.205,0-0.38-0.15-0.38-0.359V2.695c0-0.15,0.175-0.33,0.38-0.33h2.516c0.176,0,0.352,0.18,0.352,0.33V25.651z M18.461,25.651
	c0,0.209-0.175,0.359-0.352,0.359h-2.516c-0.205,0-0.38-0.15-0.38-0.359V2.695c0-0.15,0.175-0.33,0.38-0.33h2.516
	c0.177,0,0.352,0.18,0.352,0.33V25.651z M25.073,25.651c0,0.209-0.176,0.359-0.351,0.359h-2.516c-0.205,0-0.381-0.15-0.381-0.359
	V2.695c0-0.15,0.176-0.33,0.381-0.33h2.516c0.175,0,0.351,0.18,0.351,0.33V25.651z M50.966,2.334c0.204,0,0.351,0.182,0.351,0.361
	v2.588c0,0.211-0.146,0.391-0.351,0.391H28.642c-0.146,0-0.321-0.18-0.321-0.391V2.695c0-0.18,0.176-0.361,0.321-0.361H50.966z
	 M50.966,9.134c0.204,0,0.351,0.181,0.351,0.361v2.587c0,0.21-0.146,0.391-0.351,0.391H28.642c-0.146,0-0.321-0.181-0.321-0.391
	V9.495c0-0.181,0.176-0.361,0.321-0.361H50.966z M50.966,15.903c0.204,0,0.351,0.18,0.351,0.361v2.586
	c0,0.213-0.146,0.393-0.351,0.393H28.642c-0.146,0-0.321-0.18-0.321-0.393v-2.586c0-0.182,0.176-0.361,0.321-0.361H50.966z
	 M50.966,22.67c0.204,0,0.351,0.182,0.351,0.361v2.588c0,0.211-0.146,0.391-0.351,0.391H28.642c-0.146,0-0.321-0.18-0.321-0.391
	v-2.588c0-0.18,0.176-0.361,0.321-0.361H50.966z"/>
</svg>
