<?xml version="1.0"?>

<!-- Generator: Adobe Illustrator 19.2.0, SVG Export Plug-In . SVG Version: 6.00 Build 0) --> <svg version="1.1" id="iOS_x5F_photoshop_x5F_24_x5F_lt-ou_x40_2x" xmlns="http://www.w3.org/2000/svg" xmlns:xlink="http://www.w3.org/1999/xlink" x="0px" y="0px" viewBox="0 0 48 48" enable-background="new 0 0 48 48" xml:space="preserve" width="48" height="48">
<path fill="#666666" d="M2,3v42h44V3H2z M4,5h40v38H4V5z"></path>
<g> <path fill-rule="evenodd" clip-rule="evenodd" fill="#666666" d="M12.2,13.1c0-0.1,0.3-0.2,0.4-0.2c1.2-0.1,2.9-0.1,4.7-0.1 c5.1,0,7,2.8,7,6.3c0,4.6-3.4,6.6-7.5,6.6c-0.7,0-0.9,0-1.4,0v7c0,0.2-0.1,0.2-0.2,0.2h-2.8c-0.2,0-0.2-0.1-0.2-0.2V13.1z M15.5,22.8c0.4,0,0.8,0,1.5,0c2.1,0,4.1-0.8,4.1-3.6c0-2.3-1.4-3.5-3.9-3.5c-0.7,0-1.4,0-1.7,0.1V22.8z"></path> <path fill-rule="evenodd" clip-rule="evenodd" fill="#666666" d="M31.9,20.6c-1.4,0-1.9,0.7-1.9,1.3c0,0.7,0.3,1.1,2.3,2.1 c2.9,1.4,3.8,2.7,3.8,4.7c0,2.9-2.2,4.5-5.2,4.5c-1.6,0-3-0.3-3.7-0.8c-0.1-0.1-0.2-0.2-0.2-0.3v-2.7c0-0.2,0.1-0.2,0.2-0.2 c1.1,0.8,2.5,1.1,3.7,1.1c1.4,0,2-0.6,2-1.4c0-0.7-0.4-1.2-2.3-2.2c-2.6-1.2-3.7-2.5-3.7-4.6c0-2.3,1.8-4.3,5-4.3 c1.6,0,2.7,0.2,3.3,0.5c0.2,0.1,0.2,0.2,0.2,0.4v2.5c0,0.2-0.1,0.2-0.3,0.2C34.2,20.9,33.1,20.6,31.9,20.6z"></path>
</g>
</svg>
