<?xml version="1.0"?>

<!-- Generator: Adobe Illustrator 19.2.0, SVG Export Plug-In . SVG Version: 6.00 Build 0) --> <svg version="1.1" id="iOS_x5F_illustrator_x5F_24_x5F_lt-ou_x40_2x" xmlns="http://www.w3.org/2000/svg" xmlns:xlink="http://www.w3.org/1999/xlink" x="0px" y="0px" viewBox="0 0 48 48" enable-background="new 0 0 48 48" xml:space="preserve" width="48" height="48">
<path fill="#666666" d="M2,3v42h44V3H2z M4,5h40v38H4V5z"></path>
<g> <path fill-rule="evenodd" clip-rule="evenodd" fill="#666666" d="M16.5,27.2L15,32.7c0,0.1-0.1,0.2-0.3,0.2h-2.7 c-0.2,0-0.2-0.1-0.2-0.3l5.2-18.1c0.1-0.3,0.1-0.6,0.2-1.5c0-0.1,0.1-0.2,0.1-0.2h3.8c0.1,0,0.2,0,0.2,0.2l5.8,19.6 c0,0.1,0,0.2-0.1,0.2h-3c-0.1,0-0.2,0-0.3-0.2l-1.5-5.5H16.5z M21.5,24.3c-0.5-2-1.7-6.4-2.2-8.5h0c-0.4,2.1-1.3,5.7-2.1,8.5H21.5z "></path> <path fill-rule="evenodd" clip-rule="evenodd" fill="#666666" d="M30.4,14.2c0-1.2,0.8-1.9,1.9-1.9c1.1,0,1.9,0.7,1.9,1.9 c0,1.2-0.8,1.9-1.9,1.9C31.2,16,30.4,15.4,30.4,14.2z"></path> <path fill-rule="evenodd" clip-rule="evenodd" fill="#666666" d="M30.6,18.3c0-0.1,0.1-0.2,0.2-0.2h2.9c0.1,0,0.2,0.1,0.2,0.2v14.3 c0,0.2,0,0.2-0.2,0.2h-2.8c-0.2,0-0.2-0.1-0.2-0.2V18.3z"></path>
</g>
</svg>
