<?xml version="1.0" encoding="UTF-8"?>
<svg width="26.458mm" height="26.458mm" version="1.1" viewBox="0 0 26.458 26.458" xmlns="http://www.w3.org/2000/svg" xmlns:xlink="http://www.w3.org/1999/xlink">
 <g transform="translate(-57.024 -54.635)">
  <g transform="matrix(1.0662 0 0 1.0663 -3.7769 -5.3737)">
   <g transform="matrix(.35278 0 0 -.35278 81.838 68.687)">
    <path d="m0 0c0-19.425-15.746-35.17-35.17-35.17-19.425 0-35.171 15.745-35.171 35.17 0 19.424 15.746 35.169 35.171 35.169 19.424 0 35.17-15.745 35.17-35.169" fill="#00afdb"/>
   </g>
   <g transform="matrix(.35278 0 0 -.35278 68.35 59.258)">
    <path d="m0 0c-0.963 0-1.746-0.78-1.746-1.745v-14.933c0-0.965 0.783-1.745 1.746-1.745 0.962 0 1.744 0.78 1.744 1.745v14.933c0 0.965-0.782 1.745-1.744 1.745m11.687 0c-0.962 0-1.745-0.78-1.745-1.745v-21.633c0-0.963 0.783-1.746 1.745-1.746 0.964 0 1.744 0.783 1.744 1.746v21.633c0 0.965-0.78 1.745-1.744 1.745m-23.375-8.375c-0.964 0-1.745-0.781-1.745-1.745v-9.91c0-0.961 0.781-1.744 1.745-1.744 0.963 0 1.743 0.783 1.743 1.744v9.91c0 0.964-0.78 1.745-1.743 1.745m29.219 0c-0.962 0-1.745-0.781-1.745-1.745v-9.91c0-0.961 0.783-1.744 1.745-1.744 0.963 0 1.743 0.783 1.743 1.744v9.91c0 0.964-0.78 1.745-1.743 1.745m-23.375 5.0261c-0.964 0-1.746-0.781-1.746-1.745v-13.259c0-0.964 0.782-1.746 1.746-1.746 0.963 0 1.745 0.782 1.745 1.746v13.259c0 0.964-0.782 1.745-1.745 1.745m11.689-1.6752c-0.965 0-1.746-0.782-1.746-1.745v-14.935c0-0.961 0.781-1.744 1.746-1.744 0.962 0 1.743 0.783 1.743 1.744v14.935c0 0.963-0.781 1.745-1.743 1.745m7.7277-23.657c0-1.041-0.844-1.883-1.885-1.883-1.04 0-1.884 0.842-1.884 1.883 0 1.039 0.844 1.882 1.884 1.882 1.041 0 1.885-0.843 1.885-1.882m12.31-11.002c0 1.866-1.368 3.422-3.296 3.422s-3.264-1.524-3.264-3.39v-0.032c0-1.863 1.366-3.42 3.296-3.42 1.927 0 3.264 1.524 3.264 3.39zm-3.296-5.625c-3.357 0-5.767 2.5-5.767 5.595v0.03c0 3.095 2.442 5.629 5.799 5.629 3.358 0 5.765-2.504 5.765-5.597v-0.032c0-3.092-2.44-5.625-5.797-5.625m-9.8757 7.3509c0 1.026-0.712 1.555-1.878 1.555h-2.378v-3.125h2.424c1.167 0 1.832 0.621 1.832 1.539zm-0.045-7.165-2.331 3.479h-1.88v-3.479h-2.394v10.881h4.973c2.563 0 4.103-1.353 4.103-3.59v-0.033c0-1.755-0.946-2.86-2.331-3.373l2.659-3.885zm-12.061 2e-4v10.881h2.393v-10.881zm-6.6427-0.1558c-1.647 0-3.309 0.575-4.615 1.741l1.412 1.695c0.98-0.809 2.007-1.323 3.252-1.323 0.979 0 1.569 0.39 1.569 1.026v0.031c0 0.609-0.374 0.918-2.194 1.384-2.187 0.56-3.606 1.168-3.606 3.327v0.031c0 1.973 1.586 3.28 3.809 3.28 1.586 0 2.941-0.495 4.042-1.384l-1.244-1.803c-0.962 0.669-1.91 1.074-2.829 1.074-0.917 0-1.399-0.42-1.399-0.949v-0.034c0-0.713 0.466-0.944 2.348-1.425 2.207-0.578 3.449-1.37 3.449-3.268v-0.03c0-2.164-1.647-3.373-3.994-3.373m-10.64-0.0308c-3.201 0-5.58 2.472-5.58 5.595v0.03c0 3.096 2.331 5.63 5.673 5.63 2.055 0 3.28-0.688 4.292-1.681l-1.524-1.754c-0.841 0.759-1.694 1.227-2.783 1.227-1.833 0-3.156-1.524-3.156-3.39v-0.032c0-1.862 1.292-3.419 3.156-3.419 1.246 0 2.006 0.498 2.861 1.276l1.523-1.541c-1.119-1.195-2.363-1.941-4.462-1.941" fill="#fff"/>
   </g>
  </g>
 </g>
</svg>
