<?xml version="1.0" encoding="UTF-8" standalone="no"?>
<!-- Created with Inkscape (http://www.inkscape.org/) -->

<svg
   xmlns:dc="http://purl.org/dc/elements/1.1/"
   xmlns:cc="http://creativecommons.org/ns#"
   xmlns:rdf="http://www.w3.org/1999/02/22-rdf-syntax-ns#"
   xmlns:svg="http://www.w3.org/2000/svg"
   xmlns="http://www.w3.org/2000/svg"
   xmlns:sodipodi="http://sodipodi.sourceforge.net/DTD/sodipodi-0.dtd"
   xmlns:inkscape="http://www.inkscape.org/namespaces/inkscape"
   version="1.1"
   id="svg2"
   xml:space="preserve"
   width="226.02359"
   height="59.319332"
   viewBox="0 0 226.02359 59.319332"
   sodipodi:docname="FMOD.svg"
   inkscape:version="0.92.1 r15371"><metadata
     id="metadata8"><rdf:RDF><cc:Work
         rdf:about=""><dc:format>image/svg+xml</dc:format><dc:type
           rdf:resource="http://purl.org/dc/dcmitype/StillImage" /><dc:title></dc:title></cc:Work></rdf:RDF></metadata><defs
     id="defs6"><clipPath
       clipPathUnits="userSpaceOnUse"
       id="clipPath18"><path
         d="M 0,44.49 H 169.518 V 0 H 0 Z"
         id="path16"
         inkscape:connector-curvature="0" /></clipPath></defs><sodipodi:namedview
     pagecolor="#ffffff"
     bordercolor="#666666"
     borderopacity="1"
     objecttolerance="10"
     gridtolerance="10"
     guidetolerance="10"
     inkscape:pageopacity="0"
     inkscape:pageshadow="2"
     inkscape:window-width="1920"
     inkscape:window-height="1017"
     id="namedview4"
     showgrid="false"
     fit-margin-top="0"
     fit-margin-left="0"
     fit-margin-right="0"
     fit-margin-bottom="0"
     inkscape:zoom="5.8046932"
     inkscape:cx="193.09048"
     inkscape:cy="27.395316"
     inkscape:window-x="-8"
     inkscape:window-y="-8"
     inkscape:window-maximized="1"
     inkscape:current-layer="g10" /><g
     id="g10"
     inkscape:groupmode="layer"
     inkscape:label="fmod-logo"
     transform="matrix(1.3333333,0,0,-1.3333333,-3.9999999e-4,59.319332)"><g
       id="g12"><g
         id="g14"
         clip-path="url(#clipPath18)"><g
           id="g20"
           transform="translate(163.6172,7.0169)"><path
             d="m 0,0 h 1.154 c 0.59,0 1.232,-0.115 1.232,-0.859 0,-0.885 -0.705,-0.924 -1.476,-0.924 H 0 Z M -0.873,-4.9 H 0 v 2.412 H 0.924 L 2.45,-4.9 h 0.937 l -1.604,2.476 c 0.834,0.09 1.475,0.513 1.475,1.527 0,1.077 -0.628,1.603 -1.963,1.603 h -2.168 z m -2.001,2.707 c 0,2.296 1.719,4.066 3.964,4.066 2.22,0 3.938,-1.77 3.938,-4.066 0,-2.348 -1.718,-4.119 -3.938,-4.119 -2.245,0 -3.964,1.771 -3.964,4.119 m -0.872,0 c 0,-2.758 2.206,-4.824 4.836,-4.824 2.617,0 4.811,2.066 4.811,4.824 0,2.707 -2.194,4.772 -4.811,4.772 -2.63,0 -4.836,-2.065 -4.836,-4.772"
             style="fill:#000000;fill-opacity:1;fill-rule:nonzero;stroke:none"
             id="path22"
             inkscape:connector-curvature="0" /></g><g
           id="g24"
           transform="translate(24.9004,29.8397)"><path
             d="m 0,0 c 2.749,0 4.978,-2.229 4.978,-4.978 0,-2.749 -2.229,-4.978 -4.978,-4.978 -2.749,0 -4.978,2.229 -4.978,4.978 C -4.978,-2.229 -2.749,0 0,0"
             style="fill:#000000;fill-opacity:1;fill-rule:nonzero;stroke:none"
             id="path26"
             inkscape:connector-curvature="0" /></g><g
           id="g28"
           transform="translate(149.6211,12.4564)"><path
             d="m 0,0 c 0.166,0.257 0.333,0.552 0.475,0.873 0.782,1.526 2.385,2.553 4.22,2.553 2.604,0 4.721,-2.117 4.721,-4.722 0,-0.667 -0.142,-1.282 -0.385,-1.859 L 8.902,-3.438 c -2.603,-5.362 -8.12,-9.018 -14.381,-9.018 -8.684,0 -15.727,7.043 -15.727,15.727 0,8.686 7.043,15.729 15.727,15.729 h 0.694 c 2.578,-0.116 5.028,-0.847 7.171,-2.066 v 15.099 h 9.352 V 10.751 c 0,-2.464 -2.181,-5.106 -5.029,-5.106 -3.22,0 -5.67,1.039 -7.556,2.642 -1.078,0.847 -2.45,1.348 -3.925,1.348 h -0.693 c -3.528,0 -6.376,-2.862 -6.376,-6.376 0,-3.529 2.861,-6.376 6.376,-6.376 C -3.156,-3.104 -1.116,-1.86 0,0"
             style="fill:#000000;fill-opacity:1;fill-rule:nonzero;stroke:none"
             id="path30"
             inkscape:connector-curvature="0" /></g><g
           id="g32"
           transform="translate(116.5869,15.7279)"><path
             d="m 0,0 c 0,3.528 -2.86,6.376 -6.376,6.376 -3.527,0 -6.376,-2.861 -6.376,-6.376 0,-3.527 2.861,-6.376 6.376,-6.376 C -2.86,-6.376 0,-3.527 0,0 m -22.104,0 c 0,8.686 7.043,15.728 15.728,15.728 C 2.31,15.728 9.353,8.686 9.353,0 c 0,-8.685 -7.043,-15.728 -15.729,-15.728 -8.697,0 -15.728,7.043 -15.728,15.728"
             style="fill:#000000;fill-opacity:1;fill-rule:nonzero;stroke:none"
             id="path34"
             inkscape:connector-curvature="0" /></g><g
           id="g36"
           transform="translate(75.4707,22.1292)"><path
             d="m 0,0 c -0.782,0 -1.449,-0.513 -1.68,-1.219 l -3.759,-12.969 c -1.36,-4.593 -5.581,-7.941 -10.609,-7.941 -5.029,0 -9.25,3.348 -10.61,7.941 l -3.759,12.969 C -30.647,-0.5 -31.314,0 -32.097,0 c -0.782,0 -1.463,-0.513 -1.694,-1.219 l -3.758,-12.969 c -1.36,-4.593 -5.606,-7.941 -10.648,-7.941 h -2.604 v 9.326 h 2.642 c 0.783,0 1.437,0.5 1.668,1.219 l 3.759,12.97 c 1.36,4.593 5.606,7.941 10.635,7.941 5.029,0 9.275,-3.348 10.635,-7.941 l 3.759,-12.97 c 0.231,-0.719 0.885,-1.219 1.667,-1.219 0.783,0 1.437,0.5 1.668,1.219 l 3.759,12.97 c 1.36,4.593 5.593,7.941 10.635,7.941 5.029,0 9.275,-3.348 10.635,-7.941 l 3.759,-12.97 c 0.23,-0.719 0.885,-1.219 1.668,-1.219 h 2.642 v -9.326 h -2.604 c -5.028,0 -9.288,3.348 -10.647,7.941 L 1.72,-1.219 C 1.45,-0.513 0.783,0 0,0"
             style="fill:#000000;fill-opacity:1;fill-rule:nonzero;stroke:none"
             id="path38"
             inkscape:connector-curvature="0" /></g><g
           id="g40"
           transform="translate(23.6943,35.1375)"><path
             d="m 0,0 c -3.528,0 -6.375,-2.861 -6.375,-6.375 v -28.762 h -9.353 v 19.871 h -7.966 v 9.314 h 7.966 C -15.497,2.54 -8.543,9.352 0,9.352 H 9.327 V 0 Z"
             style="fill:#000000;fill-opacity:1;fill-rule:nonzero;stroke:none"
             id="path42"
             inkscape:connector-curvature="0" /></g></g></g></g></svg>