<?xml version="1.0" encoding="UTF-8" standalone="no"?>
<!-- Created with Inkscape (http://www.inkscape.org/) -->
<svg
   xmlns:svg="http://www.w3.org/2000/svg"
   xmlns="http://www.w3.org/2000/svg"
   xmlns:xlink="http://www.w3.org/1999/xlink"
   version="1.0"
   width="799.99841"
   height="215.386"
   viewBox="0 0 289.124 77.842"
   id="Layer_1"
   xml:space="preserve"><defs
   id="defs2260" />
<g
   transform="translate(-5e-4,0)"
   id="g2231">
	<g
   id="g2233">
		<path
   d="M 75.2,39.37 C 74.721,38.406 73.446,37.619 72.367,37.619 L 70.174,37.619 C 69.097,37.619 67.837,38.415 67.371,39.386 L 49.985,75.708 C 49.502,76.669 50.027,77.357 51.106,77.357 L 55.124,77.357 C 56.71,77.357 57.437,76.636 57.866,75.752 C 58.297,74.868 59.255,72.947 59.438,72.555 C 59.686,72.025 60.45,71.7 61.527,71.701 L 80.234,71.711 C 81.312,71.713 82.005,71.918 82.324,72.555 C 82.532,72.97 83.488,74.698 83.958,75.641 C 84.432,76.584 85.228,77.357 86.773,77.357 L 92.603,77.357 C 93.681,77.357 94.153,76.539 93.765,75.779 C 93.375,75.017 75.2,39.37 75.2,39.37 z M 64.216,66.091 C 63.139,66.091 62.632,65.289 63.085,64.314 L 69.936,49.637 C 70.392,48.659 71.129,48.666 71.574,49.643 L 78.244,64.32 C 78.689,65.299 78.172,66.101 77.096,66.101 L 64.216,66.091 z M 209.543,39.651 C 209.543,40.002 209.543,74.979 209.543,75.685 C 209.543,76.677 210.424,77.357 211.503,77.357 L 216.254,77.357 C 217.331,77.357 218.213,76.669 218.213,75.591 L 218.213,39.578 C 218.213,38.499 217.517,37.62 216.44,37.62 L 211.503,37.62 C 210.424,37.619 209.543,38.282 209.543,39.651 z M 129.927,62.221 C 129.308,61.339 129.648,60.365 130.679,60.057 C 130.679,60.057 134.784,58.828 136.749,57.066 C 138.715,55.299 139.703,52.748 139.703,49.423 C 139.703,47.249 139.323,45.421 138.566,43.934 C 137.809,42.451 136.724,41.237 135.312,40.308 C 133.9,39.374 132.21,38.689 130.242,38.26 C 128.271,37.833 125.612,37.708 125.612,37.708 C 124.534,37.659 122.773,37.619 121.697,37.619 L 101.967,37.619 C 100.891,37.619 100.009,38.498 100.009,39.577 L 100.009,75.591 C 100.009,76.67 100.89,77.357 101.967,77.357 L 106.636,77.357 C 107.714,77.357 108.595,76.669 108.595,75.591 C 108.595,75.591 108.598,61.267 108.607,61.267 C 108.615,61.267 108.62,61.259 108.62,61.249 C 108.62,61.237 117.471,61.227 117.471,61.227 C 118.547,61.227 119.937,61.947 120.56,62.829 L 129.748,75.766 C 130.602,76.912 131.414,77.357 132.491,77.357 L 138.594,77.357 C 139.672,77.357 139.841,76.341 139.468,75.813 C 139.099,75.288 129.927,62.221 129.927,62.221 z M 126.212,54.907 C 125.003,55.185 123.642,55.241 123.642,55.241 C 122.566,55.288 120.805,55.326 119.727,55.326 L 110.581,55.326 C 109.503,55.326 108.622,54.444 108.622,53.367 L 108.622,46.07 C 108.622,44.992 109.503,44.111 110.581,44.111 L 119.727,44.111 C 120.805,44.111 122.566,44.15 123.642,44.195 C 123.642,44.195 125.003,44.249 126.212,44.528 C 127.421,44.807 128.38,45.196 129.082,45.699 C 129.787,46.205 130.29,46.798 130.594,47.48 C 130.894,48.162 131.047,48.905 131.047,49.716 C 131.047,50.523 130.894,51.27 130.594,51.951 C 130.29,52.633 129.787,53.226 129.082,53.732 C 128.38,54.238 127.421,54.632 126.212,54.907 z M 267.875,37.619 C 266.798,37.619 265.927,38.329 265.927,39.367 C 265.927,39.865 265.939,62.403 265.939,62.403 C 265.939,63.483 265.329,63.728 264.581,62.952 L 241.515,39.027 C 240.766,38.251 239.67,37.619 238.194,37.619 L 233.856,37.619 C 232.492,37.619 231.895,38.347 231.895,39.084 C 231.895,39.818 231.895,75.183 231.895,75.921 C 231.895,76.656 232.595,77.357 233.674,77.357 L 238.019,77.357 C 239.094,77.357 239.848,76.771 239.848,75.779 C 239.848,75.281 239.87,51.511 239.87,51.511 C 239.87,50.434 240.479,50.188 241.225,50.966 L 265.276,75.969 C 266.04,76.734 266.968,77.357 268.619,77.357 L 271.883,77.357 C 272.962,77.357 273.843,76.476 273.843,75.398 L 273.843,39.578 C 273.843,38.499 272.962,37.62 271.883,37.62 L 267.875,37.62 L 267.875,37.619 z M 173.832,60.081 C 173.309,61.022 172.448,61.019 171.932,60.076 L 160.657,39.37 C 160.178,38.409 159.195,37.619 157.825,37.619 L 151.71,37.619 C 150.632,37.619 149.749,38.498 149.749,39.577 L 149.749,75.545 C 149.749,76.621 150.457,77.357 151.71,77.357 L 155.511,77.357 C 156.59,77.357 157.367,76.677 157.367,75.638 C 157.367,75.14 157.383,49.478 157.424,49.478 C 157.466,49.478 171.497,75.631 171.497,75.631 C 172.005,76.58 173.252,76.584 173.77,75.639 C 173.77,75.639 187.916,49.553 187.958,49.553 C 188.002,49.553 187.986,74.889 187.986,75.638 C 187.986,76.678 188.817,77.357 189.896,77.357 L 194.274,77.357 C 195.353,77.357 196.232,76.82 196.232,75.398 L 196.232,39.578 C 196.232,38.499 195.353,37.62 194.274,37.62 L 188.412,37.62 C 186.916,37.62 186.016,38.383 185.481,39.32 L 173.832,60.081 z "
   id="path2235" />
	</g>
	<g
   id="g2237">
		<path
   d="M 0,57.453 C 0,76.858 19.848,77.842 23.828,77.842 C 36.999,77.842 42.565,74.283 42.796,74.129 C 43.62,73.663 44.623,72.723 44.623,70.962 L 44.623,57.568 C 44.623,56.334 43.618,55.329 42.383,55.329 L 25.836,55.329 C 24.599,55.329 23.787,56.334 23.787,57.568 L 23.787,58.955 C 23.787,60.191 24.599,61.199 25.836,61.199 L 35.407,61.199 C 36.331,61.199 37.082,61.949 37.082,62.873 C 37.082,62.873 37.073,68.744 37.073,69.116 C 35.182,69.888 26.57,72.404 19.65,70.754 C 9.612,68.353 8.83,60.072 8.83,57.591 C 8.83,55.509 9.454,45.079 21.782,44.024 C 31.761,43.17 38.332,47.199 38.397,47.238 C 39.57,47.846 40.784,47.413 41.438,46.171 C 41.441,46.161 42.683,43.648 42.683,43.648 C 43.2,42.614 43.026,41.542 41.764,40.686 C 41.68,40.638 34.685,36.845 23.83,36.845 C 0.668,36.846 0,55.344 0,57.453 z "
   id="path2239" />
	</g>
	<g
   id="g2241">
		<path
   d="M 280.067,72.41 L 278.362,72.41 L 278.362,71.795 L 282.512,71.795 L 282.512,72.41 L 280.799,72.41 L 280.799,77.399 L 280.067,77.399 L 280.067,72.41 L 280.067,72.41 z "
   id="path2243" />
		<path
   d="M 288.275,74.938 C 288.233,74.156 288.183,73.208 288.183,72.518 L 288.166,72.518 C 287.967,73.166 287.742,73.873 287.46,74.647 L 286.47,77.365 L 285.921,77.365 L 285.006,74.697 C 284.74,73.899 284.525,73.183 284.366,72.518 L 284.349,72.518 C 284.332,73.216 284.29,74.148 284.241,74.996 L 284.092,77.398 L 283.402,77.398 L 283.793,71.794 L 284.716,71.794 L 285.673,74.505 C 285.905,75.195 286.088,75.811 286.238,76.392 L 286.255,76.392 C 286.404,75.827 286.604,75.212 286.854,74.505 L 287.852,71.794 L 288.775,71.794 L 289.125,77.398 L 288.409,77.398 L 288.275,74.938 z "
   id="path2245" />
	</g>
	<g
   id="g2247">
		<g
   id="g2249">
			<defs
   id="defs2251">
				<path
   d="M 265.682,27.688 L 239.69,27.687 C 238.737,27.687 237.919,27.213 237.443,26.388 C 236.967,25.563 236.967,24.619 237.444,23.794 L 250.441,1.296 C 250.917,0.472 251.734,0 252.687,0 C 253.639,0 254.457,0.472 254.933,1.296 L 267.928,23.795 C 268.406,24.62 268.406,25.565 267.929,26.39 C 267.453,27.214 266.635,27.688 265.682,27.688 z "
   id="XMLID_1_" />
			</defs>
			<use
   style="fill:#007cc2;fill-rule:evenodd"
   id="use2254"
   x="0"
   y="0"
   width="289.12399"
   height="77.842003"
   xlink:href="#XMLID_1_" />
			<clipPath
   id="XMLID_3_">
				<use
   id="use2257"
   x="0"
   y="0"
   width="289.12399"
   height="77.842003"
   xlink:href="#XMLID_1_" />
			</clipPath>
		</g>
	</g>
</g>
</svg>