<?xml version="1.0" encoding="UTF-8"?>
<svg height="160" width="522" xmlns="http://www.w3.org/2000/svg">
 <metadata/>
 <g fill-rule="evenodd" transform="matrix(1.55727 0 0 1.55727 -128.13 -1437.12)">
  <path d="m182.794 998.122c4.859-.0618 8.76597-1.84737 11.7212-5.35068 2.95496-3.50253 4.47286-8.34137 4.55377-14.5158-.081-6.1088-1.59881-10.8751-4.55377-14.2981-2.95503-3.42301-6.86201-5.16308-11.7212-5.21945-4.85661.054-8.75364 1.78563-11.6918 5.19784-2.93813 3.41219-4.44637 8.18545-4.52481 14.3197.0785 6.1744 1.58668 11.0125 4.52481 14.5158 2.93805 3.50331 6.83546 5.28662 11.6918 5.34993zm0-4.22819c-3.43282-.0618-6.15248-1.47683-8.15919-4.25677-2.00656-2.77996-3.03224-6.57352-3.07687-11.3807.0446-4.76786 1.07031-8.49581 3.07687-11.1854 2.00655-2.68963 4.72629-4.05837 8.15919-4.10547 3.43274.0463 6.15247 1.41584 8.1592 4.10547 2.00656 2.68961 3.03214 6.41756 3.07685 11.1854-.0447 4.80719-1.07029 8.60075-3.07685 11.3807-2.00665 2.77994-4.7263 4.19887-8.1592 4.25677z" fill="#0e85cd"/>
  <path d="m207.544 994.88c1.30311 1.02133 2.60623 1.81572 3.90937 2.3816 1.30312.56586 2.60624.85303 3.90945.86153 3.31934-.0387 6.15008-1.36951 8.49192-4.00354 2.34199-2.63405 3.56552-6.35738 3.67051-11.1707-.0103-4.42507-.95928-7.91139-2.84519-10.4613-1.88597-2.5499-4.64421-3.85069-8.27498-3.90242-1.65909.0308-3.24939.4192-4.77091 1.16571-1.52153.74652-2.92363 1.67137-4.20621 2.77299h-.17375l-.40542-3.24391h-3.9384v40.0209h4.74923v-9.49863zm.11586-3.70712v-14.769c1.38156-1.24909 2.68707-2.19711 3.91662-2.84482 1.22948-.64847 2.43371-.97425 3.61263-.97734 2.64006.0464 4.54163.99743 5.70487 2.85949 1.16316 1.86202 1.73266 4.36407 1.70857 7.50763-.0458 3.50639-.80843 6.23769-2.28772 8.19547-1.47929 1.957-3.40025 2.95133-5.76278 2.98221-.93874.008-2.00053-.21307-3.18548-.67317-1.18492-.45934-2.4205-1.21976-3.70671-2.28048z" fill="#0e85cd"/>
  <path d="m229.09 983.408c.0917 4.64122 1.39962 8.24488 3.92388 10.8087 2.52418 2.56379 5.71445 3.86461 9.57117 3.90167 1.90644-.0232 3.62465-.30957 5.15459-.86155 1.52995-.55119 2.9007-1.22901 4.11211-2.0342l-1.67962-3.12734c-1.03773.67472-2.13333 1.2074-3.28685 1.59957-1.15351.39217-2.39394.59289-3.72115.60138-2.72575-.0308-4.91937-.9233-6.58086-2.67187-1.66147-1.74779-2.59545-4.15873-2.80171-7.23203h18.9972c.0579-.35127.10133-.74961.1303-1.19506.0289-.44465.0434-.91557.0434-1.41118-.0193-4.07227-.99426-7.27991-2.92485-9.62136-1.93059-2.34223-4.70097-3.5365-8.31128-3.5836-3.3387.0385-6.24666 1.36179-8.72352 3.95955-2.47717 2.59854-3.77791 6.22074-3.9022 10.8666zm4.63335-2.14305c.34508-2.85483 1.27656-5.05115 2.79453-6.58819 1.51788-1.53704 3.28924-2.31443 5.31394-2.33143 2.21531.0154 3.92388.78357 5.12566 2.30982 1.20175 1.52624 1.80984 3.7295 1.82435 6.6098z" fill="#0e85cd"/>
  <path d="m256.048 997.428h4.74923v-20.3868c1.38155-1.42278 2.65813-2.50127 3.82978-3.23621 1.17157-.73494 2.46265-1.10394 3.87323-1.1078 1.84369-.0154 3.19506.58054 4.05421 1.78793.85907 1.20819 1.28382 3.12196 1.27417 5.74133v17.2015h4.74922v-17.8384c.0115-3.60056-.67814-6.33267-2.07056-8.19548-1.39244-1.86283-3.55949-2.79925-6.50118-2.80928-1.92458.0308-3.64999.49021-5.17637 1.37568-1.52638.88549-2.94778 2.01028-4.26418 3.37362h-.17375l-.40543-4.05451h-3.9384z" fill="#0e85cd"/>
  <path d="m298.345 998.122c4.85901-.0618 8.76598-1.84737 11.7212-5.35068 2.95494-3.50253 4.47283-8.34137 4.55374-14.5158-.0809-6.1088-1.5988-10.8751-4.55374-14.2981-2.95505-3.42301-6.86202-5.16308-11.7212-5.21945-4.8566.054-8.75363 1.78563-11.6918 5.19784-2.93811 3.41219-4.44637 8.18545-4.5248 14.3197.0785 6.1744 1.58669 11.0125 4.5248 14.5158 2.93805 3.50331 6.83547 5.28662 11.6918 5.34993zm0-4.22819c-3.43282-.0618-6.15247-1.47683-8.15919-4.25677-2.00657-2.77996-3.03223-6.57352-3.07685-11.3807.0445-4.76786 1.07028-8.49581 3.07685-11.1854 2.00657-2.68963 4.7263-4.05837 8.15919-4.10547 3.43275.0463 6.15249 1.41584 8.1592 4.10547 2.00656 2.68961 3.03216 6.41756 3.07685 11.1854-.0447 4.80719-1.07029 8.60075-3.07685 11.3807-2.00663 2.77994-4.7263 4.19887-8.1592 4.25677z" fill="#555"/>
  <path d="m332.962 956.419c-.64434-.26711-1.36829-.48634-2.17193-.65928-.80365-.17216-1.64342-.26171-2.51941-.26788-2.80055.0308-4.8735.86771-6.21886 2.51206-1.34535 1.64512-2.01381 3.91555-2.0054 6.81285v4.45979l-3.82253.2895v3.59054h3.82253v24.2676h4.74921v-24.2676h5.96551v-3.88004h-5.96551v-4.45979c-.003-1.79797.32096-3.15437.9701-4.06918.64914-.91405 1.63855-1.37261 2.96822-1.37493.52366 0 1.05455.0618 1.5927.1737.53815.11573 1.06907.2895 1.59271.5211z" fill="#555"/>
  <path d="m346.842 956.419c-.64434-.26711-1.36828-.48634-2.17193-.65928-.80364-.17216-1.64342-.26171-2.5194-.26788-2.80055.0308-4.87352.86771-6.21887 2.51206-1.34534 1.64512-2.01382 3.91555-2.00541 6.81285v4.45979h-3.204l-.61854 3.88622h3.8225v24.2676h4.74924v-24.2676h5.9655v-3.88003h-5.9655v-4.45981c-.003-1.79798.32095-3.15436.97008-4.0684.64915-.91483 1.63855-1.37337 2.96825-1.37569.52365 0 1.05453.0618 1.59269.17369.53813.11573 1.06905.2895 1.5927.52109z" fill="#555"/>
  <path d="m351.744 963.491c.94837-.0154 1.73025-.30339 2.3456-.86154.61537-.55892.93389-1.29464.95565-2.20868-.0216-.93874-.34027-1.6814-.95565-2.22951-.61539-.54812-1.39731-.82758-2.3456-.83994-.94841.0154-1.73028.29182-2.34564.83994-.61537.54811-.93395 1.29077-.95565 2.22951.0217.91404.34027 1.64976.95565 2.20868.61537.55815 1.39723.84533 2.34564.86154zm-2.43257 33.9391h4.74923v-28.1476h-4.74923z" fill="#555"/>
  <path d="m356.855 983.408c.0832 4.69218 1.35022 8.30975 3.80082 10.8519 2.45062 2.54218 5.58539 3.82833 9.40443 3.85844 1.69167-.008 3.31818-.3366 4.87953-.97735 1.56136-.64076 2.98515-1.53087 4.27136-2.6711l-2.1429-3.12811c-.84347.7774-1.82082 1.43822-2.93203 1.98403-1.11127.54501-2.33482.82989-3.67051.85381-2.61713-.0463-4.7094-1.03834-6.27677-2.97525-1.56737-1.93616-2.37103-4.53546-2.41079-7.79714.0484-3.29177.87838-5.91732 2.49046-7.87663 1.612-1.95933 3.71638-2.96293 6.31298-3.01157 1.1197.0154 2.13811.24704 3.05516.70252.91696.45471 1.79056 1.05068 2.62075 1.78795l2.37459-3.06946c-.94725-.92562-2.0935-1.70996-3.43885-2.35304-1.34535-.64306-2.94052-.97889-4.78542-1.00667-3.73206.0308-6.89577 1.31933-9.4909 3.87386-2.59544 2.55452-3.9492 6.20528-4.06145 10.9538z" fill="#555"/>
  <path d="m378.733 983.408c.0918 4.64122 1.39963 8.24488 3.92388 10.8087 2.52419 2.56379 5.71453 3.86461 9.57117 3.90167 1.90644-.0232 3.62468-.30957 5.1546-.86155 1.52994-.55119 2.90069-1.22901 4.11209-2.0342l-1.67961-3.12734c-1.03772.67472-2.13333 1.2074-3.28684 1.59957-1.15352.39217-2.39395.59289-3.72116.60138-2.72576-.0308-4.91938-.9233-6.58086-2.67187-1.66148-1.74779-2.59544-4.15873-2.80171-7.23203h18.9972c.0579-.35127.10135-.74961.1303-1.19506.0289-.44465.0434-.91557.0434-1.41118-.0193-4.07227-.99425-7.27991-2.92484-9.62136-1.93061-2.34223-4.70098-3.5365-8.31128-3.5836-3.33871.0385-6.24667 1.36179-8.72352 3.95955-2.47718 2.59854-3.7779 6.22074-3.9022 10.8666zm4.63335-2.14305c.34508-2.85483 1.27657-5.05115 2.79453-6.58819 1.51789-1.53704 3.28923-2.31443 5.31395-2.33143 2.2153.0154 3.92388.78357 5.12564 2.30982 1.20176 1.52624 1.80987 3.7295 1.82438 6.6098z" fill="#555"/>
  <g fill="#888" transform="matrix(.77199 0 0 .77199 145.48 741.56)">
   <path d="m78.658 271.32 1.49-4.3636c.47597-1.368.92533-2.7028 1.3481-4.0044.42275-1.3015.83664-2.6629 1.2417-4.0842h.1419c.40501 1.4213.8189 2.7827 1.2417 4.0842.42275 1.3016.87211 2.6364 1.3481 4.0044l1.49 4.3636zm11.494 9.4012h1.7029l-8.2305-23.379h-1.6319l-8.2305 23.379h1.6319l2.7671-8.0176h9.2593z"/>
   <path d="m95.889 279.05c.88912.66149 1.7627 1.1744 2.6208 1.5388.85807.36437 1.6873.54914 2.4878.55431 2.0672-.0214 3.8218-.82999 5.2638-2.4257s2.1943-3.8499 2.2572-6.7627c-.00002-2.6748-.56764-4.7841-1.7029-6.3281-1.1352-1.5439-2.8381-2.3318-5.1086-2.3636-1.0525.0244-2.0695.28605-3.051.78491-.98152.49891-1.8921 1.0887-2.7317 1.7694h-.10643l-.1419-2.1286h-1.3481v24.727h1.561v-6.2084zm0-1.49v-10.111c1.0258-.90832 1.9985-1.6016 2.9179-2.0798.91942-.47817 1.8034-.71911 2.6518-.72282 1.932.0429 3.3185.73762 4.1596 2.0842.84106 1.3466 1.252 3.0879 1.2328 5.2239-.0318 2.3429-.58907 4.2202-1.6718 5.6319-1.0828 1.4117-2.5004 2.136-4.2527 2.1729-.66223.008-1.422-.1589-2.2794-.5011-.85735-.3422-1.7768-.90834-2.7583-1.6984z"/>
   <path d="m110.6 276.46c.0384 1.6075.52919 2.7915 1.4723 3.5521.94307.76052 2.1079 1.1375 3.4944 1.1308 1.1204-.0229 2.1877-.2875 3.2017-.79378 1.014-.50627 1.9571-1.1168 2.8292-1.8315h.0709l.17738 2.1995h1.3126v-10.891c.0281-1.8721-.36512-3.4227-1.1796-4.6518-.81449-1.2291-2.2188-1.8662-4.2128-1.9113-1.3984.0385-2.646.29861-3.7428.78048-1.0968.4819-1.9542.95492-2.572 1.419l.70953 1.1707c.5787-.45527 1.337-.89281 2.2749-1.3126.93789-.41979 1.9889-.64447 3.153-.67405 1.6304.0628 2.7243.63785 3.2816 1.725.55726 1.0872.79969 2.3097.72727 3.6674-3.7642.40503-6.5417 1.1116-8.3325 2.1197s-2.6792 2.442-2.6652 4.3015zm1.6319-.071c-.0466-1.3429.64079-2.4353 2.0621-3.2771 1.4213-.84181 3.8558-1.4641 7.3037-1.8669v5.7826c-1.0347.90686-2.0162 1.5942-2.9445 2.062-.92831.46785-1.8743.70288-2.8381.7051-1.003.0111-1.844-.25056-2.5232-.78492-.67923-.53436-1.0325-1.408-1.0599-2.6208z"/>
   <path d="m125.7 272.24c.0473 2.8388.78639 5.028 2.2173 6.5675s3.2697 2.3185 5.5166 2.337c1.082-.0126 2.0754-.2269 2.98-.643.90463-.41611 1.7206-.9586 2.4479-1.6275l-.81596-1.0643c-.58833.54693-1.2653 1.0052-2.031 1.3747-.76571.36955-1.6024.56171-2.51.57649-1.8869-.034-3.3813-.72874-4.4833-2.0842s-1.6652-3.1677-1.6896-5.4367c.0399-2.2875.63413-4.116 1.7827-5.4855 1.1485-1.3695 2.6119-2.0716 4.3902-2.1064.82925.0111 1.5742.18405 2.235.51884.66073.33482 1.2638.76497 1.8093 1.2904l.92238-1.0998c-.55877-.55282-1.2417-1.0347-2.0488-1.4457-.80709-.41091-1.7916-.62673-2.9534-.64744-2.1397.017-3.9534.79897-5.4412 2.3459s-2.2638 3.7568-2.3281 6.6296z"/>
   <path d="m141.47 280.72h1.561v-12.842c1.0214-1.0643 1.9586-1.8625 2.8115-2.3946.8529-.53213 1.7723-.7982 2.7583-.79822 1.3732-.004 2.3695.43017 2.9889 1.3038.61934.87361.92384 2.2128.91351 4.0177v10.714h1.561v-10.927c.005-2.1966-.41317-3.8344-1.255-4.9135-.84183-1.079-2.1382-1.6171-3.8891-1.6142-1.1589.0178-2.2114.31044-3.1574.87804-.94604.56764-1.8566 1.3038-2.7317 2.2084v-11.1396h-1.561z"/>
   <path d="m157.18 272.24c.0554 2.8078.8226 4.9881 2.3015 6.5409s3.337 2.3407 5.5742 2.3636c1.2254-.0185 2.2601-.19438 3.1042-.52771.84402-.33332 1.5949-.71322 2.2527-1.1397l-.63857-1.2062c-.63415.4671-1.3259.83665-2.0754 1.1086-.74945.27198-1.5831.41093-2.5011.41685-1.9394-.0392-3.4796-.73244-4.6208-2.0798s-1.7413-3.1138-1.8004-5.2993h12.275c.034-.21285.0547-.42571.0621-.63857.007-.21285.0103-.42571.009-.63858-.0192-2.5166-.60164-4.4545-1.7472-5.8137s-2.7391-2.0465-4.7804-2.0621c-1.9697.0259-3.6799.82558-5.1308 2.3991-1.4508 1.5735-2.2121 3.7657-2.2838 6.5764zm1.5964-1.0288c.21729-2.0598.8736-3.6696 1.9689-4.8292s2.3902-1.7494 3.8846-1.7694c1.5432.002 2.7583.55655 3.6452 1.663.88689 1.1064 1.3392 2.7516 1.357 4.9356z"/>
  </g>
  <text fill="#888" font-family="Source Sans Pro Light" font-size="27.388" font-weight="300" letter-spacing="0" text-anchor="middle" word-spacing="0" x="409.7" y="980.86"><tspan fill="#888" font-family="Source Sans Pro Light" font-size="27.388" font-weight="300" letter-spacing="-1.82527" text-anchor="middle" x="408.78" y="980.86">™</tspan></text>
  <g transform="matrix(.43767 0 0 .43767 -67.25 840.19)">
   <path d="m425.38 225.69c-44.75 0-81.021 36.251-81.021 80.98 0 5.697.595 11.254 1.715 16.62 7.119-1.935 14.609-2.97 22.342-2.97 12.394 0 24.163 2.65 34.783 7.418 13.9-9.91 30.93-15.74 49.31-15.74 11.508 0 22.484 2.29 32.488 6.434.053.02.102.041.154.062.414.204.705.628.705 1.129 0 .692-.564 1.258-1.264 1.258-.025 0-1.23-.093-1.807-.131-1.992-.143-4.018-.219-6.043-.219-28.408 0-53.935 10.432-69.416 31.594-.247.335-.732 1.018-.738 1.018-.226.285-.578.468-.968.468-.32 0-.604-.118-.821-.318-.039-.024-.076-.061-.108-.096-14.688-13.81-34.036-19.276-55.753-19.657 11.088 31.517 41.113 54.121 76.437 54.121 44.75 0 81.031-36.262 81.031-80.986.001-44.732-36.28-80.983-81.03-80.983zm63.436 48.465c-.283-.029-.768-.108-1.082-.15-.9-.142-1.814-.257-2.732-.345-16.525-1.558-31.9 3.03-41.934 14.653-.42.43-.789.45-1.203.022-7.977-9.045-19.337-13.059-32.375-14.294-4.645-.441-9.208-.211-13.578.602-.017 0-.037 0-.057.009-.042 0-.088.011-.138.011-.467 0-.84-.379-.84-.845 0-.271.134-.509.328-.659.08-.045.16-.096.238-.133 8.134-4.256 17.536-6.293 27.349-5.363 7.117.674 13.738 2.832 19.574 6.145 8.525-4.939 18.623-7.363 29.18-6.366 5.977.566 11.602 2.187 16.711 4.645.312.16.637.313.951.484.312.155.453.423.453.747 0 .464-.299.903-.845.837z" fill="#0e85cd"/>
   <path d="m489.2 272.57c-.314-.171-.639-.324-.951-.484-5.109-2.458-10.734-4.078-16.711-4.645-10.557-.997-20.654 1.427-29.18 6.366-5.836-3.312-12.457-5.471-19.574-6.145-9.813-.93-19.215 1.107-27.349 5.363-.078.037-.159.088-.238.133-.194.15-.328.389-.328.659 0 .466.373.845.84.845.049 0 .095-.011.138-.011.02-.009.04-.009.057-.009 4.37-.812 8.933-1.043 13.578-.602 13.039 1.235 24.399 5.249 32.375 14.294.414.428.783.407 1.203-.022 10.033-11.623 25.408-16.211 41.934-14.653.918.088 1.832.203 2.732.345.314.042.799.121 1.082.15.547.065.846-.373.846-.838-.001-.323-.141-.591-.454-.746z" fill="#fff"/>
   <path d="m404.8 353.29c.217.2.501.318.821.318.39 0 .742-.183.968-.468.006 0 .491-.683.738-1.018 15.481-21.162 41.007-31.594 69.416-31.594 2.025 0 4.051.076 6.043.219.576.038 1.781.131 1.807.131.699 0 1.264-.565 1.264-1.258 0-.501-.291-.925-.705-1.129-.053-.021-.102-.042-.154-.062-10.004-4.144-20.98-6.434-32.488-6.434-18.382 0-35.405 5.83-49.314 15.743-10.62-4.768-22.389-7.418-34.783-7.418-7.733 0-15.223 1.035-22.342 2.97.731 3.505 1.701 6.922 2.87 10.245 21.718.381 41.065 5.848 55.753 19.657.03.037.067.074.106.098z" fill="#fff"/>
  </g>
 </g>
</svg>
