<?xml version="1.0" encoding="UTF-8"?>
<svg version="1.1" viewBox="0 0 623 170" xmlns="http://www.w3.org/2000/svg" xmlns:cc="http://creativecommons.org/ns#" xmlns:dc="http://purl.org/dc/elements/1.1/" xmlns:rdf="http://www.w3.org/1999/02/22-rdf-syntax-ns#">
<title>OpenJDK logo</title><desc>A free and open source implementation of Java Platform, Standard Edition (Java SE)</desc>
 <metadata>
  <rdf:RDF>
   <cc:Work rdf:about="">
    <dc:format>image/svg+xml</dc:format>
    <dc:type rdf:resource="http://purl.org/dc/dcmitype/StillImage"/>
    <dc:title/>
   </cc:Work>
  </rdf:RDF>
 </metadata>
 <g transform="translate(-75.7 -57.1)">
  <path d="m120 57.7c-31.4-0.357-44.7 30.6-44.7 68.4 0 37.8 13.2 68.4 44.7 68.4 31.4 0 44.6-30.6 44.6-68.4 0-37.8-13.2-68-44.6-68.4zm0 12.2c17.9 0 27.8 18.8 27.8 56.2 0 37.5-10.3 56.2-27.8 56.2s-27.9-18-27.9-56.2c0-38.2 9.99-56.2 27.9-56.2z" style="fill:#e76f00"/>
  <path d="m222 93.1c-5.15 0.148-10.2 2.39-14.7 5-2.99 1.76-7.59 7.16-7.59 7.16v-10.9h-14.6v132h14.6v-32.5s13.9 0.674 20.4-1.44c6.41-2.08 12.6-5.77 17.2-10.7 5.09-5.52 8.26-12.8 10.3-20 2.32-8.03 2.35-16.6 2.16-25-0.188-8.16-0.238-16.7-3.22-24.3-2.18-5.57-5.62-11-10.3-14.7-3.72-2.88-8.51-4.87-13.2-5-0.343-0.0092-0.688-0.0099-1.03 0zm-3.72 12.5c0.275 2e-3 0.536 5e-3 0.812 0.0312 3.19 0.306 5.95 2.74 8.22 5 3.07 3.06 5.49 6.96 6.78 11.1 1.89 6.03 1.07 12.6 1.06 18.9-0.0101 5.96 0.169 12-1.06 17.9-1.13 5.34-2.53 10.9-5.72 15.3-2.77 3.85-6.59 7.36-11.1 8.94-3.37 1.19-7.2 0.62-10.7 0-2.4-0.423-6.88-2.5-6.88-2.5v-64.7s4.34-3.93 6.88-5.34c3.64-2.03 7.57-4.71 11.7-4.69z" style="fill:#e76f00"/>
  <path d="m299 92.7c-5.88 0.184-11.9 2.35-16.7 5.72-4.79 3.37-8.3 8.6-10.7 13.9-2.8 6.19-3.24 13.2-3.94 20-0.769 7.47-0.799 15-0.25 22.5 0.483 6.59 0.688 13.4 3.09 19.6 1.72 4.4 4.47 8.51 7.88 11.8 3.32 3.19 7.35 5.94 11.8 7.19 6.53 1.83 13.6 1.11 20.3 0 5.09-0.845 10-2.72 14.7-5 1.92-0.95 5.34-3.56 5.34-3.56l-3.91-8.22s-8.08 4.24-12.5 5c-5.75 0.987-12.1 1.48-17.5-0.719-4.45-1.81-8.09-5.64-10.7-9.66-2.48-3.78-3.56-8.38-4.28-12.8-0.706-4.35 0-13.2 0-13.2h48.6s0.645-19.6-1.78-28.9c-1.52-5.88-3.36-12.4-7.88-16.4-5.35-4.8-13.2-7.06-20.3-7.16-0.391-0.0054-0.795-0.0123-1.19 0zm1.25 10.3c1.89-0.0501 3.84 0.426 5.5 1.31 2.41 1.29 4.28 3.55 5.81 5.81 2.16 3.19 3.62 6.86 4.56 10.6 1.14 4.51 1.25 13.9 1.25 13.9h-36.4s0.32-7.44 1.03-11.1c0.555-2.85 1.18-5.76 2.5-8.34 1.58-3.11 3.58-6.15 6.31-8.31 2.45-1.94 5.48-3.47 8.59-3.81 0.267-0.0292 0.542-0.0241 0.812-0.0312z" style="fill:#e76f00"/>
  <path d="m354 94v97.7h14.3v-75.5s4.8-4.26 7.45-6.06c2.71-1.84 5.4-4.02 8.59-4.8 2.62-0.638 5.58-0.744 8.08 0.253 1.88 0.75 3.22 2.51 4.55 4.04 1.21 1.4 2.35 2.91 3.06 4.62 1.27 3.07 2.21 7.34 1.99 9.78v67.7h14.6v-72c0.113-1.67-1.48-7.93-3.03-11.6-1.27-3.04-2.9-6-5.07-8.48-1.55-1.77-3.47-3.27-5.54-4.4-2.34-1.27-4.93-2.21-7.58-2.53-3.1-0.375-6.32-0.039-9.34 0.758-2.51 0.663-4.84 1.95-7.07 3.28-2.17 1.3-4.04 3.03-6.06 4.55-1.59 1.19-4.76 3.58-4.76 3.58l0.0893-10.9z" style="fill:#e76f00"/>
  <path d="m439 59.1h26.4v129c0.105 2.69-1.19 9.73-2.86 14.3-1.35 3.7-3.43 7.14-5.71 10.4-1.94 2.73-4.33 5.12-6.7 7.5-2.63 2.64-8.3 7.5-8.3 7.5l-14.3-11.8s4.1-4.81 5.71-7.5c1.91-3.17 3.7-6.51 4.64-10.1 0.723-2.74 0.714-8.48 0.714-8.48z" style="fill:#5382a1"/>
  <path d="m532 58.4-39.7 0.344v134h41.8s11.6-1.24 16.8-3.56c6.31-2.8 12.1-7.1 16.8-12.2 5.71-6.15 10.4-13.5 13.2-21.4 3.72-10.3 4.35-21.6 4.62-32.5 0.227-9.08-0.0765-18.4-2.5-27.1-1.83-6.62-4.7-13.1-8.91-18.6-3.62-4.67-8.4-8.6-13.6-11.4-6.34-3.47-13.7-4.87-20.7-6.44-2.58-0.572-7.84-1.06-7.84-1.06zm0.719 22.1s7.2 2.55 10.3 4.66c3 2.02 5.79 4.54 7.88 7.5 2.54 3.62 4.24 7.87 5.34 12.2 1.7 6.6 1.71 13.5 1.78 20.3 0.0749 7.16 0.292 14.5-1.41 21.4-0.986 4.04-2.73 7.92-5 11.4-2.21 3.39-4.85 6.69-8.22 8.94-3.48 2.32-11.8 4.28-11.8 4.28h-13.6v-90.3z" style="fill:#5382a1"/>
  <path d="m606 58.6h26.1v57.3l34.6-57.3h30.4l-43.6 61.2 45.7 72.9h-32.9l-34.3-59.6v59.6h-26.1z" style="fill:#5382a1"/>
 </g>
</svg>
