<?xml version="1.0" encoding="UTF-8" standalone="no"?>
<svg
   xmlns:dc="http://purl.org/dc/elements/1.1/"
   xmlns:cc="http://creativecommons.org/ns#"
   xmlns:rdf="http://www.w3.org/1999/02/22-rdf-syntax-ns#"
   xmlns:svg="http://www.w3.org/2000/svg"
   xmlns="http://www.w3.org/2000/svg"
   version="1.1"
   id="svg2"
   xml:space="preserve"
   width="1002.188"
   height="1092.191"
   viewBox="0 0 1002.188 1092.1911"><metadata
     id="metadata8"><rdf:RDF><cc:Work
         rdf:about=""><dc:format>image/svg+xml</dc:format><dc:type
           rdf:resource="http://purl.org/dc/dcmitype/StillImage" /><dc:title></dc:title></cc:Work></rdf:RDF></metadata><defs
     id="defs6"><clipPath
       clipPathUnits="userSpaceOnUse"
       id="clipPath22"><path
         d="m 0,1024 1024,0 L 1024,0 0,0 Z"
         id="path20" /></clipPath></defs><g
     id="g10"
     transform="matrix(1.3333333,0,0,-1.3333333,-184.47843,1221.5239)"><g
       id="g12"
       transform="translate(826.6959,202)"><path
         d="m 0,0 0,71.06 -26.891,0 0,-92.06 90.195,0 0,21 z"
         style="fill:#000000;fill-opacity:1;fill-rule:nonzero;stroke:none"
         id="path14" /></g><g
       id="g16"><g
         id="g18"
         clip-path="url(#clipPath22)"><g
           id="g24"
           transform="translate(498.8374,117.9577)"><path
             d="m 0,0 10.341,0 9.744,0 C 20.583,-5.295 19.022,-7.971 14.693,-8.386 10.4,-8.797 6.081,-9.146 1.773,-9.156 -16.13,-9.2 -18.049,-7.104 -16.964,10.776 c 0.02,0.333 0.029,0.666 0.063,0.997 0.67,6.667 3.126,9.189 9.809,9.499 5.15,0.238 10.317,0.089 15.477,0.132 5.373,0.044 10.499,-0.337 11.806,-6.626 l 13.198,0 c 1.86,10.558 -1.601,16.306 -11.741,16.901 -13.058,0.766 -26.227,0.647 -39.292,-0.087 -8.782,-0.493 -13.292,-5.669 -13.804,-14.269 -0.444,-7.455 -0.421,-14.976 -0.007,-22.435 0.441,-7.953 4.159,-11.928 11.938,-13.918 2.87,-0.734 5.785,-1.29 8.68,-1.928 l 26,0 c 2.091,0.444 4.177,0.913 6.274,1.328 5.615,1.11 11.135,2.918 12.264,9.281 1.114,6.277 1.061,12.762 1.546,19.514 L 0,9.165 Z"
             style="fill:#000000;fill-opacity:1;fill-rule:nonzero;stroke:none"
             id="path26" /></g><g
           id="g28"
           transform="translate(395.4373,181.3962)"><path
             d="m 0,0 0,91.393 -26.424,0 0,-69.795 C -45.3,46.038 -63.175,69.18 -80.66,91.818 l -41.398,0 0,-91.935 26.308,0 0,68.354 1.226,0.309 C -76.521,45.542 -58.518,22.538 -40.879,0 Z"
             style="fill:#000000;fill-opacity:1;fill-rule:nonzero;stroke:none"
             id="path30" /></g><g
           id="g32"
           transform="translate(443.014,227.0314)"><path
             d="m 0,0 0,26.323 c 12.208,0 24.12,0.002 36.033,-0.003 1.662,-0.001 3.323,-0.048 4.985,-0.059 C 55.819,26.161 57.371,21.84 55.884,7.282 55.4,2.544 51.811,0.179 47.578,0.107 31.847,-0.161 16.109,0 0,0 m 56.443,-33.406 c 0.357,-4.063 0.548,-8.141 0.82,-12.301 l 26.391,0 c 0,5.759 0.219,11.062 -0.045,16.34 -0.581,11.611 -2.289,16.736 -13.599,18.697 -0.592,0.103 -1.114,0.614 -2.506,1.419 11.369,2.531 15.442,10.209 15.981,20.202 0.267,4.96 0.176,10.017 -0.484,14.932 -1.604,11.95 -5.993,16.673 -17.761,18.885 -5.855,1.101 -11.885,1.69 -17.843,1.741 -22.818,0.197 -45.638,0.089 -68.458,0.066 -1.78,-0.002 -3.559,-0.221 -5.646,-0.36 l 0,-91.884 26.535,0 0,25.35 c 6.04,0 11.509,0.111 16.972,-0.025 9.644,-0.24 19.344,-0.086 28.908,-1.129 7.832,-0.854 10.041,-4.046 10.735,-11.933"
             style="fill:#000000;fill-opacity:1;fill-rule:nonzero;stroke:none"
             id="path34" /></g><g
           id="g36"
           transform="translate(572.586,218.379)"><path
             d="m 0,0 68.786,0 0,18.565 -68.899,0 0,16.585 72.852,0 0,19.517 -99.79,0 0,-91.744 101.018,0 0,20.193 -73.967,0 z"
             style="fill:#000000;fill-opacity:1;fill-rule:nonzero;stroke:none"
             id="path38" /></g><g
           id="g40"
           transform="translate(253.4775,270.4165)"><path
             d="m 0,0 c 0.004,0.918 -0.563,1.839 -0.847,2.708 l -26.341,0 c 0,-16.299 0.053,-32.104 -0.035,-47.909 -0.025,-4.315 -0.31,-8.645 -0.772,-12.936 -0.665,-6.161 -4.552,-10.039 -10.412,-10.334 -12.098,-0.61 -24.283,-1.056 -36.347,-0.266 -9.717,0.635 -12.873,4.996 -12.984,14.895 -0.19,16.997 -0.103,33.998 -0.188,50.997 -0.009,1.895 -0.385,3.789 -0.59,5.671 l -26.321,0 c 0,-22.846 -0.787,-45.02 0.27,-67.106 0.735,-15.351 7.101,-21.4 22.59,-23.993 22.482,-3.765 45.195,-3.609 67.678,-0.266 17.168,2.553 22.995,8.927 23.753,26.069 C 0.373,-41.679 -0.082,-20.826 0,0"
             style="fill:#000000;fill-opacity:1;fill-rule:nonzero;stroke:none"
             id="path42" /></g><g
           id="g44"
           transform="translate(701.4027,217.0457)"><path
             d="M 0,0 C 6.407,12.594 12.623,24.813 19.515,38.362 26.401,24.968 32.633,12.846 39.238,0 Z M 2.8,56.306 C -13.762,25.772 -30.278,-4.677 -47.175,-35.827 l 28.863,0 c 2.894,5.517 5.653,10.774 8.345,15.905 l 59.333,0 c 2.87,-5.432 5.655,-10.7 8.375,-15.847 l 29.165,0 C 69.713,-4.265 53.095,26.187 36.658,56.306 Z"
             style="fill:#000000;fill-opacity:1;fill-rule:nonzero;stroke:none"
             id="path46" /></g><g
           id="g48"
           transform="translate(439.2855,112.0015)"><path
             d="m 0,0 c -0.411,-0.097 -0.822,-0.194 -1.233,-0.292 -10.143,13.077 -20.286,26.153 -30.019,38.699 l -23.4,0 0,-51.93 14.432,0 0,37.888 c 0.491,0.174 0.981,0.348 1.471,0.522 10.2,-12.962 20.4,-25.923 30.286,-38.488 l 23.367,0 0,51.89 -14.904,0 z"
             style="fill:#000000;fill-opacity:1;fill-rule:nonzero;stroke:none"
             id="path50" /></g><g
           id="g52"
           transform="translate(627.2816,111.9747)"><path
             d="m 0,0 c -0.398,-0.103 -0.795,-0.207 -1.193,-0.31 -9.929,12.813 -19.858,25.627 -29.476,38.039 l -23.304,0 0,-51.121 14.777,0 0,39.2 C -28.17,11.734 -18.131,-1.081 -8.307,-13.621 l 23.009,0 0,51.188 -14.702,0 z"
             style="fill:#000000;fill-opacity:1;fill-rule:nonzero;stroke:none"
             id="path54" /></g><g
           id="g56"
           transform="translate(332.0377,119.259)"><path
             d="m 0,0 39.176,0 0,10.717 -39.174,0 0,9.647 41.322,0 0,10.827 -56.252,0 0,-51.931 57.303,0 0,11.039 -42.375,0 z"
             style="fill:#000000;fill-opacity:1;fill-rule:nonzero;stroke:none"
             id="path58" /></g><g
           id="g60"
           transform="translate(670.9521,119.2766)"><path
             d="m 0,0 38.455,0 0,10.44 -38.308,0 0,9.635 40.569,0 0,10.3 -55.838,0 0,-51.096 56.742,0 0,10.952 -41.62,0 z"
             style="fill:#000000;fill-opacity:1;fill-rule:nonzero;stroke:none"
             id="path62" /></g><path
           d="m 545.666,98.416 14.301,0 0,51.189 -14.301,0 z"
           style="fill:#000000;fill-opacity:1;fill-rule:nonzero;stroke:none"
           id="path64" /><g
           id="g66"
           transform="translate(312.5538,585.913)"><path
             d="m 0,0 c 0,0 -10.463,51.999 44.874,114.973 55.342,62.972 96.863,85.871 141.707,97.799 0,0 -0.038,-0.023 -0.078,-0.046 0.057,0.015 0.114,0.031 0.17,0.046 0,0 -35.227,-20.517 -35.227,-51.522 0,-9 1.435,-15.184 3.423,-19.315 2.638,-5.488 6.816,-7.354 10.567,-7.372 3.161,-0.018 5.011,1.281 9.01,2.834 l 0,-167.924 c 0,0 0.433,-2.707 2.863,-5.915 3.5,-4.613 9.001,-10.243 19.335,-10.3 17.629,0.113 39.802,20.026 39.802,20.026 l 0,135.964 c 0,13.832 -9.899,30.53 -20.389,36.259 0,0 1.429,0.09 3.743,0.089 6.926,0.002 21.784,-0.79 30.063,-7.115 2.3,2.665 39.418,44.665 105.466,57.589 0,0 -0.012,-0.013 -0.032,-0.037 0.061,0.012 0.12,0.025 0.181,0.037 0,0 -36.532,-43.016 -47.982,-64.348 -2.035,-0.121 -2.332,-40.471 -1.993,-80.79 0.329,-38.92 1.253,-77.818 1.789,-80.509 0,0 3.898,-5.794 13.824,-5.844 11.196,-0.057 30.063,7.195 59.643,38.288 l -0.001,-10e-4 0.001,10e-4 c 0,0 -0.78,-1.771 -2.35,-4.908 -8.477,-16.938 -39.975,-73.721 -95.925,-106.725 l -0.003,0.003 c -0.002,-10e-4 -0.004,-0.002 -0.005,-0.003 l -36.29,30.693 -0.927,0.774 -39.58,-41.967 c 0,0 -0.023,0.002 -0.06,0.006 l -0.005,-0.006 c 0,0 -90.232,7.633 -127.919,62.015 0,0 0.071,-0.026 0.178,-0.065 -0.016,0.022 -0.032,0.043 -0.047,0.065 0,0 5.707,-2.221 12.148,-2.342 7.547,-0.138 15.472,2.619 15.472,15.229 l 0,127.85 c 0,6.529 -4.495,13.853 -14.362,13.825 C 82.21,97.288 69.47,91.317 52.074,73.468 15.34,35.783 0.085,0 0.085,0 0.085,0 0.075,0.049 0.059,0.136 0.023,0.052 0,0 0,0 m 200.446,-216.757 c 70.386,0 136.56,27.41 186.33,77.18 49.771,49.771 77.18,115.944 77.18,186.33 0,70.386 -27.409,136.559 -77.18,186.33 -49.77,49.77 -115.944,77.18 -186.33,77.18 -70.386,0 -136.559,-27.41 -186.33,-77.18 -49.77,-49.771 -77.18,-115.944 -77.18,-186.33 0,-70.386 27.41,-136.559 77.18,-186.33 49.771,-49.77 115.944,-77.18 186.33,-77.18"
             style="fill:#000000;fill-opacity:1;fill-rule:nonzero;stroke:none"
             id="path68" /></g><g
           id="g70"
           transform="translate(513,908.3072)"><path
             d="m 0,0 c 152.232,0 275.641,-123.409 275.641,-275.641 0,-152.232 -123.409,-275.641 -275.641,-275.641 -152.232,0 -275.641,123.409 -275.641,275.641 C -275.641,-123.409 -152.232,0 0,0 m 0,-559.119 c 75.72,0 146.907,29.487 200.449,83.029 53.542,53.542 83.028,124.729 83.028,200.449 0,75.719 -29.486,146.907 -83.028,200.449 C 146.907,-21.65 75.72,7.836 0,7.836 c -75.72,0 -146.907,-29.486 -200.449,-83.028 -53.542,-53.542 -83.028,-124.73 -83.028,-200.449 0,-75.72 29.486,-146.907 83.028,-200.449 53.542,-53.542 124.729,-83.029 200.449,-83.029"
             style="fill:#000000;fill-opacity:1;fill-rule:nonzero;stroke:none"
             id="path72" /></g></g></g></g></svg>