<svg width="1412" height="708" viewBox="0 0 1412 708" fill="none" xmlns="http://www.w3.org/2000/svg">
<rect x="706" y="2" width="176" height="176" rx="6" fill="white" stroke="#CCCCCC" stroke-width="4" stroke-miterlimit="0" stroke-linecap="round"/>
<rect x="882" y="2" width="176" height="176" rx="6" fill="white" stroke="#CCCCCC" stroke-width="4" stroke-miterlimit="0" stroke-linecap="round"/>
<rect x="1058" y="2" width="176" height="176" rx="6" fill="white" stroke="#CCCCCC" stroke-width="4" stroke-miterlimit="0" stroke-linecap="round"/>
<rect x="1234" y="2" width="176" height="176" rx="6" fill="white" stroke="#CCCCCC" stroke-width="4" stroke-miterlimit="0" stroke-linecap="round"/>
<rect x="2" y="178" width="176" height="176" rx="6" fill="white" stroke="#CCCCCC" stroke-width="4" stroke-miterlimit="0" stroke-linecap="round"/>
<rect x="178" y="178" width="176" height="176" rx="6" fill="white" stroke="#CCCCCC" stroke-width="4" stroke-miterlimit="0" stroke-linecap="round"/>
<rect x="354" y="178" width="176" height="176" rx="6" fill="white" stroke="#CCCCCC" stroke-width="4" stroke-miterlimit="0" stroke-linecap="round"/>
<rect x="530" y="178" width="176" height="176" rx="6" fill="white" stroke="#CCCCCC" stroke-width="4" stroke-miterlimit="0" stroke-linecap="round"/>
<rect x="706" y="178" width="176" height="176" rx="6" fill="white" stroke="#CCCCCC" stroke-width="4" stroke-miterlimit="0" stroke-linecap="round"/>
<rect x="882" y="178" width="176" height="176" rx="6" fill="white" stroke="#CCCCCC" stroke-width="4" stroke-miterlimit="0" stroke-linecap="round"/>
<rect x="1058" y="178" width="176" height="176" rx="6" fill="white" stroke="#CCCCCC" stroke-width="4" stroke-miterlimit="0" stroke-linecap="round"/>
<rect x="1234" y="178" width="176" height="176" rx="6" fill="white" stroke="#CCCCCC" stroke-width="4" stroke-miterlimit="0" stroke-linecap="round"/>
<rect x="2" y="354" width="176" height="176" rx="6" fill="white" stroke="#CCCCCC" stroke-width="4" stroke-miterlimit="0" stroke-linecap="round"/>
<rect x="178" y="354" width="176" height="176" rx="6" fill="white" stroke="#CCCCCC" stroke-width="4" stroke-miterlimit="0" stroke-linecap="round"/>
<rect x="354" y="354" width="176" height="176" rx="6" fill="white" stroke="#CCCCCC" stroke-width="4" stroke-miterlimit="0" stroke-linecap="round"/>
<rect x="530" y="354" width="176" height="176" rx="6" fill="white" stroke="#CCCCCC" stroke-width="4" stroke-miterlimit="0" stroke-linecap="round"/>
<rect x="706" y="354" width="176" height="176" rx="6" fill="white" stroke="#CCCCCC" stroke-width="4" stroke-miterlimit="0" stroke-linecap="round"/>
<rect x="882" y="354" width="176" height="176" rx="6" fill="white" stroke="#CCCCCC" stroke-width="4" stroke-miterlimit="0" stroke-linecap="round"/>
<rect x="1058" y="354" width="176" height="176" rx="6" fill="white" stroke="#CCCCCC" stroke-width="4" stroke-miterlimit="0" stroke-linecap="round"/>
<rect x="1234" y="354" width="176" height="176" rx="6" fill="white" stroke="#CCCCCC" stroke-width="4" stroke-miterlimit="0" stroke-linecap="round"/>
<rect x="2" y="530" width="176" height="176" rx="6" fill="white" stroke="#CCCCCC" stroke-width="4" stroke-miterlimit="0" stroke-linecap="round"/>
<rect x="178" y="530" width="176" height="176" rx="6" fill="white" stroke="#CCCCCC" stroke-width="4" stroke-miterlimit="0" stroke-linecap="round"/>
<rect x="354" y="530" width="176" height="176" rx="6" fill="white" stroke="#CCCCCC" stroke-width="4" stroke-miterlimit="0" stroke-linecap="round"/>
<rect x="530" y="530" width="176" height="176" rx="6" fill="white" stroke="#CCCCCC" stroke-width="4" stroke-miterlimit="0" stroke-linecap="round"/>
<rect x="706" y="530" width="176" height="176" rx="6" fill="white" stroke="#CCCCCC" stroke-width="4" stroke-miterlimit="0" stroke-linecap="round"/>
<rect x="882" y="530" width="176" height="176" rx="6" fill="white" stroke="#CCCCCC" stroke-width="4" stroke-miterlimit="0" stroke-linecap="round"/>
<rect x="1058" y="530" width="176" height="176" rx="6" fill="white" stroke="#CCCCCC" stroke-width="4" stroke-miterlimit="0" stroke-linecap="round"/>
<rect x="1234" y="530" width="176" height="176" rx="6" fill="white" stroke="#CCCCCC" stroke-width="4" stroke-miterlimit="0" stroke-linecap="round"/>
<rect x="2" y="2" width="176" height="176" rx="6" fill="#D7191C" stroke="#888888" stroke-width="4" stroke-miterlimit="0" stroke-linecap="round"/>
<path d="M38.8872 63.9375V81H35.3833V63.9375H38.8872ZM44.1372 63.9375V66.6914H30.2153V63.9375H44.1372ZM48.5138 79.5703L51.8771 68.3203H55.4982L50.4006 82.9102C50.2912 83.2305 50.1427 83.5742 49.9552 83.9414C49.7756 84.3086 49.5295 84.6562 49.217 84.9844C48.9123 85.3203 48.5256 85.5938 48.0568 85.8047C47.5959 86.0156 47.0295 86.1211 46.3576 86.1211C46.0373 86.1211 45.7756 86.1016 45.5724 86.0625C45.3693 86.0234 45.1271 85.9688 44.8459 85.8984V83.4258C44.9318 83.4258 45.0217 83.4258 45.1154 83.4258C45.2092 83.4336 45.299 83.4375 45.3849 83.4375C45.8302 83.4375 46.1935 83.3867 46.4748 83.2852C46.756 83.1836 46.9826 83.0273 47.1545 82.8164C47.3263 82.6133 47.4631 82.3477 47.5646 82.0195L48.5138 79.5703ZM47.1076 68.3203L49.8615 77.5078L50.342 81.082L48.0451 81.3281L43.4865 68.3203H47.1076ZM59.9569 70.7578V85.875H56.5819V68.3203H59.7108L59.9569 70.7578ZM67.9842 74.5195V74.7656C67.9842 75.6875 67.8748 76.543 67.6561 77.332C67.4452 78.1211 67.1327 78.8086 66.7186 79.3945C66.3045 79.9727 65.7889 80.4258 65.1717 80.7539C64.5623 81.0742 63.8592 81.2344 63.0623 81.2344C62.2889 81.2344 61.617 81.0781 61.0467 80.7656C60.4764 80.4531 59.9959 80.0156 59.6053 79.4531C59.2225 78.8828 58.9139 78.2227 58.6795 77.4727C58.4452 76.7227 58.2655 75.918 58.1405 75.0586V74.4141C58.2655 73.4922 58.4452 72.6484 58.6795 71.8828C58.9139 71.1094 59.2225 70.4414 59.6053 69.8789C59.9959 69.3086 60.4725 68.8672 61.035 68.5547C61.6053 68.2422 62.2733 68.0859 63.0389 68.0859C63.8436 68.0859 64.5506 68.2383 65.16 68.543C65.7772 68.8477 66.2928 69.2852 66.7069 69.8555C67.1287 70.4258 67.4452 71.1055 67.6561 71.8945C67.8748 72.6836 67.9842 73.5586 67.9842 74.5195ZM64.5975 74.7656V74.5195C64.5975 73.9805 64.5506 73.4844 64.4569 73.0312C64.3709 72.5703 64.2303 72.168 64.035 71.8242C63.8475 71.4805 63.5975 71.2148 63.285 71.0273C62.9803 70.832 62.6092 70.7344 62.1717 70.7344C61.7108 70.7344 61.3162 70.8086 60.9881 70.957C60.6678 71.1055 60.4061 71.3203 60.203 71.6016C59.9998 71.8828 59.8475 72.2188 59.7459 72.6094C59.6444 73 59.5819 73.4414 59.5584 73.9336V75.5625C59.5975 76.1406 59.7069 76.6602 59.8866 77.1211C60.0662 77.5742 60.3436 77.9336 60.7186 78.1992C61.0936 78.4648 61.5858 78.5977 62.1952 78.5977C62.6405 78.5977 63.0155 78.5 63.3202 78.3047C63.6248 78.1016 63.8709 77.8242 64.0584 77.4727C64.2537 77.1211 64.3905 76.7148 64.4686 76.2539C64.5545 75.793 64.5975 75.2969 64.5975 74.7656ZM75.6538 81.2344C74.6694 81.2344 73.7866 81.0781 73.0054 80.7656C72.2241 80.4453 71.5601 80.0039 71.0132 79.4414C70.4741 78.8789 70.0601 78.2266 69.771 77.4844C69.4819 76.7344 69.3374 75.9375 69.3374 75.0938V74.625C69.3374 73.6641 69.4741 72.7852 69.7476 71.9883C70.021 71.1914 70.4116 70.5 70.9194 69.9141C71.4351 69.3281 72.0601 68.8789 72.7944 68.5664C73.5288 68.2461 74.3569 68.0859 75.2788 68.0859C76.1772 68.0859 76.9741 68.2344 77.6694 68.5312C78.3647 68.8281 78.9468 69.25 79.4155 69.7969C79.8921 70.3438 80.2515 71 80.4937 71.7656C80.7358 72.5234 80.8569 73.3672 80.8569 74.2969V75.7031H70.7788V73.4531H77.5405V73.1953C77.5405 72.7266 77.4546 72.3086 77.2827 71.9414C77.1187 71.5664 76.8687 71.2695 76.5327 71.0508C76.1968 70.832 75.7671 70.7227 75.2437 70.7227C74.7983 70.7227 74.4155 70.8203 74.0952 71.0156C73.7749 71.2109 73.5132 71.4844 73.3101 71.8359C73.1147 72.1875 72.9663 72.6016 72.8647 73.0781C72.771 73.5469 72.7241 74.0625 72.7241 74.625V75.0938C72.7241 75.6016 72.7944 76.0703 72.9351 76.5C73.0835 76.9297 73.2905 77.3008 73.5562 77.6133C73.8296 77.9258 74.1577 78.168 74.5405 78.3398C74.9312 78.5117 75.3726 78.5977 75.8647 78.5977C76.4741 78.5977 77.0405 78.4805 77.564 78.2461C78.0952 78.0039 78.5522 77.6406 78.9351 77.1562L80.5757 78.9375C80.3101 79.3203 79.9468 79.6875 79.4858 80.0391C79.0327 80.3906 78.4858 80.6797 77.8452 80.9062C77.2046 81.125 76.4741 81.2344 75.6538 81.2344ZM82.6437 79.3711C82.6437 78.8711 82.8156 78.4531 83.1593 78.1172C83.5109 77.7812 83.9757 77.6133 84.5539 77.6133C85.132 77.6133 85.5929 77.7812 85.9367 78.1172C86.2882 78.4531 86.464 78.8711 86.464 79.3711C86.464 79.8711 86.2882 80.2891 85.9367 80.625C85.5929 80.9609 85.132 81.1289 84.5539 81.1289C83.9757 81.1289 83.5109 80.9609 83.1593 80.625C82.8156 80.2891 82.6437 79.8711 82.6437 79.3711ZM82.6437 69.7031C82.6437 69.2031 82.8156 68.7852 83.1593 68.4492C83.5109 68.1133 83.9757 67.9453 84.5539 67.9453C85.132 67.9453 85.5929 68.1133 85.9367 68.4492C86.2882 68.7852 86.464 69.2031 86.464 69.7031C86.464 70.2031 86.2882 70.6211 85.9367 70.957C85.5929 71.293 85.132 71.4609 84.5539 71.4609C83.9757 71.4609 83.5109 71.293 83.1593 70.957C82.8156 70.6211 82.6437 70.2031 82.6437 69.7031ZM100.842 79.4766C100.163 79.4766 99.5923 79.3438 99.1313 79.0781C98.6782 78.8047 98.3149 78.4492 98.0415 78.0117C97.7603 77.582 97.5571 77.0977 97.4321 76.5586C97.3149 76.0117 97.2563 75.4609 97.2563 74.9062V74.4141C97.2563 73.8672 97.3149 73.3242 97.4321 72.7852C97.5571 72.2461 97.7603 71.7578 98.0415 71.3203C98.3228 70.8906 98.6899 70.543 99.1431 70.2773C99.604 70.0039 100.17 69.8672 100.842 69.8672C101.28 69.8672 101.686 69.9414 102.061 70.0898C102.444 70.2383 102.772 70.4414 103.045 70.6992C103.319 70.957 103.534 71.2578 103.69 71.6016C103.854 71.9375 103.94 72.2969 103.948 72.6797H105.999C105.999 72.0391 105.87 71.4375 105.612 70.875C105.354 70.3125 104.999 69.8242 104.545 69.4102C104.084 69.0039 103.538 68.6836 102.905 68.4492C102.28 68.207 101.592 68.0859 100.842 68.0859C99.8813 68.0859 99.0415 68.2578 98.3228 68.6016C97.604 68.9453 97.0063 69.4062 96.5298 69.9844C96.0454 70.5703 95.6821 71.2461 95.4399 72.0117C95.1978 72.7773 95.0767 73.5781 95.0767 74.4141V74.9062C95.0767 75.75 95.1978 76.5547 95.4399 77.3203C95.6821 78.0781 96.0454 78.7461 96.5298 79.3242C97.0063 79.9102 97.604 80.375 98.3228 80.7188C99.0415 81.0625 99.8813 81.2344 100.842 81.2344C101.514 81.2344 102.159 81.1211 102.776 80.8945C103.393 80.6602 103.94 80.3477 104.417 79.957C104.893 79.5742 105.272 79.1289 105.553 78.6211C105.842 78.1055 105.991 77.5664 105.999 77.0039H103.948C103.94 77.3555 103.846 77.6836 103.667 77.9883C103.495 78.2852 103.264 78.543 102.975 78.7617C102.686 78.9883 102.354 79.1641 101.979 79.2891C101.612 79.4141 101.233 79.4766 100.842 79.4766ZM111.758 70.207V63H109.59V81H111.758V71.7891C111.914 71.5391 112.09 71.3125 112.285 71.1094C112.488 70.8984 112.707 70.7148 112.942 70.5586C113.238 70.3555 113.563 70.1992 113.914 70.0898C114.266 69.9805 114.637 69.9258 115.027 69.9258C115.504 69.918 115.926 69.9844 116.293 70.125C116.66 70.2578 116.965 70.4609 117.207 70.7344C117.434 70.9844 117.606 71.3008 117.723 71.6836C117.84 72.0586 117.899 72.4961 117.899 72.9961V81H120.067V73.0195C120.067 72.168 119.961 71.4336 119.75 70.8164C119.547 70.1914 119.254 69.6758 118.871 69.2695C118.488 68.8633 118.024 68.5664 117.477 68.3789C116.938 68.1836 116.336 68.0859 115.672 68.0859C115.164 68.0938 114.684 68.168 114.231 68.3086C113.785 68.4492 113.375 68.6562 113 68.9297C112.766 69.0938 112.543 69.2852 112.332 69.5039C112.121 69.7148 111.93 69.9492 111.758 70.207ZM132.072 81H134.334V80.8125C134.193 80.4609 134.084 80.0508 134.006 79.582C133.928 79.1055 133.889 78.6562 133.889 78.2344V72.3398C133.889 71.6289 133.76 71.0078 133.502 70.4766C133.244 69.9453 132.892 69.5 132.447 69.1406C131.994 68.7891 131.459 68.5273 130.842 68.3555C130.224 68.1758 129.556 68.0859 128.838 68.0859C128.049 68.0859 127.342 68.1953 126.717 68.4141C126.099 68.6328 125.576 68.918 125.146 69.2695C124.709 69.6289 124.373 70.0312 124.139 70.4766C123.912 70.9219 123.795 71.375 123.787 71.8359H125.967C125.967 71.5703 126.029 71.3164 126.154 71.0742C126.287 70.8242 126.471 70.6094 126.705 70.4297C126.939 70.25 127.224 70.1055 127.56 69.9961C127.904 69.8867 128.291 69.832 128.721 69.832C129.181 69.832 129.596 69.8906 129.963 70.0078C130.338 70.125 130.654 70.2891 130.912 70.5C131.17 70.7188 131.369 70.9805 131.51 71.2852C131.65 71.5898 131.721 71.9336 131.721 72.3164V73.3125H129.353C128.471 73.3125 127.67 73.3984 126.951 73.5703C126.24 73.7422 125.631 74 125.123 74.3438C124.615 74.6953 124.221 75.1328 123.939 75.6562C123.666 76.1797 123.529 76.7891 123.529 77.4844C123.529 78.0156 123.631 78.5117 123.834 78.9727C124.045 79.4258 124.342 79.8164 124.724 80.1445C125.099 80.4805 125.556 80.7461 126.096 80.9414C126.642 81.1367 127.252 81.2344 127.924 81.2344C128.338 81.2344 128.728 81.1914 129.096 81.1055C129.463 81.0195 129.81 80.9023 130.139 80.7539C130.459 80.6055 130.752 80.4336 131.017 80.2383C131.291 80.043 131.537 79.8359 131.756 79.6172C131.779 79.8828 131.814 80.1406 131.861 80.3906C131.916 80.6328 131.986 80.8359 132.072 81ZM128.24 79.3477C127.818 79.3477 127.447 79.293 127.127 79.1836C126.806 79.0742 126.541 78.9219 126.33 78.7266C126.119 78.5391 125.959 78.3125 125.849 78.0469C125.748 77.7812 125.697 77.4922 125.697 77.1797C125.697 76.8516 125.756 76.5586 125.873 76.3008C125.998 76.043 126.178 75.8203 126.412 75.6328C126.74 75.3672 127.181 75.1719 127.736 75.0469C128.299 74.9141 128.955 74.8477 129.705 74.8477H131.721V77.4141C131.596 77.6641 131.424 77.9062 131.205 78.1406C130.986 78.3672 130.728 78.5703 130.431 78.75C130.127 78.9297 129.791 79.0742 129.424 79.1836C129.056 79.293 128.662 79.3477 128.24 79.3477ZM146.199 68.0859C145.277 68.0859 144.453 68.2891 143.726 68.6953C143.007 69.0938 142.39 69.6406 141.874 70.3359L141.863 70.0195L141.769 68.3203H139.707V81H141.886V72.8672C142.027 72.4766 142.203 72.125 142.414 71.8125C142.632 71.4922 142.886 71.2227 143.175 71.0039C143.496 70.7539 143.871 70.5664 144.3 70.4414C144.73 70.3086 145.21 70.2422 145.742 70.2422C146.156 70.2422 146.55 70.2656 146.925 70.3125C147.308 70.3516 147.71 70.418 148.132 70.5117L148.425 68.3906C148.207 68.2969 147.878 68.2227 147.441 68.168C147.011 68.1133 146.597 68.0859 146.199 68.0859ZM40.5044 113.438L44.5239 99.9375H48.438L42.4966 117H39.9185L40.5044 113.438ZM36.8013 99.9375L40.8091 113.438L41.4185 117H38.8169L32.9107 99.9375H36.8013ZM55.8615 114.141V108.492C55.8615 108.086 55.7951 107.738 55.6623 107.449C55.5295 107.152 55.3224 106.922 55.0412 106.758C54.7677 106.594 54.4123 106.512 53.9748 106.512C53.5998 106.512 53.2756 106.578 53.0021 106.711C52.7287 106.836 52.5177 107.02 52.3693 107.262C52.2209 107.496 52.1467 107.773 52.1467 108.094H48.7717C48.7717 107.555 48.8967 107.043 49.1467 106.559C49.3967 106.074 49.7599 105.648 50.2365 105.281C50.7131 104.906 51.2795 104.613 51.9357 104.402C52.5998 104.191 53.342 104.086 54.1623 104.086C55.1467 104.086 56.0217 104.25 56.7873 104.578C57.5529 104.906 58.1545 105.398 58.592 106.055C59.0373 106.711 59.2599 107.531 59.2599 108.516V113.941C59.2599 114.637 59.3029 115.207 59.3888 115.652C59.4748 116.09 59.5998 116.473 59.7638 116.801V117H56.3537C56.1896 116.656 56.0646 116.227 55.9787 115.711C55.9006 115.188 55.8615 114.664 55.8615 114.141ZM56.3068 109.277L56.3302 111.188H54.4435C53.9982 111.188 53.6115 111.238 53.2834 111.34C52.9552 111.441 52.6857 111.586 52.4748 111.773C52.2638 111.953 52.1076 112.164 52.006 112.406C51.9123 112.648 51.8654 112.914 51.8654 113.203C51.8654 113.492 51.9318 113.754 52.0646 113.988C52.1974 114.215 52.3888 114.395 52.6388 114.527C52.8888 114.652 53.1818 114.715 53.5177 114.715C54.0256 114.715 54.467 114.613 54.842 114.41C55.217 114.207 55.506 113.957 55.7092 113.66C55.9201 113.363 56.0295 113.082 56.0373 112.816L56.9279 114.246C56.8029 114.566 56.631 114.898 56.4123 115.242C56.2013 115.586 55.9318 115.91 55.6037 116.215C55.2756 116.512 54.881 116.758 54.4201 116.953C53.9592 117.141 53.4123 117.234 52.7795 117.234C51.9748 117.234 51.2443 117.074 50.5881 116.754C49.9396 116.426 49.424 115.977 49.0412 115.406C48.6662 114.828 48.4787 114.172 48.4787 113.438C48.4787 112.773 48.6037 112.184 48.8537 111.668C49.1037 111.152 49.4709 110.719 49.9552 110.367C50.4474 110.008 51.0607 109.738 51.7951 109.559C52.5295 109.371 53.381 109.277 54.3498 109.277H56.3068ZM65.16 99V117H61.7733V99H65.16ZM75.1851 113.965V104.32H78.5601V117H75.3843L75.1851 113.965ZM75.5601 111.363L76.5562 111.34C76.5562 112.184 76.4585 112.969 76.2632 113.695C76.0679 114.414 75.7749 115.039 75.3843 115.57C74.9937 116.094 74.5015 116.504 73.9077 116.801C73.314 117.09 72.6147 117.234 71.8101 117.234C71.1929 117.234 70.6226 117.148 70.0991 116.977C69.5835 116.797 69.1382 116.52 68.7632 116.145C68.396 115.762 68.1069 115.273 67.896 114.68C67.6929 114.078 67.5913 113.355 67.5913 112.512V104.32H70.9663V112.535C70.9663 112.91 71.0093 113.227 71.0952 113.484C71.189 113.742 71.3179 113.953 71.4819 114.117C71.646 114.281 71.8374 114.398 72.0562 114.469C72.2827 114.539 72.5327 114.574 72.8062 114.574C73.5015 114.574 74.0483 114.434 74.4468 114.152C74.853 113.871 75.1382 113.488 75.3022 113.004C75.4741 112.512 75.5601 111.965 75.5601 111.363ZM86.7101 117.234C85.7257 117.234 84.8429 117.078 84.0617 116.766C83.2804 116.445 82.6164 116.004 82.0695 115.441C81.5304 114.879 81.1164 114.227 80.8273 113.484C80.5382 112.734 80.3937 111.938 80.3937 111.094V110.625C80.3937 109.664 80.5304 108.785 80.8039 107.988C81.0773 107.191 81.4679 106.5 81.9757 105.914C82.4914 105.328 83.1164 104.879 83.8507 104.566C84.5851 104.246 85.4132 104.086 86.3351 104.086C87.2336 104.086 88.0304 104.234 88.7257 104.531C89.4211 104.828 90.0031 105.25 90.4718 105.797C90.9484 106.344 91.3078 107 91.55 107.766C91.7922 108.523 91.9132 109.367 91.9132 110.297V111.703H81.8351V109.453H88.5968V109.195C88.5968 108.727 88.5109 108.309 88.339 107.941C88.175 107.566 87.925 107.27 87.589 107.051C87.2531 106.832 86.8234 106.723 86.3 106.723C85.8547 106.723 85.4718 106.82 85.1515 107.016C84.8312 107.211 84.5695 107.484 84.3664 107.836C84.1711 108.188 84.0226 108.602 83.9211 109.078C83.8273 109.547 83.7804 110.062 83.7804 110.625V111.094C83.7804 111.602 83.8507 112.07 83.9914 112.5C84.1398 112.93 84.3468 113.301 84.6125 113.613C84.8859 113.926 85.214 114.168 85.5968 114.34C85.9875 114.512 86.4289 114.598 86.9211 114.598C87.5304 114.598 88.0968 114.48 88.6203 114.246C89.1515 114.004 89.6086 113.641 89.9914 113.156L91.632 114.938C91.3664 115.32 91.0031 115.688 90.5422 116.039C90.089 116.391 89.5422 116.68 88.9015 116.906C88.2609 117.125 87.5304 117.234 86.7101 117.234ZM93.7 115.371C93.7 114.871 93.8719 114.453 94.2157 114.117C94.5672 113.781 95.0321 113.613 95.6102 113.613C96.1883 113.613 96.6492 113.781 96.993 114.117C97.3446 114.453 97.5203 114.871 97.5203 115.371C97.5203 115.871 97.3446 116.289 96.993 116.625C96.6492 116.961 96.1883 117.129 95.6102 117.129C95.0321 117.129 94.5672 116.961 94.2157 116.625C93.8719 116.289 93.7 115.871 93.7 115.371ZM93.7 105.703C93.7 105.203 93.8719 104.785 94.2157 104.449C94.5672 104.113 95.0321 103.945 95.6102 103.945C96.1883 103.945 96.6492 104.113 96.993 104.449C97.3446 104.785 97.5203 105.203 97.5203 105.703C97.5203 106.203 97.3446 106.621 96.993 106.957C96.6492 107.293 96.1883 107.461 95.6102 107.461C95.0321 107.461 94.5672 107.293 94.2157 106.957C93.8719 106.621 93.7 106.203 93.7 105.703ZM113.082 100.465V98.7422H110.961V100.5C110.961 101.172 110.867 101.797 110.68 102.375C110.5 102.953 110.227 103.52 109.86 104.074L111.043 104.918C111.371 104.637 111.66 104.316 111.91 103.957C112.16 103.598 112.375 103.219 112.555 102.82C112.727 102.43 112.856 102.031 112.942 101.625C113.035 101.219 113.082 100.832 113.082 100.465ZM128.791 112.582L130.139 117H132.295L126.881 99.9375H125.064L119.556 117H121.724L123.096 112.582H128.791ZM123.681 110.695L125.967 103.289L128.217 110.695H123.681ZM141.382 100.465V98.7422H139.261V100.5C139.261 101.172 139.167 101.797 138.98 102.375C138.8 102.953 138.527 103.52 138.16 104.074L139.343 104.918C139.671 104.637 139.96 104.316 140.21 103.957C140.46 103.598 140.675 103.219 140.855 102.82C141.027 102.43 141.156 102.031 141.242 101.625C141.335 101.219 141.382 100.832 141.382 100.465Z" fill="black"/>
<rect x="178" y="2" width="176" height="176" rx="6" fill="#D7191C" stroke="#888888" stroke-width="4" stroke-miterlimit="0" stroke-linecap="round"/>
<path d="M214.887 63.9375V81H211.383V63.9375H214.887ZM220.137 63.9375V66.6914H206.215V63.9375H220.137ZM224.514 79.5703L227.877 68.3203H231.498L226.401 82.9102C226.291 83.2305 226.143 83.5742 225.955 83.9414C225.776 84.3086 225.529 84.6562 225.217 84.9844C224.912 85.3203 224.526 85.5938 224.057 85.8047C223.596 86.0156 223.029 86.1211 222.358 86.1211C222.037 86.1211 221.776 86.1016 221.572 86.0625C221.369 86.0234 221.127 85.9688 220.846 85.8984V83.4258C220.932 83.4258 221.022 83.4258 221.115 83.4258C221.209 83.4336 221.299 83.4375 221.385 83.4375C221.83 83.4375 222.194 83.3867 222.475 83.2852C222.756 83.1836 222.983 83.0273 223.154 82.8164C223.326 82.6133 223.463 82.3477 223.565 82.0195L224.514 79.5703ZM223.108 68.3203L225.861 77.5078L226.342 81.082L224.045 81.3281L219.486 68.3203H223.108ZM235.957 70.7578V85.875H232.582V68.3203H235.711L235.957 70.7578ZM243.984 74.5195V74.7656C243.984 75.6875 243.875 76.543 243.656 77.332C243.445 78.1211 243.133 78.8086 242.719 79.3945C242.305 79.9727 241.789 80.4258 241.172 80.7539C240.562 81.0742 239.859 81.2344 239.062 81.2344C238.289 81.2344 237.617 81.0781 237.047 80.7656C236.476 80.4531 235.996 80.0156 235.605 79.4531C235.222 78.8828 234.914 78.2227 234.68 77.4727C234.445 76.7227 234.265 75.918 234.14 75.0586V74.4141C234.265 73.4922 234.445 72.6484 234.68 71.8828C234.914 71.1094 235.222 70.4414 235.605 69.8789C235.996 69.3086 236.472 68.8672 237.035 68.5547C237.605 68.2422 238.273 68.0859 239.039 68.0859C239.844 68.0859 240.551 68.2383 241.16 68.543C241.777 68.8477 242.293 69.2852 242.707 69.8555C243.129 70.4258 243.445 71.1055 243.656 71.8945C243.875 72.6836 243.984 73.5586 243.984 74.5195ZM240.597 74.7656V74.5195C240.597 73.9805 240.551 73.4844 240.457 73.0312C240.371 72.5703 240.23 72.168 240.035 71.8242C239.847 71.4805 239.597 71.2148 239.285 71.0273C238.98 70.832 238.609 70.7344 238.172 70.7344C237.711 70.7344 237.316 70.8086 236.988 70.957C236.668 71.1055 236.406 71.3203 236.203 71.6016C236 71.8828 235.847 72.2188 235.746 72.6094C235.644 73 235.582 73.4414 235.558 73.9336V75.5625C235.597 76.1406 235.707 76.6602 235.887 77.1211C236.066 77.5742 236.344 77.9336 236.719 78.1992C237.094 78.4648 237.586 78.5977 238.195 78.5977C238.64 78.5977 239.015 78.5 239.32 78.3047C239.625 78.1016 239.871 77.8242 240.058 77.4727C240.254 77.1211 240.39 76.7148 240.469 76.2539C240.555 75.793 240.597 75.2969 240.597 74.7656ZM251.654 81.2344C250.669 81.2344 249.787 81.0781 249.005 80.7656C248.224 80.4453 247.56 80.0039 247.013 79.4414C246.474 78.8789 246.06 78.2266 245.771 77.4844C245.482 76.7344 245.337 75.9375 245.337 75.0938V74.625C245.337 73.6641 245.474 72.7852 245.748 71.9883C246.021 71.1914 246.412 70.5 246.919 69.9141C247.435 69.3281 248.06 68.8789 248.794 68.5664C249.529 68.2461 250.357 68.0859 251.279 68.0859C252.177 68.0859 252.974 68.2344 253.669 68.5312C254.365 68.8281 254.947 69.25 255.416 69.7969C255.892 70.3438 256.251 71 256.494 71.7656C256.736 72.5234 256.857 73.3672 256.857 74.2969V75.7031H246.779V73.4531H253.541V73.1953C253.541 72.7266 253.455 72.3086 253.283 71.9414C253.119 71.5664 252.869 71.2695 252.533 71.0508C252.197 70.832 251.767 70.7227 251.244 70.7227C250.798 70.7227 250.416 70.8203 250.095 71.0156C249.775 71.2109 249.513 71.4844 249.31 71.8359C249.115 72.1875 248.966 72.6016 248.865 73.0781C248.771 73.5469 248.724 74.0625 248.724 74.625V75.0938C248.724 75.6016 248.794 76.0703 248.935 76.5C249.083 76.9297 249.291 77.3008 249.556 77.6133C249.83 77.9258 250.158 78.168 250.541 78.3398C250.931 78.5117 251.373 78.5977 251.865 78.5977C252.474 78.5977 253.041 78.4805 253.564 78.2461C254.095 78.0039 254.552 77.6406 254.935 77.1562L256.576 78.9375C256.31 79.3203 255.947 79.6875 255.486 80.0391C255.033 80.3906 254.486 80.6797 253.845 80.9062C253.205 81.125 252.474 81.2344 251.654 81.2344ZM258.644 79.3711C258.644 78.8711 258.816 78.4531 259.159 78.1172C259.511 77.7812 259.976 77.6133 260.554 77.6133C261.132 77.6133 261.593 77.7812 261.937 78.1172C262.288 78.4531 262.464 78.8711 262.464 79.3711C262.464 79.8711 262.288 80.2891 261.937 80.625C261.593 80.9609 261.132 81.1289 260.554 81.1289C259.976 81.1289 259.511 80.9609 259.159 80.625C258.816 80.2891 258.644 79.8711 258.644 79.3711ZM258.644 69.7031C258.644 69.2031 258.816 68.7852 259.159 68.4492C259.511 68.1133 259.976 67.9453 260.554 67.9453C261.132 67.9453 261.593 68.1133 261.937 68.4492C262.288 68.7852 262.464 69.2031 262.464 69.7031C262.464 70.2031 262.288 70.6211 261.937 70.957C261.593 71.293 261.132 71.4609 260.554 71.4609C259.976 71.4609 259.511 71.293 259.159 70.957C258.816 70.6211 258.644 70.2031 258.644 69.7031ZM276.842 79.4766C276.163 79.4766 275.592 79.3438 275.131 79.0781C274.678 78.8047 274.315 78.4492 274.042 78.0117C273.76 77.582 273.557 77.0977 273.432 76.5586C273.315 76.0117 273.256 75.4609 273.256 74.9062V74.4141C273.256 73.8672 273.315 73.3242 273.432 72.7852C273.557 72.2461 273.76 71.7578 274.042 71.3203C274.323 70.8906 274.69 70.543 275.143 70.2773C275.604 70.0039 276.17 69.8672 276.842 69.8672C277.28 69.8672 277.686 69.9414 278.061 70.0898C278.444 70.2383 278.772 70.4414 279.045 70.6992C279.319 70.957 279.534 71.2578 279.69 71.6016C279.854 71.9375 279.94 72.2969 279.948 72.6797H281.999C281.999 72.0391 281.87 71.4375 281.612 70.875C281.354 70.3125 280.999 69.8242 280.545 69.4102C280.084 69.0039 279.538 68.6836 278.905 68.4492C278.28 68.207 277.592 68.0859 276.842 68.0859C275.881 68.0859 275.042 68.2578 274.323 68.6016C273.604 68.9453 273.006 69.4062 272.53 69.9844C272.045 70.5703 271.682 71.2461 271.44 72.0117C271.198 72.7773 271.077 73.5781 271.077 74.4141V74.9062C271.077 75.75 271.198 76.5547 271.44 77.3203C271.682 78.0781 272.045 78.7461 272.53 79.3242C273.006 79.9102 273.604 80.375 274.323 80.7188C275.042 81.0625 275.881 81.2344 276.842 81.2344C277.514 81.2344 278.159 81.1211 278.776 80.8945C279.393 80.6602 279.94 80.3477 280.417 79.957C280.893 79.5742 281.272 79.1289 281.553 78.6211C281.842 78.1055 281.991 77.5664 281.999 77.0039H279.948C279.94 77.3555 279.846 77.6836 279.667 77.9883C279.495 78.2852 279.264 78.543 278.975 78.7617C278.686 78.9883 278.354 79.1641 277.979 79.2891C277.612 79.4141 277.233 79.4766 276.842 79.4766ZM287.758 70.207V63H285.59V81H287.758V71.7891C287.914 71.5391 288.09 71.3125 288.285 71.1094C288.488 70.8984 288.707 70.7148 288.942 70.5586C289.238 70.3555 289.563 70.1992 289.914 70.0898C290.266 69.9805 290.637 69.9258 291.027 69.9258C291.504 69.918 291.926 69.9844 292.293 70.125C292.66 70.2578 292.965 70.4609 293.207 70.7344C293.434 70.9844 293.606 71.3008 293.723 71.6836C293.84 72.0586 293.899 72.4961 293.899 72.9961V81H296.067V73.0195C296.067 72.168 295.961 71.4336 295.75 70.8164C295.547 70.1914 295.254 69.6758 294.871 69.2695C294.488 68.8633 294.024 68.5664 293.477 68.3789C292.938 68.1836 292.336 68.0859 291.672 68.0859C291.164 68.0938 290.684 68.168 290.231 68.3086C289.785 68.4492 289.375 68.6562 289 68.9297C288.766 69.0938 288.543 69.2852 288.332 69.5039C288.121 69.7148 287.93 69.9492 287.758 70.207ZM308.072 81H310.334V80.8125C310.193 80.4609 310.084 80.0508 310.006 79.582C309.928 79.1055 309.889 78.6562 309.889 78.2344V72.3398C309.889 71.6289 309.76 71.0078 309.502 70.4766C309.244 69.9453 308.892 69.5 308.447 69.1406C307.994 68.7891 307.459 68.5273 306.842 68.3555C306.224 68.1758 305.556 68.0859 304.838 68.0859C304.049 68.0859 303.342 68.1953 302.717 68.4141C302.099 68.6328 301.576 68.918 301.146 69.2695C300.709 69.6289 300.373 70.0312 300.139 70.4766C299.912 70.9219 299.795 71.375 299.787 71.8359H301.967C301.967 71.5703 302.029 71.3164 302.154 71.0742C302.287 70.8242 302.471 70.6094 302.705 70.4297C302.939 70.25 303.224 70.1055 303.56 69.9961C303.904 69.8867 304.291 69.832 304.721 69.832C305.181 69.832 305.596 69.8906 305.963 70.0078C306.338 70.125 306.654 70.2891 306.912 70.5C307.17 70.7188 307.369 70.9805 307.51 71.2852C307.65 71.5898 307.721 71.9336 307.721 72.3164V73.3125H305.353C304.471 73.3125 303.67 73.3984 302.951 73.5703C302.24 73.7422 301.631 74 301.123 74.3438C300.615 74.6953 300.221 75.1328 299.939 75.6562C299.666 76.1797 299.529 76.7891 299.529 77.4844C299.529 78.0156 299.631 78.5117 299.834 78.9727C300.045 79.4258 300.342 79.8164 300.724 80.1445C301.099 80.4805 301.556 80.7461 302.096 80.9414C302.642 81.1367 303.252 81.2344 303.924 81.2344C304.338 81.2344 304.728 81.1914 305.096 81.1055C305.463 81.0195 305.81 80.9023 306.139 80.7539C306.459 80.6055 306.752 80.4336 307.017 80.2383C307.291 80.043 307.537 79.8359 307.756 79.6172C307.779 79.8828 307.814 80.1406 307.861 80.3906C307.916 80.6328 307.986 80.8359 308.072 81ZM304.24 79.3477C303.818 79.3477 303.447 79.293 303.127 79.1836C302.806 79.0742 302.541 78.9219 302.33 78.7266C302.119 78.5391 301.959 78.3125 301.849 78.0469C301.748 77.7812 301.697 77.4922 301.697 77.1797C301.697 76.8516 301.756 76.5586 301.873 76.3008C301.998 76.043 302.178 75.8203 302.412 75.6328C302.74 75.3672 303.181 75.1719 303.736 75.0469C304.299 74.9141 304.955 74.8477 305.705 74.8477H307.721V77.4141C307.596 77.6641 307.424 77.9062 307.205 78.1406C306.986 78.3672 306.728 78.5703 306.431 78.75C306.127 78.9297 305.791 79.0742 305.424 79.1836C305.056 79.293 304.662 79.3477 304.24 79.3477ZM322.199 68.0859C321.277 68.0859 320.453 68.2891 319.726 68.6953C319.007 69.0938 318.39 69.6406 317.874 70.3359L317.863 70.0195L317.769 68.3203H315.707V81H317.886V72.8672C318.027 72.4766 318.203 72.125 318.414 71.8125C318.632 71.4922 318.886 71.2227 319.175 71.0039C319.496 70.7539 319.871 70.5664 320.3 70.4414C320.73 70.3086 321.21 70.2422 321.742 70.2422C322.156 70.2422 322.55 70.2656 322.925 70.3125C323.308 70.3516 323.71 70.418 324.132 70.5117L324.425 68.3906C324.207 68.2969 323.878 68.2227 323.441 68.168C323.011 68.1133 322.597 68.0859 322.199 68.0859ZM216.504 113.438L220.524 99.9375H224.438L218.497 117H215.918L216.504 113.438ZM212.801 99.9375L216.809 113.438L217.418 117H214.817L208.911 99.9375H212.801ZM231.861 114.141V108.492C231.861 108.086 231.795 107.738 231.662 107.449C231.529 107.152 231.322 106.922 231.041 106.758C230.768 106.594 230.412 106.512 229.975 106.512C229.6 106.512 229.276 106.578 229.002 106.711C228.729 106.836 228.518 107.02 228.369 107.262C228.221 107.496 228.147 107.773 228.147 108.094H224.772C224.772 107.555 224.897 107.043 225.147 106.559C225.397 106.074 225.76 105.648 226.236 105.281C226.713 104.906 227.279 104.613 227.936 104.402C228.6 104.191 229.342 104.086 230.162 104.086C231.147 104.086 232.022 104.25 232.787 104.578C233.553 104.906 234.154 105.398 234.592 106.055C235.037 106.711 235.26 107.531 235.26 108.516V113.941C235.26 114.637 235.303 115.207 235.389 115.652C235.475 116.09 235.6 116.473 235.764 116.801V117H232.354C232.19 116.656 232.065 116.227 231.979 115.711C231.901 115.188 231.861 114.664 231.861 114.141ZM232.307 109.277L232.33 111.188H230.444C229.998 111.188 229.611 111.238 229.283 111.34C228.955 111.441 228.686 111.586 228.475 111.773C228.264 111.953 228.108 112.164 228.006 112.406C227.912 112.648 227.865 112.914 227.865 113.203C227.865 113.492 227.932 113.754 228.065 113.988C228.197 114.215 228.389 114.395 228.639 114.527C228.889 114.652 229.182 114.715 229.518 114.715C230.026 114.715 230.467 114.613 230.842 114.41C231.217 114.207 231.506 113.957 231.709 113.66C231.92 113.363 232.029 113.082 232.037 112.816L232.928 114.246C232.803 114.566 232.631 114.898 232.412 115.242C232.201 115.586 231.932 115.91 231.604 116.215C231.276 116.512 230.881 116.758 230.42 116.953C229.959 117.141 229.412 117.234 228.779 117.234C227.975 117.234 227.244 117.074 226.588 116.754C225.94 116.426 225.424 115.977 225.041 115.406C224.666 114.828 224.479 114.172 224.479 113.438C224.479 112.773 224.604 112.184 224.854 111.668C225.104 111.152 225.471 110.719 225.955 110.367C226.447 110.008 227.061 109.738 227.795 109.559C228.529 109.371 229.381 109.277 230.35 109.277H232.307ZM241.16 99V117H237.773V99H241.16ZM251.185 113.965V104.32H254.56V117H251.384L251.185 113.965ZM251.56 111.363L252.556 111.34C252.556 112.184 252.458 112.969 252.263 113.695C252.068 114.414 251.775 115.039 251.384 115.57C250.994 116.094 250.501 116.504 249.908 116.801C249.314 117.09 248.615 117.234 247.81 117.234C247.193 117.234 246.623 117.148 246.099 116.977C245.583 116.797 245.138 116.52 244.763 116.145C244.396 115.762 244.107 115.273 243.896 114.68C243.693 114.078 243.591 113.355 243.591 112.512V104.32H246.966V112.535C246.966 112.91 247.009 113.227 247.095 113.484C247.189 113.742 247.318 113.953 247.482 114.117C247.646 114.281 247.837 114.398 248.056 114.469C248.283 114.539 248.533 114.574 248.806 114.574C249.501 114.574 250.048 114.434 250.447 114.152C250.853 113.871 251.138 113.488 251.302 113.004C251.474 112.512 251.56 111.965 251.56 111.363ZM262.71 117.234C261.726 117.234 260.843 117.078 260.062 116.766C259.28 116.445 258.616 116.004 258.069 115.441C257.53 114.879 257.116 114.227 256.827 113.484C256.538 112.734 256.394 111.938 256.394 111.094V110.625C256.394 109.664 256.53 108.785 256.804 107.988C257.077 107.191 257.468 106.5 257.976 105.914C258.491 105.328 259.116 104.879 259.851 104.566C260.585 104.246 261.413 104.086 262.335 104.086C263.234 104.086 264.03 104.234 264.726 104.531C265.421 104.828 266.003 105.25 266.472 105.797C266.948 106.344 267.308 107 267.55 107.766C267.792 108.523 267.913 109.367 267.913 110.297V111.703H257.835V109.453H264.597V109.195C264.597 108.727 264.511 108.309 264.339 107.941C264.175 107.566 263.925 107.27 263.589 107.051C263.253 106.832 262.823 106.723 262.3 106.723C261.855 106.723 261.472 106.82 261.152 107.016C260.831 107.211 260.569 107.484 260.366 107.836C260.171 108.188 260.023 108.602 259.921 109.078C259.827 109.547 259.78 110.062 259.78 110.625V111.094C259.78 111.602 259.851 112.07 259.991 112.5C260.14 112.93 260.347 113.301 260.612 113.613C260.886 113.926 261.214 114.168 261.597 114.34C261.987 114.512 262.429 114.598 262.921 114.598C263.53 114.598 264.097 114.48 264.62 114.246C265.152 114.004 265.609 113.641 265.991 113.156L267.632 114.938C267.366 115.32 267.003 115.688 266.542 116.039C266.089 116.391 265.542 116.68 264.902 116.906C264.261 117.125 263.53 117.234 262.71 117.234ZM269.7 115.371C269.7 114.871 269.872 114.453 270.216 114.117C270.567 113.781 271.032 113.613 271.61 113.613C272.188 113.613 272.649 113.781 272.993 114.117C273.345 114.453 273.52 114.871 273.52 115.371C273.52 115.871 273.345 116.289 272.993 116.625C272.649 116.961 272.188 117.129 271.61 117.129C271.032 117.129 270.567 116.961 270.216 116.625C269.872 116.289 269.7 115.871 269.7 115.371ZM269.7 105.703C269.7 105.203 269.872 104.785 270.216 104.449C270.567 104.113 271.032 103.945 271.61 103.945C272.188 103.945 272.649 104.113 272.993 104.449C273.345 104.785 273.52 105.203 273.52 105.703C273.52 106.203 273.345 106.621 272.993 106.957C272.649 107.293 272.188 107.461 271.61 107.461C271.032 107.461 270.567 107.293 270.216 106.957C269.872 106.621 269.7 106.203 269.7 105.703ZM289.082 100.465V98.7422H286.961V100.5C286.961 101.172 286.867 101.797 286.68 102.375C286.5 102.953 286.227 103.52 285.86 104.074L287.043 104.918C287.371 104.637 287.66 104.316 287.91 103.957C288.16 103.598 288.375 103.219 288.555 102.82C288.727 102.43 288.856 102.031 288.942 101.625C289.035 101.219 289.082 100.832 289.082 100.465ZM296.623 117H302.084C302.81 116.992 303.514 116.879 304.193 116.66C304.881 116.441 305.486 116.125 306.01 115.711C306.533 115.305 306.951 114.797 307.264 114.188C307.576 113.578 307.728 112.875 307.721 112.078C307.721 111.57 307.642 111.098 307.486 110.66C307.338 110.223 307.127 109.828 306.853 109.477C306.596 109.156 306.267 108.863 305.869 108.598C305.471 108.332 305.056 108.148 304.627 108.047V108.012C305.041 107.832 305.392 107.641 305.681 107.438C305.978 107.234 306.248 106.984 306.49 106.688C306.724 106.398 306.908 106.07 307.041 105.703C307.181 105.336 307.256 104.93 307.264 104.484C307.271 103.688 307.119 103.004 306.806 102.434C306.494 101.863 306.076 101.395 305.553 101.027C305.029 100.66 304.431 100.391 303.76 100.219C303.088 100.039 302.4 99.9453 301.697 99.9375H296.623V117ZM298.803 109.02H302.26C302.721 109.035 303.15 109.113 303.549 109.254C303.947 109.395 304.295 109.594 304.592 109.852C304.889 110.117 305.119 110.438 305.283 110.812C305.455 111.188 305.537 111.617 305.529 112.102C305.529 112.578 305.435 113.004 305.248 113.379C305.068 113.754 304.822 114.07 304.51 114.328C304.197 114.586 303.838 114.789 303.431 114.938C303.025 115.078 302.596 115.152 302.142 115.16H298.803V109.02ZM298.803 107.215V101.789H301.767C302.189 101.797 302.599 101.852 302.998 101.953C303.404 102.055 303.764 102.211 304.076 102.422C304.381 102.641 304.623 102.918 304.803 103.254C304.99 103.59 305.084 103.996 305.084 104.473C305.084 104.918 304.99 105.309 304.803 105.645C304.615 105.98 304.369 106.262 304.064 106.488C303.76 106.723 303.412 106.902 303.021 107.027C302.631 107.145 302.232 107.207 301.826 107.215H298.803ZM317.382 100.465V98.7422H315.261V100.5C315.261 101.172 315.167 101.797 314.98 102.375C314.8 102.953 314.527 103.52 314.16 104.074L315.343 104.918C315.671 104.637 315.96 104.316 316.21 103.957C316.46 103.598 316.675 103.219 316.855 102.82C317.027 102.43 317.156 102.031 317.242 101.625C317.335 101.219 317.382 100.832 317.382 100.465Z" fill="black"/>
<rect x="354" y="2" width="176" height="176" rx="6" fill="#FDAE61" stroke="#888888" stroke-width="4" stroke-miterlimit="0" stroke-linecap="round"/>
<path d="M390.887 63.9375V81H387.383V63.9375H390.887ZM396.137 63.9375V66.6914H382.215V63.9375H396.137ZM400.514 79.5703L403.877 68.3203H407.498L402.401 82.9102C402.291 83.2305 402.143 83.5742 401.955 83.9414C401.776 84.3086 401.529 84.6562 401.217 84.9844C400.912 85.3203 400.526 85.5938 400.057 85.8047C399.596 86.0156 399.029 86.1211 398.358 86.1211C398.037 86.1211 397.776 86.1016 397.572 86.0625C397.369 86.0234 397.127 85.9688 396.846 85.8984V83.4258C396.932 83.4258 397.022 83.4258 397.115 83.4258C397.209 83.4336 397.299 83.4375 397.385 83.4375C397.83 83.4375 398.194 83.3867 398.475 83.2852C398.756 83.1836 398.983 83.0273 399.154 82.8164C399.326 82.6133 399.463 82.3477 399.565 82.0195L400.514 79.5703ZM399.108 68.3203L401.861 77.5078L402.342 81.082L400.045 81.3281L395.486 68.3203H399.108ZM411.957 70.7578V85.875H408.582V68.3203H411.711L411.957 70.7578ZM419.984 74.5195V74.7656C419.984 75.6875 419.875 76.543 419.656 77.332C419.445 78.1211 419.133 78.8086 418.719 79.3945C418.305 79.9727 417.789 80.4258 417.172 80.7539C416.562 81.0742 415.859 81.2344 415.062 81.2344C414.289 81.2344 413.617 81.0781 413.047 80.7656C412.476 80.4531 411.996 80.0156 411.605 79.4531C411.222 78.8828 410.914 78.2227 410.68 77.4727C410.445 76.7227 410.265 75.918 410.14 75.0586V74.4141C410.265 73.4922 410.445 72.6484 410.68 71.8828C410.914 71.1094 411.222 70.4414 411.605 69.8789C411.996 69.3086 412.472 68.8672 413.035 68.5547C413.605 68.2422 414.273 68.0859 415.039 68.0859C415.844 68.0859 416.551 68.2383 417.16 68.543C417.777 68.8477 418.293 69.2852 418.707 69.8555C419.129 70.4258 419.445 71.1055 419.656 71.8945C419.875 72.6836 419.984 73.5586 419.984 74.5195ZM416.597 74.7656V74.5195C416.597 73.9805 416.551 73.4844 416.457 73.0312C416.371 72.5703 416.23 72.168 416.035 71.8242C415.847 71.4805 415.597 71.2148 415.285 71.0273C414.98 70.832 414.609 70.7344 414.172 70.7344C413.711 70.7344 413.316 70.8086 412.988 70.957C412.668 71.1055 412.406 71.3203 412.203 71.6016C412 71.8828 411.847 72.2188 411.746 72.6094C411.644 73 411.582 73.4414 411.558 73.9336V75.5625C411.597 76.1406 411.707 76.6602 411.887 77.1211C412.066 77.5742 412.344 77.9336 412.719 78.1992C413.094 78.4648 413.586 78.5977 414.195 78.5977C414.64 78.5977 415.015 78.5 415.32 78.3047C415.625 78.1016 415.871 77.8242 416.058 77.4727C416.254 77.1211 416.39 76.7148 416.469 76.2539C416.555 75.793 416.597 75.2969 416.597 74.7656ZM427.654 81.2344C426.669 81.2344 425.787 81.0781 425.005 80.7656C424.224 80.4453 423.56 80.0039 423.013 79.4414C422.474 78.8789 422.06 78.2266 421.771 77.4844C421.482 76.7344 421.337 75.9375 421.337 75.0938V74.625C421.337 73.6641 421.474 72.7852 421.748 71.9883C422.021 71.1914 422.412 70.5 422.919 69.9141C423.435 69.3281 424.06 68.8789 424.794 68.5664C425.529 68.2461 426.357 68.0859 427.279 68.0859C428.177 68.0859 428.974 68.2344 429.669 68.5312C430.365 68.8281 430.947 69.25 431.416 69.7969C431.892 70.3438 432.251 71 432.494 71.7656C432.736 72.5234 432.857 73.3672 432.857 74.2969V75.7031H422.779V73.4531H429.541V73.1953C429.541 72.7266 429.455 72.3086 429.283 71.9414C429.119 71.5664 428.869 71.2695 428.533 71.0508C428.197 70.832 427.767 70.7227 427.244 70.7227C426.798 70.7227 426.416 70.8203 426.095 71.0156C425.775 71.2109 425.513 71.4844 425.31 71.8359C425.115 72.1875 424.966 72.6016 424.865 73.0781C424.771 73.5469 424.724 74.0625 424.724 74.625V75.0938C424.724 75.6016 424.794 76.0703 424.935 76.5C425.083 76.9297 425.291 77.3008 425.556 77.6133C425.83 77.9258 426.158 78.168 426.541 78.3398C426.931 78.5117 427.373 78.5977 427.865 78.5977C428.474 78.5977 429.041 78.4805 429.564 78.2461C430.095 78.0039 430.552 77.6406 430.935 77.1562L432.576 78.9375C432.31 79.3203 431.947 79.6875 431.486 80.0391C431.033 80.3906 430.486 80.6797 429.845 80.9062C429.205 81.125 428.474 81.2344 427.654 81.2344ZM434.644 79.3711C434.644 78.8711 434.816 78.4531 435.159 78.1172C435.511 77.7812 435.976 77.6133 436.554 77.6133C437.132 77.6133 437.593 77.7812 437.937 78.1172C438.288 78.4531 438.464 78.8711 438.464 79.3711C438.464 79.8711 438.288 80.2891 437.937 80.625C437.593 80.9609 437.132 81.1289 436.554 81.1289C435.976 81.1289 435.511 80.9609 435.159 80.625C434.816 80.2891 434.644 79.8711 434.644 79.3711ZM434.644 69.7031C434.644 69.2031 434.816 68.7852 435.159 68.4492C435.511 68.1133 435.976 67.9453 436.554 67.9453C437.132 67.9453 437.593 68.1133 437.937 68.4492C438.288 68.7852 438.464 69.2031 438.464 69.7031C438.464 70.2031 438.288 70.6211 437.937 70.957C437.593 71.293 437.132 71.4609 436.554 71.4609C435.976 71.4609 435.511 71.293 435.159 70.957C434.816 70.6211 434.644 70.2031 434.644 69.7031ZM458.186 74.8008V74.5547C458.186 73.8906 458.131 73.2617 458.022 72.668C457.913 72.0664 457.752 71.5195 457.542 71.0273C457.338 70.5898 457.104 70.1953 456.838 69.8438C456.573 69.4844 456.272 69.1797 455.936 68.9297C455.561 68.6641 455.143 68.457 454.682 68.3086C454.221 68.1602 453.717 68.0859 453.17 68.0859C452.733 68.0859 452.327 68.1289 451.952 68.2148C451.577 68.3008 451.233 68.4258 450.92 68.5898C450.67 68.7227 450.436 68.8828 450.217 69.0703C449.999 69.25 449.799 69.4531 449.62 69.6797V63H447.452V81H449.444L449.549 79.5586C449.69 79.7383 449.838 79.9023 449.995 80.0508C450.151 80.1992 450.315 80.3359 450.487 80.4609C450.846 80.7109 451.249 80.9023 451.694 81.0352C452.147 81.168 452.647 81.2344 453.194 81.2344C453.67 81.2344 454.112 81.1758 454.518 81.0586C454.932 80.9414 455.311 80.7773 455.655 80.5664C456.131 80.2617 456.538 79.8789 456.874 79.418C457.217 78.9492 457.495 78.4219 457.706 77.8359C457.862 77.3906 457.979 76.9141 458.057 76.4062C458.143 75.8906 458.186 75.3555 458.186 74.8008ZM456.018 74.5547V74.8008C456.018 75.1758 455.995 75.543 455.948 75.9023C455.901 76.2617 455.827 76.5977 455.725 76.9102C455.6 77.3242 455.432 77.6992 455.221 78.0352C455.01 78.3711 454.749 78.6484 454.436 78.8672C454.202 79.0391 453.936 79.1719 453.639 79.2656C453.342 79.3516 453.014 79.3945 452.655 79.3945C452.28 79.3945 451.936 79.3477 451.624 79.2539C451.311 79.1523 451.03 79.0117 450.78 78.832C450.53 78.6523 450.307 78.4453 450.112 78.2109C449.924 77.9688 449.76 77.707 449.62 77.4258V71.8828C449.752 71.6016 449.913 71.3438 450.1 71.1094C450.295 70.8672 450.518 70.6562 450.768 70.4766C451.01 70.3047 451.288 70.1719 451.6 70.0781C451.913 69.9766 452.256 69.9258 452.631 69.9258C452.975 69.9258 453.288 69.9648 453.569 70.043C453.85 70.1211 454.104 70.2305 454.331 70.3711C454.659 70.5664 454.936 70.8359 455.163 71.1797C455.389 71.5234 455.573 71.9023 455.713 72.3164C455.815 72.6523 455.889 73.0117 455.936 73.3945C455.991 73.7695 456.018 74.1562 456.018 74.5547ZM460.981 74.543V74.8008C460.981 75.7148 461.113 76.5625 461.379 77.3438C461.645 78.125 462.027 78.8047 462.527 79.3828C463.02 79.9609 463.621 80.4141 464.332 80.7422C465.051 81.0703 465.86 81.2344 466.758 81.2344C467.649 81.2344 468.449 81.0703 469.16 80.7422C469.871 80.4141 470.477 79.9609 470.977 79.3828C471.469 78.8047 471.848 78.125 472.113 77.3438C472.379 76.5625 472.512 75.7148 472.512 74.8008V74.543C472.512 73.6289 472.379 72.7812 472.113 72C471.848 71.2109 471.469 70.5273 470.977 69.9492C470.477 69.3711 469.867 68.918 469.149 68.5898C468.438 68.2539 467.633 68.0859 466.735 68.0859C465.844 68.0859 465.043 68.2539 464.332 68.5898C463.621 68.918 463.02 69.3711 462.527 69.9492C462.027 70.5273 461.645 71.2109 461.379 72C461.113 72.7812 460.981 73.6289 460.981 74.543ZM463.149 74.8008V74.543C463.149 73.9258 463.223 73.3359 463.371 72.7734C463.52 72.2031 463.746 71.7031 464.051 71.2734C464.348 70.8438 464.719 70.5039 465.164 70.2539C465.61 69.9961 466.133 69.8672 466.735 69.8672C467.336 69.8672 467.86 69.9961 468.305 70.2539C468.758 70.5039 469.137 70.8438 469.442 71.2734C469.738 71.7031 469.961 72.2031 470.11 72.7734C470.266 73.3359 470.344 73.9258 470.344 74.543V74.8008C470.344 75.4258 470.27 76.0234 470.121 76.5938C469.973 77.1562 469.75 77.6523 469.453 78.082C469.149 78.5117 468.77 78.8516 468.317 79.1016C467.871 79.3516 467.352 79.4766 466.758 79.4766C466.156 79.4766 465.629 79.3516 465.176 79.1016C464.723 78.8516 464.348 78.5117 464.051 78.082C463.746 77.6523 463.52 77.1562 463.371 76.5938C463.223 76.0234 463.149 75.4258 463.149 74.8008ZM475.131 74.543V74.8008C475.131 75.7148 475.264 76.5625 475.529 77.3438C475.795 78.125 476.178 78.8047 476.678 79.3828C477.17 79.9609 477.771 80.4141 478.482 80.7422C479.201 81.0703 480.01 81.2344 480.908 81.2344C481.799 81.2344 482.599 81.0703 483.31 80.7422C484.021 80.4141 484.627 79.9609 485.127 79.3828C485.619 78.8047 485.998 78.125 486.264 77.3438C486.529 76.5625 486.662 75.7148 486.662 74.8008V74.543C486.662 73.6289 486.529 72.7812 486.264 72C485.998 71.2109 485.619 70.5273 485.127 69.9492C484.627 69.3711 484.017 68.918 483.299 68.5898C482.588 68.2539 481.783 68.0859 480.885 68.0859C479.994 68.0859 479.193 68.2539 478.482 68.5898C477.771 68.918 477.17 69.3711 476.678 69.9492C476.178 70.5273 475.795 71.2109 475.529 72C475.264 72.7812 475.131 73.6289 475.131 74.543ZM477.299 74.8008V74.543C477.299 73.9258 477.373 73.3359 477.521 72.7734C477.67 72.2031 477.896 71.7031 478.201 71.2734C478.498 70.8438 478.869 70.5039 479.314 70.2539C479.76 69.9961 480.283 69.8672 480.885 69.8672C481.486 69.8672 482.01 69.9961 482.455 70.2539C482.908 70.5039 483.287 70.8438 483.592 71.2734C483.889 71.7031 484.111 72.2031 484.26 72.7734C484.416 73.3359 484.494 73.9258 484.494 74.543V74.8008C484.494 75.4258 484.42 76.0234 484.271 76.5938C484.123 77.1562 483.9 77.6523 483.603 78.082C483.299 78.5117 482.92 78.8516 482.467 79.1016C482.021 79.3516 481.502 79.4766 480.908 79.4766C480.306 79.4766 479.779 79.3516 479.326 79.1016C478.873 78.8516 478.498 78.5117 478.201 78.082C477.896 77.6523 477.67 77.1562 477.521 76.5938C477.373 76.0234 477.299 75.4258 477.299 74.8008ZM490.23 63V64.8867H494.542V79.125H490.23V81H500.847V79.125H496.71V63H490.23ZM378.354 113.438L382.374 99.9375H386.288L380.347 117H377.768L378.354 113.438ZM374.651 99.9375L378.659 113.438L379.268 117H376.667L370.761 99.9375H374.651ZM393.711 114.141V108.492C393.711 108.086 393.645 107.738 393.512 107.449C393.379 107.152 393.172 106.922 392.891 106.758C392.618 106.594 392.262 106.512 391.825 106.512C391.45 106.512 391.126 106.578 390.852 106.711C390.579 106.836 390.368 107.02 390.219 107.262C390.071 107.496 389.997 107.773 389.997 108.094H386.622C386.622 107.555 386.747 107.043 386.997 106.559C387.247 106.074 387.61 105.648 388.086 105.281C388.563 104.906 389.129 104.613 389.786 104.402C390.45 104.191 391.192 104.086 392.012 104.086C392.997 104.086 393.872 104.25 394.637 104.578C395.403 104.906 396.004 105.398 396.442 106.055C396.887 106.711 397.11 107.531 397.11 108.516V113.941C397.11 114.637 397.153 115.207 397.239 115.652C397.325 116.09 397.45 116.473 397.614 116.801V117H394.204C394.04 116.656 393.915 116.227 393.829 115.711C393.751 115.188 393.711 114.664 393.711 114.141ZM394.157 109.277L394.18 111.188H392.293C391.848 111.188 391.461 111.238 391.133 111.34C390.805 111.441 390.536 111.586 390.325 111.773C390.114 111.953 389.958 112.164 389.856 112.406C389.762 112.648 389.715 112.914 389.715 113.203C389.715 113.492 389.782 113.754 389.915 113.988C390.047 114.215 390.239 114.395 390.489 114.527C390.739 114.652 391.032 114.715 391.368 114.715C391.876 114.715 392.317 114.613 392.692 114.41C393.067 114.207 393.356 113.957 393.559 113.66C393.77 113.363 393.879 113.082 393.887 112.816L394.778 114.246C394.653 114.566 394.481 114.898 394.262 115.242C394.051 115.586 393.782 115.91 393.454 116.215C393.126 116.512 392.731 116.758 392.27 116.953C391.809 117.141 391.262 117.234 390.629 117.234C389.825 117.234 389.094 117.074 388.438 116.754C387.79 116.426 387.274 115.977 386.891 115.406C386.516 114.828 386.329 114.172 386.329 113.438C386.329 112.773 386.454 112.184 386.704 111.668C386.954 111.152 387.321 110.719 387.805 110.367C388.297 110.008 388.911 109.738 389.645 109.559C390.379 109.371 391.231 109.277 392.2 109.277H394.157ZM403.01 99V117H399.623V99H403.01ZM413.035 113.965V104.32H416.41V117H413.234L413.035 113.965ZM413.41 111.363L414.406 111.34C414.406 112.184 414.308 112.969 414.113 113.695C413.918 114.414 413.625 115.039 413.234 115.57C412.844 116.094 412.351 116.504 411.758 116.801C411.164 117.09 410.465 117.234 409.66 117.234C409.043 117.234 408.473 117.148 407.949 116.977C407.433 116.797 406.988 116.52 406.613 116.145C406.246 115.762 405.957 115.273 405.746 114.68C405.543 114.078 405.441 113.355 405.441 112.512V104.32H408.816V112.535C408.816 112.91 408.859 113.227 408.945 113.484C409.039 113.742 409.168 113.953 409.332 114.117C409.496 114.281 409.687 114.398 409.906 114.469C410.133 114.539 410.383 114.574 410.656 114.574C411.351 114.574 411.898 114.434 412.297 114.152C412.703 113.871 412.988 113.488 413.152 113.004C413.324 112.512 413.41 111.965 413.41 111.363ZM424.56 117.234C423.576 117.234 422.693 117.078 421.912 116.766C421.13 116.445 420.466 116.004 419.919 115.441C419.38 114.879 418.966 114.227 418.677 113.484C418.388 112.734 418.244 111.938 418.244 111.094V110.625C418.244 109.664 418.38 108.785 418.654 107.988C418.927 107.191 419.318 106.5 419.826 105.914C420.341 105.328 420.966 104.879 421.701 104.566C422.435 104.246 423.263 104.086 424.185 104.086C425.084 104.086 425.88 104.234 426.576 104.531C427.271 104.828 427.853 105.25 428.322 105.797C428.798 106.344 429.158 107 429.4 107.766C429.642 108.523 429.763 109.367 429.763 110.297V111.703H419.685V109.453H426.447V109.195C426.447 108.727 426.361 108.309 426.189 107.941C426.025 107.566 425.775 107.27 425.439 107.051C425.103 106.832 424.673 106.723 424.15 106.723C423.705 106.723 423.322 106.82 423.001 107.016C422.681 107.211 422.419 107.484 422.216 107.836C422.021 108.188 421.873 108.602 421.771 109.078C421.677 109.547 421.63 110.062 421.63 110.625V111.094C421.63 111.602 421.701 112.07 421.841 112.5C421.99 112.93 422.197 113.301 422.462 113.613C422.736 113.926 423.064 114.168 423.447 114.34C423.837 114.512 424.279 114.598 424.771 114.598C425.38 114.598 425.947 114.48 426.47 114.246C427.001 114.004 427.459 113.641 427.841 113.156L429.482 114.938C429.216 115.32 428.853 115.688 428.392 116.039C427.939 116.391 427.392 116.68 426.751 116.906C426.111 117.125 425.38 117.234 424.56 117.234ZM431.55 115.371C431.55 114.871 431.722 114.453 432.066 114.117C432.417 113.781 432.882 113.613 433.46 113.613C434.038 113.613 434.499 113.781 434.843 114.117C435.195 114.453 435.37 114.871 435.37 115.371C435.37 115.871 435.195 116.289 434.843 116.625C434.499 116.961 434.038 117.129 433.46 117.129C432.882 117.129 432.417 116.961 432.066 116.625C431.722 116.289 431.55 115.871 431.55 115.371ZM431.55 105.703C431.55 105.203 431.722 104.785 432.066 104.449C432.417 104.113 432.882 103.945 433.46 103.945C434.038 103.945 434.499 104.113 434.843 104.449C435.195 104.785 435.37 105.203 435.37 105.703C435.37 106.203 435.195 106.621 434.843 106.957C434.499 107.293 434.038 107.461 433.46 107.461C432.882 107.461 432.417 107.293 432.066 106.957C431.722 106.621 431.55 106.203 431.55 105.703ZM447.581 117H449.76V105.996H454.647V104.32H449.76V103.43C449.76 102.898 449.827 102.434 449.959 102.035C450.1 101.637 450.303 101.312 450.569 101.062C450.819 100.82 451.131 100.641 451.506 100.523C451.889 100.398 452.327 100.336 452.819 100.336C453.303 100.336 453.756 100.379 454.178 100.465C454.608 100.543 454.983 100.637 455.303 100.746L455.561 98.9531C455.358 98.8984 455.159 98.8516 454.963 98.8125C454.768 98.7656 454.573 98.7227 454.377 98.6836C454.081 98.6289 453.78 98.5859 453.475 98.5547C453.17 98.5156 452.862 98.4961 452.549 98.4961C451.799 98.4961 451.12 98.6016 450.51 98.8125C449.901 99.0234 449.381 99.3359 448.952 99.75C448.514 100.164 448.174 100.68 447.932 101.297C447.698 101.906 447.581 102.617 447.581 103.43V104.32H444.088V105.996H447.581V117ZM466.828 117H469.09V116.812C468.949 116.461 468.84 116.051 468.762 115.582C468.684 115.105 468.645 114.656 468.645 114.234V108.34C468.645 107.629 468.516 107.008 468.258 106.477C468 105.945 467.649 105.5 467.203 105.141C466.75 104.789 466.215 104.527 465.598 104.355C464.981 104.176 464.313 104.086 463.594 104.086C462.805 104.086 462.098 104.195 461.473 104.414C460.856 104.633 460.332 104.918 459.903 105.27C459.465 105.629 459.129 106.031 458.895 106.477C458.668 106.922 458.551 107.375 458.543 107.836H460.723C460.723 107.57 460.785 107.316 460.91 107.074C461.043 106.824 461.227 106.609 461.461 106.43C461.695 106.25 461.981 106.105 462.317 105.996C462.66 105.887 463.047 105.832 463.477 105.832C463.938 105.832 464.352 105.891 464.719 106.008C465.094 106.125 465.41 106.289 465.668 106.5C465.926 106.719 466.125 106.98 466.266 107.285C466.406 107.59 466.477 107.934 466.477 108.316V109.312H464.11C463.227 109.312 462.426 109.398 461.707 109.57C460.996 109.742 460.387 110 459.879 110.344C459.371 110.695 458.977 111.133 458.695 111.656C458.422 112.18 458.285 112.789 458.285 113.484C458.285 114.016 458.387 114.512 458.59 114.973C458.801 115.426 459.098 115.816 459.481 116.145C459.856 116.48 460.313 116.746 460.852 116.941C461.399 117.137 462.008 117.234 462.68 117.234C463.094 117.234 463.485 117.191 463.852 117.105C464.219 117.02 464.567 116.902 464.895 116.754C465.215 116.605 465.508 116.434 465.774 116.238C466.047 116.043 466.293 115.836 466.512 115.617C466.535 115.883 466.57 116.141 466.617 116.391C466.672 116.633 466.742 116.836 466.828 117ZM462.996 115.348C462.574 115.348 462.203 115.293 461.883 115.184C461.563 115.074 461.297 114.922 461.086 114.727C460.875 114.539 460.715 114.312 460.606 114.047C460.504 113.781 460.453 113.492 460.453 113.18C460.453 112.852 460.512 112.559 460.629 112.301C460.754 112.043 460.934 111.82 461.168 111.633C461.496 111.367 461.938 111.172 462.492 111.047C463.055 110.914 463.711 110.848 464.461 110.848H466.477V113.414C466.352 113.664 466.18 113.906 465.961 114.141C465.742 114.367 465.485 114.57 465.188 114.75C464.883 114.93 464.547 115.074 464.18 115.184C463.813 115.293 463.418 115.348 462.996 115.348ZM472.986 99V100.887H477.299V115.125H472.986V117H483.603V115.125H479.467V99H472.986ZM495.222 113.637C495.222 113.84 495.183 114.031 495.105 114.211C495.027 114.391 494.914 114.555 494.765 114.703C494.523 114.945 494.187 115.137 493.757 115.277C493.328 115.41 492.824 115.477 492.246 115.477C491.878 115.477 491.507 115.438 491.132 115.359C490.757 115.281 490.417 115.148 490.113 114.961C489.8 114.773 489.539 114.527 489.328 114.223C489.125 113.918 489.007 113.543 488.976 113.098H486.808C486.808 113.637 486.929 114.156 487.171 114.656C487.421 115.156 487.781 115.594 488.25 115.969C488.71 116.352 489.277 116.66 489.949 116.895C490.621 117.121 491.386 117.234 492.246 117.234C492.996 117.234 493.687 117.145 494.32 116.965C494.953 116.785 495.496 116.531 495.949 116.203C496.402 115.875 496.753 115.48 497.003 115.02C497.261 114.559 497.39 114.047 497.39 113.484C497.39 112.961 497.277 112.5 497.05 112.102C496.832 111.703 496.511 111.352 496.089 111.047C495.667 110.75 495.148 110.496 494.531 110.285C493.914 110.066 493.214 109.875 492.433 109.711C491.839 109.594 491.347 109.473 490.957 109.348C490.574 109.223 490.269 109.082 490.042 108.926C489.808 108.77 489.644 108.594 489.55 108.398C489.457 108.203 489.41 107.98 489.41 107.73C489.41 107.488 489.468 107.254 489.585 107.027C489.703 106.801 489.878 106.602 490.113 106.43C490.339 106.258 490.625 106.121 490.968 106.02C491.32 105.918 491.726 105.867 492.187 105.867C492.632 105.867 493.031 105.93 493.382 106.055C493.742 106.18 494.046 106.344 494.296 106.547C494.546 106.75 494.742 106.984 494.882 107.25C495.023 107.508 495.093 107.773 495.093 108.047H497.261C497.261 107.492 497.14 106.977 496.898 106.5C496.664 106.016 496.328 105.594 495.89 105.234C495.453 104.875 494.921 104.594 494.296 104.391C493.671 104.188 492.968 104.086 492.187 104.086C491.46 104.086 490.792 104.184 490.183 104.379C489.582 104.574 489.062 104.84 488.625 105.176C488.187 105.512 487.847 105.906 487.605 106.359C487.363 106.805 487.242 107.285 487.242 107.801C487.242 108.324 487.359 108.785 487.593 109.184C487.828 109.574 488.16 109.914 488.589 110.203C489.011 110.5 489.519 110.754 490.113 110.965C490.714 111.176 491.378 111.355 492.105 111.504C492.699 111.621 493.195 111.754 493.593 111.902C493.992 112.043 494.312 112.199 494.554 112.371C494.796 112.543 494.968 112.734 495.07 112.945C495.171 113.148 495.222 113.379 495.222 113.637ZM506.548 117.234C507.782 117.234 508.818 116.988 509.653 116.496C510.497 115.996 511.13 115.426 511.552 114.785L510.228 113.754C509.829 114.27 509.329 114.684 508.728 114.996C508.126 115.309 507.439 115.465 506.665 115.465C506.079 115.465 505.544 115.355 505.06 115.137C504.575 114.918 504.161 114.617 503.818 114.234C503.482 113.875 503.216 113.461 503.021 112.992C502.833 112.523 502.712 111.98 502.657 111.363V111.281H511.716V110.309C511.716 109.426 511.603 108.605 511.376 107.848C511.157 107.09 510.821 106.43 510.368 105.867C509.915 105.312 509.345 104.879 508.657 104.566C507.978 104.246 507.181 104.086 506.267 104.086C505.54 104.086 504.829 104.234 504.134 104.531C503.446 104.828 502.833 105.254 502.294 105.809C501.747 106.371 501.31 107.059 500.982 107.871C500.653 108.676 500.489 109.59 500.489 110.613V111.105C500.489 111.988 500.638 112.805 500.935 113.555C501.232 114.305 501.646 114.953 502.177 115.5C502.708 116.047 503.345 116.473 504.087 116.777C504.837 117.082 505.657 117.234 506.548 117.234ZM506.267 105.867C506.821 105.867 507.298 105.969 507.696 106.172C508.103 106.375 508.439 106.641 508.704 106.969C508.97 107.297 509.177 107.688 509.325 108.141C509.474 108.586 509.548 109.004 509.548 109.395V109.5H502.728C502.814 108.914 502.962 108.398 503.173 107.953C503.392 107.5 503.657 107.117 503.97 106.805C504.282 106.5 504.634 106.27 505.025 106.113C505.415 105.949 505.829 105.867 506.267 105.867Z" fill="black"/>
<rect x="530" y="2" width="176" height="176" rx="6" fill="#FDAE61" stroke="#888888" stroke-width="4" stroke-miterlimit="0" stroke-linecap="round"/>
<path d="M566.887 63.9375V81H563.383V63.9375H566.887ZM572.137 63.9375V66.6914H558.215V63.9375H572.137ZM576.514 79.5703L579.877 68.3203H583.498L578.401 82.9102C578.291 83.2305 578.143 83.5742 577.955 83.9414C577.776 84.3086 577.529 84.6562 577.217 84.9844C576.912 85.3203 576.526 85.5938 576.057 85.8047C575.596 86.0156 575.029 86.1211 574.358 86.1211C574.037 86.1211 573.776 86.1016 573.572 86.0625C573.369 86.0234 573.127 85.9688 572.846 85.8984V83.4258C572.932 83.4258 573.022 83.4258 573.115 83.4258C573.209 83.4336 573.299 83.4375 573.385 83.4375C573.83 83.4375 574.194 83.3867 574.475 83.2852C574.756 83.1836 574.983 83.0273 575.154 82.8164C575.326 82.6133 575.463 82.3477 575.565 82.0195L576.514 79.5703ZM575.108 68.3203L577.861 77.5078L578.342 81.082L576.045 81.3281L571.486 68.3203H575.108ZM587.957 70.7578V85.875H584.582V68.3203H587.711L587.957 70.7578ZM595.984 74.5195V74.7656C595.984 75.6875 595.875 76.543 595.656 77.332C595.445 78.1211 595.133 78.8086 594.719 79.3945C594.305 79.9727 593.789 80.4258 593.172 80.7539C592.562 81.0742 591.859 81.2344 591.062 81.2344C590.289 81.2344 589.617 81.0781 589.047 80.7656C588.476 80.4531 587.996 80.0156 587.605 79.4531C587.222 78.8828 586.914 78.2227 586.68 77.4727C586.445 76.7227 586.265 75.918 586.14 75.0586V74.4141C586.265 73.4922 586.445 72.6484 586.68 71.8828C586.914 71.1094 587.222 70.4414 587.605 69.8789C587.996 69.3086 588.472 68.8672 589.035 68.5547C589.605 68.2422 590.273 68.0859 591.039 68.0859C591.844 68.0859 592.551 68.2383 593.16 68.543C593.777 68.8477 594.293 69.2852 594.707 69.8555C595.129 70.4258 595.445 71.1055 595.656 71.8945C595.875 72.6836 595.984 73.5586 595.984 74.5195ZM592.597 74.7656V74.5195C592.597 73.9805 592.551 73.4844 592.457 73.0312C592.371 72.5703 592.23 72.168 592.035 71.8242C591.847 71.4805 591.597 71.2148 591.285 71.0273C590.98 70.832 590.609 70.7344 590.172 70.7344C589.711 70.7344 589.316 70.8086 588.988 70.957C588.668 71.1055 588.406 71.3203 588.203 71.6016C588 71.8828 587.847 72.2188 587.746 72.6094C587.644 73 587.582 73.4414 587.558 73.9336V75.5625C587.597 76.1406 587.707 76.6602 587.887 77.1211C588.066 77.5742 588.344 77.9336 588.719 78.1992C589.094 78.4648 589.586 78.5977 590.195 78.5977C590.64 78.5977 591.015 78.5 591.32 78.3047C591.625 78.1016 591.871 77.8242 592.058 77.4727C592.254 77.1211 592.39 76.7148 592.469 76.2539C592.555 75.793 592.597 75.2969 592.597 74.7656ZM603.654 81.2344C602.669 81.2344 601.787 81.0781 601.005 80.7656C600.224 80.4453 599.56 80.0039 599.013 79.4414C598.474 78.8789 598.06 78.2266 597.771 77.4844C597.482 76.7344 597.337 75.9375 597.337 75.0938V74.625C597.337 73.6641 597.474 72.7852 597.748 71.9883C598.021 71.1914 598.412 70.5 598.919 69.9141C599.435 69.3281 600.06 68.8789 600.794 68.5664C601.529 68.2461 602.357 68.0859 603.279 68.0859C604.177 68.0859 604.974 68.2344 605.669 68.5312C606.365 68.8281 606.947 69.25 607.416 69.7969C607.892 70.3438 608.251 71 608.494 71.7656C608.736 72.5234 608.857 73.3672 608.857 74.2969V75.7031H598.779V73.4531H605.541V73.1953C605.541 72.7266 605.455 72.3086 605.283 71.9414C605.119 71.5664 604.869 71.2695 604.533 71.0508C604.197 70.832 603.767 70.7227 603.244 70.7227C602.798 70.7227 602.416 70.8203 602.095 71.0156C601.775 71.2109 601.513 71.4844 601.31 71.8359C601.115 72.1875 600.966 72.6016 600.865 73.0781C600.771 73.5469 600.724 74.0625 600.724 74.625V75.0938C600.724 75.6016 600.794 76.0703 600.935 76.5C601.083 76.9297 601.291 77.3008 601.556 77.6133C601.83 77.9258 602.158 78.168 602.541 78.3398C602.931 78.5117 603.373 78.5977 603.865 78.5977C604.474 78.5977 605.041 78.4805 605.564 78.2461C606.095 78.0039 606.552 77.6406 606.935 77.1562L608.576 78.9375C608.31 79.3203 607.947 79.6875 607.486 80.0391C607.033 80.3906 606.486 80.6797 605.845 80.9062C605.205 81.125 604.474 81.2344 603.654 81.2344ZM610.644 79.3711C610.644 78.8711 610.816 78.4531 611.159 78.1172C611.511 77.7812 611.976 77.6133 612.554 77.6133C613.132 77.6133 613.593 77.7812 613.937 78.1172C614.288 78.4531 614.464 78.8711 614.464 79.3711C614.464 79.8711 614.288 80.2891 613.937 80.625C613.593 80.9609 613.132 81.1289 612.554 81.1289C611.976 81.1289 611.511 80.9609 611.159 80.625C610.816 80.2891 610.644 79.8711 610.644 79.3711ZM610.644 69.7031C610.644 69.2031 610.816 68.7852 611.159 68.4492C611.511 68.1133 611.976 67.9453 612.554 67.9453C613.132 67.9453 613.593 68.1133 613.937 68.4492C614.288 68.7852 614.464 69.2031 614.464 69.7031C614.464 70.2031 614.288 70.6211 613.937 70.957C613.593 71.293 613.132 71.4609 612.554 71.4609C611.976 71.4609 611.511 71.293 611.159 70.957C610.816 70.6211 610.644 70.2031 610.644 69.7031ZM634.186 74.8008V74.5547C634.186 73.8906 634.131 73.2617 634.022 72.668C633.913 72.0664 633.752 71.5195 633.542 71.0273C633.338 70.5898 633.104 70.1953 632.838 69.8438C632.573 69.4844 632.272 69.1797 631.936 68.9297C631.561 68.6641 631.143 68.457 630.682 68.3086C630.221 68.1602 629.717 68.0859 629.17 68.0859C628.733 68.0859 628.327 68.1289 627.952 68.2148C627.577 68.3008 627.233 68.4258 626.92 68.5898C626.67 68.7227 626.436 68.8828 626.217 69.0703C625.999 69.25 625.799 69.4531 625.62 69.6797V63H623.452V81H625.444L625.549 79.5586C625.69 79.7383 625.838 79.9023 625.995 80.0508C626.151 80.1992 626.315 80.3359 626.487 80.4609C626.846 80.7109 627.249 80.9023 627.694 81.0352C628.147 81.168 628.647 81.2344 629.194 81.2344C629.67 81.2344 630.112 81.1758 630.518 81.0586C630.932 80.9414 631.311 80.7773 631.655 80.5664C632.131 80.2617 632.538 79.8789 632.874 79.418C633.217 78.9492 633.495 78.4219 633.706 77.8359C633.862 77.3906 633.979 76.9141 634.057 76.4062C634.143 75.8906 634.186 75.3555 634.186 74.8008ZM632.018 74.5547V74.8008C632.018 75.1758 631.995 75.543 631.948 75.9023C631.901 76.2617 631.827 76.5977 631.725 76.9102C631.6 77.3242 631.432 77.6992 631.221 78.0352C631.01 78.3711 630.749 78.6484 630.436 78.8672C630.202 79.0391 629.936 79.1719 629.639 79.2656C629.342 79.3516 629.014 79.3945 628.655 79.3945C628.28 79.3945 627.936 79.3477 627.624 79.2539C627.311 79.1523 627.03 79.0117 626.78 78.832C626.53 78.6523 626.307 78.4453 626.112 78.2109C625.924 77.9688 625.76 77.707 625.62 77.4258V71.8828C625.752 71.6016 625.913 71.3438 626.1 71.1094C626.295 70.8672 626.518 70.6562 626.768 70.4766C627.01 70.3047 627.288 70.1719 627.6 70.0781C627.913 69.9766 628.256 69.9258 628.631 69.9258C628.975 69.9258 629.288 69.9648 629.569 70.043C629.85 70.1211 630.104 70.2305 630.331 70.3711C630.659 70.5664 630.936 70.8359 631.163 71.1797C631.389 71.5234 631.573 71.9023 631.713 72.3164C631.815 72.6523 631.889 73.0117 631.936 73.3945C631.991 73.7695 632.018 74.1562 632.018 74.5547ZM636.981 74.543V74.8008C636.981 75.7148 637.113 76.5625 637.379 77.3438C637.645 78.125 638.027 78.8047 638.527 79.3828C639.02 79.9609 639.621 80.4141 640.332 80.7422C641.051 81.0703 641.86 81.2344 642.758 81.2344C643.649 81.2344 644.449 81.0703 645.16 80.7422C645.871 80.4141 646.477 79.9609 646.977 79.3828C647.469 78.8047 647.848 78.125 648.113 77.3438C648.379 76.5625 648.512 75.7148 648.512 74.8008V74.543C648.512 73.6289 648.379 72.7812 648.113 72C647.848 71.2109 647.469 70.5273 646.977 69.9492C646.477 69.3711 645.867 68.918 645.149 68.5898C644.438 68.2539 643.633 68.0859 642.735 68.0859C641.844 68.0859 641.043 68.2539 640.332 68.5898C639.621 68.918 639.02 69.3711 638.527 69.9492C638.027 70.5273 637.645 71.2109 637.379 72C637.113 72.7812 636.981 73.6289 636.981 74.543ZM639.149 74.8008V74.543C639.149 73.9258 639.223 73.3359 639.371 72.7734C639.52 72.2031 639.746 71.7031 640.051 71.2734C640.348 70.8438 640.719 70.5039 641.164 70.2539C641.61 69.9961 642.133 69.8672 642.735 69.8672C643.336 69.8672 643.86 69.9961 644.305 70.2539C644.758 70.5039 645.137 70.8438 645.442 71.2734C645.738 71.7031 645.961 72.2031 646.11 72.7734C646.266 73.3359 646.344 73.9258 646.344 74.543V74.8008C646.344 75.4258 646.27 76.0234 646.121 76.5938C645.973 77.1562 645.75 77.6523 645.453 78.082C645.149 78.5117 644.77 78.8516 644.317 79.1016C643.871 79.3516 643.352 79.4766 642.758 79.4766C642.156 79.4766 641.629 79.3516 641.176 79.1016C640.723 78.8516 640.348 78.5117 640.051 78.082C639.746 77.6523 639.52 77.1562 639.371 76.5938C639.223 76.0234 639.149 75.4258 639.149 74.8008ZM651.131 74.543V74.8008C651.131 75.7148 651.264 76.5625 651.529 77.3438C651.795 78.125 652.178 78.8047 652.678 79.3828C653.17 79.9609 653.771 80.4141 654.482 80.7422C655.201 81.0703 656.01 81.2344 656.908 81.2344C657.799 81.2344 658.599 81.0703 659.31 80.7422C660.021 80.4141 660.627 79.9609 661.127 79.3828C661.619 78.8047 661.998 78.125 662.264 77.3438C662.529 76.5625 662.662 75.7148 662.662 74.8008V74.543C662.662 73.6289 662.529 72.7812 662.264 72C661.998 71.2109 661.619 70.5273 661.127 69.9492C660.627 69.3711 660.017 68.918 659.299 68.5898C658.588 68.2539 657.783 68.0859 656.885 68.0859C655.994 68.0859 655.193 68.2539 654.482 68.5898C653.771 68.918 653.17 69.3711 652.678 69.9492C652.178 70.5273 651.795 71.2109 651.529 72C651.264 72.7812 651.131 73.6289 651.131 74.543ZM653.299 74.8008V74.543C653.299 73.9258 653.373 73.3359 653.521 72.7734C653.67 72.2031 653.896 71.7031 654.201 71.2734C654.498 70.8438 654.869 70.5039 655.314 70.2539C655.76 69.9961 656.283 69.8672 656.885 69.8672C657.486 69.8672 658.01 69.9961 658.455 70.2539C658.908 70.5039 659.287 70.8438 659.592 71.2734C659.889 71.7031 660.111 72.2031 660.26 72.7734C660.416 73.3359 660.494 73.9258 660.494 74.543V74.8008C660.494 75.4258 660.42 76.0234 660.271 76.5938C660.123 77.1562 659.9 77.6523 659.603 78.082C659.299 78.5117 658.92 78.8516 658.467 79.1016C658.021 79.3516 657.502 79.4766 656.908 79.4766C656.306 79.4766 655.779 79.3516 655.326 79.1016C654.873 78.8516 654.498 78.5117 654.201 78.082C653.896 77.6523 653.67 77.1562 653.521 76.5938C653.373 76.0234 653.299 75.4258 653.299 74.8008ZM666.23 63V64.8867H670.542V79.125H666.23V81H676.847V79.125H672.71V63H666.23ZM561.429 113.438L565.449 99.9375H569.363L563.422 117H560.843L561.429 113.438ZM557.726 99.9375L561.734 113.438L562.343 117H559.742L553.836 99.9375H557.726ZM576.786 114.141V108.492C576.786 108.086 576.72 107.738 576.587 107.449C576.454 107.152 576.247 106.922 575.966 106.758C575.693 106.594 575.337 106.512 574.9 106.512C574.525 106.512 574.201 106.578 573.927 106.711C573.654 106.836 573.443 107.02 573.294 107.262C573.146 107.496 573.072 107.773 573.072 108.094H569.697C569.697 107.555 569.822 107.043 570.072 106.559C570.322 106.074 570.685 105.648 571.161 105.281C571.638 104.906 572.204 104.613 572.861 104.402C573.525 104.191 574.267 104.086 575.087 104.086C576.072 104.086 576.947 104.25 577.712 104.578C578.478 104.906 579.079 105.398 579.517 106.055C579.962 106.711 580.185 107.531 580.185 108.516V113.941C580.185 114.637 580.228 115.207 580.314 115.652C580.4 116.09 580.525 116.473 580.689 116.801V117H577.279C577.115 116.656 576.99 116.227 576.904 115.711C576.826 115.188 576.786 114.664 576.786 114.141ZM577.232 109.277L577.255 111.188H575.368C574.923 111.188 574.536 111.238 574.208 111.34C573.88 111.441 573.611 111.586 573.4 111.773C573.189 111.953 573.033 112.164 572.931 112.406C572.837 112.648 572.79 112.914 572.79 113.203C572.79 113.492 572.857 113.754 572.99 113.988C573.122 114.215 573.314 114.395 573.564 114.527C573.814 114.652 574.107 114.715 574.443 114.715C574.951 114.715 575.392 114.613 575.767 114.41C576.142 114.207 576.431 113.957 576.634 113.66C576.845 113.363 576.954 113.082 576.962 112.816L577.853 114.246C577.728 114.566 577.556 114.898 577.337 115.242C577.126 115.586 576.857 115.91 576.529 116.215C576.201 116.512 575.806 116.758 575.345 116.953C574.884 117.141 574.337 117.234 573.704 117.234C572.9 117.234 572.169 117.074 571.513 116.754C570.865 116.426 570.349 115.977 569.966 115.406C569.591 114.828 569.404 114.172 569.404 113.438C569.404 112.773 569.529 112.184 569.779 111.668C570.029 111.152 570.396 110.719 570.88 110.367C571.372 110.008 571.986 109.738 572.72 109.559C573.454 109.371 574.306 109.277 575.275 109.277H577.232ZM586.085 99V117H582.698V99H586.085ZM596.11 113.965V104.32H599.485V117H596.309L596.11 113.965ZM596.485 111.363L597.481 111.34C597.481 112.184 597.383 112.969 597.188 113.695C596.993 114.414 596.7 115.039 596.309 115.57C595.919 116.094 595.426 116.504 594.833 116.801C594.239 117.09 593.54 117.234 592.735 117.234C592.118 117.234 591.548 117.148 591.024 116.977C590.508 116.797 590.063 116.52 589.688 116.145C589.321 115.762 589.032 115.273 588.821 114.68C588.618 114.078 588.516 113.355 588.516 112.512V104.32H591.891V112.535C591.891 112.91 591.934 113.227 592.02 113.484C592.114 113.742 592.243 113.953 592.407 114.117C592.571 114.281 592.762 114.398 592.981 114.469C593.208 114.539 593.458 114.574 593.731 114.574C594.426 114.574 594.973 114.434 595.372 114.152C595.778 113.871 596.063 113.488 596.227 113.004C596.399 112.512 596.485 111.965 596.485 111.363ZM607.635 117.234C606.651 117.234 605.768 117.078 604.987 116.766C604.205 116.445 603.541 116.004 602.994 115.441C602.455 114.879 602.041 114.227 601.752 113.484C601.463 112.734 601.319 111.938 601.319 111.094V110.625C601.319 109.664 601.455 108.785 601.729 107.988C602.002 107.191 602.393 106.5 602.901 105.914C603.416 105.328 604.041 104.879 604.776 104.566C605.51 104.246 606.338 104.086 607.26 104.086C608.159 104.086 608.955 104.234 609.651 104.531C610.346 104.828 610.928 105.25 611.397 105.797C611.873 106.344 612.233 107 612.475 107.766C612.717 108.523 612.838 109.367 612.838 110.297V111.703H602.76V109.453H609.522V109.195C609.522 108.727 609.436 108.309 609.264 107.941C609.1 107.566 608.85 107.27 608.514 107.051C608.178 106.832 607.748 106.723 607.225 106.723C606.78 106.723 606.397 106.82 606.076 107.016C605.756 107.211 605.494 107.484 605.291 107.836C605.096 108.188 604.948 108.602 604.846 109.078C604.752 109.547 604.705 110.062 604.705 110.625V111.094C604.705 111.602 604.776 112.07 604.916 112.5C605.065 112.93 605.272 113.301 605.537 113.613C605.811 113.926 606.139 114.168 606.522 114.34C606.912 114.512 607.354 114.598 607.846 114.598C608.455 114.598 609.022 114.48 609.545 114.246C610.076 114.004 610.534 113.641 610.916 113.156L612.557 114.938C612.291 115.32 611.928 115.688 611.467 116.039C611.014 116.391 610.467 116.68 609.826 116.906C609.186 117.125 608.455 117.234 607.635 117.234ZM614.625 115.371C614.625 114.871 614.797 114.453 615.141 114.117C615.492 113.781 615.957 113.613 616.535 113.613C617.113 113.613 617.574 113.781 617.918 114.117C618.27 114.453 618.445 114.871 618.445 115.371C618.445 115.871 618.27 116.289 617.918 116.625C617.574 116.961 617.113 117.129 616.535 117.129C615.957 117.129 615.492 116.961 615.141 116.625C614.797 116.289 614.625 115.871 614.625 115.371ZM614.625 105.703C614.625 105.203 614.797 104.785 615.141 104.449C615.492 104.113 615.957 103.945 616.535 103.945C617.113 103.945 617.574 104.113 617.918 104.449C618.27 104.785 618.445 105.203 618.445 105.703C618.445 106.203 618.27 106.621 617.918 106.957C617.574 107.293 617.113 107.461 616.535 107.461C615.957 107.461 615.492 107.293 615.141 106.957C614.797 106.621 614.625 106.203 614.625 105.703ZM632.554 101.25H630.374V104.32H627.046V105.996H630.374V112.887C630.374 113.668 630.476 114.336 630.679 114.891C630.89 115.438 631.175 115.883 631.535 116.227C631.894 116.578 632.316 116.836 632.8 117C633.292 117.156 633.82 117.234 634.382 117.234C634.718 117.234 635.054 117.219 635.39 117.188C635.734 117.156 636.058 117.109 636.363 117.047C636.667 116.992 636.949 116.926 637.206 116.848C637.464 116.762 637.683 116.664 637.863 116.555L637.558 115.02C637.425 115.051 637.253 115.09 637.042 115.137C636.839 115.176 636.62 115.215 636.386 115.254C636.144 115.293 635.898 115.328 635.648 115.359C635.398 115.383 635.156 115.395 634.921 115.395C634.601 115.395 634.296 115.355 634.007 115.277C633.726 115.199 633.476 115.062 633.257 114.867C633.038 114.68 632.867 114.426 632.742 114.105C632.617 113.785 632.554 113.379 632.554 112.887V105.996H637.382V104.32H632.554V101.25ZM649.88 104.086C648.958 104.086 648.134 104.289 647.407 104.695C646.688 105.094 646.071 105.641 645.556 106.336L645.544 106.02L645.45 104.32H643.388V117H645.567V108.867C645.708 108.477 645.884 108.125 646.095 107.812C646.313 107.492 646.567 107.223 646.856 107.004C647.177 106.754 647.552 106.566 647.981 106.441C648.411 106.309 648.892 106.242 649.423 106.242C649.837 106.242 650.231 106.266 650.606 106.312C650.989 106.352 651.392 106.418 651.813 106.512L652.106 104.391C651.888 104.297 651.56 104.223 651.122 104.168C650.692 104.113 650.278 104.086 649.88 104.086ZM664.077 117H666.046V104.32H663.866V113.414C663.749 113.688 663.6 113.941 663.421 114.176C663.249 114.402 663.046 114.598 662.811 114.762C662.53 114.965 662.198 115.125 661.815 115.242C661.432 115.352 660.999 115.406 660.514 115.406C660.1 115.406 659.733 115.352 659.413 115.242C659.1 115.133 658.835 114.941 658.616 114.668C658.397 114.402 658.233 114.043 658.124 113.59C658.014 113.137 657.96 112.566 657.96 111.879V104.32H655.792V111.855C655.792 112.801 655.893 113.613 656.096 114.293C656.307 114.965 656.604 115.52 656.987 115.957C657.37 116.395 657.831 116.719 658.37 116.93C658.909 117.133 659.51 117.234 660.174 117.234C661.003 117.234 661.733 117.062 662.366 116.719C662.999 116.367 663.526 115.879 663.948 115.254L664.077 117ZM675.473 117.234C676.707 117.234 677.743 116.988 678.578 116.496C679.422 115.996 680.055 115.426 680.477 114.785L679.153 113.754C678.754 114.27 678.254 114.684 677.653 114.996C677.051 115.309 676.364 115.465 675.59 115.465C675.004 115.465 674.469 115.355 673.985 115.137C673.5 114.918 673.086 114.617 672.743 114.234C672.407 113.875 672.141 113.461 671.946 112.992C671.758 112.523 671.637 111.98 671.582 111.363V111.281H680.641V110.309C680.641 109.426 680.528 108.605 680.301 107.848C680.082 107.09 679.746 106.43 679.293 105.867C678.84 105.312 678.27 104.879 677.582 104.566C676.903 104.246 676.106 104.086 675.192 104.086C674.465 104.086 673.754 104.234 673.059 104.531C672.371 104.828 671.758 105.254 671.219 105.809C670.672 106.371 670.235 107.059 669.907 107.871C669.578 108.676 669.414 109.59 669.414 110.613V111.105C669.414 111.988 669.563 112.805 669.86 113.555C670.157 114.305 670.571 114.953 671.102 115.5C671.633 116.047 672.27 116.473 673.012 116.777C673.762 117.082 674.582 117.234 675.473 117.234ZM675.192 105.867C675.746 105.867 676.223 105.969 676.621 106.172C677.028 106.375 677.364 106.641 677.629 106.969C677.895 107.297 678.102 107.688 678.25 108.141C678.399 108.586 678.473 109.004 678.473 109.395V109.5H671.653C671.739 108.914 671.887 108.398 672.098 107.953C672.317 107.5 672.582 107.117 672.895 106.805C673.207 106.5 673.559 106.27 673.95 106.113C674.34 105.949 674.754 105.867 675.192 105.867Z" fill="black"/>
</svg>
