<svg width="1412" height="708" viewBox="0 0 1412 708" fill="none" xmlns="http://www.w3.org/2000/svg">
<rect x="2" y="2" width="176" height="176" rx="6" fill="white" stroke="#CCCCCC" stroke-width="4" stroke-miterlimit="0" stroke-linecap="round"/>
<rect x="178" y="2" width="176" height="176" rx="6" fill="white" stroke="#CCCCCC" stroke-width="4" stroke-miterlimit="0" stroke-linecap="round"/>
<rect x="354" y="2" width="176" height="176" rx="6" fill="white" stroke="#CCCCCC" stroke-width="4" stroke-miterlimit="0" stroke-linecap="round"/>
<rect x="530" y="2" width="176" height="176" rx="6" fill="white" stroke="#CCCCCC" stroke-width="4" stroke-miterlimit="0" stroke-linecap="round"/>
<rect x="706" y="2" width="176" height="176" rx="6" fill="white" stroke="#CCCCCC" stroke-width="4" stroke-miterlimit="0" stroke-linecap="round"/>
<rect x="882" y="2" width="176" height="176" rx="6" fill="white" stroke="#CCCCCC" stroke-width="4" stroke-miterlimit="0" stroke-linecap="round"/>
<rect x="1058" y="2" width="176" height="176" rx="6" fill="white" stroke="#CCCCCC" stroke-width="4" stroke-miterlimit="0" stroke-linecap="round"/>
<rect x="1234" y="2" width="176" height="176" rx="6" fill="white" stroke="#CCCCCC" stroke-width="4" stroke-miterlimit="0" stroke-linecap="round"/>
<rect x="2" y="178" width="176" height="176" rx="6" fill="white" stroke="#CCCCCC" stroke-width="4" stroke-miterlimit="0" stroke-linecap="round"/>
<rect x="178" y="178" width="176" height="176" rx="6" fill="white" stroke="#CCCCCC" stroke-width="4" stroke-miterlimit="0" stroke-linecap="round"/>
<rect x="354" y="178" width="176" height="176" rx="6" fill="white" stroke="#CCCCCC" stroke-width="4" stroke-miterlimit="0" stroke-linecap="round"/>
<rect x="530" y="178" width="176" height="176" rx="6" fill="white" stroke="#CCCCCC" stroke-width="4" stroke-miterlimit="0" stroke-linecap="round"/>
<rect x="706" y="178" width="176" height="176" rx="6" fill="white" stroke="#CCCCCC" stroke-width="4" stroke-miterlimit="0" stroke-linecap="round"/>
<rect x="882" y="178" width="176" height="176" rx="6" fill="white" stroke="#CCCCCC" stroke-width="4" stroke-miterlimit="0" stroke-linecap="round"/>
<rect x="1058" y="178" width="176" height="176" rx="6" fill="white" stroke="#CCCCCC" stroke-width="4" stroke-miterlimit="0" stroke-linecap="round"/>
<rect x="1234" y="178" width="176" height="176" rx="6" fill="white" stroke="#CCCCCC" stroke-width="4" stroke-miterlimit="0" stroke-linecap="round"/>
<rect x="2" y="354" width="176" height="176" rx="6" fill="white" stroke="#CCCCCC" stroke-width="4" stroke-miterlimit="0" stroke-linecap="round"/>
<rect x="178" y="354" width="176" height="176" rx="6" fill="white" stroke="#CCCCCC" stroke-width="4" stroke-miterlimit="0" stroke-linecap="round"/>
<rect x="354" y="354" width="176" height="176" rx="6" fill="white" stroke="#CCCCCC" stroke-width="4" stroke-miterlimit="0" stroke-linecap="round"/>
<rect x="530" y="354" width="176" height="176" rx="6" fill="white" stroke="#CCCCCC" stroke-width="4" stroke-miterlimit="0" stroke-linecap="round"/>
<rect x="706" y="354" width="176" height="176" rx="6" fill="white" stroke="#CCCCCC" stroke-width="4" stroke-miterlimit="0" stroke-linecap="round"/>
<rect x="882" y="354" width="176" height="176" rx="6" fill="white" stroke="#CCCCCC" stroke-width="4" stroke-miterlimit="0" stroke-linecap="round"/>
<rect x="1058" y="354" width="176" height="176" rx="6" fill="white" stroke="#CCCCCC" stroke-width="4" stroke-miterlimit="0" stroke-linecap="round"/>
<rect x="1234" y="354" width="176" height="176" rx="6" fill="white" stroke="#CCCCCC" stroke-width="4" stroke-miterlimit="0" stroke-linecap="round"/>
<rect x="2" y="530" width="176" height="176" rx="6" fill="white" stroke="#CCCCCC" stroke-width="4" stroke-miterlimit="0" stroke-linecap="round"/>
<rect x="178" y="530" width="176" height="176" rx="6" fill="white" stroke="#CCCCCC" stroke-width="4" stroke-miterlimit="0" stroke-linecap="round"/>
<rect x="354" y="530" width="176" height="176" rx="6" fill="white" stroke="#CCCCCC" stroke-width="4" stroke-miterlimit="0" stroke-linecap="round"/>
<rect x="530" y="530" width="176" height="176" rx="6" fill="white" stroke="#CCCCCC" stroke-width="4" stroke-miterlimit="0" stroke-linecap="round"/>
<rect x="706" y="530" width="176" height="176" rx="6" fill="white" stroke="#CCCCCC" stroke-width="4" stroke-miterlimit="0" stroke-linecap="round"/>
<rect x="882" y="530" width="176" height="176" rx="6" fill="white" stroke="#CCCCCC" stroke-width="4" stroke-miterlimit="0" stroke-linecap="round"/>
<rect x="1058" y="530" width="176" height="176" rx="6" fill="white" stroke="#CCCCCC" stroke-width="4" stroke-miterlimit="0" stroke-linecap="round"/>
<rect x="1234" y="530" width="176" height="176" rx="6" fill="white" stroke="#CCCCCC" stroke-width="4" stroke-miterlimit="0" stroke-linecap="round"/>
</svg>
