<svg width="1412" height="356" viewBox="0 0 1412 356" fill="none" xmlns="http://www.w3.org/2000/svg">
<rect x="2" y="178" width="1408" height="176" rx="6" fill="#FC9272" stroke="#999999" stroke-width="4" stroke-miterlimit="0" stroke-linecap="round"/>
<path d="M551.429 264V265.875C551.429 268.453 551.093 270.766 550.421 272.812C549.749 274.859 548.788 276.602 547.538 278.039C546.304 279.477 544.819 280.578 543.085 281.344C541.351 282.094 539.429 282.469 537.319 282.469C535.226 282.469 533.312 282.094 531.577 281.344C529.858 280.578 528.366 279.477 527.101 278.039C525.835 276.602 524.851 274.859 524.148 272.812C523.46 270.766 523.116 268.453 523.116 265.875V264C523.116 261.422 523.46 259.117 524.148 257.086C524.835 255.039 525.804 253.297 527.054 251.859C528.319 250.406 529.812 249.305 531.53 248.555C533.265 247.789 535.179 247.406 537.273 247.406C539.382 247.406 541.304 247.789 543.038 248.555C544.773 249.305 546.265 250.406 547.515 251.859C548.765 253.297 549.726 255.039 550.398 257.086C551.085 259.117 551.429 261.422 551.429 264ZM545.546 265.875V263.953C545.546 262.047 545.358 260.367 544.983 258.914C544.624 257.445 544.085 256.219 543.366 255.234C542.663 254.234 541.796 253.484 540.765 252.984C539.733 252.469 538.569 252.211 537.273 252.211C535.976 252.211 534.819 252.469 533.804 252.984C532.788 253.484 531.921 254.234 531.202 255.234C530.499 256.219 529.96 257.445 529.585 258.914C529.21 260.367 529.023 262.047 529.023 263.953V265.875C529.023 267.781 529.21 269.469 529.585 270.938C529.96 272.406 530.507 273.648 531.226 274.664C531.96 275.664 532.835 276.422 533.851 276.938C534.866 277.438 536.023 277.688 537.319 277.688C538.632 277.688 539.796 277.438 540.812 276.938C541.827 276.422 542.687 275.664 543.39 274.664C544.093 273.648 544.624 272.406 544.983 270.938C545.358 269.469 545.546 267.781 545.546 265.875ZM561.893 261.516V291.75H556.245V256.641H561.448L561.893 261.516ZM578.416 269.086V269.578C578.416 271.422 578.198 273.133 577.76 274.711C577.338 276.273 576.705 277.641 575.862 278.812C575.034 279.969 574.01 280.867 572.791 281.508C571.573 282.148 570.166 282.469 568.573 282.469C566.995 282.469 565.612 282.18 564.424 281.602C563.252 281.008 562.26 280.172 561.448 279.094C560.635 278.016 559.979 276.75 559.479 275.297C558.995 273.828 558.651 272.219 558.448 270.469V268.57C558.651 266.711 558.995 265.023 559.479 263.508C559.979 261.992 560.635 260.688 561.448 259.594C562.26 258.5 563.252 257.656 564.424 257.062C565.596 256.469 566.963 256.172 568.526 256.172C570.12 256.172 571.534 256.484 572.768 257.109C574.002 257.719 575.041 258.594 575.885 259.734C576.729 260.859 577.362 262.219 577.784 263.812C578.205 265.391 578.416 267.148 578.416 269.086ZM572.768 269.578V269.086C572.768 267.914 572.659 266.828 572.44 265.828C572.221 264.812 571.877 263.922 571.409 263.156C570.94 262.391 570.338 261.797 569.604 261.375C568.885 260.938 568.018 260.719 567.002 260.719C566.002 260.719 565.143 260.891 564.424 261.234C563.705 261.562 563.104 262.023 562.62 262.617C562.135 263.211 561.76 263.906 561.495 264.703C561.229 265.484 561.041 266.336 560.932 267.258V271.805C561.12 272.93 561.44 273.961 561.893 274.898C562.346 275.836 562.987 276.586 563.815 277.148C564.659 277.695 565.737 277.969 567.049 277.969C568.065 277.969 568.932 277.75 569.651 277.312C570.37 276.875 570.955 276.273 571.409 275.508C571.877 274.727 572.221 273.828 572.44 272.812C572.659 271.797 572.768 270.719 572.768 269.578ZM593.873 282.469C591.998 282.469 590.302 282.164 588.787 281.555C587.287 280.93 586.006 280.062 584.943 278.953C583.896 277.844 583.092 276.539 582.529 275.039C581.967 273.539 581.685 271.922 581.685 270.188V269.25C581.685 267.266 581.974 265.469 582.552 263.859C583.131 262.25 583.935 260.875 584.967 259.734C585.998 258.578 587.217 257.695 588.623 257.086C590.029 256.477 591.552 256.172 593.193 256.172C595.006 256.172 596.592 256.477 597.951 257.086C599.31 257.695 600.435 258.555 601.326 259.664C602.232 260.758 602.904 262.062 603.342 263.578C603.795 265.094 604.021 266.766 604.021 268.594V271.008H584.427V266.953H598.443V266.508C598.412 265.492 598.209 264.539 597.834 263.648C597.474 262.758 596.92 262.039 596.17 261.492C595.42 260.945 594.42 260.672 593.17 260.672C592.232 260.672 591.396 260.875 590.662 261.281C589.943 261.672 589.342 262.242 588.857 262.992C588.373 263.742 587.998 264.648 587.732 265.711C587.482 266.758 587.357 267.938 587.357 269.25V270.188C587.357 271.297 587.506 272.328 587.802 273.281C588.115 274.219 588.568 275.039 589.162 275.742C589.756 276.445 590.474 277 591.318 277.406C592.162 277.797 593.123 277.992 594.201 277.992C595.56 277.992 596.771 277.719 597.834 277.172C598.896 276.625 599.818 275.852 600.599 274.852L603.576 277.734C603.029 278.531 602.318 279.297 601.443 280.031C600.568 280.75 599.498 281.336 598.232 281.789C596.982 282.242 595.529 282.469 593.873 282.469ZM613.571 261.469V282H607.923V256.641H613.314L613.571 261.469ZM621.329 256.477L621.282 261.727C620.939 261.664 620.564 261.617 620.157 261.586C619.767 261.555 619.376 261.539 618.985 261.539C618.017 261.539 617.165 261.68 616.431 261.961C615.696 262.227 615.079 262.617 614.579 263.133C614.095 263.633 613.72 264.242 613.454 264.961C613.189 265.68 613.032 266.484 612.985 267.375L611.696 267.469C611.696 265.875 611.853 264.398 612.165 263.039C612.478 261.68 612.946 260.484 613.571 259.453C614.212 258.422 615.009 257.617 615.962 257.039C616.931 256.461 618.048 256.172 619.314 256.172C619.657 256.172 620.024 256.203 620.415 256.266C620.821 256.328 621.126 256.398 621.329 256.477ZM637.793 276.914V264.82C637.793 263.914 637.629 263.133 637.301 262.477C636.973 261.82 636.473 261.312 635.801 260.953C635.145 260.594 634.317 260.414 633.317 260.414C632.395 260.414 631.598 260.57 630.926 260.883C630.254 261.195 629.731 261.617 629.356 262.148C628.981 262.68 628.793 263.281 628.793 263.953H623.168C623.168 262.953 623.411 261.984 623.895 261.047C624.379 260.109 625.082 259.273 626.004 258.539C626.926 257.805 628.028 257.227 629.309 256.805C630.59 256.383 632.028 256.172 633.621 256.172C635.528 256.172 637.215 256.492 638.684 257.133C640.168 257.773 641.332 258.742 642.176 260.039C643.036 261.32 643.465 262.93 643.465 264.867V276.141C643.465 277.297 643.543 278.336 643.7 279.258C643.871 280.164 644.114 280.953 644.426 281.625V282H638.637C638.371 281.391 638.161 280.617 638.004 279.68C637.864 278.727 637.793 277.805 637.793 276.914ZM638.614 266.578L638.661 270.07H634.606C633.559 270.07 632.637 270.172 631.84 270.375C631.043 270.562 630.379 270.844 629.848 271.219C629.317 271.594 628.918 272.047 628.653 272.578C628.387 273.109 628.254 273.711 628.254 274.383C628.254 275.055 628.411 275.672 628.723 276.234C629.036 276.781 629.489 277.211 630.082 277.523C630.692 277.836 631.426 277.992 632.286 277.992C633.442 277.992 634.45 277.758 635.309 277.289C636.184 276.805 636.871 276.219 637.371 275.531C637.871 274.828 638.137 274.164 638.168 273.539L639.996 276.047C639.809 276.688 639.489 277.375 639.036 278.109C638.582 278.844 637.989 279.547 637.254 280.219C636.536 280.875 635.668 281.414 634.653 281.836C633.653 282.258 632.496 282.469 631.184 282.469C629.528 282.469 628.051 282.141 626.754 281.484C625.457 280.812 624.442 279.914 623.707 278.789C622.973 277.648 622.606 276.359 622.606 274.922C622.606 273.578 622.856 272.391 623.356 271.359C623.871 270.312 624.621 269.438 625.606 268.734C626.606 268.031 627.825 267.5 629.262 267.141C630.7 266.766 632.34 266.578 634.184 266.578H638.614ZM660.468 256.641V260.766H646.172V256.641H660.468ZM650.297 250.43H655.945V274.992C655.945 275.773 656.054 276.375 656.273 276.797C656.508 277.203 656.828 277.477 657.234 277.617C657.64 277.758 658.117 277.828 658.664 277.828C659.054 277.828 659.429 277.805 659.789 277.758C660.148 277.711 660.437 277.664 660.656 277.617L660.679 281.93C660.211 282.07 659.664 282.195 659.039 282.305C658.429 282.414 657.726 282.469 656.929 282.469C655.633 282.469 654.484 282.242 653.484 281.789C652.484 281.32 651.703 280.562 651.14 279.516C650.578 278.469 650.297 277.078 650.297 275.344V250.43ZM670.347 256.641V282H664.675V256.641H670.347ZM664.3 249.984C664.3 249.125 664.581 248.414 665.144 247.852C665.722 247.273 666.519 246.984 667.534 246.984C668.534 246.984 669.323 247.273 669.901 247.852C670.479 248.414 670.769 249.125 670.769 249.984C670.769 250.828 670.479 251.531 669.901 252.094C669.323 252.656 668.534 252.938 667.534 252.938C666.519 252.938 665.722 252.656 665.144 252.094C664.581 251.531 664.3 250.828 664.3 249.984ZM681.608 262.055V282H675.959V256.641H681.28L681.608 262.055ZM680.6 268.383L678.772 268.359C678.787 266.562 679.037 264.914 679.522 263.414C680.022 261.914 680.709 260.625 681.584 259.547C682.475 258.469 683.537 257.641 684.772 257.062C686.006 256.469 687.381 256.172 688.897 256.172C690.116 256.172 691.217 256.344 692.202 256.688C693.202 257.016 694.053 257.555 694.756 258.305C695.475 259.055 696.022 260.031 696.397 261.234C696.772 262.422 696.959 263.883 696.959 265.617V282H691.287V265.594C691.287 264.375 691.108 263.414 690.748 262.711C690.405 261.992 689.897 261.484 689.225 261.188C688.569 260.875 687.748 260.719 686.764 260.719C685.795 260.719 684.928 260.922 684.162 261.328C683.397 261.734 682.748 262.289 682.217 262.992C681.702 263.695 681.303 264.508 681.022 265.43C680.741 266.352 680.6 267.336 680.6 268.383ZM718.439 256.641H723.572V281.297C723.572 283.578 723.088 285.516 722.119 287.109C721.15 288.703 719.799 289.914 718.064 290.742C716.33 291.586 714.322 292.008 712.041 292.008C711.072 292.008 709.994 291.867 708.806 291.586C707.634 291.305 706.494 290.852 705.384 290.227C704.291 289.617 703.377 288.812 702.642 287.812L705.291 284.484C706.197 285.562 707.197 286.352 708.291 286.852C709.384 287.352 710.533 287.602 711.736 287.602C713.033 287.602 714.134 287.359 715.041 286.875C715.963 286.406 716.674 285.711 717.174 284.789C717.674 283.867 717.924 282.742 717.924 281.414V262.383L718.439 256.641ZM701.213 269.602V269.109C701.213 267.188 701.447 265.438 701.916 263.859C702.384 262.266 703.056 260.898 703.931 259.758C704.806 258.602 705.869 257.719 707.119 257.109C708.369 256.484 709.783 256.172 711.361 256.172C713.002 256.172 714.4 256.469 715.556 257.062C716.728 257.656 717.705 258.508 718.486 259.617C719.267 260.711 719.877 262.023 720.314 263.555C720.767 265.07 721.103 266.758 721.322 268.617V270.188C721.119 272 720.775 273.656 720.291 275.156C719.806 276.656 719.166 277.953 718.369 279.047C717.572 280.141 716.588 280.984 715.416 281.578C714.259 282.172 712.892 282.469 711.314 282.469C709.767 282.469 708.369 282.148 707.119 281.508C705.884 280.867 704.822 279.969 703.931 278.812C703.056 277.656 702.384 276.297 701.916 274.734C701.447 273.156 701.213 271.445 701.213 269.602ZM706.861 269.109V269.602C706.861 270.758 706.97 271.836 707.189 272.836C707.424 273.836 707.775 274.719 708.244 275.484C708.728 276.234 709.338 276.828 710.072 277.266C710.822 277.688 711.705 277.898 712.72 277.898C714.049 277.898 715.134 277.617 715.978 277.055C716.838 276.492 717.494 275.734 717.947 274.781C718.416 273.812 718.744 272.734 718.931 271.547V267.305C718.838 266.383 718.642 265.523 718.345 264.727C718.064 263.93 717.681 263.234 717.197 262.641C716.713 262.031 716.103 261.562 715.369 261.234C714.634 260.891 713.767 260.719 712.767 260.719C711.752 260.719 710.869 260.938 710.119 261.375C709.369 261.812 708.752 262.414 708.267 263.18C707.799 263.945 707.447 264.836 707.213 265.852C706.978 266.867 706.861 267.953 706.861 269.109ZM754.555 275.133C754.555 274.57 754.414 274.062 754.133 273.609C753.852 273.141 753.313 272.719 752.516 272.344C751.735 271.969 750.578 271.625 749.047 271.312C747.703 271.016 746.469 270.664 745.344 270.258C744.235 269.836 743.282 269.328 742.485 268.734C741.688 268.141 741.071 267.438 740.633 266.625C740.196 265.812 739.977 264.875 739.977 263.812C739.977 262.781 740.203 261.805 740.657 260.883C741.11 259.961 741.758 259.148 742.602 258.445C743.446 257.742 744.469 257.188 745.672 256.781C746.891 256.375 748.25 256.172 749.75 256.172C751.875 256.172 753.696 256.531 755.211 257.25C756.743 257.953 757.914 258.914 758.727 260.133C759.539 261.336 759.946 262.695 759.946 264.211H754.297C754.297 263.539 754.125 262.914 753.782 262.336C753.453 261.742 752.953 261.266 752.282 260.906C751.61 260.531 750.766 260.344 749.75 260.344C748.782 260.344 747.977 260.5 747.336 260.812C746.711 261.109 746.243 261.5 745.93 261.984C745.633 262.469 745.485 263 745.485 263.578C745.485 264 745.563 264.383 745.719 264.727C745.891 265.055 746.172 265.359 746.563 265.641C746.953 265.906 747.485 266.156 748.157 266.391C748.844 266.625 749.703 266.852 750.735 267.07C752.672 267.477 754.336 268 755.727 268.641C757.133 269.266 758.211 270.078 758.961 271.078C759.711 272.062 760.086 273.312 760.086 274.828C760.086 275.953 759.844 276.984 759.36 277.922C758.891 278.844 758.203 279.648 757.297 280.336C756.391 281.008 755.305 281.531 754.039 281.906C752.789 282.281 751.383 282.469 749.821 282.469C747.524 282.469 745.578 282.062 743.985 281.25C742.391 280.422 741.18 279.367 740.352 278.086C739.539 276.789 739.133 275.445 739.133 274.055H744.594C744.657 275.102 744.946 275.938 745.461 276.562C745.993 277.172 746.649 277.617 747.43 277.898C748.227 278.164 749.047 278.297 749.891 278.297C750.907 278.297 751.758 278.164 752.446 277.898C753.133 277.617 753.657 277.242 754.016 276.773C754.375 276.289 754.555 275.742 754.555 275.133ZM771.863 279.234L778.754 256.641H784.8L774.629 285.867C774.394 286.492 774.09 287.172 773.715 287.906C773.34 288.641 772.847 289.336 772.238 289.992C771.644 290.664 770.902 291.203 770.011 291.609C769.121 292.031 768.043 292.242 766.777 292.242C766.277 292.242 765.793 292.195 765.324 292.102C764.871 292.023 764.441 291.938 764.035 291.844L764.011 287.531C764.168 287.547 764.355 287.562 764.574 287.578C764.808 287.594 764.996 287.602 765.136 287.602C766.074 287.602 766.855 287.484 767.48 287.25C768.105 287.031 768.613 286.672 769.004 286.172C769.41 285.672 769.754 285 770.035 284.156L771.863 279.234ZM767.972 256.641L773.996 275.625L775.004 281.578L771.09 282.586L761.879 256.641H767.972ZM801.733 275.133C801.733 274.57 801.593 274.062 801.312 273.609C801.03 273.141 800.491 272.719 799.694 272.344C798.913 271.969 797.757 271.625 796.226 271.312C794.882 271.016 793.647 270.664 792.522 270.258C791.413 269.836 790.46 269.328 789.663 268.734C788.866 268.141 788.249 267.438 787.812 266.625C787.374 265.812 787.155 264.875 787.155 263.812C787.155 262.781 787.382 261.805 787.835 260.883C788.288 259.961 788.937 259.148 789.78 258.445C790.624 257.742 791.647 257.188 792.851 256.781C794.069 256.375 795.429 256.172 796.929 256.172C799.054 256.172 800.874 256.531 802.39 257.25C803.921 257.953 805.093 258.914 805.905 260.133C806.718 261.336 807.124 262.695 807.124 264.211H801.476C801.476 263.539 801.304 262.914 800.96 262.336C800.632 261.742 800.132 261.266 799.46 260.906C798.788 260.531 797.944 260.344 796.929 260.344C795.96 260.344 795.155 260.5 794.515 260.812C793.89 261.109 793.421 261.5 793.108 261.984C792.812 262.469 792.663 263 792.663 263.578C792.663 264 792.741 264.383 792.897 264.727C793.069 265.055 793.351 265.359 793.741 265.641C794.132 265.906 794.663 266.156 795.335 266.391C796.022 266.625 796.882 266.852 797.913 267.07C799.851 267.477 801.515 268 802.905 268.641C804.312 269.266 805.39 270.078 806.14 271.078C806.89 272.062 807.265 273.312 807.265 274.828C807.265 275.953 807.022 276.984 806.538 277.922C806.069 278.844 805.382 279.648 804.476 280.336C803.569 281.008 802.483 281.531 801.218 281.906C799.968 282.281 798.562 282.469 796.999 282.469C794.702 282.469 792.757 282.062 791.163 281.25C789.569 280.422 788.358 279.367 787.53 278.086C786.718 276.789 786.312 275.445 786.312 274.055H791.772C791.835 275.102 792.124 275.938 792.64 276.562C793.171 277.172 793.827 277.617 794.608 277.898C795.405 278.164 796.226 278.297 797.069 278.297C798.085 278.297 798.937 278.164 799.624 277.898C800.312 277.617 800.835 277.242 801.194 276.773C801.554 276.289 801.733 275.742 801.733 275.133ZM823.307 256.641V260.766H809.01V256.641H823.307ZM813.135 250.43H818.784V274.992C818.784 275.773 818.893 276.375 819.112 276.797C819.346 277.203 819.666 277.477 820.073 277.617C820.479 277.758 820.955 277.828 821.502 277.828C821.893 277.828 822.268 277.805 822.627 277.758C822.987 277.711 823.276 277.664 823.494 277.617L823.518 281.93C823.049 282.07 822.502 282.195 821.877 282.305C821.268 282.414 820.565 282.469 819.768 282.469C818.471 282.469 817.323 282.242 816.323 281.789C815.323 281.32 814.541 280.562 813.979 279.516C813.416 278.469 813.135 277.078 813.135 275.344V250.43ZM838.318 282.469C836.443 282.469 834.748 282.164 833.232 281.555C831.732 280.93 830.451 280.062 829.388 278.953C828.341 277.844 827.537 276.539 826.974 275.039C826.412 273.539 826.13 271.922 826.13 270.188V269.25C826.13 267.266 826.42 265.469 826.998 263.859C827.576 262.25 828.38 260.875 829.412 259.734C830.443 258.578 831.662 257.695 833.068 257.086C834.474 256.477 835.998 256.172 837.638 256.172C839.451 256.172 841.037 256.477 842.396 257.086C843.755 257.695 844.88 258.555 845.771 259.664C846.677 260.758 847.349 262.062 847.787 263.578C848.24 265.094 848.466 266.766 848.466 268.594V271.008H828.873V266.953H842.888V266.508C842.857 265.492 842.654 264.539 842.279 263.648C841.92 262.758 841.365 262.039 840.615 261.492C839.865 260.945 838.865 260.672 837.615 260.672C836.677 260.672 835.841 260.875 835.107 261.281C834.388 261.672 833.787 262.242 833.302 262.992C832.818 263.742 832.443 264.648 832.177 265.711C831.927 266.758 831.802 267.938 831.802 269.25V270.188C831.802 271.297 831.951 272.328 832.248 273.281C832.56 274.219 833.013 275.039 833.607 275.742C834.201 276.445 834.92 277 835.763 277.406C836.607 277.797 837.568 277.992 838.646 277.992C840.005 277.992 841.216 277.719 842.279 277.172C843.341 276.625 844.263 275.852 845.045 274.852L848.021 277.734C847.474 278.531 846.763 279.297 845.888 280.031C845.013 280.75 843.943 281.336 842.677 281.789C841.427 282.242 839.974 282.469 838.318 282.469ZM857.993 261.797V282H852.345V256.641H857.665L857.993 261.797ZM857.079 268.383L855.157 268.359C855.157 266.609 855.376 264.992 855.813 263.508C856.251 262.023 856.892 260.734 857.735 259.641C858.579 258.531 859.626 257.68 860.876 257.086C862.142 256.477 863.603 256.172 865.259 256.172C866.415 256.172 867.47 256.344 868.423 256.688C869.392 257.016 870.228 257.539 870.931 258.258C871.649 258.977 872.196 259.898 872.571 261.023C872.962 262.148 873.157 263.508 873.157 265.102V282H867.509V265.594C867.509 264.359 867.321 263.391 866.946 262.688C866.587 261.984 866.063 261.484 865.376 261.188C864.704 260.875 863.899 260.719 862.962 260.719C861.899 260.719 860.993 260.922 860.243 261.328C859.509 261.734 858.907 262.289 858.438 262.992C857.97 263.695 857.626 264.508 857.407 265.43C857.188 266.352 857.079 267.336 857.079 268.383ZM872.806 266.883L870.157 267.469C870.157 265.938 870.368 264.492 870.79 263.133C871.228 261.758 871.86 260.555 872.688 259.523C873.532 258.477 874.571 257.656 875.806 257.062C877.04 256.469 878.454 256.172 880.048 256.172C881.345 256.172 882.501 256.352 883.517 256.711C884.548 257.055 885.423 257.602 886.142 258.352C886.86 259.102 887.407 260.078 887.782 261.281C888.157 262.469 888.345 263.906 888.345 265.594V282H882.673V265.57C882.673 264.289 882.485 263.297 882.11 262.594C881.751 261.891 881.235 261.406 880.563 261.141C879.892 260.859 879.087 260.719 878.149 260.719C877.274 260.719 876.501 260.883 875.829 261.211C875.173 261.523 874.618 261.969 874.165 262.547C873.712 263.109 873.368 263.758 873.134 264.492C872.915 265.227 872.806 266.023 872.806 266.883Z" fill="black" fill-opacity="0.8"/>
<rect x="2" y="2" width="1408" height="176" rx="6" fill="#FCBBA1" stroke="#999999" stroke-width="4" stroke-miterlimit="0" stroke-linecap="round"/>
<path d="M655.956 83.6406H651.081V109H656.237V89.5234C656.331 89.2891 656.433 89.0781 656.542 88.8906C656.667 88.7031 656.808 88.5391 656.964 88.3984C657.167 88.1953 657.409 88.0469 657.69 87.9531C657.987 87.8438 658.323 87.7891 658.698 87.7891C659.042 87.7891 659.347 87.8359 659.612 87.9297C659.894 88.0234 660.136 88.1719 660.339 88.375C660.542 88.5781 660.69 88.8594 660.784 89.2188C660.894 89.5625 660.948 89.9844 660.948 90.4844V109H666.011V90.1797C666.011 90.0234 666.011 89.9062 666.011 89.8281C666.011 89.7344 666.011 89.6562 666.011 89.5938C666.073 89.3281 666.167 89.0938 666.292 88.8906C666.417 88.6719 666.573 88.4844 666.761 88.3281C666.964 88.1562 667.198 88.0234 667.464 87.9297C667.729 87.8359 668.042 87.7891 668.401 87.7891C668.745 87.7891 669.058 87.8359 669.339 87.9297C669.636 88.0234 669.886 88.1719 670.089 88.375C670.292 88.5938 670.448 88.8828 670.558 89.2422C670.667 89.5859 670.722 90.0078 670.722 90.5078V109H675.878V90.5547C675.878 89.2266 675.737 88.0938 675.456 87.1562C675.19 86.2031 674.808 85.4297 674.308 84.8359C673.808 84.2734 673.214 83.8594 672.526 83.5938C671.854 83.3125 671.112 83.1719 670.3 83.1719C669.675 83.1719 669.097 83.25 668.565 83.4062C668.05 83.5625 667.581 83.7812 667.159 84.0625C666.831 84.2812 666.526 84.5469 666.245 84.8594C665.964 85.1719 665.714 85.5078 665.495 85.8672C665.339 85.4766 665.151 85.1328 664.933 84.8359C664.714 84.5234 664.464 84.2578 664.183 84.0391C663.823 83.7422 663.394 83.5234 662.894 83.3828C662.394 83.2422 661.831 83.1719 661.206 83.1719C660.003 83.1719 658.972 83.4609 658.112 84.0391C657.269 84.6172 656.604 85.4141 656.12 86.4297L655.956 83.6406ZM697.264 109H702.983V108.602C702.67 107.945 702.428 107.164 702.256 106.258C702.1 105.336 702.022 104.305 702.022 103.164V91.8906C702.022 90.4531 701.756 89.1875 701.225 88.0938C700.694 86.9844 699.959 86.0703 699.022 85.3516C698.084 84.6328 696.967 84.0938 695.67 83.7344C694.389 83.3594 693.006 83.1719 691.522 83.1719C689.866 83.1719 688.389 83.3906 687.092 83.8281C685.811 84.25 684.733 84.8281 683.858 85.5625C682.951 86.2812 682.264 87.1094 681.795 88.0469C681.326 88.9844 681.084 89.9609 681.069 90.9766H686.694C686.694 90.4922 686.78 90.0391 686.951 89.6172C687.139 89.1797 687.42 88.8125 687.795 88.5156C688.17 88.1875 688.639 87.9297 689.201 87.7422C689.78 87.5547 690.451 87.4609 691.217 87.4609C692.061 87.4609 692.803 87.5703 693.444 87.7891C694.1 87.9922 694.655 88.2891 695.108 88.6797C695.53 89.0703 695.85 89.5312 696.069 90.0625C696.303 90.5938 696.42 91.1875 696.42 91.8438V93.5547H692.342C690.514 93.5547 688.873 93.7266 687.42 94.0703C685.983 94.4141 684.772 94.9141 683.787 95.5703C682.725 96.2734 681.912 97.1641 681.35 98.2422C680.803 99.3047 680.53 100.531 680.53 101.922C680.53 103 680.741 104.008 681.162 104.945C681.6 105.867 682.209 106.656 682.991 107.312C683.756 107.984 684.678 108.516 685.756 108.906C686.85 109.281 688.053 109.469 689.366 109.469C690.178 109.469 690.936 109.391 691.639 109.234C692.342 109.078 692.998 108.859 693.608 108.578C694.217 108.312 694.764 108 695.248 107.641C695.748 107.266 696.194 106.875 696.584 106.469C696.662 106.953 696.748 107.422 696.842 107.875C696.951 108.312 697.092 108.688 697.264 109ZM690.444 104.969C689.725 104.969 689.1 104.883 688.569 104.711C688.037 104.523 687.592 104.273 687.233 103.961C686.873 103.648 686.6 103.273 686.412 102.836C686.225 102.383 686.131 101.898 686.131 101.383C686.131 100.758 686.241 100.195 686.459 99.6953C686.694 99.1953 687.045 98.7656 687.514 98.4062C688.045 97.9844 688.756 97.6641 689.647 97.4453C690.537 97.2109 691.592 97.0938 692.811 97.0938H696.42V101.781C696.217 102.188 695.928 102.578 695.553 102.953C695.178 103.328 694.733 103.664 694.217 103.961C693.701 104.258 693.123 104.5 692.483 104.688C691.858 104.875 691.178 104.969 690.444 104.969ZM710.658 83.6406V88.3047H718.463V104.359H710.658V109H731.564V104.359H724.111V83.6406H710.658ZM717.947 77.0781C717.947 77.6719 718.088 78.1953 718.369 78.6484C718.666 79.0859 719.095 79.3906 719.658 79.5625C720.205 79.7344 720.705 79.7734 721.158 79.6797C721.611 79.5859 722.002 79.3906 722.33 79.0938C722.986 78.9219 723.486 78.5859 723.83 78.0859C724.173 77.5703 724.291 76.9688 724.181 76.2812C724.103 75.6094 723.798 75.0625 723.267 74.6406C722.752 74.2031 722.072 73.9844 721.228 73.9844C720.728 73.9844 720.275 74.0625 719.869 74.2188C719.478 74.3594 719.142 74.5625 718.861 74.8281C718.564 75.1094 718.338 75.4453 718.181 75.8359C718.025 76.2109 717.947 76.625 717.947 77.0781ZM737.669 109H743.271V90.9062C743.521 90.4844 743.81 90.0938 744.138 89.7344C744.466 89.375 744.817 89.0703 745.192 88.8203C745.677 88.4922 746.216 88.2422 746.81 88.0703C747.403 87.8828 748.044 87.7891 748.731 87.7891C749.56 87.7891 750.294 87.8828 750.935 88.0703C751.575 88.2422 752.122 88.5391 752.575 88.9609C753.028 89.3828 753.372 89.9453 753.606 90.6484C753.841 91.3516 753.958 92.2266 753.958 93.2734V109H759.56V93.1797C759.56 91.3984 759.349 89.8828 758.927 88.6328C758.505 87.3672 757.911 86.3281 757.146 85.5156C756.38 84.7031 755.458 84.1094 754.38 83.7344C753.302 83.3594 752.114 83.1719 750.817 83.1719C749.833 83.1719 748.896 83.3125 748.005 83.5938C747.114 83.875 746.294 84.2734 745.544 84.7891C745.075 85.1172 744.63 85.4922 744.208 85.9141C743.802 86.3203 743.427 86.7656 743.083 87.25L742.731 83.6406H737.669V109Z" fill="black" fill-opacity="0.8"/>
</svg>
