<svg width="1412" height="532" viewBox="0 0 1412 532" fill="none" xmlns="http://www.w3.org/2000/svg">
<rect x="2" y="354" width="1408" height="176" rx="6" fill="#FC9272" stroke="#999999" stroke-width="4" stroke-miterlimit="0" stroke-linecap="round"/>
<path d="M551.429 440V441.875C551.429 444.453 551.093 446.766 550.421 448.812C549.749 450.859 548.788 452.602 547.538 454.039C546.304 455.477 544.819 456.578 543.085 457.344C541.351 458.094 539.429 458.469 537.319 458.469C535.226 458.469 533.312 458.094 531.577 457.344C529.858 456.578 528.366 455.477 527.101 454.039C525.835 452.602 524.851 450.859 524.148 448.812C523.46 446.766 523.116 444.453 523.116 441.875V440C523.116 437.422 523.46 435.117 524.148 433.086C524.835 431.039 525.804 429.297 527.054 427.859C528.319 426.406 529.812 425.305 531.53 424.555C533.265 423.789 535.179 423.406 537.273 423.406C539.382 423.406 541.304 423.789 543.038 424.555C544.773 425.305 546.265 426.406 547.515 427.859C548.765 429.297 549.726 431.039 550.398 433.086C551.085 435.117 551.429 437.422 551.429 440ZM545.546 441.875V439.953C545.546 438.047 545.358 436.367 544.983 434.914C544.624 433.445 544.085 432.219 543.366 431.234C542.663 430.234 541.796 429.484 540.765 428.984C539.733 428.469 538.569 428.211 537.273 428.211C535.976 428.211 534.819 428.469 533.804 428.984C532.788 429.484 531.921 430.234 531.202 431.234C530.499 432.219 529.96 433.445 529.585 434.914C529.21 436.367 529.023 438.047 529.023 439.953V441.875C529.023 443.781 529.21 445.469 529.585 446.938C529.96 448.406 530.507 449.648 531.226 450.664C531.96 451.664 532.835 452.422 533.851 452.938C534.866 453.438 536.023 453.688 537.319 453.688C538.632 453.688 539.796 453.438 540.812 452.938C541.827 452.422 542.687 451.664 543.39 450.664C544.093 449.648 544.624 448.406 544.983 446.938C545.358 445.469 545.546 443.781 545.546 441.875ZM561.893 437.516V467.75H556.245V432.641H561.448L561.893 437.516ZM578.416 445.086V445.578C578.416 447.422 578.198 449.133 577.76 450.711C577.338 452.273 576.705 453.641 575.862 454.812C575.034 455.969 574.01 456.867 572.791 457.508C571.573 458.148 570.166 458.469 568.573 458.469C566.995 458.469 565.612 458.18 564.424 457.602C563.252 457.008 562.26 456.172 561.448 455.094C560.635 454.016 559.979 452.75 559.479 451.297C558.995 449.828 558.651 448.219 558.448 446.469V444.57C558.651 442.711 558.995 441.023 559.479 439.508C559.979 437.992 560.635 436.688 561.448 435.594C562.26 434.5 563.252 433.656 564.424 433.062C565.596 432.469 566.963 432.172 568.526 432.172C570.12 432.172 571.534 432.484 572.768 433.109C574.002 433.719 575.041 434.594 575.885 435.734C576.729 436.859 577.362 438.219 577.784 439.812C578.205 441.391 578.416 443.148 578.416 445.086ZM572.768 445.578V445.086C572.768 443.914 572.659 442.828 572.44 441.828C572.221 440.812 571.877 439.922 571.409 439.156C570.94 438.391 570.338 437.797 569.604 437.375C568.885 436.938 568.018 436.719 567.002 436.719C566.002 436.719 565.143 436.891 564.424 437.234C563.705 437.562 563.104 438.023 562.62 438.617C562.135 439.211 561.76 439.906 561.495 440.703C561.229 441.484 561.041 442.336 560.932 443.258V447.805C561.12 448.93 561.44 449.961 561.893 450.898C562.346 451.836 562.987 452.586 563.815 453.148C564.659 453.695 565.737 453.969 567.049 453.969C568.065 453.969 568.932 453.75 569.651 453.312C570.37 452.875 570.955 452.273 571.409 451.508C571.877 450.727 572.221 449.828 572.44 448.812C572.659 447.797 572.768 446.719 572.768 445.578ZM593.873 458.469C591.998 458.469 590.302 458.164 588.787 457.555C587.287 456.93 586.006 456.062 584.943 454.953C583.896 453.844 583.092 452.539 582.529 451.039C581.967 449.539 581.685 447.922 581.685 446.188V445.25C581.685 443.266 581.974 441.469 582.552 439.859C583.131 438.25 583.935 436.875 584.967 435.734C585.998 434.578 587.217 433.695 588.623 433.086C590.029 432.477 591.552 432.172 593.193 432.172C595.006 432.172 596.592 432.477 597.951 433.086C599.31 433.695 600.435 434.555 601.326 435.664C602.232 436.758 602.904 438.062 603.342 439.578C603.795 441.094 604.021 442.766 604.021 444.594V447.008H584.427V442.953H598.443V442.508C598.412 441.492 598.209 440.539 597.834 439.648C597.474 438.758 596.92 438.039 596.17 437.492C595.42 436.945 594.42 436.672 593.17 436.672C592.232 436.672 591.396 436.875 590.662 437.281C589.943 437.672 589.342 438.242 588.857 438.992C588.373 439.742 587.998 440.648 587.732 441.711C587.482 442.758 587.357 443.938 587.357 445.25V446.188C587.357 447.297 587.506 448.328 587.802 449.281C588.115 450.219 588.568 451.039 589.162 451.742C589.756 452.445 590.474 453 591.318 453.406C592.162 453.797 593.123 453.992 594.201 453.992C595.56 453.992 596.771 453.719 597.834 453.172C598.896 452.625 599.818 451.852 600.599 450.852L603.576 453.734C603.029 454.531 602.318 455.297 601.443 456.031C600.568 456.75 599.498 457.336 598.232 457.789C596.982 458.242 595.529 458.469 593.873 458.469ZM613.571 437.469V458H607.923V432.641H613.314L613.571 437.469ZM621.329 432.477L621.282 437.727C620.939 437.664 620.564 437.617 620.157 437.586C619.767 437.555 619.376 437.539 618.985 437.539C618.017 437.539 617.165 437.68 616.431 437.961C615.696 438.227 615.079 438.617 614.579 439.133C614.095 439.633 613.72 440.242 613.454 440.961C613.189 441.68 613.032 442.484 612.985 443.375L611.696 443.469C611.696 441.875 611.853 440.398 612.165 439.039C612.478 437.68 612.946 436.484 613.571 435.453C614.212 434.422 615.009 433.617 615.962 433.039C616.931 432.461 618.048 432.172 619.314 432.172C619.657 432.172 620.024 432.203 620.415 432.266C620.821 432.328 621.126 432.398 621.329 432.477ZM637.793 452.914V440.82C637.793 439.914 637.629 439.133 637.301 438.477C636.973 437.82 636.473 437.312 635.801 436.953C635.145 436.594 634.317 436.414 633.317 436.414C632.395 436.414 631.598 436.57 630.926 436.883C630.254 437.195 629.731 437.617 629.356 438.148C628.981 438.68 628.793 439.281 628.793 439.953H623.168C623.168 438.953 623.411 437.984 623.895 437.047C624.379 436.109 625.082 435.273 626.004 434.539C626.926 433.805 628.028 433.227 629.309 432.805C630.59 432.383 632.028 432.172 633.621 432.172C635.528 432.172 637.215 432.492 638.684 433.133C640.168 433.773 641.332 434.742 642.176 436.039C643.036 437.32 643.465 438.93 643.465 440.867V452.141C643.465 453.297 643.543 454.336 643.7 455.258C643.871 456.164 644.114 456.953 644.426 457.625V458H638.637C638.371 457.391 638.161 456.617 638.004 455.68C637.864 454.727 637.793 453.805 637.793 452.914ZM638.614 442.578L638.661 446.07H634.606C633.559 446.07 632.637 446.172 631.84 446.375C631.043 446.562 630.379 446.844 629.848 447.219C629.317 447.594 628.918 448.047 628.653 448.578C628.387 449.109 628.254 449.711 628.254 450.383C628.254 451.055 628.411 451.672 628.723 452.234C629.036 452.781 629.489 453.211 630.082 453.523C630.692 453.836 631.426 453.992 632.286 453.992C633.442 453.992 634.45 453.758 635.309 453.289C636.184 452.805 636.871 452.219 637.371 451.531C637.871 450.828 638.137 450.164 638.168 449.539L639.996 452.047C639.809 452.688 639.489 453.375 639.036 454.109C638.582 454.844 637.989 455.547 637.254 456.219C636.536 456.875 635.668 457.414 634.653 457.836C633.653 458.258 632.496 458.469 631.184 458.469C629.528 458.469 628.051 458.141 626.754 457.484C625.457 456.812 624.442 455.914 623.707 454.789C622.973 453.648 622.606 452.359 622.606 450.922C622.606 449.578 622.856 448.391 623.356 447.359C623.871 446.312 624.621 445.438 625.606 444.734C626.606 444.031 627.825 443.5 629.262 443.141C630.7 442.766 632.34 442.578 634.184 442.578H638.614ZM660.468 432.641V436.766H646.172V432.641H660.468ZM650.297 426.43H655.945V450.992C655.945 451.773 656.054 452.375 656.273 452.797C656.508 453.203 656.828 453.477 657.234 453.617C657.64 453.758 658.117 453.828 658.664 453.828C659.054 453.828 659.429 453.805 659.789 453.758C660.148 453.711 660.437 453.664 660.656 453.617L660.679 457.93C660.211 458.07 659.664 458.195 659.039 458.305C658.429 458.414 657.726 458.469 656.929 458.469C655.633 458.469 654.484 458.242 653.484 457.789C652.484 457.32 651.703 456.562 651.14 455.516C650.578 454.469 650.297 453.078 650.297 451.344V426.43ZM670.347 432.641V458H664.675V432.641H670.347ZM664.3 425.984C664.3 425.125 664.581 424.414 665.144 423.852C665.722 423.273 666.519 422.984 667.534 422.984C668.534 422.984 669.323 423.273 669.901 423.852C670.479 424.414 670.769 425.125 670.769 425.984C670.769 426.828 670.479 427.531 669.901 428.094C669.323 428.656 668.534 428.938 667.534 428.938C666.519 428.938 665.722 428.656 665.144 428.094C664.581 427.531 664.3 426.828 664.3 425.984ZM681.608 438.055V458H675.959V432.641H681.28L681.608 438.055ZM680.6 444.383L678.772 444.359C678.787 442.562 679.037 440.914 679.522 439.414C680.022 437.914 680.709 436.625 681.584 435.547C682.475 434.469 683.537 433.641 684.772 433.062C686.006 432.469 687.381 432.172 688.897 432.172C690.116 432.172 691.217 432.344 692.202 432.688C693.202 433.016 694.053 433.555 694.756 434.305C695.475 435.055 696.022 436.031 696.397 437.234C696.772 438.422 696.959 439.883 696.959 441.617V458H691.287V441.594C691.287 440.375 691.108 439.414 690.748 438.711C690.405 437.992 689.897 437.484 689.225 437.188C688.569 436.875 687.748 436.719 686.764 436.719C685.795 436.719 684.928 436.922 684.162 437.328C683.397 437.734 682.748 438.289 682.217 438.992C681.702 439.695 681.303 440.508 681.022 441.43C680.741 442.352 680.6 443.336 680.6 444.383ZM718.439 432.641H723.572V457.297C723.572 459.578 723.088 461.516 722.119 463.109C721.15 464.703 719.799 465.914 718.064 466.742C716.33 467.586 714.322 468.008 712.041 468.008C711.072 468.008 709.994 467.867 708.806 467.586C707.634 467.305 706.494 466.852 705.384 466.227C704.291 465.617 703.377 464.812 702.642 463.812L705.291 460.484C706.197 461.562 707.197 462.352 708.291 462.852C709.384 463.352 710.533 463.602 711.736 463.602C713.033 463.602 714.134 463.359 715.041 462.875C715.963 462.406 716.674 461.711 717.174 460.789C717.674 459.867 717.924 458.742 717.924 457.414V438.383L718.439 432.641ZM701.213 445.602V445.109C701.213 443.188 701.447 441.438 701.916 439.859C702.384 438.266 703.056 436.898 703.931 435.758C704.806 434.602 705.869 433.719 707.119 433.109C708.369 432.484 709.783 432.172 711.361 432.172C713.002 432.172 714.4 432.469 715.556 433.062C716.728 433.656 717.705 434.508 718.486 435.617C719.267 436.711 719.877 438.023 720.314 439.555C720.767 441.07 721.103 442.758 721.322 444.617V446.188C721.119 448 720.775 449.656 720.291 451.156C719.806 452.656 719.166 453.953 718.369 455.047C717.572 456.141 716.588 456.984 715.416 457.578C714.259 458.172 712.892 458.469 711.314 458.469C709.767 458.469 708.369 458.148 707.119 457.508C705.884 456.867 704.822 455.969 703.931 454.812C703.056 453.656 702.384 452.297 701.916 450.734C701.447 449.156 701.213 447.445 701.213 445.602ZM706.861 445.109V445.602C706.861 446.758 706.97 447.836 707.189 448.836C707.424 449.836 707.775 450.719 708.244 451.484C708.728 452.234 709.338 452.828 710.072 453.266C710.822 453.688 711.705 453.898 712.72 453.898C714.049 453.898 715.134 453.617 715.978 453.055C716.838 452.492 717.494 451.734 717.947 450.781C718.416 449.812 718.744 448.734 718.931 447.547V443.305C718.838 442.383 718.642 441.523 718.345 440.727C718.064 439.93 717.681 439.234 717.197 438.641C716.713 438.031 716.103 437.562 715.369 437.234C714.634 436.891 713.767 436.719 712.767 436.719C711.752 436.719 710.869 436.938 710.119 437.375C709.369 437.812 708.752 438.414 708.267 439.18C707.799 439.945 707.447 440.836 707.213 441.852C706.978 442.867 706.861 443.953 706.861 445.109ZM754.555 451.133C754.555 450.57 754.414 450.062 754.133 449.609C753.852 449.141 753.313 448.719 752.516 448.344C751.735 447.969 750.578 447.625 749.047 447.312C747.703 447.016 746.469 446.664 745.344 446.258C744.235 445.836 743.282 445.328 742.485 444.734C741.688 444.141 741.071 443.438 740.633 442.625C740.196 441.812 739.977 440.875 739.977 439.812C739.977 438.781 740.203 437.805 740.657 436.883C741.11 435.961 741.758 435.148 742.602 434.445C743.446 433.742 744.469 433.188 745.672 432.781C746.891 432.375 748.25 432.172 749.75 432.172C751.875 432.172 753.696 432.531 755.211 433.25C756.743 433.953 757.914 434.914 758.727 436.133C759.539 437.336 759.946 438.695 759.946 440.211H754.297C754.297 439.539 754.125 438.914 753.782 438.336C753.453 437.742 752.953 437.266 752.282 436.906C751.61 436.531 750.766 436.344 749.75 436.344C748.782 436.344 747.977 436.5 747.336 436.812C746.711 437.109 746.243 437.5 745.93 437.984C745.633 438.469 745.485 439 745.485 439.578C745.485 440 745.563 440.383 745.719 440.727C745.891 441.055 746.172 441.359 746.563 441.641C746.953 441.906 747.485 442.156 748.157 442.391C748.844 442.625 749.703 442.852 750.735 443.07C752.672 443.477 754.336 444 755.727 444.641C757.133 445.266 758.211 446.078 758.961 447.078C759.711 448.062 760.086 449.312 760.086 450.828C760.086 451.953 759.844 452.984 759.36 453.922C758.891 454.844 758.203 455.648 757.297 456.336C756.391 457.008 755.305 457.531 754.039 457.906C752.789 458.281 751.383 458.469 749.821 458.469C747.524 458.469 745.578 458.062 743.985 457.25C742.391 456.422 741.18 455.367 740.352 454.086C739.539 452.789 739.133 451.445 739.133 450.055H744.594C744.657 451.102 744.946 451.938 745.461 452.562C745.993 453.172 746.649 453.617 747.43 453.898C748.227 454.164 749.047 454.297 749.891 454.297C750.907 454.297 751.758 454.164 752.446 453.898C753.133 453.617 753.657 453.242 754.016 452.773C754.375 452.289 754.555 451.742 754.555 451.133ZM771.863 455.234L778.754 432.641H784.8L774.629 461.867C774.394 462.492 774.09 463.172 773.715 463.906C773.34 464.641 772.847 465.336 772.238 465.992C771.644 466.664 770.902 467.203 770.011 467.609C769.121 468.031 768.043 468.242 766.777 468.242C766.277 468.242 765.793 468.195 765.324 468.102C764.871 468.023 764.441 467.938 764.035 467.844L764.011 463.531C764.168 463.547 764.355 463.562 764.574 463.578C764.808 463.594 764.996 463.602 765.136 463.602C766.074 463.602 766.855 463.484 767.48 463.25C768.105 463.031 768.613 462.672 769.004 462.172C769.41 461.672 769.754 461 770.035 460.156L771.863 455.234ZM767.972 432.641L773.996 451.625L775.004 457.578L771.09 458.586L761.879 432.641H767.972ZM801.733 451.133C801.733 450.57 801.593 450.062 801.312 449.609C801.03 449.141 800.491 448.719 799.694 448.344C798.913 447.969 797.757 447.625 796.226 447.312C794.882 447.016 793.647 446.664 792.522 446.258C791.413 445.836 790.46 445.328 789.663 444.734C788.866 444.141 788.249 443.438 787.812 442.625C787.374 441.812 787.155 440.875 787.155 439.812C787.155 438.781 787.382 437.805 787.835 436.883C788.288 435.961 788.937 435.148 789.78 434.445C790.624 433.742 791.647 433.188 792.851 432.781C794.069 432.375 795.429 432.172 796.929 432.172C799.054 432.172 800.874 432.531 802.39 433.25C803.921 433.953 805.093 434.914 805.905 436.133C806.718 437.336 807.124 438.695 807.124 440.211H801.476C801.476 439.539 801.304 438.914 800.96 438.336C800.632 437.742 800.132 437.266 799.46 436.906C798.788 436.531 797.944 436.344 796.929 436.344C795.96 436.344 795.155 436.5 794.515 436.812C793.89 437.109 793.421 437.5 793.108 437.984C792.812 438.469 792.663 439 792.663 439.578C792.663 440 792.741 440.383 792.897 440.727C793.069 441.055 793.351 441.359 793.741 441.641C794.132 441.906 794.663 442.156 795.335 442.391C796.022 442.625 796.882 442.852 797.913 443.07C799.851 443.477 801.515 444 802.905 444.641C804.312 445.266 805.39 446.078 806.14 447.078C806.89 448.062 807.265 449.312 807.265 450.828C807.265 451.953 807.022 452.984 806.538 453.922C806.069 454.844 805.382 455.648 804.476 456.336C803.569 457.008 802.483 457.531 801.218 457.906C799.968 458.281 798.562 458.469 796.999 458.469C794.702 458.469 792.757 458.062 791.163 457.25C789.569 456.422 788.358 455.367 787.53 454.086C786.718 452.789 786.312 451.445 786.312 450.055H791.772C791.835 451.102 792.124 451.938 792.64 452.562C793.171 453.172 793.827 453.617 794.608 453.898C795.405 454.164 796.226 454.297 797.069 454.297C798.085 454.297 798.937 454.164 799.624 453.898C800.312 453.617 800.835 453.242 801.194 452.773C801.554 452.289 801.733 451.742 801.733 451.133ZM823.307 432.641V436.766H809.01V432.641H823.307ZM813.135 426.43H818.784V450.992C818.784 451.773 818.893 452.375 819.112 452.797C819.346 453.203 819.666 453.477 820.073 453.617C820.479 453.758 820.955 453.828 821.502 453.828C821.893 453.828 822.268 453.805 822.627 453.758C822.987 453.711 823.276 453.664 823.494 453.617L823.518 457.93C823.049 458.07 822.502 458.195 821.877 458.305C821.268 458.414 820.565 458.469 819.768 458.469C818.471 458.469 817.323 458.242 816.323 457.789C815.323 457.32 814.541 456.562 813.979 455.516C813.416 454.469 813.135 453.078 813.135 451.344V426.43ZM838.318 458.469C836.443 458.469 834.748 458.164 833.232 457.555C831.732 456.93 830.451 456.062 829.388 454.953C828.341 453.844 827.537 452.539 826.974 451.039C826.412 449.539 826.13 447.922 826.13 446.188V445.25C826.13 443.266 826.42 441.469 826.998 439.859C827.576 438.25 828.38 436.875 829.412 435.734C830.443 434.578 831.662 433.695 833.068 433.086C834.474 432.477 835.998 432.172 837.638 432.172C839.451 432.172 841.037 432.477 842.396 433.086C843.755 433.695 844.88 434.555 845.771 435.664C846.677 436.758 847.349 438.062 847.787 439.578C848.24 441.094 848.466 442.766 848.466 444.594V447.008H828.873V442.953H842.888V442.508C842.857 441.492 842.654 440.539 842.279 439.648C841.92 438.758 841.365 438.039 840.615 437.492C839.865 436.945 838.865 436.672 837.615 436.672C836.677 436.672 835.841 436.875 835.107 437.281C834.388 437.672 833.787 438.242 833.302 438.992C832.818 439.742 832.443 440.648 832.177 441.711C831.927 442.758 831.802 443.938 831.802 445.25V446.188C831.802 447.297 831.951 448.328 832.248 449.281C832.56 450.219 833.013 451.039 833.607 451.742C834.201 452.445 834.92 453 835.763 453.406C836.607 453.797 837.568 453.992 838.646 453.992C840.005 453.992 841.216 453.719 842.279 453.172C843.341 452.625 844.263 451.852 845.045 450.852L848.021 453.734C847.474 454.531 846.763 455.297 845.888 456.031C845.013 456.75 843.943 457.336 842.677 457.789C841.427 458.242 839.974 458.469 838.318 458.469ZM857.993 437.797V458H852.345V432.641H857.665L857.993 437.797ZM857.079 444.383L855.157 444.359C855.157 442.609 855.376 440.992 855.813 439.508C856.251 438.023 856.892 436.734 857.735 435.641C858.579 434.531 859.626 433.68 860.876 433.086C862.142 432.477 863.603 432.172 865.259 432.172C866.415 432.172 867.47 432.344 868.423 432.688C869.392 433.016 870.228 433.539 870.931 434.258C871.649 434.977 872.196 435.898 872.571 437.023C872.962 438.148 873.157 439.508 873.157 441.102V458H867.509V441.594C867.509 440.359 867.321 439.391 866.946 438.688C866.587 437.984 866.063 437.484 865.376 437.188C864.704 436.875 863.899 436.719 862.962 436.719C861.899 436.719 860.993 436.922 860.243 437.328C859.509 437.734 858.907 438.289 858.438 438.992C857.97 439.695 857.626 440.508 857.407 441.43C857.188 442.352 857.079 443.336 857.079 444.383ZM872.806 442.883L870.157 443.469C870.157 441.938 870.368 440.492 870.79 439.133C871.228 437.758 871.86 436.555 872.688 435.523C873.532 434.477 874.571 433.656 875.806 433.062C877.04 432.469 878.454 432.172 880.048 432.172C881.345 432.172 882.501 432.352 883.517 432.711C884.548 433.055 885.423 433.602 886.142 434.352C886.86 435.102 887.407 436.078 887.782 437.281C888.157 438.469 888.345 439.906 888.345 441.594V458H882.673V441.57C882.673 440.289 882.485 439.297 882.11 438.594C881.751 437.891 881.235 437.406 880.563 437.141C879.892 436.859 879.087 436.719 878.149 436.719C877.274 436.719 876.501 436.883 875.829 437.211C875.173 437.523 874.618 437.969 874.165 438.547C873.712 439.109 873.368 439.758 873.134 440.492C872.915 441.227 872.806 442.023 872.806 442.883Z" fill="black" fill-opacity="0.8"/>
<rect x="2" y="178" width="1408" height="176" rx="6" fill="#FCBBA1" stroke="#999999" stroke-width="4" stroke-miterlimit="0" stroke-linecap="round"/>
<path d="M655.956 259.641H651.081V285H656.237V265.523C656.331 265.289 656.433 265.078 656.542 264.891C656.667 264.703 656.808 264.539 656.964 264.398C657.167 264.195 657.409 264.047 657.69 263.953C657.987 263.844 658.323 263.789 658.698 263.789C659.042 263.789 659.347 263.836 659.612 263.93C659.894 264.023 660.136 264.172 660.339 264.375C660.542 264.578 660.69 264.859 660.784 265.219C660.894 265.562 660.948 265.984 660.948 266.484V285H666.011V266.18C666.011 266.023 666.011 265.906 666.011 265.828C666.011 265.734 666.011 265.656 666.011 265.594C666.073 265.328 666.167 265.094 666.292 264.891C666.417 264.672 666.573 264.484 666.761 264.328C666.964 264.156 667.198 264.023 667.464 263.93C667.729 263.836 668.042 263.789 668.401 263.789C668.745 263.789 669.058 263.836 669.339 263.93C669.636 264.023 669.886 264.172 670.089 264.375C670.292 264.594 670.448 264.883 670.558 265.242C670.667 265.586 670.722 266.008 670.722 266.508V285H675.878V266.555C675.878 265.227 675.737 264.094 675.456 263.156C675.19 262.203 674.808 261.43 674.308 260.836C673.808 260.273 673.214 259.859 672.526 259.594C671.854 259.312 671.112 259.172 670.3 259.172C669.675 259.172 669.097 259.25 668.565 259.406C668.05 259.562 667.581 259.781 667.159 260.062C666.831 260.281 666.526 260.547 666.245 260.859C665.964 261.172 665.714 261.508 665.495 261.867C665.339 261.477 665.151 261.133 664.933 260.836C664.714 260.523 664.464 260.258 664.183 260.039C663.823 259.742 663.394 259.523 662.894 259.383C662.394 259.242 661.831 259.172 661.206 259.172C660.003 259.172 658.972 259.461 658.112 260.039C657.269 260.617 656.604 261.414 656.12 262.43L655.956 259.641ZM697.264 285H702.983V284.602C702.67 283.945 702.428 283.164 702.256 282.258C702.1 281.336 702.022 280.305 702.022 279.164V267.891C702.022 266.453 701.756 265.188 701.225 264.094C700.694 262.984 699.959 262.07 699.022 261.352C698.084 260.633 696.967 260.094 695.67 259.734C694.389 259.359 693.006 259.172 691.522 259.172C689.866 259.172 688.389 259.391 687.092 259.828C685.811 260.25 684.733 260.828 683.858 261.562C682.951 262.281 682.264 263.109 681.795 264.047C681.326 264.984 681.084 265.961 681.069 266.977H686.694C686.694 266.492 686.78 266.039 686.951 265.617C687.139 265.18 687.42 264.812 687.795 264.516C688.17 264.188 688.639 263.93 689.201 263.742C689.78 263.555 690.451 263.461 691.217 263.461C692.061 263.461 692.803 263.57 693.444 263.789C694.1 263.992 694.655 264.289 695.108 264.68C695.53 265.07 695.85 265.531 696.069 266.062C696.303 266.594 696.42 267.188 696.42 267.844V269.555H692.342C690.514 269.555 688.873 269.727 687.42 270.07C685.983 270.414 684.772 270.914 683.787 271.57C682.725 272.273 681.912 273.164 681.35 274.242C680.803 275.305 680.53 276.531 680.53 277.922C680.53 279 680.741 280.008 681.162 280.945C681.6 281.867 682.209 282.656 682.991 283.312C683.756 283.984 684.678 284.516 685.756 284.906C686.85 285.281 688.053 285.469 689.366 285.469C690.178 285.469 690.936 285.391 691.639 285.234C692.342 285.078 692.998 284.859 693.608 284.578C694.217 284.312 694.764 284 695.248 283.641C695.748 283.266 696.194 282.875 696.584 282.469C696.662 282.953 696.748 283.422 696.842 283.875C696.951 284.312 697.092 284.688 697.264 285ZM690.444 280.969C689.725 280.969 689.1 280.883 688.569 280.711C688.037 280.523 687.592 280.273 687.233 279.961C686.873 279.648 686.6 279.273 686.412 278.836C686.225 278.383 686.131 277.898 686.131 277.383C686.131 276.758 686.241 276.195 686.459 275.695C686.694 275.195 687.045 274.766 687.514 274.406C688.045 273.984 688.756 273.664 689.647 273.445C690.537 273.211 691.592 273.094 692.811 273.094H696.42V277.781C696.217 278.188 695.928 278.578 695.553 278.953C695.178 279.328 694.733 279.664 694.217 279.961C693.701 280.258 693.123 280.5 692.483 280.688C691.858 280.875 691.178 280.969 690.444 280.969ZM710.658 259.641V264.305H718.463V280.359H710.658V285H731.564V280.359H724.111V259.641H710.658ZM717.947 253.078C717.947 253.672 718.088 254.195 718.369 254.648C718.666 255.086 719.095 255.391 719.658 255.562C720.205 255.734 720.705 255.773 721.158 255.68C721.611 255.586 722.002 255.391 722.33 255.094C722.986 254.922 723.486 254.586 723.83 254.086C724.173 253.57 724.291 252.969 724.181 252.281C724.103 251.609 723.798 251.062 723.267 250.641C722.752 250.203 722.072 249.984 721.228 249.984C720.728 249.984 720.275 250.062 719.869 250.219C719.478 250.359 719.142 250.562 718.861 250.828C718.564 251.109 718.338 251.445 718.181 251.836C718.025 252.211 717.947 252.625 717.947 253.078ZM737.669 285H743.271V266.906C743.521 266.484 743.81 266.094 744.138 265.734C744.466 265.375 744.817 265.07 745.192 264.82C745.677 264.492 746.216 264.242 746.81 264.07C747.403 263.883 748.044 263.789 748.731 263.789C749.56 263.789 750.294 263.883 750.935 264.07C751.575 264.242 752.122 264.539 752.575 264.961C753.028 265.383 753.372 265.945 753.606 266.648C753.841 267.352 753.958 268.227 753.958 269.273V285H759.56V269.18C759.56 267.398 759.349 265.883 758.927 264.633C758.505 263.367 757.911 262.328 757.146 261.516C756.38 260.703 755.458 260.109 754.38 259.734C753.302 259.359 752.114 259.172 750.817 259.172C749.833 259.172 748.896 259.312 748.005 259.594C747.114 259.875 746.294 260.273 745.544 260.789C745.075 261.117 744.63 261.492 744.208 261.914C743.802 262.32 743.427 262.766 743.083 263.25L742.731 259.641H737.669V285Z" fill="black" fill-opacity="0.8"/>
<rect x="2" y="2" width="1408" height="176" rx="6" fill="#FEE0D2" stroke="#999999" stroke-width="4" stroke-miterlimit="0" stroke-linecap="round"/>
<path d="M329.737 102.133C329.737 102.539 329.644 102.914 329.456 103.258C329.284 103.586 329.019 103.891 328.659 104.172C328.222 104.516 327.636 104.789 326.901 104.992C326.183 105.195 325.339 105.297 324.37 105.297C323.651 105.297 322.94 105.227 322.237 105.086C321.534 104.93 320.909 104.68 320.362 104.336C319.8 104.008 319.331 103.578 318.956 103.047C318.597 102.5 318.394 101.836 318.347 101.055H312.909C312.909 102.102 313.159 103.133 313.659 104.148C314.159 105.164 314.894 106.062 315.862 106.844C316.815 107.641 317.995 108.281 319.401 108.766C320.823 109.25 322.448 109.492 324.276 109.492C325.917 109.492 327.409 109.305 328.753 108.93C330.097 108.555 331.253 108.031 332.222 107.359C333.175 106.688 333.909 105.883 334.425 104.945C334.956 104.008 335.222 102.977 335.222 101.852C335.222 100.695 334.972 99.6953 334.472 98.8516C333.972 98.0078 333.269 97.2734 332.362 96.6484C331.456 96.0547 330.362 95.5547 329.081 95.1484C327.8 94.7422 326.386 94.3984 324.839 94.1172C323.73 93.9297 322.808 93.7188 322.073 93.4844C321.355 93.25 320.792 92.9922 320.386 92.7109C319.948 92.4453 319.644 92.1406 319.472 91.7969C319.3 91.4375 319.214 91.0391 319.214 90.6016C319.214 90.1797 319.315 89.7812 319.519 89.4062C319.722 89.0156 320.026 88.6797 320.433 88.3984C320.839 88.0859 321.355 87.8438 321.98 87.6719C322.62 87.4844 323.362 87.3906 324.206 87.3906C325.128 87.3906 325.933 87.5156 326.62 87.7656C327.308 88 327.87 88.3203 328.308 88.7266C328.683 89.0703 328.964 89.4609 329.151 89.8984C329.355 90.3203 329.456 90.7656 329.456 91.2344H335.058C335.058 90.0938 334.808 89.0312 334.308 88.0469C333.808 87.0625 333.097 86.2109 332.175 85.4922C331.237 84.7734 330.097 84.2109 328.753 83.8047C327.409 83.3828 325.894 83.1719 324.206 83.1719C322.628 83.1719 321.19 83.375 319.894 83.7812C318.612 84.1875 317.519 84.7422 316.612 85.4453C315.69 86.1484 314.98 86.9688 314.48 87.9062C313.995 88.8281 313.753 89.8047 313.753 90.8359C313.753 91.9141 313.995 92.8594 314.48 93.6719C314.964 94.4844 315.636 95.1875 316.495 95.7812C317.37 96.4062 318.409 96.9375 319.612 97.375C320.831 97.8125 322.175 98.1797 323.644 98.4766C324.815 98.6953 325.792 98.9297 326.573 99.1797C327.355 99.4297 327.987 99.6953 328.472 99.9766C328.925 100.289 329.245 100.617 329.433 100.961C329.636 101.305 329.737 101.695 329.737 102.133ZM357.662 109H363.381V108.602C363.069 107.945 362.827 107.164 362.655 106.258C362.498 105.336 362.42 104.305 362.42 103.164V91.8906C362.42 90.4531 362.155 89.1875 361.623 88.0938C361.092 86.9844 360.358 86.0703 359.42 85.3516C358.483 84.6328 357.366 84.0938 356.069 83.7344C354.787 83.3594 353.405 83.1719 351.92 83.1719C350.264 83.1719 348.787 83.3906 347.491 83.8281C346.209 84.25 345.131 84.8281 344.256 85.5625C343.35 86.2812 342.662 87.1094 342.194 88.0469C341.725 88.9844 341.483 89.9609 341.467 90.9766H347.092C347.092 90.4922 347.178 90.0391 347.35 89.6172C347.537 89.1797 347.819 88.8125 348.194 88.5156C348.569 88.1875 349.037 87.9297 349.6 87.7422C350.178 87.5547 350.85 87.4609 351.616 87.4609C352.459 87.4609 353.202 87.5703 353.842 87.7891C354.498 87.9922 355.053 88.2891 355.506 88.6797C355.928 89.0703 356.248 89.5312 356.467 90.0625C356.702 90.5938 356.819 91.1875 356.819 91.8438V93.5547H352.741C350.912 93.5547 349.272 93.7266 347.819 94.0703C346.381 94.4141 345.17 94.9141 344.186 95.5703C343.123 96.2734 342.311 97.1641 341.748 98.2422C341.202 99.3047 340.928 100.531 340.928 101.922C340.928 103 341.139 104.008 341.561 104.945C341.998 105.867 342.608 106.656 343.389 107.312C344.155 107.984 345.077 108.516 346.155 108.906C347.248 109.281 348.452 109.469 349.764 109.469C350.577 109.469 351.334 109.391 352.037 109.234C352.741 109.078 353.397 108.859 354.006 108.578C354.616 108.312 355.162 108 355.647 107.641C356.147 107.266 356.592 106.875 356.983 106.469C357.061 106.953 357.147 107.422 357.241 107.875C357.35 108.312 357.491 108.688 357.662 109ZM350.842 104.969C350.123 104.969 349.498 104.883 348.967 104.711C348.436 104.523 347.991 104.273 347.631 103.961C347.272 103.648 346.998 103.273 346.811 102.836C346.623 102.383 346.53 101.898 346.53 101.383C346.53 100.758 346.639 100.195 346.858 99.6953C347.092 99.1953 347.444 98.7656 347.912 98.4062C348.444 97.9844 349.155 97.6641 350.045 97.4453C350.936 97.2109 351.991 97.0938 353.209 97.0938H356.819V101.781C356.616 102.188 356.327 102.578 355.952 102.953C355.577 103.328 355.131 103.664 354.616 103.961C354.1 104.258 353.522 104.5 352.881 104.688C352.256 104.875 351.577 104.969 350.842 104.969ZM381.017 77.4531H375.392V83.6406H369.252V87.8359H375.392V100.305C375.392 101.93 375.603 103.32 376.025 104.477C376.463 105.633 377.064 106.578 377.83 107.312C378.595 108.062 379.509 108.617 380.572 108.977C381.65 109.32 382.83 109.492 384.111 109.492C384.814 109.492 385.517 109.453 386.22 109.375C386.939 109.312 387.627 109.219 388.283 109.094C388.939 108.969 389.549 108.82 390.111 108.648C390.689 108.461 391.181 108.242 391.588 107.992L390.978 104.125C390.697 104.188 390.345 104.266 389.924 104.359C389.517 104.438 389.08 104.508 388.611 104.57C388.127 104.648 387.627 104.711 387.111 104.758C386.595 104.805 386.095 104.828 385.611 104.828C384.939 104.828 384.322 104.75 383.759 104.594C383.197 104.438 382.713 104.172 382.306 103.797C381.9 103.438 381.58 102.945 381.345 102.32C381.127 101.68 381.017 100.891 381.017 99.9531V87.8359H390.556V83.6406H381.017V77.4531ZM399.357 83.6406V88.3047H407.161V104.359H399.357V109H420.263V104.359H412.81V83.6406H399.357ZM406.646 77.0781C406.646 77.6719 406.786 78.1953 407.067 78.6484C407.364 79.0859 407.794 79.3906 408.357 79.5625C408.903 79.7344 409.403 79.7734 409.857 79.6797C410.31 79.5859 410.7 79.3906 411.028 79.0938C411.685 78.9219 412.185 78.5859 412.528 78.0859C412.872 77.5703 412.989 76.9688 412.88 76.2812C412.802 75.6094 412.497 75.0625 411.966 74.6406C411.45 74.2031 410.771 73.9844 409.927 73.9844C409.427 73.9844 408.974 74.0625 408.567 74.2188C408.177 74.3594 407.841 74.5625 407.56 74.8281C407.263 75.1094 407.036 75.4453 406.88 75.8359C406.724 76.2109 406.646 76.625 406.646 77.0781ZM442.938 102.133C442.938 102.539 442.844 102.914 442.657 103.258C442.485 103.586 442.219 103.891 441.86 104.172C441.422 104.516 440.836 104.789 440.102 104.992C439.383 105.195 438.539 105.297 437.571 105.297C436.852 105.297 436.141 105.227 435.438 105.086C434.735 104.93 434.11 104.68 433.563 104.336C433 104.008 432.532 103.578 432.157 103.047C431.797 102.5 431.594 101.836 431.547 101.055H426.11C426.11 102.102 426.36 103.133 426.86 104.148C427.36 105.164 428.094 106.062 429.063 106.844C430.016 107.641 431.196 108.281 432.602 108.766C434.024 109.25 435.649 109.492 437.477 109.492C439.118 109.492 440.61 109.305 441.953 108.93C443.297 108.555 444.453 108.031 445.422 107.359C446.375 106.688 447.11 105.883 447.625 104.945C448.157 104.008 448.422 102.977 448.422 101.852C448.422 100.695 448.172 99.6953 447.672 98.8516C447.172 98.0078 446.469 97.2734 445.563 96.6484C444.657 96.0547 443.563 95.5547 442.282 95.1484C441 94.7422 439.586 94.3984 438.039 94.1172C436.93 93.9297 436.008 93.7188 435.274 93.4844C434.555 93.25 433.993 92.9922 433.586 92.7109C433.149 92.4453 432.844 92.1406 432.672 91.7969C432.5 91.4375 432.414 91.0391 432.414 90.6016C432.414 90.1797 432.516 89.7812 432.719 89.4062C432.922 89.0156 433.227 88.6797 433.633 88.3984C434.039 88.0859 434.555 87.8438 435.18 87.6719C435.821 87.4844 436.563 87.3906 437.407 87.3906C438.328 87.3906 439.133 87.5156 439.821 87.7656C440.508 88 441.071 88.3203 441.508 88.7266C441.883 89.0703 442.164 89.4609 442.352 89.8984C442.555 90.3203 442.657 90.7656 442.657 91.2344H448.258C448.258 90.0938 448.008 89.0312 447.508 88.0469C447.008 87.0625 446.297 86.2109 445.375 85.4922C444.438 84.7734 443.297 84.2109 441.953 83.8047C440.61 83.3828 439.094 83.1719 437.407 83.1719C435.828 83.1719 434.391 83.375 433.094 83.7812C431.813 84.1875 430.719 84.7422 429.813 85.4453C428.891 86.1484 428.18 86.9688 427.68 87.9062C427.196 88.8281 426.953 89.8047 426.953 90.8359C426.953 91.9141 427.196 92.8594 427.68 93.6719C428.164 94.4844 428.836 95.1875 429.696 95.7812C430.571 96.4062 431.61 96.9375 432.813 97.375C434.032 97.8125 435.375 98.1797 436.844 98.4766C438.016 98.6953 438.993 98.9297 439.774 99.1797C440.555 99.4297 441.188 99.6953 441.672 99.9766C442.125 100.289 442.446 100.617 442.633 100.961C442.836 101.305 442.938 101.695 442.938 102.133ZM461.043 109H466.668V87.8359H476.066V83.6406H466.668V82.0938C466.668 81.2031 466.777 80.4219 466.996 79.75C467.23 79.0781 467.574 78.5156 468.027 78.0625C468.511 77.5781 469.129 77.2109 469.879 76.9609C470.644 76.7109 471.55 76.5859 472.597 76.5859C473.597 76.5859 474.488 76.6484 475.269 76.7734C476.066 76.8984 476.777 77.0469 477.402 77.2188L477.847 72.7422C477.379 72.6484 476.918 72.5625 476.465 72.4844C476.011 72.3906 475.566 72.3125 475.129 72.25C474.597 72.1719 474.05 72.1094 473.488 72.0625C472.941 72 472.379 71.9688 471.8 71.9688C470.16 71.9688 468.675 72.1875 467.347 72.625C466.035 73.0625 464.91 73.7031 463.972 74.5469C463.035 75.4062 462.308 76.4688 461.793 77.7344C461.293 78.9844 461.043 80.4375 461.043 82.0938V83.6406H454.246V87.8359H461.043V109ZM484.257 83.6406V88.3047H492.062V104.359H484.257V109H505.163V104.359H497.71V83.6406H484.257ZM491.546 77.0781C491.546 77.6719 491.687 78.1953 491.968 78.6484C492.265 79.0859 492.694 79.3906 493.257 79.5625C493.804 79.7344 494.304 79.7734 494.757 79.6797C495.21 79.5859 495.601 79.3906 495.929 79.0938C496.585 78.9219 497.085 78.5859 497.429 78.0859C497.772 77.5703 497.89 76.9688 497.78 76.2812C497.702 75.6094 497.397 75.0625 496.866 74.6406C496.351 74.2031 495.671 73.9844 494.827 73.9844C494.327 73.9844 493.874 74.0625 493.468 74.2188C493.077 74.3594 492.741 74.5625 492.46 74.8281C492.163 75.1094 491.937 75.4453 491.78 75.8359C491.624 76.2109 491.546 76.625 491.546 77.0781ZM523.104 109.469C525.573 109.469 527.674 108.984 529.409 108.016C531.159 107.047 532.455 105.953 533.299 104.734L530.299 101.828C529.518 102.828 528.526 103.602 527.323 104.148C526.12 104.68 524.823 104.945 523.432 104.945C522.416 104.945 521.479 104.773 520.62 104.43C519.776 104.086 519.041 103.602 518.416 102.977C517.791 102.383 517.299 101.711 516.94 100.961C516.58 100.211 516.315 99.2812 516.143 98.1719V98.0547H533.721V95.6406C533.721 93.8281 533.479 92.1562 532.995 90.625C532.51 89.0938 531.791 87.7734 530.838 86.6641C529.885 85.5703 528.705 84.7188 527.299 84.1094C525.893 83.4844 524.276 83.1719 522.448 83.1719C520.807 83.1719 519.26 83.4844 517.807 84.1094C516.37 84.7188 515.104 85.5938 514.01 86.7344C512.916 87.875 512.057 89.25 511.432 90.8594C510.807 92.4688 510.495 94.2656 510.495 96.25V97.2109C510.495 98.9453 510.791 100.562 511.385 102.062C511.995 103.547 512.854 104.836 513.963 105.93C515.073 107.039 516.401 107.906 517.948 108.531C519.51 109.156 521.229 109.469 523.104 109.469ZM522.424 87.7188C523.362 87.7188 524.182 87.8828 524.885 88.2109C525.604 88.5234 526.198 88.9453 526.666 89.4766C527.151 90.0234 527.526 90.6641 527.791 91.3984C528.057 92.1172 528.19 92.8438 528.19 93.5781V93.9531H516.26C516.432 92.9844 516.698 92.1172 517.057 91.3516C517.416 90.5859 517.862 89.9297 518.393 89.3828C518.924 88.8516 519.526 88.4453 520.198 88.1641C520.885 87.8672 521.627 87.7188 522.424 87.7188ZM556.138 102.133C556.138 102.539 556.045 102.914 555.857 103.258C555.685 103.586 555.42 103.891 555.06 104.172C554.623 104.516 554.037 104.789 553.302 104.992C552.584 105.195 551.74 105.297 550.771 105.297C550.052 105.297 549.341 105.227 548.638 105.086C547.935 104.93 547.31 104.68 546.763 104.336C546.201 104.008 545.732 103.578 545.357 103.047C544.998 102.5 544.795 101.836 544.748 101.055H539.31C539.31 102.102 539.56 103.133 540.06 104.148C540.56 105.164 541.295 106.062 542.263 106.844C543.216 107.641 544.396 108.281 545.802 108.766C547.224 109.25 548.849 109.492 550.677 109.492C552.318 109.492 553.81 109.305 555.154 108.93C556.498 108.555 557.654 108.031 558.623 107.359C559.576 106.688 560.31 105.883 560.826 104.945C561.357 104.008 561.623 102.977 561.623 101.852C561.623 100.695 561.373 99.6953 560.873 98.8516C560.373 98.0078 559.67 97.2734 558.763 96.6484C557.857 96.0547 556.763 95.5547 555.482 95.1484C554.201 94.7422 552.787 94.3984 551.24 94.1172C550.131 93.9297 549.209 93.7188 548.474 93.4844C547.756 93.25 547.193 92.9922 546.787 92.7109C546.349 92.4453 546.045 92.1406 545.873 91.7969C545.701 91.4375 545.615 91.0391 545.615 90.6016C545.615 90.1797 545.716 89.7812 545.92 89.4062C546.123 89.0156 546.427 88.6797 546.834 88.3984C547.24 88.0859 547.756 87.8438 548.381 87.6719C549.021 87.4844 549.763 87.3906 550.607 87.3906C551.529 87.3906 552.334 87.5156 553.021 87.7656C553.709 88 554.271 88.3203 554.709 88.7266C555.084 89.0703 555.365 89.4609 555.552 89.8984C555.756 90.3203 555.857 90.7656 555.857 91.2344H561.459C561.459 90.0938 561.209 89.0312 560.709 88.0469C560.209 87.0625 559.498 86.2109 558.576 85.4922C557.638 84.7734 556.498 84.2109 555.154 83.8047C553.81 83.3828 552.295 83.1719 550.607 83.1719C549.029 83.1719 547.591 83.375 546.295 83.7812C545.013 84.1875 543.92 84.7422 543.013 85.4453C542.091 86.1484 541.381 86.9688 540.881 87.9062C540.396 88.8281 540.154 89.8047 540.154 90.8359C540.154 91.9141 540.396 92.8594 540.881 93.6719C541.365 94.4844 542.037 95.1875 542.896 95.7812C543.771 96.4062 544.81 96.9375 546.013 97.375C547.232 97.8125 548.576 98.1797 550.045 98.4766C551.216 98.6953 552.193 98.9297 552.974 99.1797C553.756 99.4297 554.388 99.6953 554.873 99.9766C555.326 100.289 555.646 100.617 555.834 100.961C556.037 101.305 556.138 101.695 556.138 102.133ZM589.196 113.43V109H567.774V113.43H589.196ZM607.207 104.969C606.036 104.969 605.059 104.734 604.278 104.266C603.496 103.797 602.879 103.172 602.426 102.391C601.957 101.641 601.621 100.773 601.418 99.7891C601.231 98.7891 601.137 97.7734 601.137 96.7422V95.9219C601.137 94.9062 601.231 93.9062 601.418 92.9219C601.621 91.9375 601.965 91.0625 602.45 90.2969C602.903 89.5312 603.512 88.9141 604.278 88.4453C605.059 87.9609 606.036 87.7188 607.207 87.7188C607.973 87.7188 608.684 87.8516 609.34 88.1172C610.012 88.3828 610.59 88.7422 611.075 89.1953C611.543 89.6484 611.903 90.1797 612.153 90.7891C612.418 91.3984 612.551 92.0469 612.551 92.7344H617.825C617.84 91.3281 617.582 90.0391 617.051 88.8672C616.536 87.6953 615.809 86.6875 614.871 85.8438C613.934 85 612.809 84.3438 611.496 83.875C610.2 83.4062 608.786 83.1719 607.254 83.1719C605.317 83.1719 603.614 83.5156 602.145 84.2031C600.692 84.875 599.473 85.7891 598.489 86.9453C597.504 88.1016 596.762 89.4531 596.262 91C595.778 92.5469 595.536 94.1875 595.536 95.9219V96.7422C595.536 98.4922 595.786 100.141 596.286 101.688C596.786 103.219 597.528 104.562 598.512 105.719C599.481 106.875 600.692 107.797 602.145 108.484C603.614 109.156 605.325 109.492 607.278 109.492C608.684 109.492 610.02 109.266 611.286 108.812C612.567 108.344 613.7 107.703 614.684 106.891C615.653 106.109 616.418 105.18 616.981 104.102C617.559 103.008 617.84 101.844 617.825 100.609H612.551C612.551 101.25 612.403 101.836 612.106 102.367C611.825 102.898 611.442 103.359 610.957 103.75C610.457 104.141 609.879 104.445 609.223 104.664C608.582 104.867 607.911 104.969 607.207 104.969ZM623.437 96.0859V96.5781C623.437 98.4375 623.703 100.148 624.234 101.711C624.765 103.273 625.539 104.633 626.554 105.789C627.554 106.945 628.789 107.852 630.257 108.508C631.726 109.164 633.39 109.492 635.25 109.492C637.093 109.492 638.742 109.164 640.195 108.508C641.664 107.852 642.898 106.945 643.898 105.789C644.898 104.633 645.664 103.273 646.195 101.711C646.726 100.148 646.992 98.4375 646.992 96.5781V96.0859C646.992 94.2422 646.726 92.5391 646.195 90.9766C645.664 89.3984 644.898 88.0312 643.898 86.875C642.882 85.7188 641.64 84.8125 640.172 84.1562C638.718 83.5 637.062 83.1719 635.203 83.1719C633.343 83.1719 631.687 83.5 630.234 84.1562C628.781 84.8125 627.554 85.7188 626.554 86.875C625.539 88.0312 624.765 89.3984 624.234 90.9766C623.703 92.5391 623.437 94.2422 623.437 96.0859ZM629.039 96.5781V96.0859C629.039 94.9766 629.156 93.9141 629.39 92.8984C629.64 91.8828 630.023 90.9922 630.539 90.2266C631.039 89.4609 631.672 88.8516 632.437 88.3984C633.218 87.9453 634.14 87.7188 635.203 87.7188C636.281 87.7188 637.203 87.9453 637.968 88.3984C638.75 88.8516 639.398 89.4609 639.914 90.2266C640.398 90.9922 640.765 91.8828 641.015 92.8984C641.265 93.9141 641.39 94.9766 641.39 96.0859V96.5781C641.39 97.7188 641.265 98.7969 641.015 99.8125C640.781 100.828 640.414 101.719 639.914 102.484C639.414 103.25 638.773 103.859 637.992 104.312C637.211 104.75 636.297 104.969 635.25 104.969C634.172 104.969 633.242 104.75 632.461 104.312C631.679 103.859 631.039 103.25 630.539 102.484C630.023 101.719 629.64 100.828 629.39 99.8125C629.156 98.7969 629.039 97.7188 629.039 96.5781ZM653.847 73V77.6641H661.862V104.359H653.847V109H675.198V104.359H667.511V73H653.847ZM682.147 73V77.6641H690.162V104.359H682.147V109H703.498V104.359H695.811V73H682.147ZM725.564 109H731.283V108.602C730.97 107.945 730.728 107.164 730.556 106.258C730.4 105.336 730.322 104.305 730.322 103.164V91.8906C730.322 90.4531 730.056 89.1875 729.525 88.0938C728.994 86.9844 728.259 86.0703 727.322 85.3516C726.384 84.6328 725.267 84.0938 723.97 83.7344C722.689 83.3594 721.306 83.1719 719.822 83.1719C718.166 83.1719 716.689 83.3906 715.392 83.8281C714.111 84.25 713.033 84.8281 712.158 85.5625C711.252 86.2812 710.564 87.1094 710.095 88.0469C709.627 88.9844 709.384 89.9609 709.369 90.9766H714.994C714.994 90.4922 715.08 90.0391 715.252 89.6172C715.439 89.1797 715.72 88.8125 716.095 88.5156C716.47 88.1875 716.939 87.9297 717.502 87.7422C718.08 87.5547 718.752 87.4609 719.517 87.4609C720.361 87.4609 721.103 87.5703 721.744 87.7891C722.4 87.9922 722.955 88.2891 723.408 88.6797C723.83 89.0703 724.15 89.5312 724.369 90.0625C724.603 90.5938 724.72 91.1875 724.72 91.8438V93.5547H720.642C718.814 93.5547 717.173 93.7266 715.72 94.0703C714.283 94.4141 713.072 94.9141 712.088 95.5703C711.025 96.2734 710.213 97.1641 709.65 98.2422C709.103 99.3047 708.83 100.531 708.83 101.922C708.83 103 709.041 104.008 709.463 104.945C709.9 105.867 710.509 106.656 711.291 107.312C712.056 107.984 712.978 108.516 714.056 108.906C715.15 109.281 716.353 109.469 717.666 109.469C718.478 109.469 719.236 109.391 719.939 109.234C720.642 109.078 721.298 108.859 721.908 108.578C722.517 108.312 723.064 108 723.548 107.641C724.048 107.266 724.494 106.875 724.884 106.469C724.963 106.953 725.048 107.422 725.142 107.875C725.252 108.312 725.392 108.688 725.564 109ZM718.744 104.969C718.025 104.969 717.4 104.883 716.869 104.711C716.338 104.523 715.892 104.273 715.533 103.961C715.173 103.648 714.9 103.273 714.713 102.836C714.525 102.383 714.431 101.898 714.431 101.383C714.431 100.758 714.541 100.195 714.759 99.6953C714.994 99.1953 715.345 98.7656 715.814 98.4062C716.345 97.9844 717.056 97.6641 717.947 97.4453C718.838 97.2109 719.892 97.0938 721.111 97.0938H724.72V101.781C724.517 102.188 724.228 102.578 723.853 102.953C723.478 103.328 723.033 103.664 722.517 103.961C722.002 104.258 721.423 104.5 720.783 104.688C720.158 104.875 719.478 104.969 718.744 104.969ZM748.919 77.4531H743.294V83.6406H737.153V87.8359H743.294V100.305C743.294 101.93 743.505 103.32 743.927 104.477C744.364 105.633 744.966 106.578 745.731 107.312C746.497 108.062 747.411 108.617 748.474 108.977C749.552 109.32 750.731 109.492 752.013 109.492C752.716 109.492 753.419 109.453 754.122 109.375C754.841 109.312 755.528 109.219 756.185 109.094C756.841 108.969 757.45 108.82 758.013 108.648C758.591 108.461 759.083 108.242 759.489 107.992L758.88 104.125C758.599 104.188 758.247 104.266 757.825 104.359C757.419 104.438 756.981 104.508 756.513 104.57C756.028 104.648 755.528 104.711 755.013 104.758C754.497 104.805 753.997 104.828 753.513 104.828C752.841 104.828 752.224 104.75 751.661 104.594C751.099 104.438 750.614 104.172 750.208 103.797C749.802 103.438 749.481 102.945 749.247 102.32C749.028 101.68 748.919 100.891 748.919 99.9531V87.8359H758.458V83.6406H748.919V77.4531ZM773 104.477L787.742 87.2031V83.6406H765.805V88.2109H780.102L765.524 105.32V109H788.446V104.477H773ZM815.597 113.43V109H794.175V113.43H815.597ZM833.608 104.969C832.437 104.969 831.46 104.734 830.679 104.266C829.897 103.797 829.28 103.172 828.827 102.391C828.358 101.641 828.022 100.773 827.819 99.7891C827.632 98.7891 827.538 97.7734 827.538 96.7422V95.9219C827.538 94.9062 827.632 93.9062 827.819 92.9219C828.022 91.9375 828.366 91.0625 828.851 90.2969C829.304 89.5312 829.913 88.9141 830.679 88.4453C831.46 87.9609 832.437 87.7188 833.608 87.7188C834.374 87.7188 835.085 87.8516 835.741 88.1172C836.413 88.3828 836.991 88.7422 837.476 89.1953C837.944 89.6484 838.304 90.1797 838.554 90.7891C838.819 91.3984 838.952 92.0469 838.952 92.7344H844.226C844.241 91.3281 843.983 90.0391 843.452 88.8672C842.937 87.6953 842.21 86.6875 841.272 85.8438C840.335 85 839.21 84.3438 837.897 83.875C836.601 83.4062 835.187 83.1719 833.655 83.1719C831.718 83.1719 830.015 83.5156 828.546 84.2031C827.093 84.875 825.874 85.7891 824.89 86.9453C823.905 88.1016 823.163 89.4531 822.663 91C822.179 92.5469 821.937 94.1875 821.937 95.9219V96.7422C821.937 98.4922 822.187 100.141 822.687 101.688C823.187 103.219 823.929 104.562 824.913 105.719C825.882 106.875 827.093 107.797 828.546 108.484C830.015 109.156 831.726 109.492 833.679 109.492C835.085 109.492 836.421 109.266 837.687 108.812C838.968 108.344 840.101 107.703 841.085 106.891C842.054 106.109 842.819 105.18 843.382 104.102C843.96 103.008 844.241 101.844 844.226 100.609H838.952C838.952 101.25 838.804 101.836 838.507 102.367C838.226 102.898 837.843 103.359 837.358 103.75C836.858 104.141 836.28 104.445 835.624 104.664C834.983 104.867 834.312 104.969 833.608 104.969ZM849.838 96.0859V96.5781C849.838 98.4375 850.104 100.148 850.635 101.711C851.166 103.273 851.94 104.633 852.955 105.789C853.955 106.945 855.19 107.852 856.659 108.508C858.127 109.164 859.791 109.492 861.651 109.492C863.494 109.492 865.143 109.164 866.596 108.508C868.065 107.852 869.299 106.945 870.299 105.789C871.299 104.633 872.065 103.273 872.596 101.711C873.127 100.148 873.393 98.4375 873.393 96.5781V96.0859C873.393 94.2422 873.127 92.5391 872.596 90.9766C872.065 89.3984 871.299 88.0312 870.299 86.875C869.284 85.7188 868.041 84.8125 866.573 84.1562C865.119 83.5 863.463 83.1719 861.604 83.1719C859.744 83.1719 858.088 83.5 856.635 84.1562C855.182 84.8125 853.955 85.7188 852.955 86.875C851.94 88.0312 851.166 89.3984 850.635 90.9766C850.104 92.5391 849.838 94.2422 849.838 96.0859ZM855.44 96.5781V96.0859C855.44 94.9766 855.557 93.9141 855.791 92.8984C856.041 91.8828 856.424 90.9922 856.94 90.2266C857.44 89.4609 858.073 88.8516 858.838 88.3984C859.619 87.9453 860.541 87.7188 861.604 87.7188C862.682 87.7188 863.604 87.9453 864.369 88.3984C865.151 88.8516 865.799 89.4609 866.315 90.2266C866.799 90.9922 867.166 91.8828 867.416 92.8984C867.666 93.9141 867.791 94.9766 867.791 96.0859V96.5781C867.791 97.7188 867.666 98.7969 867.416 99.8125C867.182 100.828 866.815 101.719 866.315 102.484C865.815 103.25 865.174 103.859 864.393 104.312C863.612 104.75 862.698 104.969 861.651 104.969C860.573 104.969 859.643 104.75 858.862 104.312C858.08 103.859 857.44 103.25 856.94 102.484C856.424 101.719 856.041 100.828 855.791 99.8125C855.557 98.7969 855.44 97.7188 855.44 96.5781ZM879.17 109H884.771V90.9062C885.021 90.4844 885.31 90.0938 885.638 89.7344C885.966 89.375 886.318 89.0703 886.693 88.8203C887.177 88.4922 887.716 88.2422 888.31 88.0703C888.904 87.8828 889.545 87.7891 890.232 87.7891C891.06 87.7891 891.795 87.8828 892.435 88.0703C893.076 88.2422 893.623 88.5391 894.076 88.9609C894.529 89.3828 894.873 89.9453 895.107 90.6484C895.341 91.3516 895.459 92.2266 895.459 93.2734V109H901.06V93.1797C901.06 91.3984 900.849 89.8828 900.427 88.6328C900.005 87.3672 899.412 86.3281 898.646 85.5156C897.88 84.7031 896.959 84.1094 895.88 83.7344C894.802 83.3594 893.615 83.1719 892.318 83.1719C891.334 83.1719 890.396 83.3125 889.505 83.5938C888.615 83.875 887.795 84.2734 887.045 84.7891C886.576 85.1172 886.13 85.4922 885.709 85.9141C885.302 86.3203 884.927 86.7656 884.584 87.25L884.232 83.6406H879.17V109ZM910.962 83.6406V88.3047H918.227V109.398C918.227 110.383 918.095 111.203 917.829 111.859C917.563 112.516 917.204 113.047 916.751 113.453C916.298 113.844 915.759 114.125 915.134 114.297C914.509 114.469 913.845 114.555 913.142 114.555C912.954 114.555 912.688 114.547 912.345 114.531C912.001 114.531 911.642 114.516 911.267 114.484C910.876 114.469 910.501 114.438 910.142 114.391C909.782 114.359 909.493 114.32 909.274 114.273L908.946 118.844C909.274 118.906 909.595 118.961 909.907 119.008C910.235 119.055 910.556 119.094 910.868 119.125C911.29 119.172 911.712 119.203 912.134 119.219C912.571 119.234 913.009 119.242 913.446 119.242C915.102 119.242 916.571 119.039 917.852 118.633C919.134 118.227 920.22 117.617 921.11 116.805C922.001 115.992 922.681 114.969 923.149 113.734C923.618 112.516 923.852 111.07 923.852 109.398V83.6406H910.962ZM917.712 77.0781C917.712 77.9531 917.993 78.6797 918.556 79.2578C919.134 79.8359 919.931 80.125 920.946 80.125C921.993 80.125 922.806 79.8359 923.384 79.2578C923.962 78.6797 924.251 77.9531 924.251 77.0781C924.251 76.1875 923.962 75.4531 923.384 74.875C922.806 74.2812 921.993 73.9844 920.946 73.9844C919.915 73.9844 919.118 74.2891 918.556 74.8984C917.993 75.4922 917.712 76.2188 917.712 77.0781ZM947.606 109.469C950.074 109.469 952.176 108.984 953.91 108.016C955.66 107.047 956.957 105.953 957.801 104.734L954.801 101.828C954.02 102.828 953.028 103.602 951.824 104.148C950.621 104.68 949.324 104.945 947.934 104.945C946.918 104.945 945.981 104.773 945.121 104.43C944.278 104.086 943.543 103.602 942.918 102.977C942.293 102.383 941.801 101.711 941.442 100.961C941.082 100.211 940.817 99.2812 940.645 98.1719V98.0547H958.223V95.6406C958.223 93.8281 957.981 92.1562 957.496 90.625C957.012 89.0938 956.293 87.7734 955.34 86.6641C954.387 85.5703 953.207 84.7188 951.801 84.1094C950.395 83.4844 948.778 83.1719 946.949 83.1719C945.309 83.1719 943.762 83.4844 942.309 84.1094C940.871 84.7188 939.606 85.5938 938.512 86.7344C937.418 87.875 936.559 89.25 935.934 90.8594C935.309 92.4688 934.996 94.2656 934.996 96.25V97.2109C934.996 98.9453 935.293 100.562 935.887 102.062C936.496 103.547 937.356 104.836 938.465 105.93C939.574 107.039 940.903 107.906 942.449 108.531C944.012 109.156 945.731 109.469 947.606 109.469ZM946.926 87.7188C947.864 87.7188 948.684 87.8828 949.387 88.2109C950.106 88.5234 950.699 88.9453 951.168 89.4766C951.653 90.0234 952.028 90.6641 952.293 91.3984C952.559 92.1172 952.692 92.8438 952.692 93.5781V93.9531H940.762C940.934 92.9844 941.199 92.1172 941.559 91.3516C941.918 90.5859 942.364 89.9297 942.895 89.3828C943.426 88.8516 944.028 88.4453 944.699 88.1641C945.387 87.8672 946.129 87.7188 946.926 87.7188ZM975.109 104.969C973.937 104.969 972.961 104.734 972.179 104.266C971.398 103.797 970.781 103.172 970.328 102.391C969.859 101.641 969.523 100.773 969.32 99.7891C969.132 98.7891 969.039 97.7734 969.039 96.7422V95.9219C969.039 94.9062 969.132 93.9062 969.32 92.9219C969.523 91.9375 969.867 91.0625 970.351 90.2969C970.804 89.5312 971.414 88.9141 972.179 88.4453C972.961 87.9609 973.937 87.7188 975.109 87.7188C975.875 87.7188 976.586 87.8516 977.242 88.1172C977.914 88.3828 978.492 88.7422 978.976 89.1953C979.445 89.6484 979.804 90.1797 980.054 90.7891C980.32 91.3984 980.453 92.0469 980.453 92.7344H985.726C985.742 91.3281 985.484 90.0391 984.953 88.8672C984.437 87.6953 983.711 86.6875 982.773 85.8438C981.836 85 980.711 84.3438 979.398 83.875C978.101 83.4062 976.687 83.1719 975.156 83.1719C973.218 83.1719 971.515 83.5156 970.047 84.2031C968.593 84.875 967.375 85.7891 966.39 86.9453C965.406 88.1016 964.664 89.4531 964.164 91C963.679 92.5469 963.437 94.1875 963.437 95.9219V96.7422C963.437 98.4922 963.687 100.141 964.187 101.688C964.687 103.219 965.429 104.562 966.414 105.719C967.382 106.875 968.593 107.797 970.047 108.484C971.515 109.156 973.226 109.492 975.179 109.492C976.586 109.492 977.922 109.266 979.187 108.812C980.468 108.344 981.601 107.703 982.586 106.891C983.554 106.109 984.32 105.18 984.882 104.102C985.461 103.008 985.742 101.844 985.726 100.609H980.453C980.453 101.25 980.304 101.836 980.007 102.367C979.726 102.898 979.343 103.359 978.859 103.75C978.359 104.141 977.781 104.445 977.125 104.664C976.484 104.867 975.812 104.969 975.109 104.969ZM1003.62 77.4531H997.995V83.6406H991.854V87.8359H997.995V100.305C997.995 101.93 998.206 103.32 998.628 104.477C999.065 105.633 999.667 106.578 1000.43 107.312C1001.2 108.062 1002.11 108.617 1003.17 108.977C1004.25 109.32 1005.43 109.492 1006.71 109.492C1007.42 109.492 1008.12 109.453 1008.82 109.375C1009.54 109.312 1010.23 109.219 1010.89 109.094C1011.54 108.969 1012.15 108.82 1012.71 108.648C1013.29 108.461 1013.78 108.242 1014.19 107.992L1013.58 104.125C1013.3 104.188 1012.95 104.266 1012.53 104.359C1012.12 104.438 1011.68 104.508 1011.21 104.57C1010.73 104.648 1010.23 104.711 1009.71 104.758C1009.2 104.805 1008.7 104.828 1008.21 104.828C1007.54 104.828 1006.92 104.75 1006.36 104.594C1005.8 104.438 1005.32 104.172 1004.91 103.797C1004.5 103.438 1004.18 102.945 1003.95 102.32C1003.73 101.68 1003.62 100.891 1003.62 99.9531V87.8359H1013.16V83.6406H1003.62V77.4531ZM1037.29 109H1042.37V83.6406H1036.75V101.594C1036.53 102.062 1036.26 102.492 1035.95 102.883C1035.64 103.258 1035.28 103.586 1034.87 103.867C1034.39 104.18 1033.83 104.43 1033.19 104.617C1032.55 104.789 1031.82 104.875 1031.01 104.875C1030.22 104.875 1029.55 104.773 1028.97 104.57C1028.39 104.367 1027.91 104.023 1027.54 103.539C1027.16 103.07 1026.89 102.445 1026.72 101.664C1026.55 100.867 1026.46 99.8828 1026.46 98.7109V83.6406H1020.86V98.6641C1020.86 100.57 1021.07 102.211 1021.49 103.586C1021.91 104.945 1022.51 106.062 1023.27 106.938C1024.05 107.812 1024.98 108.461 1026.06 108.883C1027.15 109.289 1028.36 109.492 1029.67 109.492C1031.2 109.492 1032.58 109.141 1033.82 108.438C1035.05 107.719 1036.1 106.727 1036.96 105.461L1037.29 109ZM1066.5 83.1719C1064.75 83.1719 1063.15 83.5781 1061.7 84.3906C1060.26 85.2031 1059.02 86.3203 1057.99 87.7422L1057.97 87.1562L1057.74 83.6406H1052.49V109H1058.09V93.3438C1058.38 92.5938 1058.75 91.9297 1059.19 91.3516C1059.63 90.7734 1060.16 90.2969 1060.78 89.9219C1061.36 89.5312 1062.02 89.2422 1062.77 89.0547C1063.52 88.8672 1064.37 88.7734 1065.31 88.7734C1066.13 88.7734 1066.96 88.8203 1067.79 88.9141C1068.63 89.0078 1069.49 89.1484 1070.35 89.3359L1071.14 83.8047C1070.66 83.6328 1069.99 83.4844 1069.13 83.3594C1068.28 83.2344 1067.41 83.1719 1066.5 83.1719ZM1089.11 109.469C1091.58 109.469 1093.68 108.984 1095.41 108.016C1097.16 107.047 1098.46 105.953 1099.3 104.734L1096.3 101.828C1095.52 102.828 1094.53 103.602 1093.33 104.148C1092.12 104.68 1090.83 104.945 1089.43 104.945C1088.42 104.945 1087.48 104.773 1086.62 104.43C1085.78 104.086 1085.04 103.602 1084.42 102.977C1083.79 102.383 1083.3 101.711 1082.94 100.961C1082.58 100.211 1082.32 99.2812 1082.15 98.1719V98.0547H1099.72V95.6406C1099.72 93.8281 1099.48 92.1562 1099 90.625C1098.51 89.0938 1097.79 87.7734 1096.84 86.6641C1095.89 85.5703 1094.71 84.7188 1093.3 84.1094C1091.9 83.4844 1090.28 83.1719 1088.45 83.1719C1086.81 83.1719 1085.26 83.4844 1083.81 84.1094C1082.37 84.7188 1081.11 85.5938 1080.01 86.7344C1078.92 87.875 1078.06 89.25 1077.43 90.8594C1076.81 92.4688 1076.5 94.2656 1076.5 96.25V97.2109C1076.5 98.9453 1076.79 100.562 1077.39 102.062C1078 103.547 1078.86 104.836 1079.97 105.93C1081.08 107.039 1082.4 107.906 1083.95 108.531C1085.51 109.156 1087.23 109.469 1089.11 109.469ZM1088.43 87.7188C1089.36 87.7188 1090.18 87.8828 1090.89 88.2109C1091.61 88.5234 1092.2 88.9453 1092.67 89.4766C1093.15 90.0234 1093.53 90.6641 1093.79 91.3984C1094.06 92.1172 1094.19 92.8438 1094.19 93.5781V93.9531H1082.26C1082.43 92.9844 1082.7 92.1172 1083.06 91.3516C1083.42 90.5859 1083.86 89.9297 1084.4 89.3828C1084.93 88.8516 1085.53 88.4453 1086.2 88.1641C1086.89 87.8672 1087.63 87.7188 1088.43 87.7188Z" fill="black" fill-opacity="0.8"/>
</svg>
