<svg width="1412" height="708" viewBox="0 0 1412 708" fill="none" xmlns="http://www.w3.org/2000/svg">
<rect x="2" y="530" width="1408" height="176" rx="6" fill="#FC9272" stroke="#999999" stroke-width="4" stroke-miterlimit="0" stroke-linecap="round"/>
<path d="M551.429 616V617.875C551.429 620.453 551.093 622.766 550.421 624.812C549.749 626.859 548.788 628.602 547.538 630.039C546.304 631.477 544.819 632.578 543.085 633.344C541.351 634.094 539.429 634.469 537.319 634.469C535.226 634.469 533.312 634.094 531.577 633.344C529.858 632.578 528.366 631.477 527.101 630.039C525.835 628.602 524.851 626.859 524.148 624.812C523.46 622.766 523.116 620.453 523.116 617.875V616C523.116 613.422 523.46 611.117 524.148 609.086C524.835 607.039 525.804 605.297 527.054 603.859C528.319 602.406 529.812 601.305 531.53 600.555C533.265 599.789 535.179 599.406 537.273 599.406C539.382 599.406 541.304 599.789 543.038 600.555C544.773 601.305 546.265 602.406 547.515 603.859C548.765 605.297 549.726 607.039 550.398 609.086C551.085 611.117 551.429 613.422 551.429 616ZM545.546 617.875V615.953C545.546 614.047 545.358 612.367 544.983 610.914C544.624 609.445 544.085 608.219 543.366 607.234C542.663 606.234 541.796 605.484 540.765 604.984C539.733 604.469 538.569 604.211 537.273 604.211C535.976 604.211 534.819 604.469 533.804 604.984C532.788 605.484 531.921 606.234 531.202 607.234C530.499 608.219 529.96 609.445 529.585 610.914C529.21 612.367 529.023 614.047 529.023 615.953V617.875C529.023 619.781 529.21 621.469 529.585 622.938C529.96 624.406 530.507 625.648 531.226 626.664C531.96 627.664 532.835 628.422 533.851 628.938C534.866 629.438 536.023 629.688 537.319 629.688C538.632 629.688 539.796 629.438 540.812 628.938C541.827 628.422 542.687 627.664 543.39 626.664C544.093 625.648 544.624 624.406 544.983 622.938C545.358 621.469 545.546 619.781 545.546 617.875ZM561.893 613.516V643.75H556.245V608.641H561.448L561.893 613.516ZM578.416 621.086V621.578C578.416 623.422 578.198 625.133 577.76 626.711C577.338 628.273 576.705 629.641 575.862 630.812C575.034 631.969 574.01 632.867 572.791 633.508C571.573 634.148 570.166 634.469 568.573 634.469C566.995 634.469 565.612 634.18 564.424 633.602C563.252 633.008 562.26 632.172 561.448 631.094C560.635 630.016 559.979 628.75 559.479 627.297C558.995 625.828 558.651 624.219 558.448 622.469V620.57C558.651 618.711 558.995 617.023 559.479 615.508C559.979 613.992 560.635 612.688 561.448 611.594C562.26 610.5 563.252 609.656 564.424 609.062C565.596 608.469 566.963 608.172 568.526 608.172C570.12 608.172 571.534 608.484 572.768 609.109C574.002 609.719 575.041 610.594 575.885 611.734C576.729 612.859 577.362 614.219 577.784 615.812C578.205 617.391 578.416 619.148 578.416 621.086ZM572.768 621.578V621.086C572.768 619.914 572.659 618.828 572.44 617.828C572.221 616.812 571.877 615.922 571.409 615.156C570.94 614.391 570.338 613.797 569.604 613.375C568.885 612.938 568.018 612.719 567.002 612.719C566.002 612.719 565.143 612.891 564.424 613.234C563.705 613.562 563.104 614.023 562.62 614.617C562.135 615.211 561.76 615.906 561.495 616.703C561.229 617.484 561.041 618.336 560.932 619.258V623.805C561.12 624.93 561.44 625.961 561.893 626.898C562.346 627.836 562.987 628.586 563.815 629.148C564.659 629.695 565.737 629.969 567.049 629.969C568.065 629.969 568.932 629.75 569.651 629.312C570.37 628.875 570.955 628.273 571.409 627.508C571.877 626.727 572.221 625.828 572.44 624.812C572.659 623.797 572.768 622.719 572.768 621.578ZM593.873 634.469C591.998 634.469 590.302 634.164 588.787 633.555C587.287 632.93 586.006 632.062 584.943 630.953C583.896 629.844 583.092 628.539 582.529 627.039C581.967 625.539 581.685 623.922 581.685 622.188V621.25C581.685 619.266 581.974 617.469 582.552 615.859C583.131 614.25 583.935 612.875 584.967 611.734C585.998 610.578 587.217 609.695 588.623 609.086C590.029 608.477 591.552 608.172 593.193 608.172C595.006 608.172 596.592 608.477 597.951 609.086C599.31 609.695 600.435 610.555 601.326 611.664C602.232 612.758 602.904 614.062 603.342 615.578C603.795 617.094 604.021 618.766 604.021 620.594V623.008H584.427V618.953H598.443V618.508C598.412 617.492 598.209 616.539 597.834 615.648C597.474 614.758 596.92 614.039 596.17 613.492C595.42 612.945 594.42 612.672 593.17 612.672C592.232 612.672 591.396 612.875 590.662 613.281C589.943 613.672 589.342 614.242 588.857 614.992C588.373 615.742 587.998 616.648 587.732 617.711C587.482 618.758 587.357 619.938 587.357 621.25V622.188C587.357 623.297 587.506 624.328 587.802 625.281C588.115 626.219 588.568 627.039 589.162 627.742C589.756 628.445 590.474 629 591.318 629.406C592.162 629.797 593.123 629.992 594.201 629.992C595.56 629.992 596.771 629.719 597.834 629.172C598.896 628.625 599.818 627.852 600.599 626.852L603.576 629.734C603.029 630.531 602.318 631.297 601.443 632.031C600.568 632.75 599.498 633.336 598.232 633.789C596.982 634.242 595.529 634.469 593.873 634.469ZM613.571 613.469V634H607.923V608.641H613.314L613.571 613.469ZM621.329 608.477L621.282 613.727C620.939 613.664 620.564 613.617 620.157 613.586C619.767 613.555 619.376 613.539 618.985 613.539C618.017 613.539 617.165 613.68 616.431 613.961C615.696 614.227 615.079 614.617 614.579 615.133C614.095 615.633 613.72 616.242 613.454 616.961C613.189 617.68 613.032 618.484 612.985 619.375L611.696 619.469C611.696 617.875 611.853 616.398 612.165 615.039C612.478 613.68 612.946 612.484 613.571 611.453C614.212 610.422 615.009 609.617 615.962 609.039C616.931 608.461 618.048 608.172 619.314 608.172C619.657 608.172 620.024 608.203 620.415 608.266C620.821 608.328 621.126 608.398 621.329 608.477ZM637.793 628.914V616.82C637.793 615.914 637.629 615.133 637.301 614.477C636.973 613.82 636.473 613.312 635.801 612.953C635.145 612.594 634.317 612.414 633.317 612.414C632.395 612.414 631.598 612.57 630.926 612.883C630.254 613.195 629.731 613.617 629.356 614.148C628.981 614.68 628.793 615.281 628.793 615.953H623.168C623.168 614.953 623.411 613.984 623.895 613.047C624.379 612.109 625.082 611.273 626.004 610.539C626.926 609.805 628.028 609.227 629.309 608.805C630.59 608.383 632.028 608.172 633.621 608.172C635.528 608.172 637.215 608.492 638.684 609.133C640.168 609.773 641.332 610.742 642.176 612.039C643.036 613.32 643.465 614.93 643.465 616.867V628.141C643.465 629.297 643.543 630.336 643.7 631.258C643.871 632.164 644.114 632.953 644.426 633.625V634H638.637C638.371 633.391 638.161 632.617 638.004 631.68C637.864 630.727 637.793 629.805 637.793 628.914ZM638.614 618.578L638.661 622.07H634.606C633.559 622.07 632.637 622.172 631.84 622.375C631.043 622.562 630.379 622.844 629.848 623.219C629.317 623.594 628.918 624.047 628.653 624.578C628.387 625.109 628.254 625.711 628.254 626.383C628.254 627.055 628.411 627.672 628.723 628.234C629.036 628.781 629.489 629.211 630.082 629.523C630.692 629.836 631.426 629.992 632.286 629.992C633.442 629.992 634.45 629.758 635.309 629.289C636.184 628.805 636.871 628.219 637.371 627.531C637.871 626.828 638.137 626.164 638.168 625.539L639.996 628.047C639.809 628.688 639.489 629.375 639.036 630.109C638.582 630.844 637.989 631.547 637.254 632.219C636.536 632.875 635.668 633.414 634.653 633.836C633.653 634.258 632.496 634.469 631.184 634.469C629.528 634.469 628.051 634.141 626.754 633.484C625.457 632.812 624.442 631.914 623.707 630.789C622.973 629.648 622.606 628.359 622.606 626.922C622.606 625.578 622.856 624.391 623.356 623.359C623.871 622.312 624.621 621.438 625.606 620.734C626.606 620.031 627.825 619.5 629.262 619.141C630.7 618.766 632.34 618.578 634.184 618.578H638.614ZM660.468 608.641V612.766H646.172V608.641H660.468ZM650.297 602.43H655.945V626.992C655.945 627.773 656.054 628.375 656.273 628.797C656.508 629.203 656.828 629.477 657.234 629.617C657.64 629.758 658.117 629.828 658.664 629.828C659.054 629.828 659.429 629.805 659.789 629.758C660.148 629.711 660.437 629.664 660.656 629.617L660.679 633.93C660.211 634.07 659.664 634.195 659.039 634.305C658.429 634.414 657.726 634.469 656.929 634.469C655.633 634.469 654.484 634.242 653.484 633.789C652.484 633.32 651.703 632.562 651.14 631.516C650.578 630.469 650.297 629.078 650.297 627.344V602.43ZM670.347 608.641V634H664.675V608.641H670.347ZM664.3 601.984C664.3 601.125 664.581 600.414 665.144 599.852C665.722 599.273 666.519 598.984 667.534 598.984C668.534 598.984 669.323 599.273 669.901 599.852C670.479 600.414 670.769 601.125 670.769 601.984C670.769 602.828 670.479 603.531 669.901 604.094C669.323 604.656 668.534 604.938 667.534 604.938C666.519 604.938 665.722 604.656 665.144 604.094C664.581 603.531 664.3 602.828 664.3 601.984ZM681.608 614.055V634H675.959V608.641H681.28L681.608 614.055ZM680.6 620.383L678.772 620.359C678.787 618.562 679.037 616.914 679.522 615.414C680.022 613.914 680.709 612.625 681.584 611.547C682.475 610.469 683.537 609.641 684.772 609.062C686.006 608.469 687.381 608.172 688.897 608.172C690.116 608.172 691.217 608.344 692.202 608.688C693.202 609.016 694.053 609.555 694.756 610.305C695.475 611.055 696.022 612.031 696.397 613.234C696.772 614.422 696.959 615.883 696.959 617.617V634H691.287V617.594C691.287 616.375 691.108 615.414 690.748 614.711C690.405 613.992 689.897 613.484 689.225 613.188C688.569 612.875 687.748 612.719 686.764 612.719C685.795 612.719 684.928 612.922 684.162 613.328C683.397 613.734 682.748 614.289 682.217 614.992C681.702 615.695 681.303 616.508 681.022 617.43C680.741 618.352 680.6 619.336 680.6 620.383ZM718.439 608.641H723.572V633.297C723.572 635.578 723.088 637.516 722.119 639.109C721.15 640.703 719.799 641.914 718.064 642.742C716.33 643.586 714.322 644.008 712.041 644.008C711.072 644.008 709.994 643.867 708.806 643.586C707.634 643.305 706.494 642.852 705.384 642.227C704.291 641.617 703.377 640.812 702.642 639.812L705.291 636.484C706.197 637.562 707.197 638.352 708.291 638.852C709.384 639.352 710.533 639.602 711.736 639.602C713.033 639.602 714.134 639.359 715.041 638.875C715.963 638.406 716.674 637.711 717.174 636.789C717.674 635.867 717.924 634.742 717.924 633.414V614.383L718.439 608.641ZM701.213 621.602V621.109C701.213 619.188 701.447 617.438 701.916 615.859C702.384 614.266 703.056 612.898 703.931 611.758C704.806 610.602 705.869 609.719 707.119 609.109C708.369 608.484 709.783 608.172 711.361 608.172C713.002 608.172 714.4 608.469 715.556 609.062C716.728 609.656 717.705 610.508 718.486 611.617C719.267 612.711 719.877 614.023 720.314 615.555C720.767 617.07 721.103 618.758 721.322 620.617V622.188C721.119 624 720.775 625.656 720.291 627.156C719.806 628.656 719.166 629.953 718.369 631.047C717.572 632.141 716.588 632.984 715.416 633.578C714.259 634.172 712.892 634.469 711.314 634.469C709.767 634.469 708.369 634.148 707.119 633.508C705.884 632.867 704.822 631.969 703.931 630.812C703.056 629.656 702.384 628.297 701.916 626.734C701.447 625.156 701.213 623.445 701.213 621.602ZM706.861 621.109V621.602C706.861 622.758 706.97 623.836 707.189 624.836C707.424 625.836 707.775 626.719 708.244 627.484C708.728 628.234 709.338 628.828 710.072 629.266C710.822 629.688 711.705 629.898 712.72 629.898C714.049 629.898 715.134 629.617 715.978 629.055C716.838 628.492 717.494 627.734 717.947 626.781C718.416 625.812 718.744 624.734 718.931 623.547V619.305C718.838 618.383 718.642 617.523 718.345 616.727C718.064 615.93 717.681 615.234 717.197 614.641C716.713 614.031 716.103 613.562 715.369 613.234C714.634 612.891 713.767 612.719 712.767 612.719C711.752 612.719 710.869 612.938 710.119 613.375C709.369 613.812 708.752 614.414 708.267 615.18C707.799 615.945 707.447 616.836 707.213 617.852C706.978 618.867 706.861 619.953 706.861 621.109ZM754.555 627.133C754.555 626.57 754.414 626.062 754.133 625.609C753.852 625.141 753.313 624.719 752.516 624.344C751.735 623.969 750.578 623.625 749.047 623.312C747.703 623.016 746.469 622.664 745.344 622.258C744.235 621.836 743.282 621.328 742.485 620.734C741.688 620.141 741.071 619.438 740.633 618.625C740.196 617.812 739.977 616.875 739.977 615.812C739.977 614.781 740.203 613.805 740.657 612.883C741.11 611.961 741.758 611.148 742.602 610.445C743.446 609.742 744.469 609.188 745.672 608.781C746.891 608.375 748.25 608.172 749.75 608.172C751.875 608.172 753.696 608.531 755.211 609.25C756.743 609.953 757.914 610.914 758.727 612.133C759.539 613.336 759.946 614.695 759.946 616.211H754.297C754.297 615.539 754.125 614.914 753.782 614.336C753.453 613.742 752.953 613.266 752.282 612.906C751.61 612.531 750.766 612.344 749.75 612.344C748.782 612.344 747.977 612.5 747.336 612.812C746.711 613.109 746.243 613.5 745.93 613.984C745.633 614.469 745.485 615 745.485 615.578C745.485 616 745.563 616.383 745.719 616.727C745.891 617.055 746.172 617.359 746.563 617.641C746.953 617.906 747.485 618.156 748.157 618.391C748.844 618.625 749.703 618.852 750.735 619.07C752.672 619.477 754.336 620 755.727 620.641C757.133 621.266 758.211 622.078 758.961 623.078C759.711 624.062 760.086 625.312 760.086 626.828C760.086 627.953 759.844 628.984 759.36 629.922C758.891 630.844 758.203 631.648 757.297 632.336C756.391 633.008 755.305 633.531 754.039 633.906C752.789 634.281 751.383 634.469 749.821 634.469C747.524 634.469 745.578 634.062 743.985 633.25C742.391 632.422 741.18 631.367 740.352 630.086C739.539 628.789 739.133 627.445 739.133 626.055H744.594C744.657 627.102 744.946 627.938 745.461 628.562C745.993 629.172 746.649 629.617 747.43 629.898C748.227 630.164 749.047 630.297 749.891 630.297C750.907 630.297 751.758 630.164 752.446 629.898C753.133 629.617 753.657 629.242 754.016 628.773C754.375 628.289 754.555 627.742 754.555 627.133ZM771.863 631.234L778.754 608.641H784.8L774.629 637.867C774.394 638.492 774.09 639.172 773.715 639.906C773.34 640.641 772.847 641.336 772.238 641.992C771.644 642.664 770.902 643.203 770.011 643.609C769.121 644.031 768.043 644.242 766.777 644.242C766.277 644.242 765.793 644.195 765.324 644.102C764.871 644.023 764.441 643.938 764.035 643.844L764.011 639.531C764.168 639.547 764.355 639.562 764.574 639.578C764.808 639.594 764.996 639.602 765.136 639.602C766.074 639.602 766.855 639.484 767.48 639.25C768.105 639.031 768.613 638.672 769.004 638.172C769.41 637.672 769.754 637 770.035 636.156L771.863 631.234ZM767.972 608.641L773.996 627.625L775.004 633.578L771.09 634.586L761.879 608.641H767.972ZM801.733 627.133C801.733 626.57 801.593 626.062 801.312 625.609C801.03 625.141 800.491 624.719 799.694 624.344C798.913 623.969 797.757 623.625 796.226 623.312C794.882 623.016 793.647 622.664 792.522 622.258C791.413 621.836 790.46 621.328 789.663 620.734C788.866 620.141 788.249 619.438 787.812 618.625C787.374 617.812 787.155 616.875 787.155 615.812C787.155 614.781 787.382 613.805 787.835 612.883C788.288 611.961 788.937 611.148 789.78 610.445C790.624 609.742 791.647 609.188 792.851 608.781C794.069 608.375 795.429 608.172 796.929 608.172C799.054 608.172 800.874 608.531 802.39 609.25C803.921 609.953 805.093 610.914 805.905 612.133C806.718 613.336 807.124 614.695 807.124 616.211H801.476C801.476 615.539 801.304 614.914 800.96 614.336C800.632 613.742 800.132 613.266 799.46 612.906C798.788 612.531 797.944 612.344 796.929 612.344C795.96 612.344 795.155 612.5 794.515 612.812C793.89 613.109 793.421 613.5 793.108 613.984C792.812 614.469 792.663 615 792.663 615.578C792.663 616 792.741 616.383 792.897 616.727C793.069 617.055 793.351 617.359 793.741 617.641C794.132 617.906 794.663 618.156 795.335 618.391C796.022 618.625 796.882 618.852 797.913 619.07C799.851 619.477 801.515 620 802.905 620.641C804.312 621.266 805.39 622.078 806.14 623.078C806.89 624.062 807.265 625.312 807.265 626.828C807.265 627.953 807.022 628.984 806.538 629.922C806.069 630.844 805.382 631.648 804.476 632.336C803.569 633.008 802.483 633.531 801.218 633.906C799.968 634.281 798.562 634.469 796.999 634.469C794.702 634.469 792.757 634.062 791.163 633.25C789.569 632.422 788.358 631.367 787.53 630.086C786.718 628.789 786.312 627.445 786.312 626.055H791.772C791.835 627.102 792.124 627.938 792.64 628.562C793.171 629.172 793.827 629.617 794.608 629.898C795.405 630.164 796.226 630.297 797.069 630.297C798.085 630.297 798.937 630.164 799.624 629.898C800.312 629.617 800.835 629.242 801.194 628.773C801.554 628.289 801.733 627.742 801.733 627.133ZM823.307 608.641V612.766H809.01V608.641H823.307ZM813.135 602.43H818.784V626.992C818.784 627.773 818.893 628.375 819.112 628.797C819.346 629.203 819.666 629.477 820.073 629.617C820.479 629.758 820.955 629.828 821.502 629.828C821.893 629.828 822.268 629.805 822.627 629.758C822.987 629.711 823.276 629.664 823.494 629.617L823.518 633.93C823.049 634.07 822.502 634.195 821.877 634.305C821.268 634.414 820.565 634.469 819.768 634.469C818.471 634.469 817.323 634.242 816.323 633.789C815.323 633.32 814.541 632.562 813.979 631.516C813.416 630.469 813.135 629.078 813.135 627.344V602.43ZM838.318 634.469C836.443 634.469 834.748 634.164 833.232 633.555C831.732 632.93 830.451 632.062 829.388 630.953C828.341 629.844 827.537 628.539 826.974 627.039C826.412 625.539 826.13 623.922 826.13 622.188V621.25C826.13 619.266 826.42 617.469 826.998 615.859C827.576 614.25 828.38 612.875 829.412 611.734C830.443 610.578 831.662 609.695 833.068 609.086C834.474 608.477 835.998 608.172 837.638 608.172C839.451 608.172 841.037 608.477 842.396 609.086C843.755 609.695 844.88 610.555 845.771 611.664C846.677 612.758 847.349 614.062 847.787 615.578C848.24 617.094 848.466 618.766 848.466 620.594V623.008H828.873V618.953H842.888V618.508C842.857 617.492 842.654 616.539 842.279 615.648C841.92 614.758 841.365 614.039 840.615 613.492C839.865 612.945 838.865 612.672 837.615 612.672C836.677 612.672 835.841 612.875 835.107 613.281C834.388 613.672 833.787 614.242 833.302 614.992C832.818 615.742 832.443 616.648 832.177 617.711C831.927 618.758 831.802 619.938 831.802 621.25V622.188C831.802 623.297 831.951 624.328 832.248 625.281C832.56 626.219 833.013 627.039 833.607 627.742C834.201 628.445 834.92 629 835.763 629.406C836.607 629.797 837.568 629.992 838.646 629.992C840.005 629.992 841.216 629.719 842.279 629.172C843.341 628.625 844.263 627.852 845.045 626.852L848.021 629.734C847.474 630.531 846.763 631.297 845.888 632.031C845.013 632.75 843.943 633.336 842.677 633.789C841.427 634.242 839.974 634.469 838.318 634.469ZM857.993 613.797V634H852.345V608.641H857.665L857.993 613.797ZM857.079 620.383L855.157 620.359C855.157 618.609 855.376 616.992 855.813 615.508C856.251 614.023 856.892 612.734 857.735 611.641C858.579 610.531 859.626 609.68 860.876 609.086C862.142 608.477 863.603 608.172 865.259 608.172C866.415 608.172 867.47 608.344 868.423 608.688C869.392 609.016 870.228 609.539 870.931 610.258C871.649 610.977 872.196 611.898 872.571 613.023C872.962 614.148 873.157 615.508 873.157 617.102V634H867.509V617.594C867.509 616.359 867.321 615.391 866.946 614.688C866.587 613.984 866.063 613.484 865.376 613.188C864.704 612.875 863.899 612.719 862.962 612.719C861.899 612.719 860.993 612.922 860.243 613.328C859.509 613.734 858.907 614.289 858.438 614.992C857.97 615.695 857.626 616.508 857.407 617.43C857.188 618.352 857.079 619.336 857.079 620.383ZM872.806 618.883L870.157 619.469C870.157 617.938 870.368 616.492 870.79 615.133C871.228 613.758 871.86 612.555 872.688 611.523C873.532 610.477 874.571 609.656 875.806 609.062C877.04 608.469 878.454 608.172 880.048 608.172C881.345 608.172 882.501 608.352 883.517 608.711C884.548 609.055 885.423 609.602 886.142 610.352C886.86 611.102 887.407 612.078 887.782 613.281C888.157 614.469 888.345 615.906 888.345 617.594V634H882.673V617.57C882.673 616.289 882.485 615.297 882.11 614.594C881.751 613.891 881.235 613.406 880.563 613.141C879.892 612.859 879.087 612.719 878.149 612.719C877.274 612.719 876.501 612.883 875.829 613.211C875.173 613.523 874.618 613.969 874.165 614.547C873.712 615.109 873.368 615.758 873.134 616.492C872.915 617.227 872.806 618.023 872.806 618.883Z" fill="black" fill-opacity="0.8"/>
<rect x="2" y="354" width="1408" height="176" rx="6" fill="#FCBBA1" stroke="#999999" stroke-width="4" stroke-miterlimit="0" stroke-linecap="round"/>
<path d="M655.956 435.641H651.081V461H656.237V441.523C656.331 441.289 656.433 441.078 656.542 440.891C656.667 440.703 656.808 440.539 656.964 440.398C657.167 440.195 657.409 440.047 657.69 439.953C657.987 439.844 658.323 439.789 658.698 439.789C659.042 439.789 659.347 439.836 659.612 439.93C659.894 440.023 660.136 440.172 660.339 440.375C660.542 440.578 660.69 440.859 660.784 441.219C660.894 441.562 660.948 441.984 660.948 442.484V461H666.011V442.18C666.011 442.023 666.011 441.906 666.011 441.828C666.011 441.734 666.011 441.656 666.011 441.594C666.073 441.328 666.167 441.094 666.292 440.891C666.417 440.672 666.573 440.484 666.761 440.328C666.964 440.156 667.198 440.023 667.464 439.93C667.729 439.836 668.042 439.789 668.401 439.789C668.745 439.789 669.058 439.836 669.339 439.93C669.636 440.023 669.886 440.172 670.089 440.375C670.292 440.594 670.448 440.883 670.558 441.242C670.667 441.586 670.722 442.008 670.722 442.508V461H675.878V442.555C675.878 441.227 675.737 440.094 675.456 439.156C675.19 438.203 674.808 437.43 674.308 436.836C673.808 436.273 673.214 435.859 672.526 435.594C671.854 435.312 671.112 435.172 670.3 435.172C669.675 435.172 669.097 435.25 668.565 435.406C668.05 435.562 667.581 435.781 667.159 436.062C666.831 436.281 666.526 436.547 666.245 436.859C665.964 437.172 665.714 437.508 665.495 437.867C665.339 437.477 665.151 437.133 664.933 436.836C664.714 436.523 664.464 436.258 664.183 436.039C663.823 435.742 663.394 435.523 662.894 435.383C662.394 435.242 661.831 435.172 661.206 435.172C660.003 435.172 658.972 435.461 658.112 436.039C657.269 436.617 656.604 437.414 656.12 438.43L655.956 435.641ZM697.264 461H702.983V460.602C702.67 459.945 702.428 459.164 702.256 458.258C702.1 457.336 702.022 456.305 702.022 455.164V443.891C702.022 442.453 701.756 441.188 701.225 440.094C700.694 438.984 699.959 438.07 699.022 437.352C698.084 436.633 696.967 436.094 695.67 435.734C694.389 435.359 693.006 435.172 691.522 435.172C689.866 435.172 688.389 435.391 687.092 435.828C685.811 436.25 684.733 436.828 683.858 437.562C682.951 438.281 682.264 439.109 681.795 440.047C681.326 440.984 681.084 441.961 681.069 442.977H686.694C686.694 442.492 686.78 442.039 686.951 441.617C687.139 441.18 687.42 440.812 687.795 440.516C688.17 440.188 688.639 439.93 689.201 439.742C689.78 439.555 690.451 439.461 691.217 439.461C692.061 439.461 692.803 439.57 693.444 439.789C694.1 439.992 694.655 440.289 695.108 440.68C695.53 441.07 695.85 441.531 696.069 442.062C696.303 442.594 696.42 443.188 696.42 443.844V445.555H692.342C690.514 445.555 688.873 445.727 687.42 446.07C685.983 446.414 684.772 446.914 683.787 447.57C682.725 448.273 681.912 449.164 681.35 450.242C680.803 451.305 680.53 452.531 680.53 453.922C680.53 455 680.741 456.008 681.162 456.945C681.6 457.867 682.209 458.656 682.991 459.312C683.756 459.984 684.678 460.516 685.756 460.906C686.85 461.281 688.053 461.469 689.366 461.469C690.178 461.469 690.936 461.391 691.639 461.234C692.342 461.078 692.998 460.859 693.608 460.578C694.217 460.312 694.764 460 695.248 459.641C695.748 459.266 696.194 458.875 696.584 458.469C696.662 458.953 696.748 459.422 696.842 459.875C696.951 460.312 697.092 460.688 697.264 461ZM690.444 456.969C689.725 456.969 689.1 456.883 688.569 456.711C688.037 456.523 687.592 456.273 687.233 455.961C686.873 455.648 686.6 455.273 686.412 454.836C686.225 454.383 686.131 453.898 686.131 453.383C686.131 452.758 686.241 452.195 686.459 451.695C686.694 451.195 687.045 450.766 687.514 450.406C688.045 449.984 688.756 449.664 689.647 449.445C690.537 449.211 691.592 449.094 692.811 449.094H696.42V453.781C696.217 454.188 695.928 454.578 695.553 454.953C695.178 455.328 694.733 455.664 694.217 455.961C693.701 456.258 693.123 456.5 692.483 456.688C691.858 456.875 691.178 456.969 690.444 456.969ZM710.658 435.641V440.305H718.463V456.359H710.658V461H731.564V456.359H724.111V435.641H710.658ZM717.947 429.078C717.947 429.672 718.088 430.195 718.369 430.648C718.666 431.086 719.095 431.391 719.658 431.562C720.205 431.734 720.705 431.773 721.158 431.68C721.611 431.586 722.002 431.391 722.33 431.094C722.986 430.922 723.486 430.586 723.83 430.086C724.173 429.57 724.291 428.969 724.181 428.281C724.103 427.609 723.798 427.062 723.267 426.641C722.752 426.203 722.072 425.984 721.228 425.984C720.728 425.984 720.275 426.062 719.869 426.219C719.478 426.359 719.142 426.562 718.861 426.828C718.564 427.109 718.338 427.445 718.181 427.836C718.025 428.211 717.947 428.625 717.947 429.078ZM737.669 461H743.271V442.906C743.521 442.484 743.81 442.094 744.138 441.734C744.466 441.375 744.817 441.07 745.192 440.82C745.677 440.492 746.216 440.242 746.81 440.07C747.403 439.883 748.044 439.789 748.731 439.789C749.56 439.789 750.294 439.883 750.935 440.07C751.575 440.242 752.122 440.539 752.575 440.961C753.028 441.383 753.372 441.945 753.606 442.648C753.841 443.352 753.958 444.227 753.958 445.273V461H759.56V445.18C759.56 443.398 759.349 441.883 758.927 440.633C758.505 439.367 757.911 438.328 757.146 437.516C756.38 436.703 755.458 436.109 754.38 435.734C753.302 435.359 752.114 435.172 750.817 435.172C749.833 435.172 748.896 435.312 748.005 435.594C747.114 435.875 746.294 436.273 745.544 436.789C745.075 437.117 744.63 437.492 744.208 437.914C743.802 438.32 743.427 438.766 743.083 439.25L742.731 435.641H737.669V461Z" fill="black" fill-opacity="0.8"/>
<rect x="2" y="178" width="1408" height="176" rx="6" fill="#FEE0D2" stroke="#999999" stroke-width="4" stroke-miterlimit="0" stroke-linecap="round"/>
<path d="M329.737 278.133C329.737 278.539 329.644 278.914 329.456 279.258C329.284 279.586 329.019 279.891 328.659 280.172C328.222 280.516 327.636 280.789 326.901 280.992C326.183 281.195 325.339 281.297 324.37 281.297C323.651 281.297 322.94 281.227 322.237 281.086C321.534 280.93 320.909 280.68 320.362 280.336C319.8 280.008 319.331 279.578 318.956 279.047C318.597 278.5 318.394 277.836 318.347 277.055H312.909C312.909 278.102 313.159 279.133 313.659 280.148C314.159 281.164 314.894 282.062 315.862 282.844C316.815 283.641 317.995 284.281 319.401 284.766C320.823 285.25 322.448 285.492 324.276 285.492C325.917 285.492 327.409 285.305 328.753 284.93C330.097 284.555 331.253 284.031 332.222 283.359C333.175 282.688 333.909 281.883 334.425 280.945C334.956 280.008 335.222 278.977 335.222 277.852C335.222 276.695 334.972 275.695 334.472 274.852C333.972 274.008 333.269 273.273 332.362 272.648C331.456 272.055 330.362 271.555 329.081 271.148C327.8 270.742 326.386 270.398 324.839 270.117C323.73 269.93 322.808 269.719 322.073 269.484C321.355 269.25 320.792 268.992 320.386 268.711C319.948 268.445 319.644 268.141 319.472 267.797C319.3 267.438 319.214 267.039 319.214 266.602C319.214 266.18 319.315 265.781 319.519 265.406C319.722 265.016 320.026 264.68 320.433 264.398C320.839 264.086 321.355 263.844 321.98 263.672C322.62 263.484 323.362 263.391 324.206 263.391C325.128 263.391 325.933 263.516 326.62 263.766C327.308 264 327.87 264.32 328.308 264.727C328.683 265.07 328.964 265.461 329.151 265.898C329.355 266.32 329.456 266.766 329.456 267.234H335.058C335.058 266.094 334.808 265.031 334.308 264.047C333.808 263.062 333.097 262.211 332.175 261.492C331.237 260.773 330.097 260.211 328.753 259.805C327.409 259.383 325.894 259.172 324.206 259.172C322.628 259.172 321.19 259.375 319.894 259.781C318.612 260.188 317.519 260.742 316.612 261.445C315.69 262.148 314.98 262.969 314.48 263.906C313.995 264.828 313.753 265.805 313.753 266.836C313.753 267.914 313.995 268.859 314.48 269.672C314.964 270.484 315.636 271.188 316.495 271.781C317.37 272.406 318.409 272.938 319.612 273.375C320.831 273.812 322.175 274.18 323.644 274.477C324.815 274.695 325.792 274.93 326.573 275.18C327.355 275.43 327.987 275.695 328.472 275.977C328.925 276.289 329.245 276.617 329.433 276.961C329.636 277.305 329.737 277.695 329.737 278.133ZM357.662 285H363.381V284.602C363.069 283.945 362.827 283.164 362.655 282.258C362.498 281.336 362.42 280.305 362.42 279.164V267.891C362.42 266.453 362.155 265.188 361.623 264.094C361.092 262.984 360.358 262.07 359.42 261.352C358.483 260.633 357.366 260.094 356.069 259.734C354.787 259.359 353.405 259.172 351.92 259.172C350.264 259.172 348.787 259.391 347.491 259.828C346.209 260.25 345.131 260.828 344.256 261.562C343.35 262.281 342.662 263.109 342.194 264.047C341.725 264.984 341.483 265.961 341.467 266.977H347.092C347.092 266.492 347.178 266.039 347.35 265.617C347.537 265.18 347.819 264.812 348.194 264.516C348.569 264.188 349.037 263.93 349.6 263.742C350.178 263.555 350.85 263.461 351.616 263.461C352.459 263.461 353.202 263.57 353.842 263.789C354.498 263.992 355.053 264.289 355.506 264.68C355.928 265.07 356.248 265.531 356.467 266.062C356.702 266.594 356.819 267.188 356.819 267.844V269.555H352.741C350.912 269.555 349.272 269.727 347.819 270.07C346.381 270.414 345.17 270.914 344.186 271.57C343.123 272.273 342.311 273.164 341.748 274.242C341.202 275.305 340.928 276.531 340.928 277.922C340.928 279 341.139 280.008 341.561 280.945C341.998 281.867 342.608 282.656 343.389 283.312C344.155 283.984 345.077 284.516 346.155 284.906C347.248 285.281 348.452 285.469 349.764 285.469C350.577 285.469 351.334 285.391 352.037 285.234C352.741 285.078 353.397 284.859 354.006 284.578C354.616 284.312 355.162 284 355.647 283.641C356.147 283.266 356.592 282.875 356.983 282.469C357.061 282.953 357.147 283.422 357.241 283.875C357.35 284.312 357.491 284.688 357.662 285ZM350.842 280.969C350.123 280.969 349.498 280.883 348.967 280.711C348.436 280.523 347.991 280.273 347.631 279.961C347.272 279.648 346.998 279.273 346.811 278.836C346.623 278.383 346.53 277.898 346.53 277.383C346.53 276.758 346.639 276.195 346.858 275.695C347.092 275.195 347.444 274.766 347.912 274.406C348.444 273.984 349.155 273.664 350.045 273.445C350.936 273.211 351.991 273.094 353.209 273.094H356.819V277.781C356.616 278.188 356.327 278.578 355.952 278.953C355.577 279.328 355.131 279.664 354.616 279.961C354.1 280.258 353.522 280.5 352.881 280.688C352.256 280.875 351.577 280.969 350.842 280.969ZM381.017 253.453H375.392V259.641H369.252V263.836H375.392V276.305C375.392 277.93 375.603 279.32 376.025 280.477C376.463 281.633 377.064 282.578 377.83 283.312C378.595 284.062 379.509 284.617 380.572 284.977C381.65 285.32 382.83 285.492 384.111 285.492C384.814 285.492 385.517 285.453 386.22 285.375C386.939 285.312 387.627 285.219 388.283 285.094C388.939 284.969 389.549 284.82 390.111 284.648C390.689 284.461 391.181 284.242 391.588 283.992L390.978 280.125C390.697 280.188 390.345 280.266 389.924 280.359C389.517 280.438 389.08 280.508 388.611 280.57C388.127 280.648 387.627 280.711 387.111 280.758C386.595 280.805 386.095 280.828 385.611 280.828C384.939 280.828 384.322 280.75 383.759 280.594C383.197 280.438 382.713 280.172 382.306 279.797C381.9 279.438 381.58 278.945 381.345 278.32C381.127 277.68 381.017 276.891 381.017 275.953V263.836H390.556V259.641H381.017V253.453ZM399.357 259.641V264.305H407.161V280.359H399.357V285H420.263V280.359H412.81V259.641H399.357ZM406.646 253.078C406.646 253.672 406.786 254.195 407.067 254.648C407.364 255.086 407.794 255.391 408.357 255.562C408.903 255.734 409.403 255.773 409.857 255.68C410.31 255.586 410.7 255.391 411.028 255.094C411.685 254.922 412.185 254.586 412.528 254.086C412.872 253.57 412.989 252.969 412.88 252.281C412.802 251.609 412.497 251.062 411.966 250.641C411.45 250.203 410.771 249.984 409.927 249.984C409.427 249.984 408.974 250.062 408.567 250.219C408.177 250.359 407.841 250.562 407.56 250.828C407.263 251.109 407.036 251.445 406.88 251.836C406.724 252.211 406.646 252.625 406.646 253.078ZM442.938 278.133C442.938 278.539 442.844 278.914 442.657 279.258C442.485 279.586 442.219 279.891 441.86 280.172C441.422 280.516 440.836 280.789 440.102 280.992C439.383 281.195 438.539 281.297 437.571 281.297C436.852 281.297 436.141 281.227 435.438 281.086C434.735 280.93 434.11 280.68 433.563 280.336C433 280.008 432.532 279.578 432.157 279.047C431.797 278.5 431.594 277.836 431.547 277.055H426.11C426.11 278.102 426.36 279.133 426.86 280.148C427.36 281.164 428.094 282.062 429.063 282.844C430.016 283.641 431.196 284.281 432.602 284.766C434.024 285.25 435.649 285.492 437.477 285.492C439.118 285.492 440.61 285.305 441.953 284.93C443.297 284.555 444.453 284.031 445.422 283.359C446.375 282.688 447.11 281.883 447.625 280.945C448.157 280.008 448.422 278.977 448.422 277.852C448.422 276.695 448.172 275.695 447.672 274.852C447.172 274.008 446.469 273.273 445.563 272.648C444.657 272.055 443.563 271.555 442.282 271.148C441 270.742 439.586 270.398 438.039 270.117C436.93 269.93 436.008 269.719 435.274 269.484C434.555 269.25 433.993 268.992 433.586 268.711C433.149 268.445 432.844 268.141 432.672 267.797C432.5 267.438 432.414 267.039 432.414 266.602C432.414 266.18 432.516 265.781 432.719 265.406C432.922 265.016 433.227 264.68 433.633 264.398C434.039 264.086 434.555 263.844 435.18 263.672C435.821 263.484 436.563 263.391 437.407 263.391C438.328 263.391 439.133 263.516 439.821 263.766C440.508 264 441.071 264.32 441.508 264.727C441.883 265.07 442.164 265.461 442.352 265.898C442.555 266.32 442.657 266.766 442.657 267.234H448.258C448.258 266.094 448.008 265.031 447.508 264.047C447.008 263.062 446.297 262.211 445.375 261.492C444.438 260.773 443.297 260.211 441.953 259.805C440.61 259.383 439.094 259.172 437.407 259.172C435.828 259.172 434.391 259.375 433.094 259.781C431.813 260.188 430.719 260.742 429.813 261.445C428.891 262.148 428.18 262.969 427.68 263.906C427.196 264.828 426.953 265.805 426.953 266.836C426.953 267.914 427.196 268.859 427.68 269.672C428.164 270.484 428.836 271.188 429.696 271.781C430.571 272.406 431.61 272.938 432.813 273.375C434.032 273.812 435.375 274.18 436.844 274.477C438.016 274.695 438.993 274.93 439.774 275.18C440.555 275.43 441.188 275.695 441.672 275.977C442.125 276.289 442.446 276.617 442.633 276.961C442.836 277.305 442.938 277.695 442.938 278.133ZM461.043 285H466.668V263.836H476.066V259.641H466.668V258.094C466.668 257.203 466.777 256.422 466.996 255.75C467.23 255.078 467.574 254.516 468.027 254.062C468.511 253.578 469.129 253.211 469.879 252.961C470.644 252.711 471.55 252.586 472.597 252.586C473.597 252.586 474.488 252.648 475.269 252.773C476.066 252.898 476.777 253.047 477.402 253.219L477.847 248.742C477.379 248.648 476.918 248.562 476.465 248.484C476.011 248.391 475.566 248.312 475.129 248.25C474.597 248.172 474.05 248.109 473.488 248.062C472.941 248 472.379 247.969 471.8 247.969C470.16 247.969 468.675 248.188 467.347 248.625C466.035 249.062 464.91 249.703 463.972 250.547C463.035 251.406 462.308 252.469 461.793 253.734C461.293 254.984 461.043 256.438 461.043 258.094V259.641H454.246V263.836H461.043V285ZM484.257 259.641V264.305H492.062V280.359H484.257V285H505.163V280.359H497.71V259.641H484.257ZM491.546 253.078C491.546 253.672 491.687 254.195 491.968 254.648C492.265 255.086 492.694 255.391 493.257 255.562C493.804 255.734 494.304 255.773 494.757 255.68C495.21 255.586 495.601 255.391 495.929 255.094C496.585 254.922 497.085 254.586 497.429 254.086C497.772 253.57 497.89 252.969 497.78 252.281C497.702 251.609 497.397 251.062 496.866 250.641C496.351 250.203 495.671 249.984 494.827 249.984C494.327 249.984 493.874 250.062 493.468 250.219C493.077 250.359 492.741 250.562 492.46 250.828C492.163 251.109 491.937 251.445 491.78 251.836C491.624 252.211 491.546 252.625 491.546 253.078ZM523.104 285.469C525.573 285.469 527.674 284.984 529.409 284.016C531.159 283.047 532.455 281.953 533.299 280.734L530.299 277.828C529.518 278.828 528.526 279.602 527.323 280.148C526.12 280.68 524.823 280.945 523.432 280.945C522.416 280.945 521.479 280.773 520.62 280.43C519.776 280.086 519.041 279.602 518.416 278.977C517.791 278.383 517.299 277.711 516.94 276.961C516.58 276.211 516.315 275.281 516.143 274.172V274.055H533.721V271.641C533.721 269.828 533.479 268.156 532.995 266.625C532.51 265.094 531.791 263.773 530.838 262.664C529.885 261.57 528.705 260.719 527.299 260.109C525.893 259.484 524.276 259.172 522.448 259.172C520.807 259.172 519.26 259.484 517.807 260.109C516.37 260.719 515.104 261.594 514.01 262.734C512.916 263.875 512.057 265.25 511.432 266.859C510.807 268.469 510.495 270.266 510.495 272.25V273.211C510.495 274.945 510.791 276.562 511.385 278.062C511.995 279.547 512.854 280.836 513.963 281.93C515.073 283.039 516.401 283.906 517.948 284.531C519.51 285.156 521.229 285.469 523.104 285.469ZM522.424 263.719C523.362 263.719 524.182 263.883 524.885 264.211C525.604 264.523 526.198 264.945 526.666 265.477C527.151 266.023 527.526 266.664 527.791 267.398C528.057 268.117 528.19 268.844 528.19 269.578V269.953H516.26C516.432 268.984 516.698 268.117 517.057 267.352C517.416 266.586 517.862 265.93 518.393 265.383C518.924 264.852 519.526 264.445 520.198 264.164C520.885 263.867 521.627 263.719 522.424 263.719ZM556.138 278.133C556.138 278.539 556.045 278.914 555.857 279.258C555.685 279.586 555.42 279.891 555.06 280.172C554.623 280.516 554.037 280.789 553.302 280.992C552.584 281.195 551.74 281.297 550.771 281.297C550.052 281.297 549.341 281.227 548.638 281.086C547.935 280.93 547.31 280.68 546.763 280.336C546.201 280.008 545.732 279.578 545.357 279.047C544.998 278.5 544.795 277.836 544.748 277.055H539.31C539.31 278.102 539.56 279.133 540.06 280.148C540.56 281.164 541.295 282.062 542.263 282.844C543.216 283.641 544.396 284.281 545.802 284.766C547.224 285.25 548.849 285.492 550.677 285.492C552.318 285.492 553.81 285.305 555.154 284.93C556.498 284.555 557.654 284.031 558.623 283.359C559.576 282.688 560.31 281.883 560.826 280.945C561.357 280.008 561.623 278.977 561.623 277.852C561.623 276.695 561.373 275.695 560.873 274.852C560.373 274.008 559.67 273.273 558.763 272.648C557.857 272.055 556.763 271.555 555.482 271.148C554.201 270.742 552.787 270.398 551.24 270.117C550.131 269.93 549.209 269.719 548.474 269.484C547.756 269.25 547.193 268.992 546.787 268.711C546.349 268.445 546.045 268.141 545.873 267.797C545.701 267.438 545.615 267.039 545.615 266.602C545.615 266.18 545.716 265.781 545.92 265.406C546.123 265.016 546.427 264.68 546.834 264.398C547.24 264.086 547.756 263.844 548.381 263.672C549.021 263.484 549.763 263.391 550.607 263.391C551.529 263.391 552.334 263.516 553.021 263.766C553.709 264 554.271 264.32 554.709 264.727C555.084 265.07 555.365 265.461 555.552 265.898C555.756 266.32 555.857 266.766 555.857 267.234H561.459C561.459 266.094 561.209 265.031 560.709 264.047C560.209 263.062 559.498 262.211 558.576 261.492C557.638 260.773 556.498 260.211 555.154 259.805C553.81 259.383 552.295 259.172 550.607 259.172C549.029 259.172 547.591 259.375 546.295 259.781C545.013 260.188 543.92 260.742 543.013 261.445C542.091 262.148 541.381 262.969 540.881 263.906C540.396 264.828 540.154 265.805 540.154 266.836C540.154 267.914 540.396 268.859 540.881 269.672C541.365 270.484 542.037 271.188 542.896 271.781C543.771 272.406 544.81 272.938 546.013 273.375C547.232 273.812 548.576 274.18 550.045 274.477C551.216 274.695 552.193 274.93 552.974 275.18C553.756 275.43 554.388 275.695 554.873 275.977C555.326 276.289 555.646 276.617 555.834 276.961C556.037 277.305 556.138 277.695 556.138 278.133ZM589.196 289.43V285H567.774V289.43H589.196ZM607.207 280.969C606.036 280.969 605.059 280.734 604.278 280.266C603.496 279.797 602.879 279.172 602.426 278.391C601.957 277.641 601.621 276.773 601.418 275.789C601.231 274.789 601.137 273.773 601.137 272.742V271.922C601.137 270.906 601.231 269.906 601.418 268.922C601.621 267.938 601.965 267.062 602.45 266.297C602.903 265.531 603.512 264.914 604.278 264.445C605.059 263.961 606.036 263.719 607.207 263.719C607.973 263.719 608.684 263.852 609.34 264.117C610.012 264.383 610.59 264.742 611.075 265.195C611.543 265.648 611.903 266.18 612.153 266.789C612.418 267.398 612.551 268.047 612.551 268.734H617.825C617.84 267.328 617.582 266.039 617.051 264.867C616.536 263.695 615.809 262.688 614.871 261.844C613.934 261 612.809 260.344 611.496 259.875C610.2 259.406 608.786 259.172 607.254 259.172C605.317 259.172 603.614 259.516 602.145 260.203C600.692 260.875 599.473 261.789 598.489 262.945C597.504 264.102 596.762 265.453 596.262 267C595.778 268.547 595.536 270.188 595.536 271.922V272.742C595.536 274.492 595.786 276.141 596.286 277.688C596.786 279.219 597.528 280.562 598.512 281.719C599.481 282.875 600.692 283.797 602.145 284.484C603.614 285.156 605.325 285.492 607.278 285.492C608.684 285.492 610.02 285.266 611.286 284.812C612.567 284.344 613.7 283.703 614.684 282.891C615.653 282.109 616.418 281.18 616.981 280.102C617.559 279.008 617.84 277.844 617.825 276.609H612.551C612.551 277.25 612.403 277.836 612.106 278.367C611.825 278.898 611.442 279.359 610.957 279.75C610.457 280.141 609.879 280.445 609.223 280.664C608.582 280.867 607.911 280.969 607.207 280.969ZM623.437 272.086V272.578C623.437 274.438 623.703 276.148 624.234 277.711C624.765 279.273 625.539 280.633 626.554 281.789C627.554 282.945 628.789 283.852 630.257 284.508C631.726 285.164 633.39 285.492 635.25 285.492C637.093 285.492 638.742 285.164 640.195 284.508C641.664 283.852 642.898 282.945 643.898 281.789C644.898 280.633 645.664 279.273 646.195 277.711C646.726 276.148 646.992 274.438 646.992 272.578V272.086C646.992 270.242 646.726 268.539 646.195 266.977C645.664 265.398 644.898 264.031 643.898 262.875C642.882 261.719 641.64 260.812 640.172 260.156C638.718 259.5 637.062 259.172 635.203 259.172C633.343 259.172 631.687 259.5 630.234 260.156C628.781 260.812 627.554 261.719 626.554 262.875C625.539 264.031 624.765 265.398 624.234 266.977C623.703 268.539 623.437 270.242 623.437 272.086ZM629.039 272.578V272.086C629.039 270.977 629.156 269.914 629.39 268.898C629.64 267.883 630.023 266.992 630.539 266.227C631.039 265.461 631.672 264.852 632.437 264.398C633.218 263.945 634.14 263.719 635.203 263.719C636.281 263.719 637.203 263.945 637.968 264.398C638.75 264.852 639.398 265.461 639.914 266.227C640.398 266.992 640.765 267.883 641.015 268.898C641.265 269.914 641.39 270.977 641.39 272.086V272.578C641.39 273.719 641.265 274.797 641.015 275.812C640.781 276.828 640.414 277.719 639.914 278.484C639.414 279.25 638.773 279.859 637.992 280.312C637.211 280.75 636.297 280.969 635.25 280.969C634.172 280.969 633.242 280.75 632.461 280.312C631.679 279.859 631.039 279.25 630.539 278.484C630.023 277.719 629.64 276.828 629.39 275.812C629.156 274.797 629.039 273.719 629.039 272.578ZM653.847 249V253.664H661.862V280.359H653.847V285H675.198V280.359H667.511V249H653.847ZM682.147 249V253.664H690.162V280.359H682.147V285H703.498V280.359H695.811V249H682.147ZM725.564 285H731.283V284.602C730.97 283.945 730.728 283.164 730.556 282.258C730.4 281.336 730.322 280.305 730.322 279.164V267.891C730.322 266.453 730.056 265.188 729.525 264.094C728.994 262.984 728.259 262.07 727.322 261.352C726.384 260.633 725.267 260.094 723.97 259.734C722.689 259.359 721.306 259.172 719.822 259.172C718.166 259.172 716.689 259.391 715.392 259.828C714.111 260.25 713.033 260.828 712.158 261.562C711.252 262.281 710.564 263.109 710.095 264.047C709.627 264.984 709.384 265.961 709.369 266.977H714.994C714.994 266.492 715.08 266.039 715.252 265.617C715.439 265.18 715.72 264.812 716.095 264.516C716.47 264.188 716.939 263.93 717.502 263.742C718.08 263.555 718.752 263.461 719.517 263.461C720.361 263.461 721.103 263.57 721.744 263.789C722.4 263.992 722.955 264.289 723.408 264.68C723.83 265.07 724.15 265.531 724.369 266.062C724.603 266.594 724.72 267.188 724.72 267.844V269.555H720.642C718.814 269.555 717.173 269.727 715.72 270.07C714.283 270.414 713.072 270.914 712.088 271.57C711.025 272.273 710.213 273.164 709.65 274.242C709.103 275.305 708.83 276.531 708.83 277.922C708.83 279 709.041 280.008 709.463 280.945C709.9 281.867 710.509 282.656 711.291 283.312C712.056 283.984 712.978 284.516 714.056 284.906C715.15 285.281 716.353 285.469 717.666 285.469C718.478 285.469 719.236 285.391 719.939 285.234C720.642 285.078 721.298 284.859 721.908 284.578C722.517 284.312 723.064 284 723.548 283.641C724.048 283.266 724.494 282.875 724.884 282.469C724.963 282.953 725.048 283.422 725.142 283.875C725.252 284.312 725.392 284.688 725.564 285ZM718.744 280.969C718.025 280.969 717.4 280.883 716.869 280.711C716.338 280.523 715.892 280.273 715.533 279.961C715.173 279.648 714.9 279.273 714.713 278.836C714.525 278.383 714.431 277.898 714.431 277.383C714.431 276.758 714.541 276.195 714.759 275.695C714.994 275.195 715.345 274.766 715.814 274.406C716.345 273.984 717.056 273.664 717.947 273.445C718.838 273.211 719.892 273.094 721.111 273.094H724.72V277.781C724.517 278.188 724.228 278.578 723.853 278.953C723.478 279.328 723.033 279.664 722.517 279.961C722.002 280.258 721.423 280.5 720.783 280.688C720.158 280.875 719.478 280.969 718.744 280.969ZM748.919 253.453H743.294V259.641H737.153V263.836H743.294V276.305C743.294 277.93 743.505 279.32 743.927 280.477C744.364 281.633 744.966 282.578 745.731 283.312C746.497 284.062 747.411 284.617 748.474 284.977C749.552 285.32 750.731 285.492 752.013 285.492C752.716 285.492 753.419 285.453 754.122 285.375C754.841 285.312 755.528 285.219 756.185 285.094C756.841 284.969 757.45 284.82 758.013 284.648C758.591 284.461 759.083 284.242 759.489 283.992L758.88 280.125C758.599 280.188 758.247 280.266 757.825 280.359C757.419 280.438 756.981 280.508 756.513 280.57C756.028 280.648 755.528 280.711 755.013 280.758C754.497 280.805 753.997 280.828 753.513 280.828C752.841 280.828 752.224 280.75 751.661 280.594C751.099 280.438 750.614 280.172 750.208 279.797C749.802 279.438 749.481 278.945 749.247 278.32C749.028 277.68 748.919 276.891 748.919 275.953V263.836H758.458V259.641H748.919V253.453ZM773 280.477L787.742 263.203V259.641H765.805V264.211H780.102L765.524 281.32V285H788.446V280.477H773ZM815.597 289.43V285H794.175V289.43H815.597ZM833.608 280.969C832.437 280.969 831.46 280.734 830.679 280.266C829.897 279.797 829.28 279.172 828.827 278.391C828.358 277.641 828.022 276.773 827.819 275.789C827.632 274.789 827.538 273.773 827.538 272.742V271.922C827.538 270.906 827.632 269.906 827.819 268.922C828.022 267.938 828.366 267.062 828.851 266.297C829.304 265.531 829.913 264.914 830.679 264.445C831.46 263.961 832.437 263.719 833.608 263.719C834.374 263.719 835.085 263.852 835.741 264.117C836.413 264.383 836.991 264.742 837.476 265.195C837.944 265.648 838.304 266.18 838.554 266.789C838.819 267.398 838.952 268.047 838.952 268.734H844.226C844.241 267.328 843.983 266.039 843.452 264.867C842.937 263.695 842.21 262.688 841.272 261.844C840.335 261 839.21 260.344 837.897 259.875C836.601 259.406 835.187 259.172 833.655 259.172C831.718 259.172 830.015 259.516 828.546 260.203C827.093 260.875 825.874 261.789 824.89 262.945C823.905 264.102 823.163 265.453 822.663 267C822.179 268.547 821.937 270.188 821.937 271.922V272.742C821.937 274.492 822.187 276.141 822.687 277.688C823.187 279.219 823.929 280.562 824.913 281.719C825.882 282.875 827.093 283.797 828.546 284.484C830.015 285.156 831.726 285.492 833.679 285.492C835.085 285.492 836.421 285.266 837.687 284.812C838.968 284.344 840.101 283.703 841.085 282.891C842.054 282.109 842.819 281.18 843.382 280.102C843.96 279.008 844.241 277.844 844.226 276.609H838.952C838.952 277.25 838.804 277.836 838.507 278.367C838.226 278.898 837.843 279.359 837.358 279.75C836.858 280.141 836.28 280.445 835.624 280.664C834.983 280.867 834.312 280.969 833.608 280.969ZM849.838 272.086V272.578C849.838 274.438 850.104 276.148 850.635 277.711C851.166 279.273 851.94 280.633 852.955 281.789C853.955 282.945 855.19 283.852 856.659 284.508C858.127 285.164 859.791 285.492 861.651 285.492C863.494 285.492 865.143 285.164 866.596 284.508C868.065 283.852 869.299 282.945 870.299 281.789C871.299 280.633 872.065 279.273 872.596 277.711C873.127 276.148 873.393 274.438 873.393 272.578V272.086C873.393 270.242 873.127 268.539 872.596 266.977C872.065 265.398 871.299 264.031 870.299 262.875C869.284 261.719 868.041 260.812 866.573 260.156C865.119 259.5 863.463 259.172 861.604 259.172C859.744 259.172 858.088 259.5 856.635 260.156C855.182 260.812 853.955 261.719 852.955 262.875C851.94 264.031 851.166 265.398 850.635 266.977C850.104 268.539 849.838 270.242 849.838 272.086ZM855.44 272.578V272.086C855.44 270.977 855.557 269.914 855.791 268.898C856.041 267.883 856.424 266.992 856.94 266.227C857.44 265.461 858.073 264.852 858.838 264.398C859.619 263.945 860.541 263.719 861.604 263.719C862.682 263.719 863.604 263.945 864.369 264.398C865.151 264.852 865.799 265.461 866.315 266.227C866.799 266.992 867.166 267.883 867.416 268.898C867.666 269.914 867.791 270.977 867.791 272.086V272.578C867.791 273.719 867.666 274.797 867.416 275.812C867.182 276.828 866.815 277.719 866.315 278.484C865.815 279.25 865.174 279.859 864.393 280.312C863.612 280.75 862.698 280.969 861.651 280.969C860.573 280.969 859.643 280.75 858.862 280.312C858.08 279.859 857.44 279.25 856.94 278.484C856.424 277.719 856.041 276.828 855.791 275.812C855.557 274.797 855.44 273.719 855.44 272.578ZM879.17 285H884.771V266.906C885.021 266.484 885.31 266.094 885.638 265.734C885.966 265.375 886.318 265.07 886.693 264.82C887.177 264.492 887.716 264.242 888.31 264.07C888.904 263.883 889.545 263.789 890.232 263.789C891.06 263.789 891.795 263.883 892.435 264.07C893.076 264.242 893.623 264.539 894.076 264.961C894.529 265.383 894.873 265.945 895.107 266.648C895.341 267.352 895.459 268.227 895.459 269.273V285H901.06V269.18C901.06 267.398 900.849 265.883 900.427 264.633C900.005 263.367 899.412 262.328 898.646 261.516C897.88 260.703 896.959 260.109 895.88 259.734C894.802 259.359 893.615 259.172 892.318 259.172C891.334 259.172 890.396 259.312 889.505 259.594C888.615 259.875 887.795 260.273 887.045 260.789C886.576 261.117 886.13 261.492 885.709 261.914C885.302 262.32 884.927 262.766 884.584 263.25L884.232 259.641H879.17V285ZM910.962 259.641V264.305H918.227V285.398C918.227 286.383 918.095 287.203 917.829 287.859C917.563 288.516 917.204 289.047 916.751 289.453C916.298 289.844 915.759 290.125 915.134 290.297C914.509 290.469 913.845 290.555 913.142 290.555C912.954 290.555 912.688 290.547 912.345 290.531C912.001 290.531 911.642 290.516 911.267 290.484C910.876 290.469 910.501 290.438 910.142 290.391C909.782 290.359 909.493 290.32 909.274 290.273L908.946 294.844C909.274 294.906 909.595 294.961 909.907 295.008C910.235 295.055 910.556 295.094 910.868 295.125C911.29 295.172 911.712 295.203 912.134 295.219C912.571 295.234 913.009 295.242 913.446 295.242C915.102 295.242 916.571 295.039 917.852 294.633C919.134 294.227 920.22 293.617 921.11 292.805C922.001 291.992 922.681 290.969 923.149 289.734C923.618 288.516 923.852 287.07 923.852 285.398V259.641H910.962ZM917.712 253.078C917.712 253.953 917.993 254.68 918.556 255.258C919.134 255.836 919.931 256.125 920.946 256.125C921.993 256.125 922.806 255.836 923.384 255.258C923.962 254.68 924.251 253.953 924.251 253.078C924.251 252.188 923.962 251.453 923.384 250.875C922.806 250.281 921.993 249.984 920.946 249.984C919.915 249.984 919.118 250.289 918.556 250.898C917.993 251.492 917.712 252.219 917.712 253.078ZM947.606 285.469C950.074 285.469 952.176 284.984 953.91 284.016C955.66 283.047 956.957 281.953 957.801 280.734L954.801 277.828C954.02 278.828 953.028 279.602 951.824 280.148C950.621 280.68 949.324 280.945 947.934 280.945C946.918 280.945 945.981 280.773 945.121 280.43C944.278 280.086 943.543 279.602 942.918 278.977C942.293 278.383 941.801 277.711 941.442 276.961C941.082 276.211 940.817 275.281 940.645 274.172V274.055H958.223V271.641C958.223 269.828 957.981 268.156 957.496 266.625C957.012 265.094 956.293 263.773 955.34 262.664C954.387 261.57 953.207 260.719 951.801 260.109C950.395 259.484 948.778 259.172 946.949 259.172C945.309 259.172 943.762 259.484 942.309 260.109C940.871 260.719 939.606 261.594 938.512 262.734C937.418 263.875 936.559 265.25 935.934 266.859C935.309 268.469 934.996 270.266 934.996 272.25V273.211C934.996 274.945 935.293 276.562 935.887 278.062C936.496 279.547 937.356 280.836 938.465 281.93C939.574 283.039 940.903 283.906 942.449 284.531C944.012 285.156 945.731 285.469 947.606 285.469ZM946.926 263.719C947.864 263.719 948.684 263.883 949.387 264.211C950.106 264.523 950.699 264.945 951.168 265.477C951.653 266.023 952.028 266.664 952.293 267.398C952.559 268.117 952.692 268.844 952.692 269.578V269.953H940.762C940.934 268.984 941.199 268.117 941.559 267.352C941.918 266.586 942.364 265.93 942.895 265.383C943.426 264.852 944.028 264.445 944.699 264.164C945.387 263.867 946.129 263.719 946.926 263.719ZM975.109 280.969C973.937 280.969 972.961 280.734 972.179 280.266C971.398 279.797 970.781 279.172 970.328 278.391C969.859 277.641 969.523 276.773 969.32 275.789C969.132 274.789 969.039 273.773 969.039 272.742V271.922C969.039 270.906 969.132 269.906 969.32 268.922C969.523 267.938 969.867 267.062 970.351 266.297C970.804 265.531 971.414 264.914 972.179 264.445C972.961 263.961 973.937 263.719 975.109 263.719C975.875 263.719 976.586 263.852 977.242 264.117C977.914 264.383 978.492 264.742 978.976 265.195C979.445 265.648 979.804 266.18 980.054 266.789C980.32 267.398 980.453 268.047 980.453 268.734H985.726C985.742 267.328 985.484 266.039 984.953 264.867C984.437 263.695 983.711 262.688 982.773 261.844C981.836 261 980.711 260.344 979.398 259.875C978.101 259.406 976.687 259.172 975.156 259.172C973.218 259.172 971.515 259.516 970.047 260.203C968.593 260.875 967.375 261.789 966.39 262.945C965.406 264.102 964.664 265.453 964.164 267C963.679 268.547 963.437 270.188 963.437 271.922V272.742C963.437 274.492 963.687 276.141 964.187 277.688C964.687 279.219 965.429 280.562 966.414 281.719C967.382 282.875 968.593 283.797 970.047 284.484C971.515 285.156 973.226 285.492 975.179 285.492C976.586 285.492 977.922 285.266 979.187 284.812C980.468 284.344 981.601 283.703 982.586 282.891C983.554 282.109 984.32 281.18 984.882 280.102C985.461 279.008 985.742 277.844 985.726 276.609H980.453C980.453 277.25 980.304 277.836 980.007 278.367C979.726 278.898 979.343 279.359 978.859 279.75C978.359 280.141 977.781 280.445 977.125 280.664C976.484 280.867 975.812 280.969 975.109 280.969ZM1003.62 253.453H997.995V259.641H991.854V263.836H997.995V276.305C997.995 277.93 998.206 279.32 998.628 280.477C999.065 281.633 999.667 282.578 1000.43 283.312C1001.2 284.062 1002.11 284.617 1003.17 284.977C1004.25 285.32 1005.43 285.492 1006.71 285.492C1007.42 285.492 1008.12 285.453 1008.82 285.375C1009.54 285.312 1010.23 285.219 1010.89 285.094C1011.54 284.969 1012.15 284.82 1012.71 284.648C1013.29 284.461 1013.78 284.242 1014.19 283.992L1013.58 280.125C1013.3 280.188 1012.95 280.266 1012.53 280.359C1012.12 280.438 1011.68 280.508 1011.21 280.57C1010.73 280.648 1010.23 280.711 1009.71 280.758C1009.2 280.805 1008.7 280.828 1008.21 280.828C1007.54 280.828 1006.92 280.75 1006.36 280.594C1005.8 280.438 1005.32 280.172 1004.91 279.797C1004.5 279.438 1004.18 278.945 1003.95 278.32C1003.73 277.68 1003.62 276.891 1003.62 275.953V263.836H1013.16V259.641H1003.62V253.453ZM1037.29 285H1042.37V259.641H1036.75V277.594C1036.53 278.062 1036.26 278.492 1035.95 278.883C1035.64 279.258 1035.28 279.586 1034.87 279.867C1034.39 280.18 1033.83 280.43 1033.19 280.617C1032.55 280.789 1031.82 280.875 1031.01 280.875C1030.22 280.875 1029.55 280.773 1028.97 280.57C1028.39 280.367 1027.91 280.023 1027.54 279.539C1027.16 279.07 1026.89 278.445 1026.72 277.664C1026.55 276.867 1026.46 275.883 1026.46 274.711V259.641H1020.86V274.664C1020.86 276.57 1021.07 278.211 1021.49 279.586C1021.91 280.945 1022.51 282.062 1023.27 282.938C1024.05 283.812 1024.98 284.461 1026.06 284.883C1027.15 285.289 1028.36 285.492 1029.67 285.492C1031.2 285.492 1032.58 285.141 1033.82 284.438C1035.05 283.719 1036.1 282.727 1036.96 281.461L1037.29 285ZM1066.5 259.172C1064.75 259.172 1063.15 259.578 1061.7 260.391C1060.26 261.203 1059.02 262.32 1057.99 263.742L1057.97 263.156L1057.74 259.641H1052.49V285H1058.09V269.344C1058.38 268.594 1058.75 267.93 1059.19 267.352C1059.63 266.773 1060.16 266.297 1060.78 265.922C1061.36 265.531 1062.02 265.242 1062.77 265.055C1063.52 264.867 1064.37 264.773 1065.31 264.773C1066.13 264.773 1066.96 264.82 1067.79 264.914C1068.63 265.008 1069.49 265.148 1070.35 265.336L1071.14 259.805C1070.66 259.633 1069.99 259.484 1069.13 259.359C1068.28 259.234 1067.41 259.172 1066.5 259.172ZM1089.11 285.469C1091.58 285.469 1093.68 284.984 1095.41 284.016C1097.16 283.047 1098.46 281.953 1099.3 280.734L1096.3 277.828C1095.52 278.828 1094.53 279.602 1093.33 280.148C1092.12 280.68 1090.83 280.945 1089.43 280.945C1088.42 280.945 1087.48 280.773 1086.62 280.43C1085.78 280.086 1085.04 279.602 1084.42 278.977C1083.79 278.383 1083.3 277.711 1082.94 276.961C1082.58 276.211 1082.32 275.281 1082.15 274.172V274.055H1099.72V271.641C1099.72 269.828 1099.48 268.156 1099 266.625C1098.51 265.094 1097.79 263.773 1096.84 262.664C1095.89 261.57 1094.71 260.719 1093.3 260.109C1091.9 259.484 1090.28 259.172 1088.45 259.172C1086.81 259.172 1085.26 259.484 1083.81 260.109C1082.37 260.719 1081.11 261.594 1080.01 262.734C1078.92 263.875 1078.06 265.25 1077.43 266.859C1076.81 268.469 1076.5 270.266 1076.5 272.25V273.211C1076.5 274.945 1076.79 276.562 1077.39 278.062C1078 279.547 1078.86 280.836 1079.97 281.93C1081.08 283.039 1082.4 283.906 1083.95 284.531C1085.51 285.156 1087.23 285.469 1089.11 285.469ZM1088.43 263.719C1089.36 263.719 1090.18 263.883 1090.89 264.211C1091.61 264.523 1092.2 264.945 1092.67 265.477C1093.15 266.023 1093.53 266.664 1093.79 267.398C1094.06 268.117 1094.19 268.844 1094.19 269.578V269.953H1082.26C1082.43 268.984 1082.7 268.117 1083.06 267.352C1083.42 266.586 1083.86 265.93 1084.4 265.383C1084.93 264.852 1085.53 264.445 1086.2 264.164C1086.89 263.867 1087.63 263.719 1088.43 263.719Z" fill="black" fill-opacity="0.8"/>
<rect x="2" y="2" width="1408" height="176" rx="6" fill="#FFF5F0" stroke="#999999" stroke-width="4" stroke-miterlimit="0" stroke-linecap="round"/>
<path d="M329.737 102.133C329.737 102.539 329.644 102.914 329.456 103.258C329.284 103.586 329.019 103.891 328.659 104.172C328.222 104.516 327.636 104.789 326.901 104.992C326.183 105.195 325.339 105.297 324.37 105.297C323.651 105.297 322.94 105.227 322.237 105.086C321.534 104.93 320.909 104.68 320.362 104.336C319.8 104.008 319.331 103.578 318.956 103.047C318.597 102.5 318.394 101.836 318.347 101.055H312.909C312.909 102.102 313.159 103.133 313.659 104.148C314.159 105.164 314.894 106.062 315.862 106.844C316.815 107.641 317.995 108.281 319.401 108.766C320.823 109.25 322.448 109.492 324.276 109.492C325.917 109.492 327.409 109.305 328.753 108.93C330.097 108.555 331.253 108.031 332.222 107.359C333.175 106.688 333.909 105.883 334.425 104.945C334.956 104.008 335.222 102.977 335.222 101.852C335.222 100.695 334.972 99.6953 334.472 98.8516C333.972 98.0078 333.269 97.2734 332.362 96.6484C331.456 96.0547 330.362 95.5547 329.081 95.1484C327.8 94.7422 326.386 94.3984 324.839 94.1172C323.73 93.9297 322.808 93.7188 322.073 93.4844C321.355 93.25 320.792 92.9922 320.386 92.7109C319.948 92.4453 319.644 92.1406 319.472 91.7969C319.3 91.4375 319.214 91.0391 319.214 90.6016C319.214 90.1797 319.315 89.7812 319.519 89.4062C319.722 89.0156 320.026 88.6797 320.433 88.3984C320.839 88.0859 321.355 87.8438 321.98 87.6719C322.62 87.4844 323.362 87.3906 324.206 87.3906C325.128 87.3906 325.933 87.5156 326.62 87.7656C327.308 88 327.87 88.3203 328.308 88.7266C328.683 89.0703 328.964 89.4609 329.151 89.8984C329.355 90.3203 329.456 90.7656 329.456 91.2344H335.058C335.058 90.0938 334.808 89.0312 334.308 88.0469C333.808 87.0625 333.097 86.2109 332.175 85.4922C331.237 84.7734 330.097 84.2109 328.753 83.8047C327.409 83.3828 325.894 83.1719 324.206 83.1719C322.628 83.1719 321.19 83.375 319.894 83.7812C318.612 84.1875 317.519 84.7422 316.612 85.4453C315.69 86.1484 314.98 86.9688 314.48 87.9062C313.995 88.8281 313.753 89.8047 313.753 90.8359C313.753 91.9141 313.995 92.8594 314.48 93.6719C314.964 94.4844 315.636 95.1875 316.495 95.7812C317.37 96.4062 318.409 96.9375 319.612 97.375C320.831 97.8125 322.175 98.1797 323.644 98.4766C324.815 98.6953 325.792 98.9297 326.573 99.1797C327.355 99.4297 327.987 99.6953 328.472 99.9766C328.925 100.289 329.245 100.617 329.433 100.961C329.636 101.305 329.737 101.695 329.737 102.133ZM357.662 109H363.381V108.602C363.069 107.945 362.827 107.164 362.655 106.258C362.498 105.336 362.42 104.305 362.42 103.164V91.8906C362.42 90.4531 362.155 89.1875 361.623 88.0938C361.092 86.9844 360.358 86.0703 359.42 85.3516C358.483 84.6328 357.366 84.0938 356.069 83.7344C354.787 83.3594 353.405 83.1719 351.92 83.1719C350.264 83.1719 348.787 83.3906 347.491 83.8281C346.209 84.25 345.131 84.8281 344.256 85.5625C343.35 86.2812 342.662 87.1094 342.194 88.0469C341.725 88.9844 341.483 89.9609 341.467 90.9766H347.092C347.092 90.4922 347.178 90.0391 347.35 89.6172C347.537 89.1797 347.819 88.8125 348.194 88.5156C348.569 88.1875 349.037 87.9297 349.6 87.7422C350.178 87.5547 350.85 87.4609 351.616 87.4609C352.459 87.4609 353.202 87.5703 353.842 87.7891C354.498 87.9922 355.053 88.2891 355.506 88.6797C355.928 89.0703 356.248 89.5312 356.467 90.0625C356.702 90.5938 356.819 91.1875 356.819 91.8438V93.5547H352.741C350.912 93.5547 349.272 93.7266 347.819 94.0703C346.381 94.4141 345.17 94.9141 344.186 95.5703C343.123 96.2734 342.311 97.1641 341.748 98.2422C341.202 99.3047 340.928 100.531 340.928 101.922C340.928 103 341.139 104.008 341.561 104.945C341.998 105.867 342.608 106.656 343.389 107.312C344.155 107.984 345.077 108.516 346.155 108.906C347.248 109.281 348.452 109.469 349.764 109.469C350.577 109.469 351.334 109.391 352.037 109.234C352.741 109.078 353.397 108.859 354.006 108.578C354.616 108.312 355.162 108 355.647 107.641C356.147 107.266 356.592 106.875 356.983 106.469C357.061 106.953 357.147 107.422 357.241 107.875C357.35 108.312 357.491 108.688 357.662 109ZM350.842 104.969C350.123 104.969 349.498 104.883 348.967 104.711C348.436 104.523 347.991 104.273 347.631 103.961C347.272 103.648 346.998 103.273 346.811 102.836C346.623 102.383 346.53 101.898 346.53 101.383C346.53 100.758 346.639 100.195 346.858 99.6953C347.092 99.1953 347.444 98.7656 347.912 98.4062C348.444 97.9844 349.155 97.6641 350.045 97.4453C350.936 97.2109 351.991 97.0938 353.209 97.0938H356.819V101.781C356.616 102.188 356.327 102.578 355.952 102.953C355.577 103.328 355.131 103.664 354.616 103.961C354.1 104.258 353.522 104.5 352.881 104.688C352.256 104.875 351.577 104.969 350.842 104.969ZM381.017 77.4531H375.392V83.6406H369.252V87.8359H375.392V100.305C375.392 101.93 375.603 103.32 376.025 104.477C376.463 105.633 377.064 106.578 377.83 107.312C378.595 108.062 379.509 108.617 380.572 108.977C381.65 109.32 382.83 109.492 384.111 109.492C384.814 109.492 385.517 109.453 386.22 109.375C386.939 109.312 387.627 109.219 388.283 109.094C388.939 108.969 389.549 108.82 390.111 108.648C390.689 108.461 391.181 108.242 391.588 107.992L390.978 104.125C390.697 104.188 390.345 104.266 389.924 104.359C389.517 104.438 389.08 104.508 388.611 104.57C388.127 104.648 387.627 104.711 387.111 104.758C386.595 104.805 386.095 104.828 385.611 104.828C384.939 104.828 384.322 104.75 383.759 104.594C383.197 104.438 382.713 104.172 382.306 103.797C381.9 103.438 381.58 102.945 381.345 102.32C381.127 101.68 381.017 100.891 381.017 99.9531V87.8359H390.556V83.6406H381.017V77.4531ZM399.357 83.6406V88.3047H407.161V104.359H399.357V109H420.263V104.359H412.81V83.6406H399.357ZM406.646 77.0781C406.646 77.6719 406.786 78.1953 407.067 78.6484C407.364 79.0859 407.794 79.3906 408.357 79.5625C408.903 79.7344 409.403 79.7734 409.857 79.6797C410.31 79.5859 410.7 79.3906 411.028 79.0938C411.685 78.9219 412.185 78.5859 412.528 78.0859C412.872 77.5703 412.989 76.9688 412.88 76.2812C412.802 75.6094 412.497 75.0625 411.966 74.6406C411.45 74.2031 410.771 73.9844 409.927 73.9844C409.427 73.9844 408.974 74.0625 408.567 74.2188C408.177 74.3594 407.841 74.5625 407.56 74.8281C407.263 75.1094 407.036 75.4453 406.88 75.8359C406.724 76.2109 406.646 76.625 406.646 77.0781ZM442.938 102.133C442.938 102.539 442.844 102.914 442.657 103.258C442.485 103.586 442.219 103.891 441.86 104.172C441.422 104.516 440.836 104.789 440.102 104.992C439.383 105.195 438.539 105.297 437.571 105.297C436.852 105.297 436.141 105.227 435.438 105.086C434.735 104.93 434.11 104.68 433.563 104.336C433 104.008 432.532 103.578 432.157 103.047C431.797 102.5 431.594 101.836 431.547 101.055H426.11C426.11 102.102 426.36 103.133 426.86 104.148C427.36 105.164 428.094 106.062 429.063 106.844C430.016 107.641 431.196 108.281 432.602 108.766C434.024 109.25 435.649 109.492 437.477 109.492C439.118 109.492 440.61 109.305 441.953 108.93C443.297 108.555 444.453 108.031 445.422 107.359C446.375 106.688 447.11 105.883 447.625 104.945C448.157 104.008 448.422 102.977 448.422 101.852C448.422 100.695 448.172 99.6953 447.672 98.8516C447.172 98.0078 446.469 97.2734 445.563 96.6484C444.657 96.0547 443.563 95.5547 442.282 95.1484C441 94.7422 439.586 94.3984 438.039 94.1172C436.93 93.9297 436.008 93.7188 435.274 93.4844C434.555 93.25 433.993 92.9922 433.586 92.7109C433.149 92.4453 432.844 92.1406 432.672 91.7969C432.5 91.4375 432.414 91.0391 432.414 90.6016C432.414 90.1797 432.516 89.7812 432.719 89.4062C432.922 89.0156 433.227 88.6797 433.633 88.3984C434.039 88.0859 434.555 87.8438 435.18 87.6719C435.821 87.4844 436.563 87.3906 437.407 87.3906C438.328 87.3906 439.133 87.5156 439.821 87.7656C440.508 88 441.071 88.3203 441.508 88.7266C441.883 89.0703 442.164 89.4609 442.352 89.8984C442.555 90.3203 442.657 90.7656 442.657 91.2344H448.258C448.258 90.0938 448.008 89.0312 447.508 88.0469C447.008 87.0625 446.297 86.2109 445.375 85.4922C444.438 84.7734 443.297 84.2109 441.953 83.8047C440.61 83.3828 439.094 83.1719 437.407 83.1719C435.828 83.1719 434.391 83.375 433.094 83.7812C431.813 84.1875 430.719 84.7422 429.813 85.4453C428.891 86.1484 428.18 86.9688 427.68 87.9062C427.196 88.8281 426.953 89.8047 426.953 90.8359C426.953 91.9141 427.196 92.8594 427.68 93.6719C428.164 94.4844 428.836 95.1875 429.696 95.7812C430.571 96.4062 431.61 96.9375 432.813 97.375C434.032 97.8125 435.375 98.1797 436.844 98.4766C438.016 98.6953 438.993 98.9297 439.774 99.1797C440.555 99.4297 441.188 99.6953 441.672 99.9766C442.125 100.289 442.446 100.617 442.633 100.961C442.836 101.305 442.938 101.695 442.938 102.133ZM461.043 109H466.668V87.8359H476.066V83.6406H466.668V82.0938C466.668 81.2031 466.777 80.4219 466.996 79.75C467.23 79.0781 467.574 78.5156 468.027 78.0625C468.511 77.5781 469.129 77.2109 469.879 76.9609C470.644 76.7109 471.55 76.5859 472.597 76.5859C473.597 76.5859 474.488 76.6484 475.269 76.7734C476.066 76.8984 476.777 77.0469 477.402 77.2188L477.847 72.7422C477.379 72.6484 476.918 72.5625 476.465 72.4844C476.011 72.3906 475.566 72.3125 475.129 72.25C474.597 72.1719 474.05 72.1094 473.488 72.0625C472.941 72 472.379 71.9688 471.8 71.9688C470.16 71.9688 468.675 72.1875 467.347 72.625C466.035 73.0625 464.91 73.7031 463.972 74.5469C463.035 75.4062 462.308 76.4688 461.793 77.7344C461.293 78.9844 461.043 80.4375 461.043 82.0938V83.6406H454.246V87.8359H461.043V109ZM484.257 83.6406V88.3047H492.062V104.359H484.257V109H505.163V104.359H497.71V83.6406H484.257ZM491.546 77.0781C491.546 77.6719 491.687 78.1953 491.968 78.6484C492.265 79.0859 492.694 79.3906 493.257 79.5625C493.804 79.7344 494.304 79.7734 494.757 79.6797C495.21 79.5859 495.601 79.3906 495.929 79.0938C496.585 78.9219 497.085 78.5859 497.429 78.0859C497.772 77.5703 497.89 76.9688 497.78 76.2812C497.702 75.6094 497.397 75.0625 496.866 74.6406C496.351 74.2031 495.671 73.9844 494.827 73.9844C494.327 73.9844 493.874 74.0625 493.468 74.2188C493.077 74.3594 492.741 74.5625 492.46 74.8281C492.163 75.1094 491.937 75.4453 491.78 75.8359C491.624 76.2109 491.546 76.625 491.546 77.0781ZM523.104 109.469C525.573 109.469 527.674 108.984 529.409 108.016C531.159 107.047 532.455 105.953 533.299 104.734L530.299 101.828C529.518 102.828 528.526 103.602 527.323 104.148C526.12 104.68 524.823 104.945 523.432 104.945C522.416 104.945 521.479 104.773 520.62 104.43C519.776 104.086 519.041 103.602 518.416 102.977C517.791 102.383 517.299 101.711 516.94 100.961C516.58 100.211 516.315 99.2812 516.143 98.1719V98.0547H533.721V95.6406C533.721 93.8281 533.479 92.1562 532.995 90.625C532.51 89.0938 531.791 87.7734 530.838 86.6641C529.885 85.5703 528.705 84.7188 527.299 84.1094C525.893 83.4844 524.276 83.1719 522.448 83.1719C520.807 83.1719 519.26 83.4844 517.807 84.1094C516.37 84.7188 515.104 85.5938 514.01 86.7344C512.916 87.875 512.057 89.25 511.432 90.8594C510.807 92.4688 510.495 94.2656 510.495 96.25V97.2109C510.495 98.9453 510.791 100.562 511.385 102.062C511.995 103.547 512.854 104.836 513.963 105.93C515.073 107.039 516.401 107.906 517.948 108.531C519.51 109.156 521.229 109.469 523.104 109.469ZM522.424 87.7188C523.362 87.7188 524.182 87.8828 524.885 88.2109C525.604 88.5234 526.198 88.9453 526.666 89.4766C527.151 90.0234 527.526 90.6641 527.791 91.3984C528.057 92.1172 528.19 92.8438 528.19 93.5781V93.9531H516.26C516.432 92.9844 516.698 92.1172 517.057 91.3516C517.416 90.5859 517.862 89.9297 518.393 89.3828C518.924 88.8516 519.526 88.4453 520.198 88.1641C520.885 87.8672 521.627 87.7188 522.424 87.7188ZM556.138 102.133C556.138 102.539 556.045 102.914 555.857 103.258C555.685 103.586 555.42 103.891 555.06 104.172C554.623 104.516 554.037 104.789 553.302 104.992C552.584 105.195 551.74 105.297 550.771 105.297C550.052 105.297 549.341 105.227 548.638 105.086C547.935 104.93 547.31 104.68 546.763 104.336C546.201 104.008 545.732 103.578 545.357 103.047C544.998 102.5 544.795 101.836 544.748 101.055H539.31C539.31 102.102 539.56 103.133 540.06 104.148C540.56 105.164 541.295 106.062 542.263 106.844C543.216 107.641 544.396 108.281 545.802 108.766C547.224 109.25 548.849 109.492 550.677 109.492C552.318 109.492 553.81 109.305 555.154 108.93C556.498 108.555 557.654 108.031 558.623 107.359C559.576 106.688 560.31 105.883 560.826 104.945C561.357 104.008 561.623 102.977 561.623 101.852C561.623 100.695 561.373 99.6953 560.873 98.8516C560.373 98.0078 559.67 97.2734 558.763 96.6484C557.857 96.0547 556.763 95.5547 555.482 95.1484C554.201 94.7422 552.787 94.3984 551.24 94.1172C550.131 93.9297 549.209 93.7188 548.474 93.4844C547.756 93.25 547.193 92.9922 546.787 92.7109C546.349 92.4453 546.045 92.1406 545.873 91.7969C545.701 91.4375 545.615 91.0391 545.615 90.6016C545.615 90.1797 545.716 89.7812 545.92 89.4062C546.123 89.0156 546.427 88.6797 546.834 88.3984C547.24 88.0859 547.756 87.8438 548.381 87.6719C549.021 87.4844 549.763 87.3906 550.607 87.3906C551.529 87.3906 552.334 87.5156 553.021 87.7656C553.709 88 554.271 88.3203 554.709 88.7266C555.084 89.0703 555.365 89.4609 555.552 89.8984C555.756 90.3203 555.857 90.7656 555.857 91.2344H561.459C561.459 90.0938 561.209 89.0312 560.709 88.0469C560.209 87.0625 559.498 86.2109 558.576 85.4922C557.638 84.7734 556.498 84.2109 555.154 83.8047C553.81 83.3828 552.295 83.1719 550.607 83.1719C549.029 83.1719 547.591 83.375 546.295 83.7812C545.013 84.1875 543.92 84.7422 543.013 85.4453C542.091 86.1484 541.381 86.9688 540.881 87.9062C540.396 88.8281 540.154 89.8047 540.154 90.8359C540.154 91.9141 540.396 92.8594 540.881 93.6719C541.365 94.4844 542.037 95.1875 542.896 95.7812C543.771 96.4062 544.81 96.9375 546.013 97.375C547.232 97.8125 548.576 98.1797 550.045 98.4766C551.216 98.6953 552.193 98.9297 552.974 99.1797C553.756 99.4297 554.388 99.6953 554.873 99.9766C555.326 100.289 555.646 100.617 555.834 100.961C556.037 101.305 556.138 101.695 556.138 102.133ZM589.196 113.43V109H567.774V113.43H589.196ZM607.207 104.969C606.036 104.969 605.059 104.734 604.278 104.266C603.496 103.797 602.879 103.172 602.426 102.391C601.957 101.641 601.621 100.773 601.418 99.7891C601.231 98.7891 601.137 97.7734 601.137 96.7422V95.9219C601.137 94.9062 601.231 93.9062 601.418 92.9219C601.621 91.9375 601.965 91.0625 602.45 90.2969C602.903 89.5312 603.512 88.9141 604.278 88.4453C605.059 87.9609 606.036 87.7188 607.207 87.7188C607.973 87.7188 608.684 87.8516 609.34 88.1172C610.012 88.3828 610.59 88.7422 611.075 89.1953C611.543 89.6484 611.903 90.1797 612.153 90.7891C612.418 91.3984 612.551 92.0469 612.551 92.7344H617.825C617.84 91.3281 617.582 90.0391 617.051 88.8672C616.536 87.6953 615.809 86.6875 614.871 85.8438C613.934 85 612.809 84.3438 611.496 83.875C610.2 83.4062 608.786 83.1719 607.254 83.1719C605.317 83.1719 603.614 83.5156 602.145 84.2031C600.692 84.875 599.473 85.7891 598.489 86.9453C597.504 88.1016 596.762 89.4531 596.262 91C595.778 92.5469 595.536 94.1875 595.536 95.9219V96.7422C595.536 98.4922 595.786 100.141 596.286 101.688C596.786 103.219 597.528 104.562 598.512 105.719C599.481 106.875 600.692 107.797 602.145 108.484C603.614 109.156 605.325 109.492 607.278 109.492C608.684 109.492 610.02 109.266 611.286 108.812C612.567 108.344 613.7 107.703 614.684 106.891C615.653 106.109 616.418 105.18 616.981 104.102C617.559 103.008 617.84 101.844 617.825 100.609H612.551C612.551 101.25 612.403 101.836 612.106 102.367C611.825 102.898 611.442 103.359 610.957 103.75C610.457 104.141 609.879 104.445 609.223 104.664C608.582 104.867 607.911 104.969 607.207 104.969ZM623.437 96.0859V96.5781C623.437 98.4375 623.703 100.148 624.234 101.711C624.765 103.273 625.539 104.633 626.554 105.789C627.554 106.945 628.789 107.852 630.257 108.508C631.726 109.164 633.39 109.492 635.25 109.492C637.093 109.492 638.742 109.164 640.195 108.508C641.664 107.852 642.898 106.945 643.898 105.789C644.898 104.633 645.664 103.273 646.195 101.711C646.726 100.148 646.992 98.4375 646.992 96.5781V96.0859C646.992 94.2422 646.726 92.5391 646.195 90.9766C645.664 89.3984 644.898 88.0312 643.898 86.875C642.882 85.7188 641.64 84.8125 640.172 84.1562C638.718 83.5 637.062 83.1719 635.203 83.1719C633.343 83.1719 631.687 83.5 630.234 84.1562C628.781 84.8125 627.554 85.7188 626.554 86.875C625.539 88.0312 624.765 89.3984 624.234 90.9766C623.703 92.5391 623.437 94.2422 623.437 96.0859ZM629.039 96.5781V96.0859C629.039 94.9766 629.156 93.9141 629.39 92.8984C629.64 91.8828 630.023 90.9922 630.539 90.2266C631.039 89.4609 631.672 88.8516 632.437 88.3984C633.218 87.9453 634.14 87.7188 635.203 87.7188C636.281 87.7188 637.203 87.9453 637.968 88.3984C638.75 88.8516 639.398 89.4609 639.914 90.2266C640.398 90.9922 640.765 91.8828 641.015 92.8984C641.265 93.9141 641.39 94.9766 641.39 96.0859V96.5781C641.39 97.7188 641.265 98.7969 641.015 99.8125C640.781 100.828 640.414 101.719 639.914 102.484C639.414 103.25 638.773 103.859 637.992 104.312C637.211 104.75 636.297 104.969 635.25 104.969C634.172 104.969 633.242 104.75 632.461 104.312C631.679 103.859 631.039 103.25 630.539 102.484C630.023 101.719 629.64 100.828 629.39 99.8125C629.156 98.7969 629.039 97.7188 629.039 96.5781ZM653.847 73V77.6641H661.862V104.359H653.847V109H675.198V104.359H667.511V73H653.847ZM682.147 73V77.6641H690.162V104.359H682.147V109H703.498V104.359H695.811V73H682.147ZM725.564 109H731.283V108.602C730.97 107.945 730.728 107.164 730.556 106.258C730.4 105.336 730.322 104.305 730.322 103.164V91.8906C730.322 90.4531 730.056 89.1875 729.525 88.0938C728.994 86.9844 728.259 86.0703 727.322 85.3516C726.384 84.6328 725.267 84.0938 723.97 83.7344C722.689 83.3594 721.306 83.1719 719.822 83.1719C718.166 83.1719 716.689 83.3906 715.392 83.8281C714.111 84.25 713.033 84.8281 712.158 85.5625C711.252 86.2812 710.564 87.1094 710.095 88.0469C709.627 88.9844 709.384 89.9609 709.369 90.9766H714.994C714.994 90.4922 715.08 90.0391 715.252 89.6172C715.439 89.1797 715.72 88.8125 716.095 88.5156C716.47 88.1875 716.939 87.9297 717.502 87.7422C718.08 87.5547 718.752 87.4609 719.517 87.4609C720.361 87.4609 721.103 87.5703 721.744 87.7891C722.4 87.9922 722.955 88.2891 723.408 88.6797C723.83 89.0703 724.15 89.5312 724.369 90.0625C724.603 90.5938 724.72 91.1875 724.72 91.8438V93.5547H720.642C718.814 93.5547 717.173 93.7266 715.72 94.0703C714.283 94.4141 713.072 94.9141 712.088 95.5703C711.025 96.2734 710.213 97.1641 709.65 98.2422C709.103 99.3047 708.83 100.531 708.83 101.922C708.83 103 709.041 104.008 709.463 104.945C709.9 105.867 710.509 106.656 711.291 107.312C712.056 107.984 712.978 108.516 714.056 108.906C715.15 109.281 716.353 109.469 717.666 109.469C718.478 109.469 719.236 109.391 719.939 109.234C720.642 109.078 721.298 108.859 721.908 108.578C722.517 108.312 723.064 108 723.548 107.641C724.048 107.266 724.494 106.875 724.884 106.469C724.963 106.953 725.048 107.422 725.142 107.875C725.252 108.312 725.392 108.688 725.564 109ZM718.744 104.969C718.025 104.969 717.4 104.883 716.869 104.711C716.338 104.523 715.892 104.273 715.533 103.961C715.173 103.648 714.9 103.273 714.713 102.836C714.525 102.383 714.431 101.898 714.431 101.383C714.431 100.758 714.541 100.195 714.759 99.6953C714.994 99.1953 715.345 98.7656 715.814 98.4062C716.345 97.9844 717.056 97.6641 717.947 97.4453C718.838 97.2109 719.892 97.0938 721.111 97.0938H724.72V101.781C724.517 102.188 724.228 102.578 723.853 102.953C723.478 103.328 723.033 103.664 722.517 103.961C722.002 104.258 721.423 104.5 720.783 104.688C720.158 104.875 719.478 104.969 718.744 104.969ZM748.919 77.4531H743.294V83.6406H737.153V87.8359H743.294V100.305C743.294 101.93 743.505 103.32 743.927 104.477C744.364 105.633 744.966 106.578 745.731 107.312C746.497 108.062 747.411 108.617 748.474 108.977C749.552 109.32 750.731 109.492 752.013 109.492C752.716 109.492 753.419 109.453 754.122 109.375C754.841 109.312 755.528 109.219 756.185 109.094C756.841 108.969 757.45 108.82 758.013 108.648C758.591 108.461 759.083 108.242 759.489 107.992L758.88 104.125C758.599 104.188 758.247 104.266 757.825 104.359C757.419 104.438 756.981 104.508 756.513 104.57C756.028 104.648 755.528 104.711 755.013 104.758C754.497 104.805 753.997 104.828 753.513 104.828C752.841 104.828 752.224 104.75 751.661 104.594C751.099 104.438 750.614 104.172 750.208 103.797C749.802 103.438 749.481 102.945 749.247 102.32C749.028 101.68 748.919 100.891 748.919 99.9531V87.8359H758.458V83.6406H748.919V77.4531ZM773 104.477L787.742 87.2031V83.6406H765.805V88.2109H780.102L765.524 105.32V109H788.446V104.477H773ZM815.597 113.43V109H794.175V113.43H815.597ZM833.608 104.969C832.437 104.969 831.46 104.734 830.679 104.266C829.897 103.797 829.28 103.172 828.827 102.391C828.358 101.641 828.022 100.773 827.819 99.7891C827.632 98.7891 827.538 97.7734 827.538 96.7422V95.9219C827.538 94.9062 827.632 93.9062 827.819 92.9219C828.022 91.9375 828.366 91.0625 828.851 90.2969C829.304 89.5312 829.913 88.9141 830.679 88.4453C831.46 87.9609 832.437 87.7188 833.608 87.7188C834.374 87.7188 835.085 87.8516 835.741 88.1172C836.413 88.3828 836.991 88.7422 837.476 89.1953C837.944 89.6484 838.304 90.1797 838.554 90.7891C838.819 91.3984 838.952 92.0469 838.952 92.7344H844.226C844.241 91.3281 843.983 90.0391 843.452 88.8672C842.937 87.6953 842.21 86.6875 841.272 85.8438C840.335 85 839.21 84.3438 837.897 83.875C836.601 83.4062 835.187 83.1719 833.655 83.1719C831.718 83.1719 830.015 83.5156 828.546 84.2031C827.093 84.875 825.874 85.7891 824.89 86.9453C823.905 88.1016 823.163 89.4531 822.663 91C822.179 92.5469 821.937 94.1875 821.937 95.9219V96.7422C821.937 98.4922 822.187 100.141 822.687 101.688C823.187 103.219 823.929 104.562 824.913 105.719C825.882 106.875 827.093 107.797 828.546 108.484C830.015 109.156 831.726 109.492 833.679 109.492C835.085 109.492 836.421 109.266 837.687 108.812C838.968 108.344 840.101 107.703 841.085 106.891C842.054 106.109 842.819 105.18 843.382 104.102C843.96 103.008 844.241 101.844 844.226 100.609H838.952C838.952 101.25 838.804 101.836 838.507 102.367C838.226 102.898 837.843 103.359 837.358 103.75C836.858 104.141 836.28 104.445 835.624 104.664C834.983 104.867 834.312 104.969 833.608 104.969ZM849.838 96.0859V96.5781C849.838 98.4375 850.104 100.148 850.635 101.711C851.166 103.273 851.94 104.633 852.955 105.789C853.955 106.945 855.19 107.852 856.659 108.508C858.127 109.164 859.791 109.492 861.651 109.492C863.494 109.492 865.143 109.164 866.596 108.508C868.065 107.852 869.299 106.945 870.299 105.789C871.299 104.633 872.065 103.273 872.596 101.711C873.127 100.148 873.393 98.4375 873.393 96.5781V96.0859C873.393 94.2422 873.127 92.5391 872.596 90.9766C872.065 89.3984 871.299 88.0312 870.299 86.875C869.284 85.7188 868.041 84.8125 866.573 84.1562C865.119 83.5 863.463 83.1719 861.604 83.1719C859.744 83.1719 858.088 83.5 856.635 84.1562C855.182 84.8125 853.955 85.7188 852.955 86.875C851.94 88.0312 851.166 89.3984 850.635 90.9766C850.104 92.5391 849.838 94.2422 849.838 96.0859ZM855.44 96.5781V96.0859C855.44 94.9766 855.557 93.9141 855.791 92.8984C856.041 91.8828 856.424 90.9922 856.94 90.2266C857.44 89.4609 858.073 88.8516 858.838 88.3984C859.619 87.9453 860.541 87.7188 861.604 87.7188C862.682 87.7188 863.604 87.9453 864.369 88.3984C865.151 88.8516 865.799 89.4609 866.315 90.2266C866.799 90.9922 867.166 91.8828 867.416 92.8984C867.666 93.9141 867.791 94.9766 867.791 96.0859V96.5781C867.791 97.7188 867.666 98.7969 867.416 99.8125C867.182 100.828 866.815 101.719 866.315 102.484C865.815 103.25 865.174 103.859 864.393 104.312C863.612 104.75 862.698 104.969 861.651 104.969C860.573 104.969 859.643 104.75 858.862 104.312C858.08 103.859 857.44 103.25 856.94 102.484C856.424 101.719 856.041 100.828 855.791 99.8125C855.557 98.7969 855.44 97.7188 855.44 96.5781ZM879.17 109H884.771V90.9062C885.021 90.4844 885.31 90.0938 885.638 89.7344C885.966 89.375 886.318 89.0703 886.693 88.8203C887.177 88.4922 887.716 88.2422 888.31 88.0703C888.904 87.8828 889.545 87.7891 890.232 87.7891C891.06 87.7891 891.795 87.8828 892.435 88.0703C893.076 88.2422 893.623 88.5391 894.076 88.9609C894.529 89.3828 894.873 89.9453 895.107 90.6484C895.341 91.3516 895.459 92.2266 895.459 93.2734V109H901.06V93.1797C901.06 91.3984 900.849 89.8828 900.427 88.6328C900.005 87.3672 899.412 86.3281 898.646 85.5156C897.88 84.7031 896.959 84.1094 895.88 83.7344C894.802 83.3594 893.615 83.1719 892.318 83.1719C891.334 83.1719 890.396 83.3125 889.505 83.5938C888.615 83.875 887.795 84.2734 887.045 84.7891C886.576 85.1172 886.13 85.4922 885.709 85.9141C885.302 86.3203 884.927 86.7656 884.584 87.25L884.232 83.6406H879.17V109ZM910.962 83.6406V88.3047H918.227V109.398C918.227 110.383 918.095 111.203 917.829 111.859C917.563 112.516 917.204 113.047 916.751 113.453C916.298 113.844 915.759 114.125 915.134 114.297C914.509 114.469 913.845 114.555 913.142 114.555C912.954 114.555 912.688 114.547 912.345 114.531C912.001 114.531 911.642 114.516 911.267 114.484C910.876 114.469 910.501 114.438 910.142 114.391C909.782 114.359 909.493 114.32 909.274 114.273L908.946 118.844C909.274 118.906 909.595 118.961 909.907 119.008C910.235 119.055 910.556 119.094 910.868 119.125C911.29 119.172 911.712 119.203 912.134 119.219C912.571 119.234 913.009 119.242 913.446 119.242C915.102 119.242 916.571 119.039 917.852 118.633C919.134 118.227 920.22 117.617 921.11 116.805C922.001 115.992 922.681 114.969 923.149 113.734C923.618 112.516 923.852 111.07 923.852 109.398V83.6406H910.962ZM917.712 77.0781C917.712 77.9531 917.993 78.6797 918.556 79.2578C919.134 79.8359 919.931 80.125 920.946 80.125C921.993 80.125 922.806 79.8359 923.384 79.2578C923.962 78.6797 924.251 77.9531 924.251 77.0781C924.251 76.1875 923.962 75.4531 923.384 74.875C922.806 74.2812 921.993 73.9844 920.946 73.9844C919.915 73.9844 919.118 74.2891 918.556 74.8984C917.993 75.4922 917.712 76.2188 917.712 77.0781ZM947.606 109.469C950.074 109.469 952.176 108.984 953.91 108.016C955.66 107.047 956.957 105.953 957.801 104.734L954.801 101.828C954.02 102.828 953.028 103.602 951.824 104.148C950.621 104.68 949.324 104.945 947.934 104.945C946.918 104.945 945.981 104.773 945.121 104.43C944.278 104.086 943.543 103.602 942.918 102.977C942.293 102.383 941.801 101.711 941.442 100.961C941.082 100.211 940.817 99.2812 940.645 98.1719V98.0547H958.223V95.6406C958.223 93.8281 957.981 92.1562 957.496 90.625C957.012 89.0938 956.293 87.7734 955.34 86.6641C954.387 85.5703 953.207 84.7188 951.801 84.1094C950.395 83.4844 948.778 83.1719 946.949 83.1719C945.309 83.1719 943.762 83.4844 942.309 84.1094C940.871 84.7188 939.606 85.5938 938.512 86.7344C937.418 87.875 936.559 89.25 935.934 90.8594C935.309 92.4688 934.996 94.2656 934.996 96.25V97.2109C934.996 98.9453 935.293 100.562 935.887 102.062C936.496 103.547 937.356 104.836 938.465 105.93C939.574 107.039 940.903 107.906 942.449 108.531C944.012 109.156 945.731 109.469 947.606 109.469ZM946.926 87.7188C947.864 87.7188 948.684 87.8828 949.387 88.2109C950.106 88.5234 950.699 88.9453 951.168 89.4766C951.653 90.0234 952.028 90.6641 952.293 91.3984C952.559 92.1172 952.692 92.8438 952.692 93.5781V93.9531H940.762C940.934 92.9844 941.199 92.1172 941.559 91.3516C941.918 90.5859 942.364 89.9297 942.895 89.3828C943.426 88.8516 944.028 88.4453 944.699 88.1641C945.387 87.8672 946.129 87.7188 946.926 87.7188ZM975.109 104.969C973.937 104.969 972.961 104.734 972.179 104.266C971.398 103.797 970.781 103.172 970.328 102.391C969.859 101.641 969.523 100.773 969.32 99.7891C969.132 98.7891 969.039 97.7734 969.039 96.7422V95.9219C969.039 94.9062 969.132 93.9062 969.32 92.9219C969.523 91.9375 969.867 91.0625 970.351 90.2969C970.804 89.5312 971.414 88.9141 972.179 88.4453C972.961 87.9609 973.937 87.7188 975.109 87.7188C975.875 87.7188 976.586 87.8516 977.242 88.1172C977.914 88.3828 978.492 88.7422 978.976 89.1953C979.445 89.6484 979.804 90.1797 980.054 90.7891C980.32 91.3984 980.453 92.0469 980.453 92.7344H985.726C985.742 91.3281 985.484 90.0391 984.953 88.8672C984.437 87.6953 983.711 86.6875 982.773 85.8438C981.836 85 980.711 84.3438 979.398 83.875C978.101 83.4062 976.687 83.1719 975.156 83.1719C973.218 83.1719 971.515 83.5156 970.047 84.2031C968.593 84.875 967.375 85.7891 966.39 86.9453C965.406 88.1016 964.664 89.4531 964.164 91C963.679 92.5469 963.437 94.1875 963.437 95.9219V96.7422C963.437 98.4922 963.687 100.141 964.187 101.688C964.687 103.219 965.429 104.562 966.414 105.719C967.382 106.875 968.593 107.797 970.047 108.484C971.515 109.156 973.226 109.492 975.179 109.492C976.586 109.492 977.922 109.266 979.187 108.812C980.468 108.344 981.601 107.703 982.586 106.891C983.554 106.109 984.32 105.18 984.882 104.102C985.461 103.008 985.742 101.844 985.726 100.609H980.453C980.453 101.25 980.304 101.836 980.007 102.367C979.726 102.898 979.343 103.359 978.859 103.75C978.359 104.141 977.781 104.445 977.125 104.664C976.484 104.867 975.812 104.969 975.109 104.969ZM1003.62 77.4531H997.995V83.6406H991.854V87.8359H997.995V100.305C997.995 101.93 998.206 103.32 998.628 104.477C999.065 105.633 999.667 106.578 1000.43 107.312C1001.2 108.062 1002.11 108.617 1003.17 108.977C1004.25 109.32 1005.43 109.492 1006.71 109.492C1007.42 109.492 1008.12 109.453 1008.82 109.375C1009.54 109.312 1010.23 109.219 1010.89 109.094C1011.54 108.969 1012.15 108.82 1012.71 108.648C1013.29 108.461 1013.78 108.242 1014.19 107.992L1013.58 104.125C1013.3 104.188 1012.95 104.266 1012.53 104.359C1012.12 104.438 1011.68 104.508 1011.21 104.57C1010.73 104.648 1010.23 104.711 1009.71 104.758C1009.2 104.805 1008.7 104.828 1008.21 104.828C1007.54 104.828 1006.92 104.75 1006.36 104.594C1005.8 104.438 1005.32 104.172 1004.91 103.797C1004.5 103.438 1004.18 102.945 1003.95 102.32C1003.73 101.68 1003.62 100.891 1003.62 99.9531V87.8359H1013.16V83.6406H1003.62V77.4531ZM1037.29 109H1042.37V83.6406H1036.75V101.594C1036.53 102.062 1036.26 102.492 1035.95 102.883C1035.64 103.258 1035.28 103.586 1034.87 103.867C1034.39 104.18 1033.83 104.43 1033.19 104.617C1032.55 104.789 1031.82 104.875 1031.01 104.875C1030.22 104.875 1029.55 104.773 1028.97 104.57C1028.39 104.367 1027.91 104.023 1027.54 103.539C1027.16 103.07 1026.89 102.445 1026.72 101.664C1026.55 100.867 1026.46 99.8828 1026.46 98.7109V83.6406H1020.86V98.6641C1020.86 100.57 1021.07 102.211 1021.49 103.586C1021.91 104.945 1022.51 106.062 1023.27 106.938C1024.05 107.812 1024.98 108.461 1026.06 108.883C1027.15 109.289 1028.36 109.492 1029.67 109.492C1031.2 109.492 1032.58 109.141 1033.82 108.438C1035.05 107.719 1036.1 106.727 1036.96 105.461L1037.29 109ZM1066.5 83.1719C1064.75 83.1719 1063.15 83.5781 1061.7 84.3906C1060.26 85.2031 1059.02 86.3203 1057.99 87.7422L1057.97 87.1562L1057.74 83.6406H1052.49V109H1058.09V93.3438C1058.38 92.5938 1058.75 91.9297 1059.19 91.3516C1059.63 90.7734 1060.16 90.2969 1060.78 89.9219C1061.36 89.5312 1062.02 89.2422 1062.77 89.0547C1063.52 88.8672 1064.37 88.7734 1065.31 88.7734C1066.13 88.7734 1066.96 88.8203 1067.79 88.9141C1068.63 89.0078 1069.49 89.1484 1070.35 89.3359L1071.14 83.8047C1070.66 83.6328 1069.99 83.4844 1069.13 83.3594C1068.28 83.2344 1067.41 83.1719 1066.5 83.1719ZM1089.11 109.469C1091.58 109.469 1093.68 108.984 1095.41 108.016C1097.16 107.047 1098.46 105.953 1099.3 104.734L1096.3 101.828C1095.52 102.828 1094.53 103.602 1093.33 104.148C1092.12 104.68 1090.83 104.945 1089.43 104.945C1088.42 104.945 1087.48 104.773 1086.62 104.43C1085.78 104.086 1085.04 103.602 1084.42 102.977C1083.79 102.383 1083.3 101.711 1082.94 100.961C1082.58 100.211 1082.32 99.2812 1082.15 98.1719V98.0547H1099.72V95.6406C1099.72 93.8281 1099.48 92.1562 1099 90.625C1098.51 89.0938 1097.79 87.7734 1096.84 86.6641C1095.89 85.5703 1094.71 84.7188 1093.3 84.1094C1091.9 83.4844 1090.28 83.1719 1088.45 83.1719C1086.81 83.1719 1085.26 83.4844 1083.81 84.1094C1082.37 84.7188 1081.11 85.5938 1080.01 86.7344C1078.92 87.875 1078.06 89.25 1077.43 90.8594C1076.81 92.4688 1076.5 94.2656 1076.5 96.25V97.2109C1076.5 98.9453 1076.79 100.562 1077.39 102.062C1078 103.547 1078.86 104.836 1079.97 105.93C1081.08 107.039 1082.4 107.906 1083.95 108.531C1085.51 109.156 1087.23 109.469 1089.11 109.469ZM1088.43 87.7188C1089.36 87.7188 1090.18 87.8828 1090.89 88.2109C1091.61 88.5234 1092.2 88.9453 1092.67 89.4766C1093.15 90.0234 1093.53 90.6641 1093.79 91.3984C1094.06 92.1172 1094.19 92.8438 1094.19 93.5781V93.9531H1082.26C1082.43 92.9844 1082.7 92.1172 1083.06 91.3516C1083.42 90.5859 1083.86 89.9297 1084.4 89.3828C1084.93 88.8516 1085.53 88.4453 1086.2 88.1641C1086.89 87.8672 1087.63 87.7188 1088.43 87.7188Z" fill="black" fill-opacity="0.8"/>
</svg>
