<svg width="1412" height="180" viewBox="0 0 1412 180" fill="none" xmlns="http://www.w3.org/2000/svg">
<rect x="2" y="2" width="1408" height="176" rx="6" fill="#FC9272" stroke="#999999" stroke-width="4" stroke-miterlimit="0" stroke-linecap="round"/>
<path d="M551.429 88V89.875C551.429 92.4531 551.093 94.7656 550.421 96.8125C549.749 98.8594 548.788 100.602 547.538 102.039C546.304 103.477 544.819 104.578 543.085 105.344C541.351 106.094 539.429 106.469 537.319 106.469C535.226 106.469 533.312 106.094 531.577 105.344C529.858 104.578 528.366 103.477 527.101 102.039C525.835 100.602 524.851 98.8594 524.148 96.8125C523.46 94.7656 523.116 92.4531 523.116 89.875V88C523.116 85.4219 523.46 83.1172 524.148 81.0859C524.835 79.0391 525.804 77.2969 527.054 75.8594C528.319 74.4062 529.812 73.3047 531.53 72.5547C533.265 71.7891 535.179 71.4062 537.273 71.4062C539.382 71.4062 541.304 71.7891 543.038 72.5547C544.773 73.3047 546.265 74.4062 547.515 75.8594C548.765 77.2969 549.726 79.0391 550.398 81.0859C551.085 83.1172 551.429 85.4219 551.429 88ZM545.546 89.875V87.9531C545.546 86.0469 545.358 84.3672 544.983 82.9141C544.624 81.4453 544.085 80.2188 543.366 79.2344C542.663 78.2344 541.796 77.4844 540.765 76.9844C539.733 76.4688 538.569 76.2109 537.273 76.2109C535.976 76.2109 534.819 76.4688 533.804 76.9844C532.788 77.4844 531.921 78.2344 531.202 79.2344C530.499 80.2188 529.96 81.4453 529.585 82.9141C529.21 84.3672 529.023 86.0469 529.023 87.9531V89.875C529.023 91.7812 529.21 93.4688 529.585 94.9375C529.96 96.4062 530.507 97.6484 531.226 98.6641C531.96 99.6641 532.835 100.422 533.851 100.938C534.866 101.438 536.023 101.688 537.319 101.688C538.632 101.688 539.796 101.438 540.812 100.938C541.827 100.422 542.687 99.6641 543.39 98.6641C544.093 97.6484 544.624 96.4062 544.983 94.9375C545.358 93.4688 545.546 91.7812 545.546 89.875ZM561.893 85.5156V115.75H556.245V80.6406H561.448L561.893 85.5156ZM578.416 93.0859V93.5781C578.416 95.4219 578.198 97.1328 577.76 98.7109C577.338 100.273 576.705 101.641 575.862 102.812C575.034 103.969 574.01 104.867 572.791 105.508C571.573 106.148 570.166 106.469 568.573 106.469C566.995 106.469 565.612 106.18 564.424 105.602C563.252 105.008 562.26 104.172 561.448 103.094C560.635 102.016 559.979 100.75 559.479 99.2969C558.995 97.8281 558.651 96.2188 558.448 94.4688V92.5703C558.651 90.7109 558.995 89.0234 559.479 87.5078C559.979 85.9922 560.635 84.6875 561.448 83.5938C562.26 82.5 563.252 81.6562 564.424 81.0625C565.596 80.4688 566.963 80.1719 568.526 80.1719C570.12 80.1719 571.534 80.4844 572.768 81.1094C574.002 81.7188 575.041 82.5938 575.885 83.7344C576.729 84.8594 577.362 86.2188 577.784 87.8125C578.205 89.3906 578.416 91.1484 578.416 93.0859ZM572.768 93.5781V93.0859C572.768 91.9141 572.659 90.8281 572.44 89.8281C572.221 88.8125 571.877 87.9219 571.409 87.1562C570.94 86.3906 570.338 85.7969 569.604 85.375C568.885 84.9375 568.018 84.7188 567.002 84.7188C566.002 84.7188 565.143 84.8906 564.424 85.2344C563.705 85.5625 563.104 86.0234 562.62 86.6172C562.135 87.2109 561.76 87.9062 561.495 88.7031C561.229 89.4844 561.041 90.3359 560.932 91.2578V95.8047C561.12 96.9297 561.44 97.9609 561.893 98.8984C562.346 99.8359 562.987 100.586 563.815 101.148C564.659 101.695 565.737 101.969 567.049 101.969C568.065 101.969 568.932 101.75 569.651 101.312C570.37 100.875 570.955 100.273 571.409 99.5078C571.877 98.7266 572.221 97.8281 572.44 96.8125C572.659 95.7969 572.768 94.7188 572.768 93.5781ZM593.873 106.469C591.998 106.469 590.302 106.164 588.787 105.555C587.287 104.93 586.006 104.062 584.943 102.953C583.896 101.844 583.092 100.539 582.529 99.0391C581.967 97.5391 581.685 95.9219 581.685 94.1875V93.25C581.685 91.2656 581.974 89.4688 582.552 87.8594C583.131 86.25 583.935 84.875 584.967 83.7344C585.998 82.5781 587.217 81.6953 588.623 81.0859C590.029 80.4766 591.552 80.1719 593.193 80.1719C595.006 80.1719 596.592 80.4766 597.951 81.0859C599.31 81.6953 600.435 82.5547 601.326 83.6641C602.232 84.7578 602.904 86.0625 603.342 87.5781C603.795 89.0938 604.021 90.7656 604.021 92.5938V95.0078H584.427V90.9531H598.443V90.5078C598.412 89.4922 598.209 88.5391 597.834 87.6484C597.474 86.7578 596.92 86.0391 596.17 85.4922C595.42 84.9453 594.42 84.6719 593.17 84.6719C592.232 84.6719 591.396 84.875 590.662 85.2812C589.943 85.6719 589.342 86.2422 588.857 86.9922C588.373 87.7422 587.998 88.6484 587.732 89.7109C587.482 90.7578 587.357 91.9375 587.357 93.25V94.1875C587.357 95.2969 587.506 96.3281 587.802 97.2812C588.115 98.2188 588.568 99.0391 589.162 99.7422C589.756 100.445 590.474 101 591.318 101.406C592.162 101.797 593.123 101.992 594.201 101.992C595.56 101.992 596.771 101.719 597.834 101.172C598.896 100.625 599.818 99.8516 600.599 98.8516L603.576 101.734C603.029 102.531 602.318 103.297 601.443 104.031C600.568 104.75 599.498 105.336 598.232 105.789C596.982 106.242 595.529 106.469 593.873 106.469ZM613.571 85.4688V106H607.923V80.6406H613.314L613.571 85.4688ZM621.329 80.4766L621.282 85.7266C620.939 85.6641 620.564 85.6172 620.157 85.5859C619.767 85.5547 619.376 85.5391 618.985 85.5391C618.017 85.5391 617.165 85.6797 616.431 85.9609C615.696 86.2266 615.079 86.6172 614.579 87.1328C614.095 87.6328 613.72 88.2422 613.454 88.9609C613.189 89.6797 613.032 90.4844 612.985 91.375L611.696 91.4688C611.696 89.875 611.853 88.3984 612.165 87.0391C612.478 85.6797 612.946 84.4844 613.571 83.4531C614.212 82.4219 615.009 81.6172 615.962 81.0391C616.931 80.4609 618.048 80.1719 619.314 80.1719C619.657 80.1719 620.024 80.2031 620.415 80.2656C620.821 80.3281 621.126 80.3984 621.329 80.4766ZM637.793 100.914V88.8203C637.793 87.9141 637.629 87.1328 637.301 86.4766C636.973 85.8203 636.473 85.3125 635.801 84.9531C635.145 84.5938 634.317 84.4141 633.317 84.4141C632.395 84.4141 631.598 84.5703 630.926 84.8828C630.254 85.1953 629.731 85.6172 629.356 86.1484C628.981 86.6797 628.793 87.2812 628.793 87.9531H623.168C623.168 86.9531 623.411 85.9844 623.895 85.0469C624.379 84.1094 625.082 83.2734 626.004 82.5391C626.926 81.8047 628.028 81.2266 629.309 80.8047C630.59 80.3828 632.028 80.1719 633.621 80.1719C635.528 80.1719 637.215 80.4922 638.684 81.1328C640.168 81.7734 641.332 82.7422 642.176 84.0391C643.036 85.3203 643.465 86.9297 643.465 88.8672V100.141C643.465 101.297 643.543 102.336 643.7 103.258C643.871 104.164 644.114 104.953 644.426 105.625V106H638.637C638.371 105.391 638.161 104.617 638.004 103.68C637.864 102.727 637.793 101.805 637.793 100.914ZM638.614 90.5781L638.661 94.0703H634.606C633.559 94.0703 632.637 94.1719 631.84 94.375C631.043 94.5625 630.379 94.8438 629.848 95.2188C629.317 95.5938 628.918 96.0469 628.653 96.5781C628.387 97.1094 628.254 97.7109 628.254 98.3828C628.254 99.0547 628.411 99.6719 628.723 100.234C629.036 100.781 629.489 101.211 630.082 101.523C630.692 101.836 631.426 101.992 632.286 101.992C633.442 101.992 634.45 101.758 635.309 101.289C636.184 100.805 636.871 100.219 637.371 99.5312C637.871 98.8281 638.137 98.1641 638.168 97.5391L639.996 100.047C639.809 100.688 639.489 101.375 639.036 102.109C638.582 102.844 637.989 103.547 637.254 104.219C636.536 104.875 635.668 105.414 634.653 105.836C633.653 106.258 632.496 106.469 631.184 106.469C629.528 106.469 628.051 106.141 626.754 105.484C625.457 104.812 624.442 103.914 623.707 102.789C622.973 101.648 622.606 100.359 622.606 98.9219C622.606 97.5781 622.856 96.3906 623.356 95.3594C623.871 94.3125 624.621 93.4375 625.606 92.7344C626.606 92.0312 627.825 91.5 629.262 91.1406C630.7 90.7656 632.34 90.5781 634.184 90.5781H638.614ZM660.468 80.6406V84.7656H646.172V80.6406H660.468ZM650.297 74.4297H655.945V98.9922C655.945 99.7734 656.054 100.375 656.273 100.797C656.508 101.203 656.828 101.477 657.234 101.617C657.64 101.758 658.117 101.828 658.664 101.828C659.054 101.828 659.429 101.805 659.789 101.758C660.148 101.711 660.437 101.664 660.656 101.617L660.679 105.93C660.211 106.07 659.664 106.195 659.039 106.305C658.429 106.414 657.726 106.469 656.929 106.469C655.633 106.469 654.484 106.242 653.484 105.789C652.484 105.32 651.703 104.562 651.14 103.516C650.578 102.469 650.297 101.078 650.297 99.3438V74.4297ZM670.347 80.6406V106H664.675V80.6406H670.347ZM664.3 73.9844C664.3 73.125 664.581 72.4141 665.144 71.8516C665.722 71.2734 666.519 70.9844 667.534 70.9844C668.534 70.9844 669.323 71.2734 669.901 71.8516C670.479 72.4141 670.769 73.125 670.769 73.9844C670.769 74.8281 670.479 75.5312 669.901 76.0938C669.323 76.6562 668.534 76.9375 667.534 76.9375C666.519 76.9375 665.722 76.6562 665.144 76.0938C664.581 75.5312 664.3 74.8281 664.3 73.9844ZM681.608 86.0547V106H675.959V80.6406H681.28L681.608 86.0547ZM680.6 92.3828L678.772 92.3594C678.787 90.5625 679.037 88.9141 679.522 87.4141C680.022 85.9141 680.709 84.625 681.584 83.5469C682.475 82.4688 683.537 81.6406 684.772 81.0625C686.006 80.4688 687.381 80.1719 688.897 80.1719C690.116 80.1719 691.217 80.3438 692.202 80.6875C693.202 81.0156 694.053 81.5547 694.756 82.3047C695.475 83.0547 696.022 84.0312 696.397 85.2344C696.772 86.4219 696.959 87.8828 696.959 89.6172V106H691.287V89.5938C691.287 88.375 691.108 87.4141 690.748 86.7109C690.405 85.9922 689.897 85.4844 689.225 85.1875C688.569 84.875 687.748 84.7188 686.764 84.7188C685.795 84.7188 684.928 84.9219 684.162 85.3281C683.397 85.7344 682.748 86.2891 682.217 86.9922C681.702 87.6953 681.303 88.5078 681.022 89.4297C680.741 90.3516 680.6 91.3359 680.6 92.3828ZM718.439 80.6406H723.572V105.297C723.572 107.578 723.088 109.516 722.119 111.109C721.15 112.703 719.799 113.914 718.064 114.742C716.33 115.586 714.322 116.008 712.041 116.008C711.072 116.008 709.994 115.867 708.806 115.586C707.634 115.305 706.494 114.852 705.384 114.227C704.291 113.617 703.377 112.812 702.642 111.812L705.291 108.484C706.197 109.562 707.197 110.352 708.291 110.852C709.384 111.352 710.533 111.602 711.736 111.602C713.033 111.602 714.134 111.359 715.041 110.875C715.963 110.406 716.674 109.711 717.174 108.789C717.674 107.867 717.924 106.742 717.924 105.414V86.3828L718.439 80.6406ZM701.213 93.6016V93.1094C701.213 91.1875 701.447 89.4375 701.916 87.8594C702.384 86.2656 703.056 84.8984 703.931 83.7578C704.806 82.6016 705.869 81.7188 707.119 81.1094C708.369 80.4844 709.783 80.1719 711.361 80.1719C713.002 80.1719 714.4 80.4688 715.556 81.0625C716.728 81.6562 717.705 82.5078 718.486 83.6172C719.267 84.7109 719.877 86.0234 720.314 87.5547C720.767 89.0703 721.103 90.7578 721.322 92.6172V94.1875C721.119 96 720.775 97.6562 720.291 99.1562C719.806 100.656 719.166 101.953 718.369 103.047C717.572 104.141 716.588 104.984 715.416 105.578C714.259 106.172 712.892 106.469 711.314 106.469C709.767 106.469 708.369 106.148 707.119 105.508C705.884 104.867 704.822 103.969 703.931 102.812C703.056 101.656 702.384 100.297 701.916 98.7344C701.447 97.1562 701.213 95.4453 701.213 93.6016ZM706.861 93.1094V93.6016C706.861 94.7578 706.97 95.8359 707.189 96.8359C707.424 97.8359 707.775 98.7188 708.244 99.4844C708.728 100.234 709.338 100.828 710.072 101.266C710.822 101.688 711.705 101.898 712.72 101.898C714.049 101.898 715.134 101.617 715.978 101.055C716.838 100.492 717.494 99.7344 717.947 98.7812C718.416 97.8125 718.744 96.7344 718.931 95.5469V91.3047C718.838 90.3828 718.642 89.5234 718.345 88.7266C718.064 87.9297 717.681 87.2344 717.197 86.6406C716.713 86.0312 716.103 85.5625 715.369 85.2344C714.634 84.8906 713.767 84.7188 712.767 84.7188C711.752 84.7188 710.869 84.9375 710.119 85.375C709.369 85.8125 708.752 86.4141 708.267 87.1797C707.799 87.9453 707.447 88.8359 707.213 89.8516C706.978 90.8672 706.861 91.9531 706.861 93.1094ZM754.555 99.1328C754.555 98.5703 754.414 98.0625 754.133 97.6094C753.852 97.1406 753.313 96.7188 752.516 96.3438C751.735 95.9688 750.578 95.625 749.047 95.3125C747.703 95.0156 746.469 94.6641 745.344 94.2578C744.235 93.8359 743.282 93.3281 742.485 92.7344C741.688 92.1406 741.071 91.4375 740.633 90.625C740.196 89.8125 739.977 88.875 739.977 87.8125C739.977 86.7812 740.203 85.8047 740.657 84.8828C741.11 83.9609 741.758 83.1484 742.602 82.4453C743.446 81.7422 744.469 81.1875 745.672 80.7812C746.891 80.375 748.25 80.1719 749.75 80.1719C751.875 80.1719 753.696 80.5312 755.211 81.25C756.743 81.9531 757.914 82.9141 758.727 84.1328C759.539 85.3359 759.946 86.6953 759.946 88.2109H754.297C754.297 87.5391 754.125 86.9141 753.782 86.3359C753.453 85.7422 752.953 85.2656 752.282 84.9062C751.61 84.5312 750.766 84.3438 749.75 84.3438C748.782 84.3438 747.977 84.5 747.336 84.8125C746.711 85.1094 746.243 85.5 745.93 85.9844C745.633 86.4688 745.485 87 745.485 87.5781C745.485 88 745.563 88.3828 745.719 88.7266C745.891 89.0547 746.172 89.3594 746.563 89.6406C746.953 89.9062 747.485 90.1562 748.157 90.3906C748.844 90.625 749.703 90.8516 750.735 91.0703C752.672 91.4766 754.336 92 755.727 92.6406C757.133 93.2656 758.211 94.0781 758.961 95.0781C759.711 96.0625 760.086 97.3125 760.086 98.8281C760.086 99.9531 759.844 100.984 759.36 101.922C758.891 102.844 758.203 103.648 757.297 104.336C756.391 105.008 755.305 105.531 754.039 105.906C752.789 106.281 751.383 106.469 749.821 106.469C747.524 106.469 745.578 106.062 743.985 105.25C742.391 104.422 741.18 103.367 740.352 102.086C739.539 100.789 739.133 99.4453 739.133 98.0547H744.594C744.657 99.1016 744.946 99.9375 745.461 100.562C745.993 101.172 746.649 101.617 747.43 101.898C748.227 102.164 749.047 102.297 749.891 102.297C750.907 102.297 751.758 102.164 752.446 101.898C753.133 101.617 753.657 101.242 754.016 100.773C754.375 100.289 754.555 99.7422 754.555 99.1328ZM771.863 103.234L778.754 80.6406H784.8L774.629 109.867C774.394 110.492 774.09 111.172 773.715 111.906C773.34 112.641 772.847 113.336 772.238 113.992C771.644 114.664 770.902 115.203 770.011 115.609C769.121 116.031 768.043 116.242 766.777 116.242C766.277 116.242 765.793 116.195 765.324 116.102C764.871 116.023 764.441 115.938 764.035 115.844L764.011 111.531C764.168 111.547 764.355 111.562 764.574 111.578C764.808 111.594 764.996 111.602 765.136 111.602C766.074 111.602 766.855 111.484 767.48 111.25C768.105 111.031 768.613 110.672 769.004 110.172C769.41 109.672 769.754 109 770.035 108.156L771.863 103.234ZM767.972 80.6406L773.996 99.625L775.004 105.578L771.09 106.586L761.879 80.6406H767.972ZM801.733 99.1328C801.733 98.5703 801.593 98.0625 801.312 97.6094C801.03 97.1406 800.491 96.7188 799.694 96.3438C798.913 95.9688 797.757 95.625 796.226 95.3125C794.882 95.0156 793.647 94.6641 792.522 94.2578C791.413 93.8359 790.46 93.3281 789.663 92.7344C788.866 92.1406 788.249 91.4375 787.812 90.625C787.374 89.8125 787.155 88.875 787.155 87.8125C787.155 86.7812 787.382 85.8047 787.835 84.8828C788.288 83.9609 788.937 83.1484 789.78 82.4453C790.624 81.7422 791.647 81.1875 792.851 80.7812C794.069 80.375 795.429 80.1719 796.929 80.1719C799.054 80.1719 800.874 80.5312 802.39 81.25C803.921 81.9531 805.093 82.9141 805.905 84.1328C806.718 85.3359 807.124 86.6953 807.124 88.2109H801.476C801.476 87.5391 801.304 86.9141 800.96 86.3359C800.632 85.7422 800.132 85.2656 799.46 84.9062C798.788 84.5312 797.944 84.3438 796.929 84.3438C795.96 84.3438 795.155 84.5 794.515 84.8125C793.89 85.1094 793.421 85.5 793.108 85.9844C792.812 86.4688 792.663 87 792.663 87.5781C792.663 88 792.741 88.3828 792.897 88.7266C793.069 89.0547 793.351 89.3594 793.741 89.6406C794.132 89.9062 794.663 90.1562 795.335 90.3906C796.022 90.625 796.882 90.8516 797.913 91.0703C799.851 91.4766 801.515 92 802.905 92.6406C804.312 93.2656 805.39 94.0781 806.14 95.0781C806.89 96.0625 807.265 97.3125 807.265 98.8281C807.265 99.9531 807.022 100.984 806.538 101.922C806.069 102.844 805.382 103.648 804.476 104.336C803.569 105.008 802.483 105.531 801.218 105.906C799.968 106.281 798.562 106.469 796.999 106.469C794.702 106.469 792.757 106.062 791.163 105.25C789.569 104.422 788.358 103.367 787.53 102.086C786.718 100.789 786.312 99.4453 786.312 98.0547H791.772C791.835 99.1016 792.124 99.9375 792.64 100.562C793.171 101.172 793.827 101.617 794.608 101.898C795.405 102.164 796.226 102.297 797.069 102.297C798.085 102.297 798.937 102.164 799.624 101.898C800.312 101.617 800.835 101.242 801.194 100.773C801.554 100.289 801.733 99.7422 801.733 99.1328ZM823.307 80.6406V84.7656H809.01V80.6406H823.307ZM813.135 74.4297H818.784V98.9922C818.784 99.7734 818.893 100.375 819.112 100.797C819.346 101.203 819.666 101.477 820.073 101.617C820.479 101.758 820.955 101.828 821.502 101.828C821.893 101.828 822.268 101.805 822.627 101.758C822.987 101.711 823.276 101.664 823.494 101.617L823.518 105.93C823.049 106.07 822.502 106.195 821.877 106.305C821.268 106.414 820.565 106.469 819.768 106.469C818.471 106.469 817.323 106.242 816.323 105.789C815.323 105.32 814.541 104.562 813.979 103.516C813.416 102.469 813.135 101.078 813.135 99.3438V74.4297ZM838.318 106.469C836.443 106.469 834.748 106.164 833.232 105.555C831.732 104.93 830.451 104.062 829.388 102.953C828.341 101.844 827.537 100.539 826.974 99.0391C826.412 97.5391 826.13 95.9219 826.13 94.1875V93.25C826.13 91.2656 826.42 89.4688 826.998 87.8594C827.576 86.25 828.38 84.875 829.412 83.7344C830.443 82.5781 831.662 81.6953 833.068 81.0859C834.474 80.4766 835.998 80.1719 837.638 80.1719C839.451 80.1719 841.037 80.4766 842.396 81.0859C843.755 81.6953 844.88 82.5547 845.771 83.6641C846.677 84.7578 847.349 86.0625 847.787 87.5781C848.24 89.0938 848.466 90.7656 848.466 92.5938V95.0078H828.873V90.9531H842.888V90.5078C842.857 89.4922 842.654 88.5391 842.279 87.6484C841.92 86.7578 841.365 86.0391 840.615 85.4922C839.865 84.9453 838.865 84.6719 837.615 84.6719C836.677 84.6719 835.841 84.875 835.107 85.2812C834.388 85.6719 833.787 86.2422 833.302 86.9922C832.818 87.7422 832.443 88.6484 832.177 89.7109C831.927 90.7578 831.802 91.9375 831.802 93.25V94.1875C831.802 95.2969 831.951 96.3281 832.248 97.2812C832.56 98.2188 833.013 99.0391 833.607 99.7422C834.201 100.445 834.92 101 835.763 101.406C836.607 101.797 837.568 101.992 838.646 101.992C840.005 101.992 841.216 101.719 842.279 101.172C843.341 100.625 844.263 99.8516 845.045 98.8516L848.021 101.734C847.474 102.531 846.763 103.297 845.888 104.031C845.013 104.75 843.943 105.336 842.677 105.789C841.427 106.242 839.974 106.469 838.318 106.469ZM857.993 85.7969V106H852.345V80.6406H857.665L857.993 85.7969ZM857.079 92.3828L855.157 92.3594C855.157 90.6094 855.376 88.9922 855.813 87.5078C856.251 86.0234 856.892 84.7344 857.735 83.6406C858.579 82.5312 859.626 81.6797 860.876 81.0859C862.142 80.4766 863.603 80.1719 865.259 80.1719C866.415 80.1719 867.47 80.3438 868.423 80.6875C869.392 81.0156 870.228 81.5391 870.931 82.2578C871.649 82.9766 872.196 83.8984 872.571 85.0234C872.962 86.1484 873.157 87.5078 873.157 89.1016V106H867.509V89.5938C867.509 88.3594 867.321 87.3906 866.946 86.6875C866.587 85.9844 866.063 85.4844 865.376 85.1875C864.704 84.875 863.899 84.7188 862.962 84.7188C861.899 84.7188 860.993 84.9219 860.243 85.3281C859.509 85.7344 858.907 86.2891 858.438 86.9922C857.97 87.6953 857.626 88.5078 857.407 89.4297C857.188 90.3516 857.079 91.3359 857.079 92.3828ZM872.806 90.8828L870.157 91.4688C870.157 89.9375 870.368 88.4922 870.79 87.1328C871.228 85.7578 871.86 84.5547 872.688 83.5234C873.532 82.4766 874.571 81.6562 875.806 81.0625C877.04 80.4688 878.454 80.1719 880.048 80.1719C881.345 80.1719 882.501 80.3516 883.517 80.7109C884.548 81.0547 885.423 81.6016 886.142 82.3516C886.86 83.1016 887.407 84.0781 887.782 85.2812C888.157 86.4688 888.345 87.9062 888.345 89.5938V106H882.673V89.5703C882.673 88.2891 882.485 87.2969 882.11 86.5938C881.751 85.8906 881.235 85.4062 880.563 85.1406C879.892 84.8594 879.087 84.7188 878.149 84.7188C877.274 84.7188 876.501 84.8828 875.829 85.2109C875.173 85.5234 874.618 85.9688 874.165 86.5469C873.712 87.1094 873.368 87.7578 873.134 88.4922C872.915 89.2266 872.806 90.0234 872.806 90.8828Z" fill="black" fill-opacity="0.8"/>
</svg>
